<svg width="40" height="36" viewBox="0 0 40 36" fill="none" xmlns="http://www.w3.org/2000/svg">
<path d="M19.9817 0.516846C5.65315 0.516846 0 4.93779 0 11.3403C0 12.1978 0.124885 13.022 0.283074 13.7047C0.507868 14.6872 1.53193 15.2533 2.48106 14.912L8.90017 12.5808C9.5579 12.3393 9.99916 11.7149 9.99916 11.0156V8.0183C9.99916 7.10247 10.7485 6.35316 11.6643 6.35316H28.3157C29.2315 6.35316 29.9808 7.10247 29.9808 8.0183V11.0156C29.9808 11.7149 30.4221 12.3393 31.0798 12.5808L37.4989 14.912C38.4481 15.2533 39.4721 14.6872 39.6969 13.7047C39.8468 13.022 39.98 12.2061 39.98 11.3403C39.98 4.93779 34.3268 0.516846 19.9983 0.516846H19.9817Z" fill="#80C5DE"/>
<path d="M34.0771 22.3052L27.4249 13.9878C26.917 13.3551 26.6423 12.5641 26.6423 11.7482V10.5077C26.6423 9.59184 25.893 8.84253 24.9771 8.84253H14.9863C14.0705 8.84253 13.3212 9.59184 13.3212 10.5077V11.7482C13.3212 12.5641 13.0464 13.3467 12.5385 13.9878L5.88631 22.3052C4.2295 24.37 3.33032 26.9426 3.33032 29.5902V32.1628C3.33032 34.0028 4.82062 35.4931 6.6606 35.4931H33.3028C35.1428 35.4931 36.6331 34.0028 36.6331 32.1628V29.5902C36.6331 26.9426 35.7339 24.3783 34.0771 22.3052ZM19.9817 30.4893C16.3018 30.4893 13.3212 27.5087 13.3212 23.8288C13.3212 20.1488 16.3018 17.1682 19.9817 17.1682C23.6617 17.1682 26.6423 20.1488 26.6423 23.8288C26.6423 27.5087 23.6617 30.4893 19.9817 30.4893Z" fill="#80C5DE"/>
</svg>
