<svg width="40" height="40" viewBox="0 0 40 40" fill="none" xmlns="http://www.w3.org/2000/svg">
<path d="M30.8334 34.1666H15.8334V35.8333H30.8334V34.1666Z" fill="#80C5DE"/>
<path d="M30.8334 30.8334H15.8334V32.5H30.8334V30.8334Z" fill="#80C5DE"/>
<path d="M36.6667 3.33337H11.6667V22.5C11.6667 25.7167 9.05 28.3334 5.83333 28.3334H3.33333C2.09167 28.3334 0.95 27.9417 0 27.2834V28.3334C0 30.175 1.49167 31.6667 3.33333 31.6667H10V38.75C10 39.4417 10.5583 40 11.25 40H35.4167C36.1083 40 36.6667 39.4417 36.6667 38.75V31.6667C38.5083 31.6667 40 30.175 40 28.3334V6.66671C40 4.82504 38.5083 3.33337 36.6667 3.33337ZM17.9167 19.1667H19.5833C20.275 19.1667 20.8333 19.725 20.8333 20.4167C20.8333 21.1084 20.275 21.6667 19.5833 21.6667H17.9167C17.225 21.6667 16.6667 21.1084 16.6667 20.4167C16.6667 19.725 17.225 19.1667 17.9167 19.1667ZM16.6667 15.4167C16.6667 14.725 17.225 14.1667 17.9167 14.1667H19.5833C20.275 14.1667 20.8333 14.725 20.8333 15.4167C20.8333 16.1084 20.275 16.6667 19.5833 16.6667H17.9167C17.225 16.6667 16.6667 16.1084 16.6667 15.4167ZM34.1667 37.5H12.5V29.1667H34.1667V37.5ZM24.5833 19.1667H26.25C26.9417 19.1667 27.5 19.725 27.5 20.4167C27.5 21.1084 26.9417 21.6667 26.25 21.6667H24.5833C23.8917 21.6667 23.3333 21.1084 23.3333 20.4167C23.3333 19.725 23.8917 19.1667 24.5833 19.1667ZM23.3333 15.4167C23.3333 14.725 23.8917 14.1667 24.5833 14.1667H26.25C26.9417 14.1667 27.5 14.725 27.5 15.4167C27.5 16.1084 26.9417 16.6667 26.25 16.6667H24.5833C23.8917 16.6667 23.3333 16.1084 23.3333 15.4167ZM32.9167 21.6667H31.25C30.5583 21.6667 30 21.1084 30 20.4167C30 19.725 30.5583 19.1667 31.25 19.1667H32.9167C33.6083 19.1667 34.1667 19.725 34.1667 20.4167C34.1667 21.1084 33.6083 21.6667 32.9167 21.6667ZM32.9167 16.6667H31.25C30.5583 16.6667 30 16.1084 30 15.4167C30 14.725 30.5583 14.1667 31.25 14.1667H32.9167C33.6083 14.1667 34.1667 14.725 34.1667 15.4167C34.1667 16.1084 33.6083 16.6667 32.9167 16.6667ZM34.1667 11.6667H16.6667V7.50004H34.1667V11.6667Z" fill="#80C5DE"/>
<path d="M5.83333 0H3.33333C1.49238 0 0 1.49238 0 3.33333V22.5C0 24.341 1.49238 25.8333 3.33333 25.8333H5.83333C7.67428 25.8333 9.16667 24.341 9.16667 22.5V3.33333C9.16667 1.49238 7.67428 0 5.83333 0Z" fill="#80C5DE"/>
</svg>
