<svg width="42" height="32" viewBox="0 0 42 32" fill="none" xmlns="http://www.w3.org/2000/svg">
<path d="M38.5 0H3.5C1.56625 0 0 1.59111 0 3.55556V28.4444C0 30.4089 1.56625 32 3.5 32H38.5C40.4338 32 42 30.4089 42 28.4444V3.55556C42 1.59111 40.4338 0 38.5 0ZM39.4275 4.49778L26.88 17.2444C25.3137 18.8356 23.2225 19.7156 21 19.7156C18.7775 19.7156 16.695 18.8356 15.12 17.2444L2.5725 4.49778C2.05625 3.97333 2.05625 3.12889 2.5725 2.61333C3.08875 2.08889 3.92 2.08889 4.4275 2.61333L16.975 15.36C18.0512 16.4533 19.4775 17.0489 21 17.0489C22.5225 17.0489 23.9488 16.4444 25.025 15.36L37.5725 2.61333C38.0887 2.08889 38.92 2.08889 39.4275 2.61333C39.9438 3.13778 39.9438 3.98222 39.4275 4.49778V4.49778Z" fill="#80C5DE"/>
</svg>
