<svg width="30" height="40" viewBox="0 0 30 40" fill="none" xmlns="http://www.w3.org/2000/svg">
<path d="M15.0083 0C6.72874 0 0 6.73193 0 14.9969C0 17.8046 0.792107 20.4291 2.14286 22.6869C2.65147 23.5784 13.6326 39.2835 13.6326 39.2835C13.9411 39.7334 14.458 40 15 40C15.542 40 16.0589 39.7334 16.3674 39.2835C16.3674 39.2835 27.3569 23.5868 27.8572 22.6869C29.2079 20.4374 30 17.813 30 14.9969C30 6.73193 23.2713 0 14.9917 0H15.0083ZM15.0083 19.9958C12.2485 19.9958 10.0056 17.7546 10.0056 14.9969C10.0056 12.2391 12.2485 9.99792 15.0083 9.99792C17.7682 9.99792 20.0111 12.2391 20.0111 14.9969C20.0111 17.7546 17.7682 19.9958 15.0083 19.9958Z" fill="#80C5DE"/>
</svg>
