<svg width="37" height="32" viewBox="0 0 37 32" fill="none" xmlns="http://www.w3.org/2000/svg">
<path d="M18.0025 0C5.09321 0 0 3.98305 0 9.75135C0 10.524 0.112516 11.2666 0.255035 11.8816C0.457564 12.7668 1.38019 13.2768 2.23531 12.9693L8.01861 10.869C8.6112 10.6515 9.00875 10.0889 9.00875 9.45881V6.75844C9.00875 5.93333 9.68384 5.25823 10.509 5.25823H25.511C26.3362 5.25823 27.0112 5.93333 27.0112 6.75844V9.45881C27.0112 10.0889 27.4088 10.6515 28.0014 10.869L33.7847 12.9693C34.6398 13.2768 35.5624 12.7668 35.765 11.8816C35.9 11.2666 36.02 10.5315 36.02 9.75135C36.02 3.98305 30.9268 0 18.0175 0H18.0025Z" fill="#F09038"/>
<path d="M30.7018 19.6303L24.7084 12.1367C24.2509 11.5667 24.0033 10.8541 24.0033 10.119V9.00131C24.0033 8.17619 23.3283 7.5011 22.5031 7.5011H13.5019C12.6768 7.5011 12.0017 8.17619 12.0017 9.00131V10.119C12.0017 10.8541 11.7541 11.5592 11.2966 12.1367L5.30325 19.6303C3.81054 21.4905 3.00043 23.8084 3.00043 26.1937V28.5115C3.00043 30.1692 4.34311 31.5119 6.00084 31.5119H30.0042C31.6619 31.5119 33.0046 30.1692 33.0046 28.5115V26.1937C33.0046 23.8084 32.1945 21.498 30.7018 19.6303ZM18.0025 27.0038C14.6871 27.0038 12.0017 24.3184 12.0017 21.003C12.0017 17.6875 14.6871 15.0021 18.0025 15.0021C21.318 15.0021 24.0033 17.6875 24.0033 21.003C24.0033 24.3184 21.318 27.0038 18.0025 27.0038Z" fill="#F09038"/>
</svg>
