<svg width="38" height="38" viewBox="0 0 38 38" fill="none" xmlns="http://www.w3.org/2000/svg">
<path d="M19 0C15.2422 0 11.5687 1.11431 8.44419 3.20206C5.31966 5.2898 2.88436 8.25721 1.4463 11.729C0.00823092 15.2008 -0.36803 19.0211 0.365089 22.7067C1.09821 26.3923 2.90778 29.7778 5.56498 32.435C8.22218 35.0922 11.6077 36.9018 15.2933 37.6349C18.979 38.368 22.7992 37.9918 26.271 36.5537C29.7428 35.1156 32.7102 32.6804 34.798 29.5558C36.8857 26.4313 38 22.7578 38 19C38 13.9609 35.9982 9.12816 32.435 5.56497C28.8718 2.00178 24.0392 0 19 0ZM35.33 17.65H28.18C28 11.73 26.62 6.65001 24.51 3.54001C27.4786 4.6037 30.0779 6.50015 31.9967 9.0025C33.9156 11.5049 35.0728 14.5071 35.33 17.65ZM19 35.34C16 35.34 12.75 29.22 12.45 20.28H25.55C25.26 29.26 21.97 35.38 19 35.38V35.34ZM12.45 17.65C12.75 8.70999 16.04 2.59 19 2.59C21.96 2.59 25.26 8.70999 25.55 17.65H12.45ZM13.5 3.54001C11.39 6.70001 10.01 11.73 9.82999 17.65H2.68003C2.94457 14.5142 4.1052 11.5205 6.0236 9.02588C7.942 6.53125 10.5373 4.64085 13.5 3.57999V3.54001ZM2.68003 20.28H9.79002C9.97002 26.2 11.35 31.23 13.46 34.39C10.5054 33.3218 7.91924 31.4284 6.00846 28.9345C4.09768 26.4406 2.94252 23.4508 2.68003 20.32V20.28ZM24.51 34.39C26.62 31.23 28 26.2 28.18 20.28H35.33C35.079 23.4296 33.9247 26.4398 32.0055 28.9497C30.0863 31.4596 27.4837 33.3624 24.51 34.43V34.39Z" fill="#F09038"/>
</svg>
