<svg width="102" height="102" viewBox="0 0 102 102" fill="none" xmlns="http://www.w3.org/2000/svg">
<path d="M1 101L101 1" stroke="white" stroke-linecap="round" stroke-linejoin="round"/>
<path d="M1 0.999996L101 101" stroke="white" stroke-linecap="round" stroke-linejoin="round"/>
<path d="M26.4554 57.8432C28.5588 57.8432 30.4749 56.9477 31.8494 55.5106L30.0167 53.8029C29.1212 54.8234 27.8508 55.469 26.4554 55.469C23.8105 55.469 21.5821 53.1781 21.5821 50.4291C21.5821 47.7008 23.8105 45.41 26.4554 45.41C27.8299 45.41 29.1212 46.0556 29.9959 47.0761L31.8494 45.3475C30.4749 43.9313 28.5588 43.0358 26.4554 43.0358C22.3735 43.0358 18.9372 46.4096 18.9372 50.4291C18.9372 54.4485 22.3735 57.8432 26.4554 57.8432ZM34.4616 57.5933H37.0649V48.0341L41.7716 56.7602L46.4991 48.0341V57.5933H49.0815V43.2857H46.4991L41.7716 52.0119L37.0649 43.2857H34.4616V57.5933ZM63.4366 45.6599V43.2857H52.6695V57.5933H63.4366V55.2191H55.2728V51.4912H62.666V49.117H55.2728V45.6599H63.4366ZM78.0507 57.5933L74.4686 52.5117C76.5304 51.8661 77.9257 50.2 77.9257 48.0341C77.9257 45.2434 75.6349 43.2857 72.5734 43.2857H66.3464V57.5933H68.9497V52.7824H71.7195L75.0934 57.5933H78.0507ZM68.9497 45.6807H72.2818C74.0521 45.6807 75.2808 46.5762 75.2808 48.0341C75.2808 49.4919 74.0521 50.3874 72.2818 50.3874H68.9497V45.6807Z" fill="#2B5D7A"/>
</svg>
