<svg width="24" height="25" viewBox="0 0 24 25" fill="none" xmlns="http://www.w3.org/2000/svg">
<g clip-path="url(#clip0_10_1397)">
<path d="M12 0.501953C9.62665 0.501953 7.30656 1.20204 5.33317 2.5137C3.35978 3.82537 1.8217 5.68969 0.91345 7.87091C0.00519848 10.0521 -0.23244 12.4523 0.230582 14.7678C0.693605 17.0834 1.83649 19.2104 3.51472 20.8798C5.19295 22.5493 7.33116 23.6862 9.65893 24.1467C11.9867 24.6073 14.3995 24.371 16.5922 23.4675C18.7849 22.564 20.6591 21.034 21.9777 19.0709C23.2962 17.1079 24 14.8 24 12.439C24 9.27312 22.7357 6.23688 20.4853 3.99824C18.2348 1.75961 15.1826 0.501953 12 0.501953ZM22.3137 11.5909H17.7979C17.6842 7.87153 16.8126 4.67994 15.48 2.72603C17.3549 3.39431 18.9965 4.58579 20.2085 6.15793C21.4204 7.73008 22.1513 9.6163 22.3137 11.5909ZM12 22.7049C10.1053 22.7049 8.05262 18.8599 7.86315 13.2432H16.1369C15.9537 18.8851 13.8758 22.7301 12 22.7301V22.7049ZM7.86315 11.5909C8.05262 5.97416 10.1306 2.12916 12 2.12916C13.8695 2.12916 15.9537 5.97416 16.1369 11.5909H7.86315ZM8.52634 2.72603C7.19371 4.71135 6.3221 7.87153 6.20842 11.5909H1.69265C1.85973 9.62073 2.59276 7.73991 3.80438 6.17262C5.016 4.60532 6.65512 3.41765 8.52634 2.75114V2.72603ZM1.69265 13.2432H6.18317C6.29685 16.9626 7.16842 20.1227 8.50105 22.1081C6.63497 21.437 5.00162 20.2474 3.79482 18.6806C2.58801 17.1137 1.85843 15.2353 1.69265 13.2684V13.2432ZM15.48 22.1081C16.8126 20.1227 17.6842 16.9626 17.7979 13.2432H22.3137C22.1552 15.222 21.4261 17.1132 20.214 18.6901C19.0019 20.267 17.3581 21.4625 15.48 22.1332V22.1081Z" fill="#F09038"/>
</g>
<defs>
<clipPath id="clip0_10_1397">
<rect width="24" height="23.8742" fill="white" transform="translate(0 0.501953)"/>
</clipPath>
</defs>
</svg>
