<svg width="91" height="47" viewBox="0 0 91 47" fill="none" xmlns="http://www.w3.org/2000/svg">
<g clip-path="url(#clip0_8_922)">
<path d="M23.4951 20.4145H27.6044V4.08289H31.7137V20.4145H35.8229V4.08289H39.9322V20.4145H44.0415V0H23.4951V20.4145Z" fill="#004E7D"/>
<path d="M0 20.4145H20.5464V16.3316H4.10927V4.08289H20.5464V0H0V20.4145Z" fill="#004E7D"/>
<path fill-rule="evenodd" clip-rule="evenodd" d="M37.6892 39.816L39.4302 39.1303C40.183 40.938 40.6535 42.1068 40.8104 42.6522L39.0224 43.182C38.6469 42.0342 38.2017 40.9102 37.6892 39.816ZM35.0229 40.1277L36.9207 39.7069C37.3774 41.1943 37.7389 42.7089 38.0029 44.2417L36.0737 44.5378C35.8256 43.0509 35.4957 41.5787 35.0856 40.1277H35.0229ZM32.5291 40.1277H34.4896C34.6778 42.4029 34.7719 44.2417 34.7562 45.6286H32.8428C32.9057 43.8049 32.8007 41.9792 32.5291 40.1744V40.1277ZM29.8628 41.9509C28.2355 43.0323 26.532 43.9957 24.7654 44.8339L23.7616 42.8392L25.8947 41.9354V36.4811H24.4047V34.393H25.8947V29.7179H24.4047V27.6141H29.4707V29.7179H27.9022V34.393H29.2668V36.4811H27.9022V40.7666L28.7492 40.1433L29.9255 41.7017C30.0667 41.1406 30.2078 40.5172 30.3333 39.8783L32.4036 40.4549C31.9258 42.6064 31.0192 44.6412 29.7373 46.439C29.3072 45.9158 28.7733 45.4862 28.1689 45.1768C28.7529 44.4145 29.2378 43.5819 29.6118 42.6989C29.6789 42.4748 29.7628 42.2561 29.8628 42.0444V41.9509ZM35.3993 33.754H32.2625V32.6943H35.3993V33.754ZM35.3993 30.7932H32.2625V29.8114C32.2603 29.7815 32.2644 29.7513 32.2744 29.723C32.2845 29.6947 32.3003 29.6689 32.3209 29.6469C32.3416 29.625 32.3665 29.6075 32.3942 29.5956C32.4219 29.5837 32.4518 29.5775 32.482 29.5776H35.3366L35.3993 30.7932ZM32.2625 36.7149V35.5928H35.3993V36.7149H32.2625ZM30.2078 37.5097V38.3512C30.2078 38.6005 30.3333 38.7407 30.5686 38.7407H40.6535C40.8261 38.7407 40.9202 38.7407 40.9202 38.8965C41.0089 40.3861 41.0089 41.8795 40.9202 43.369C40.8555 43.8449 40.6478 44.2903 40.3242 44.6469C40.1096 44.8122 39.8424 44.8952 39.5713 44.8807C38.8021 44.8096 38.0376 44.6951 37.2814 44.5378L37.4853 46.7507C39.7282 46.9221 41.1554 46.7507 41.7828 46.2052C42.3293 45.741 42.6816 45.0908 42.7709 44.382C43.0537 42.0035 43.1534 39.6071 43.0689 37.2136C43.0689 36.9019 42.9434 36.7305 42.6768 36.7149H37.4539V35.5928H42.0337V33.754H37.4539V32.6943H41.9553V30.8555H37.4539V29.5776H42.4415V27.5674H30.7254C30.6624 27.5592 30.5982 27.5658 30.5382 27.5867C30.4782 27.6075 30.4239 27.6421 30.3798 27.6875C30.3356 27.7329 30.3027 27.788 30.2837 27.8483C30.2648 27.9086 30.2602 27.9725 30.2706 28.0348L30.2078 37.5097ZM9.5203 39.8783V46.7195H11.6377V39.9874H15.6058C15.7313 39.9874 15.794 39.9874 15.794 40.1588V43.6028C15.794 43.8677 15.6058 44.0858 15.2294 44.2417C14.2356 44.3751 13.224 44.2461 12.2964 43.8677V46.2831C13.7988 46.7164 15.3999 46.6728 16.8762 46.1585C17.168 46.043 17.4182 45.8431 17.5944 45.5847C17.7706 45.3263 17.8646 45.0214 17.8643 44.7093V38.4758C17.8717 38.4045 17.863 38.3323 17.8388 38.2647C17.8146 38.1971 17.7755 38.1357 17.7244 38.0849C17.6734 38.0342 17.6116 37.9954 17.5435 37.9714C17.4755 37.9473 17.4029 37.9386 17.331 37.946H11.5749V36.3876H9.45758V37.946H6.5403C7.295 37.2617 8.00239 36.5276 8.65766 35.7487C8.67457 35.7022 8.70806 35.6633 8.75179 35.6396H19.1034V33.5514H10.2888C10.5084 33.2086 10.728 32.8657 10.9789 32.5073L9.41052 31.5099C9.73989 31.3853 10.132 31.2606 10.5711 31.136C12.5317 31.697 14.6334 32.4138 16.8448 33.2709L17.4252 31.2295L13.708 29.8737C14.3824 29.5776 15.1196 29.2347 15.8881 28.8607L14.9471 26.9128C13.5553 27.6611 12.1203 28.3272 10.6496 28.9075C8.11596 28.121 5.52581 27.5271 2.90155 27.131L2.41534 29.2036C3.70145 29.3906 5.09736 29.6711 6.61873 30.0451C4.64257 30.4611 2.63128 30.6907 0.611662 30.7308L1.08219 32.819C3.3372 32.7909 5.58056 32.4927 7.76367 31.9307L8.98704 31.619C8.5322 32.3359 8.09304 32.9748 7.68525 33.5514H0.439134V35.6396H5.95997C4.65383 36.8852 3.21251 37.9827 1.6625 38.9121C1.01945 39.2082 0.392078 39.5355 -0.250977 39.8472L0.925342 41.7017C1.69387 41.2965 2.49376 40.8757 3.19955 40.4082V46.1585H5.33261V40.2212C5.33261 40.1121 5.33261 40.0653 5.50514 40.0497L9.5203 39.8783Z" fill="#004E7D"/>
<path d="M46.9741 20.4145H67.5205V16.3316H51.0834V12.2487H67.5205V8.16578H51.0834V4.08289H67.5205V0H46.9741V20.4145Z" fill="#004E7D"/>
<path d="M91 0H70.4536V4.08289H86.8907V8.16578H70.4536V20.4145H74.5629V12.2487H78.6722L85.6203 20.4145H91L84.0519 12.2487H91V0Z" fill="#004E7D"/>
<path d="M62.4388 38.7874C63.1563 38.8001 63.8739 38.7689 64.5875 38.6939C64.519 39.3931 64.4876 40.0954 64.4934 40.7978V44.8184C64.4921 45.547 64.5288 46.2751 64.6032 47H62.2976V46.1896H51.1932V46.9688H48.966C48.966 46.3455 49.0758 45.5976 49.0758 44.8184V40.6419C49.0758 40.0186 49.0758 39.3952 49.0758 38.7095C49.4836 38.7095 50.2835 38.7095 51.1932 38.7095H54.0634C54.0634 38.3667 54.0634 38.3668 54.0634 37.9772H49.5777C48.8385 37.9647 48.0993 38.0063 47.3662 38.1018V36.1071C48.099 36.2046 48.8388 36.2411 49.5777 36.2162H64.3993C65.0025 36.2301 65.6059 36.1936 66.203 36.1071V38.0863C65.4166 38.0015 64.6256 37.965 63.8347 37.9772H59.2705V38.7095L62.4388 38.7874ZM55.177 30.8087C55.6288 30.8373 56.0824 30.8059 56.5258 30.7152V32.0709C55.9455 32.0709 55.7416 32.0709 55.3181 32.0709H54.5339C55.1443 32.5853 55.8394 32.9912 56.5886 33.2709C56.271 33.5192 56.0047 33.8261 55.8043 34.1748C56.0915 34.1944 56.3798 34.1944 56.667 34.1748V35.811C56.1145 35.7567 55.5596 35.7308 55.0044 35.7331H49.5463H47.9779C48.008 35.1361 48.008 34.538 47.9779 33.941V28.7516C47.9779 27.9413 47.9779 27.4894 47.9779 26.7102C48.5522 26.7513 49.1288 26.7513 49.7032 26.7102H54.7535C55.4086 26.7122 56.0632 26.6759 56.714 26.6012V28.3153C55.9141 28.3153 55.5847 28.3153 55.0044 28.3153H52.7616C52.6658 28.5074 52.582 28.7052 52.5106 28.9075H54.8476C55.3097 28.927 55.7726 28.8957 56.2278 28.814V30.2165C55.7712 30.1464 55.3095 30.1151 54.8476 30.123H54.3143C54.2923 30.3639 54.2557 30.6033 54.2045 30.8399L55.177 30.8087ZM51.3186 32.0086C50.9742 31.9803 50.6279 31.9803 50.2835 32.0086V30.6841C50.5393 30.7042 50.7962 30.7042 51.052 30.6841C50.7819 30.3786 50.4576 30.125 50.0953 29.936C50.6637 29.4606 51.1009 28.8493 51.3657 28.1595H49.7973V33.9878H50.8638C50.6518 33.6428 50.3812 33.3369 50.0639 33.0839C50.871 32.9289 51.6011 32.5057 52.1342 31.8839L51.3186 32.0086ZM52.7302 30.8087C52.7302 30.6061 52.7302 30.5282 52.8086 30.0919H51.7892C51.6174 30.3562 51.4118 30.5971 51.1775 30.8087H52.7459H52.7302ZM52.7302 42.5743C52.3394 42.0657 51.8679 41.6236 51.3343 41.2653C51.7602 41.2553 52.1785 41.1508 52.5585 40.9594C52.9384 40.7679 53.2704 40.4943 53.5301 40.1588H51.1461V42.5743H52.7302ZM51.1618 43.9768V44.6158H62.2662V43.9768H51.1618ZM55.1927 34.1124C54.5037 33.7148 53.9013 33.1851 53.4203 32.554C52.9566 33.2183 52.3306 33.7546 51.601 34.1124H55.1927ZM62.2662 42.5743V40.1588H60.6978C61.1567 40.4395 61.6607 40.6398 62.1878 40.751C61.9839 41.9353 61.6702 42.0912 59.5999 42.0912C57.8119 42.0912 57.3414 41.8731 57.3414 41.016V40.1588H55.6945C55.4894 40.7485 55.1397 41.2781 54.6769 41.6999C54.2141 42.1216 53.6529 42.4222 53.0439 42.5743H62.2662ZM57.31 38.0551H55.9769C55.9961 38.2988 55.9961 38.5437 55.9769 38.7874H57.3571L57.31 38.0551ZM59.7725 28.2841C59.7513 28.9011 59.4931 29.4866 59.051 29.9204C58.7496 30.2162 58.3994 30.4587 58.0158 30.6373H63.0191C63.4396 30.6569 63.861 30.6255 64.2738 30.5438L65.2306 31.5723C65.0885 31.6905 64.9573 31.8208 64.8385 31.9619C64.2408 32.6571 63.5675 33.2841 62.8309 33.8319C63.9619 34.1712 65.1321 34.365 66.3128 34.4085C65.9366 34.9371 65.6455 35.5207 65.4501 36.1383C63.9505 35.9412 62.4904 35.5154 61.1213 34.8761C60.0197 35.4284 58.8486 35.8319 57.6394 36.0759C57.4475 35.4953 57.1841 34.9405 56.8552 34.4241C57.7551 34.3196 58.6394 34.1104 59.4901 33.8008C58.8742 33.3087 58.3443 32.719 57.9217 32.0554C57.614 32.0259 57.3041 32.0259 56.9963 32.0554V30.4971C57.1838 30.5201 57.3735 30.5201 57.561 30.4971C57.3321 30.0017 57.013 29.5526 56.6199 29.1724C57.1205 29.0629 57.5718 28.7949 57.906 28.4088C58.1718 28.0225 58.319 27.5677 58.3295 27.0998C58.3295 26.8816 58.3295 26.7103 58.3295 26.5077C58.8045 26.5446 59.2817 26.5446 59.7568 26.5077H62.1721C62.6367 26.5438 63.1034 26.5438 63.568 26.5077C63.4948 26.8718 63.4632 27.2429 63.4739 27.6141V28.44C63.4739 28.7517 63.4739 28.7672 64.0856 28.7672C64.6973 28.7672 64.8541 28.7673 64.9169 27.3648C65.4019 27.643 65.9331 27.833 66.4853 27.9258C66.4069 28.9699 66.2187 29.4841 65.8893 29.8114C65.5599 30.1387 65.1051 30.1698 63.5994 30.1698C62.0937 30.1698 61.8114 30.0296 61.8114 29.1257V28.175L59.7725 28.2841ZM59.2392 40.377C59.2392 40.751 59.3333 40.8289 59.945 40.8289C60.5567 40.8289 60.6037 40.751 60.6508 40.1588H59.2392V40.377ZM59.7411 32.0242C60.108 32.4538 60.5555 32.8084 61.0585 33.0683C61.6153 32.7734 62.1407 32.4236 62.627 32.0242H59.7411Z" fill="#004E7D"/>
<path d="M88.2868 39.9874C88.2868 41.0627 88.2868 41.3743 88.2868 41.9042C87.8477 41.9042 87.5497 41.9042 86.9694 41.9042C87.9636 43.0899 89.2051 44.047 90.6081 44.7093C90.1238 45.2998 89.7081 45.9428 89.3691 46.626C87.7233 45.6696 86.2755 44.4109 85.1029 42.9171L86.4832 41.9042H84.0051V45.0209C84.0374 45.2792 84.0042 45.5415 83.9083 45.7838C83.8124 46.0261 83.6569 46.2406 83.4561 46.4078C82.8988 46.7501 82.2385 46.8879 81.5897 46.7974C80.8211 46.7974 80.0212 46.7974 79.19 46.7039C79.1527 45.9497 78.9718 45.2095 78.6567 44.5223C79.4226 44.6622 80.1993 44.7352 80.978 44.7404C81.6681 44.7404 81.7779 44.7404 81.7779 44.2106V41.8887H78.5156L79.9115 42.7145C78.9153 44.2441 77.6191 45.5585 76.1002 46.5792C75.6894 45.9948 75.1985 45.4703 74.6416 45.0209C75.9968 44.2943 77.1294 43.2175 77.9196 41.9042H77.6059C77.6378 41.2708 77.6378 40.6363 77.6059 40.003V37.8681C77.1859 38.1501 76.7513 38.4102 76.3041 38.6473C76.1818 38.2124 76.019 37.7899 75.8179 37.385C75.7414 39.228 75.4143 41.0522 74.8455 42.808C74.4067 44.1878 73.7272 45.4801 72.8379 46.626C72.3599 45.9579 71.7897 45.3598 71.144 44.8495C72.5851 43.0174 73.4132 40.7834 73.5123 38.4603C72.9006 38.8654 72.0694 39.3485 71.5831 39.6134C71.4366 39.678 71.2994 39.7618 71.1753 39.8627L70.5166 37.5097C71.6237 37.1992 72.6802 36.7321 73.6534 36.1227C73.6534 35.3747 73.6534 35.0474 73.6534 34.0345L72.085 35.0942C71.7481 33.6598 71.2207 32.2764 70.5166 30.9802L72.085 29.9672C72.7183 31.084 73.2435 32.2581 73.6534 33.4735V32.6943C73.6534 32.3203 73.6534 31.136 73.6534 30.3412C73.6948 29.4203 73.6581 28.4976 73.5437 27.5829C74.4082 27.6755 75.2779 27.712 76.1472 27.692H80.5702V27.5362C80.5794 27.0972 80.5426 26.6585 80.4604 26.2271H83.064C82.9938 26.6598 82.9623 27.0979 82.9699 27.5362V27.692H87.9888C88.8534 27.7179 89.7187 27.6763 90.5768 27.5674V29.7802C89.8003 29.7038 89.0199 29.6726 88.2398 29.6867H83.5345C83.362 30.2321 83.2993 30.4658 83.1738 30.8087H88.0359C88.7643 30.8279 89.4932 30.7914 90.216 30.6996V32.819C89.5197 32.7248 88.8167 32.6883 88.1143 32.7099H85.2755C85.7039 33.3555 86.2334 33.9289 86.8439 34.4085C87.4177 33.9513 87.9061 33.3975 88.2868 32.7722L89.9807 33.8787C89.4847 34.4241 88.9612 34.9442 88.4123 35.437C89.2161 35.8961 90.0751 36.2521 90.9689 36.4967C90.571 37.1371 90.2648 37.8294 90.0592 38.5538C89.437 38.3017 88.8341 38.0048 88.2555 37.6655L88.2868 39.9874ZM76.0688 32.8346C76.0688 34.1592 76.0688 35.1721 76.0688 36.4967C76.7162 36.1988 77.3267 35.8275 77.8882 35.3902C77.4213 34.8872 76.8946 34.4425 76.3198 34.0657L77.6373 32.9281C78.1553 33.3394 78.6428 33.7872 79.0959 34.2683C79.5501 33.7981 79.9451 33.2748 80.2722 32.7099H78.4842C77.8345 32.6917 77.1843 32.7229 76.5393 32.8034V30.7308C77.2184 30.7705 77.8992 30.7705 78.5783 30.7308H81.1819C81.3274 30.3653 81.4479 29.9905 81.5426 29.6088H76.0845L76.0688 32.8346ZM79.8017 37.6187H86.1695V36.6993H79.8017V37.6187ZM79.8017 40.1433H86.1695V39.1926H79.8017V40.1433ZM84.8677 34.9384C84.2545 34.2683 83.7276 33.525 83.2993 32.7255H82.4837C82.0869 33.5071 81.6142 34.2483 81.0721 34.9384H84.8677Z" fill="#004E7D"/>
</g>
<defs>
<clipPath id="clip0_8_922">
<rect width="91" height="47" fill="white"/>
</clipPath>
</defs>
</svg>
