<svg width="212" height="49" viewBox="0 0 212 49" fill="none" xmlns="http://www.w3.org/2000/svg">
<g clip-path="url(#clip0_23_79)">
<path d="M48.7057 0H0V48.7057H48.7057V0Z" fill="#ECF7FC"/>
<path d="M14.634 22.9828H16.4493V15.7214H18.2646V22.9828H20.08V15.7214H21.8953V22.9828H23.7106V13.9147H14.634V22.9828Z" fill="#00477B"/>
<path d="M4.26434 22.9828H13.3324V21.1674H6.07968V15.7214H13.3324V13.9147H4.26434V22.9828Z" fill="#00477B"/>
<path fill-rule="evenodd" clip-rule="evenodd" d="M20.902 31.6056L21.6727 31.3059C22.0066 32.1023 22.2121 32.6246 22.2806 32.8644L21.4928 33.1041C21.3224 32.5946 21.1252 32.0944 20.902 31.6056ZM19.7289 31.7426L20.5852 31.5543C20.7836 32.2175 20.9409 32.8924 21.0561 33.5751L20.1999 33.7035C20.08 33.0699 19.9258 32.4448 19.7289 31.7426ZM18.6243 31.7426H19.4806C19.5662 32.7531 19.609 33.5751 19.6005 34.1916H18.7442C18.7802 33.3819 18.74 32.5706 18.6243 31.7683V31.7426ZM17.4512 32.5476C16.7303 33.026 15.9779 33.4551 15.1991 33.832L14.7539 32.9757L15.6958 32.5647V30.1499H15.0364V29.2166H15.6958V27.1701H15.0364V26.2196H17.2799V27.1444H16.612V29.1909H17.2114V30.1243H16.612V32.0252L16.9802 31.7512L17.5025 32.4191C17.571 32.1622 17.631 31.8968 17.6824 31.5628L18.5986 31.8197C18.3889 32.7782 17.9869 33.6841 17.4169 34.4828C17.2224 34.25 16.9837 34.0579 16.7148 33.9176C16.9729 33.5768 17.1885 33.2059 17.357 32.813C17.3836 32.7313 17.415 32.6512 17.4512 32.5732V32.5476ZM19.8916 28.9083H18.5301V28.4117H19.8916V28.9083ZM19.8916 27.5896H18.5301V27.1529C18.5301 27.0958 18.5643 27.0616 18.6328 27.0502H19.8916V27.5896ZM18.5301 30.227V29.7218H19.8916V30.227H18.5301ZM17.631 30.5781V30.9463C17.631 31.0662 17.6824 31.1176 17.7851 31.1176H22.2378C22.3149 31.1176 22.3577 31.1175 22.3577 31.1946C22.3998 31.8561 22.3998 32.5197 22.3577 33.1812C22.3227 33.3904 22.2309 33.5859 22.0922 33.7464C21.9964 33.8186 21.8782 33.8549 21.7583 33.8491C21.4185 33.8194 21.081 33.7679 20.7479 33.695L20.8421 34.6883C21.4827 34.8239 22.1505 34.7363 22.7345 34.44C22.9798 34.238 23.139 33.9502 23.1797 33.635C23.2873 32.594 23.3188 31.5466 23.2739 30.501C23.2739 30.364 23.2226 30.2955 23.1027 30.2869H20.7993V29.7817H22.8201V28.9255H20.7993V28.4288H22.7858V27.5725H20.7993V27.0759H22.9999V26.2196H17.8622C17.8348 26.2167 17.8072 26.22 17.7814 26.2295C17.7556 26.2389 17.7323 26.2541 17.7132 26.274C17.6942 26.2938 17.68 26.3178 17.6717 26.344C17.6634 26.3702 17.6612 26.3979 17.6652 26.4251L17.631 30.5781ZM8.48582 31.6313V34.6198H9.42774V31.6313H11.1403C11.1917 31.6313 11.2174 31.6313 11.2174 31.6998V33.224C11.2174 33.3439 11.1403 33.4381 10.9691 33.5066C10.5321 33.5746 10.0848 33.5213 9.67606 33.3525V34.4228C10.3395 34.6138 11.046 34.5929 11.6969 34.3629C11.8255 34.3116 11.9357 34.2231 12.0136 34.1086C12.0914 33.9942 12.1332 33.8591 12.1336 33.7207V30.9292C12.1336 30.775 12.0566 30.698 11.8939 30.698H9.32499V29.9787H8.38307V30.698H7.09864C7.43306 30.3899 7.74767 30.061 8.04056 29.7132C8.03529 29.6995 8.03529 29.6842 8.04056 29.6704H12.6131V28.7884H8.72558C8.81977 28.6343 8.91397 28.4887 9.02529 28.3261L8.36594 27.8893C8.53313 27.8207 8.70479 27.7635 8.87972 27.7181C9.73601 27.9664 10.6779 28.2832 11.6712 28.6686L11.9281 27.7609L10.284 27.1615L11.2516 26.7077L10.8321 25.8514C10.2182 26.1788 9.58311 26.4649 8.93109 26.7077C7.81044 26.3607 6.66558 26.0973 5.50594 25.9199L5.29187 26.8447C5.91776 26.9357 6.5381 27.0615 7.15001 27.2214C6.27603 27.4012 5.38758 27.5015 4.49552 27.5211L4.70102 28.4545C5.69513 28.4415 6.68408 28.3093 7.64666 28.0606L8.19468 27.915C7.98918 28.2404 7.80079 28.523 7.62097 28.7713H4.41845V29.7047H7.00444C6.42778 30.2577 5.79001 30.7431 5.10348 31.1518L4.24719 31.5799L4.76097 32.3934C5.10349 32.2222 5.43743 32.0252 5.77139 31.8197V34.3886H6.71331V31.7426C6.71185 31.7333 6.7126 31.7238 6.71553 31.7148C6.71845 31.7058 6.72346 31.6977 6.73014 31.691C6.73682 31.6843 6.74498 31.6793 6.75396 31.6764C6.76294 31.6734 6.77248 31.6727 6.78181 31.6741L8.48582 31.6313Z" fill="#00477B"/>
<path d="M25.0036 22.9828H34.0803V21.1674H26.819V19.3521H34.0803V17.5368H26.819V15.7214H34.0803V13.9147H25.0036V22.9828Z" fill="#00477B"/>
<path d="M44.45 13.9147H35.3733V15.7214H42.6346V17.5368H35.3733V22.9828H37.1886V19.3521H39.004L42.0695 22.9828H44.45L41.3759 19.3521H44.45V13.9147Z" fill="#00477B"/>
<path d="M60.8907 40.1171V37.5483C60.5653 37.8223 60.2656 38.062 59.9916 38.2676C59.7262 38.4731 59.4607 38.67 59.1867 38.8498C58.9127 39.0296 58.6044 39.2352 58.2534 39.4578C58.0992 39.1581 57.9708 38.9098 57.8595 38.7214C57.7616 38.5418 57.6499 38.37 57.5255 38.2076C57.4142 38.0535 57.2686 37.8737 57.0888 37.6596C59.1587 36.539 60.9818 35.013 62.4492 33.1726H59.8803H58.4503L57.3885 33.2497V31.1261C57.6882 31.1261 58.0307 31.1946 58.4075 31.2117C58.7843 31.2289 59.2638 31.2117 59.8803 31.2117H63.7165C63.859 30.9533 63.9876 30.6875 64.1018 30.4154C64.2021 30.1822 64.274 29.9379 64.3159 29.6875L66.6193 30.0386L66.4566 30.3383L66.234 30.7665L66.1141 30.9977L65.9942 31.2117H72.639C73.2298 31.2117 73.7094 31.2117 74.0861 31.2117C74.4629 31.2117 74.7883 31.1603 75.0966 31.1261V33.2497C74.7883 33.2497 74.4543 33.1897 74.1118 33.1726H72.639H64.8297C64.5985 33.498 64.3844 33.7977 64.1874 34.0289C63.9905 34.2601 63.7079 34.6283 63.3311 35.0308H65.9428C65.9428 34.6883 65.9428 34.4399 65.9428 34.2687C65.9428 34.0974 65.9428 33.9775 65.9428 33.8833C65.9428 33.7892 65.9428 33.6864 65.9 33.558H68.0921C68.0232 34.0457 67.9946 34.5383 68.0065 35.0308H71.6029C72.2147 35.0381 72.8264 35.0124 73.4354 34.9537C73.4354 35.1935 73.384 35.4332 73.3754 35.673C73.3668 35.9127 73.3754 36.1868 73.3754 36.5293V40.0229C73.4063 40.2927 73.3744 40.566 73.2823 40.8215C73.1902 41.0769 73.0404 41.3077 72.8445 41.4958C72.2614 41.8141 71.5965 41.9512 70.935 41.8897H70.25H69.5992C69.5643 41.5675 69.5129 41.2474 69.445 40.9306C69.3765 40.6566 69.2738 40.3141 69.1282 39.8945C69.4194 39.9459 69.7019 39.9887 69.9845 40.0144C70.207 40.0273 70.43 40.0273 70.6524 40.0144C70.832 40.0352 71.0138 40.0024 71.1748 39.9202C71.2264 39.877 71.2662 39.8212 71.2902 39.7582C71.3142 39.6953 71.3216 39.6272 71.3118 39.5605V36.8889H68.015V40.9734C68.015 41.4872 68.015 41.8982 68.015 42.2065C68.015 42.5147 68.0664 42.8059 68.1007 43.0628H65.8315C65.8743 42.7802 65.9 42.4805 65.9171 42.1637C65.9343 41.8468 65.9171 41.4444 65.9171 40.982V36.8975H62.8516V40.0829C62.8516 40.5967 62.8516 40.9991 62.8516 41.2903C62.8571 41.5771 62.8829 41.8633 62.9287 42.1465H60.7794C60.7794 41.864 60.8479 41.5643 60.865 41.2903C60.8822 41.0162 60.8907 40.5538 60.8907 40.1171ZM60.1886 26.2196L62.0638 25.0465C62.5005 25.1749 62.9886 25.329 63.5452 25.5174C64.1018 25.7058 64.6584 25.8942 65.2578 26.1082C65.8572 26.3223 66.3967 26.5193 66.9704 26.7248C67.6814 26.4251 68.376 26.0878 69.0512 25.7144C69.5489 25.4305 70.019 25.1008 70.4555 24.7296L72.7418 25.8514L72.305 26.0483L71.8855 26.2966L71.0806 26.7505L70.1472 27.2642C69.8332 27.4355 69.5478 27.5725 69.2909 27.6753C69.3741 27.7282 69.4632 27.7714 69.5564 27.8037L70.3613 28.1633L70.7723 28.3517L71.1662 28.5487L71.9625 28.9254L72.5106 29.1909L73.1956 29.5163L71.3203 30.7665C69.9466 29.9606 68.5156 29.2566 67.0389 28.66C66.2511 28.9426 65.4804 29.1823 64.7183 29.3964C63.9562 29.6105 63.1513 29.8074 62.3036 29.9872C61.4559 30.167 60.5054 30.3383 59.4607 30.5096C59.3063 30.1899 59.1259 29.8834 58.9213 29.5933C58.7329 29.3365 58.5188 29.071 58.2876 28.8141L60.1115 28.5915C60.6253 28.5144 61.1134 28.4374 61.5586 28.3517C62.0039 28.2661 62.4577 28.1633 62.9116 28.0435C63.3654 27.9236 63.8963 27.7866 64.4871 27.6239C63.9562 27.4184 63.4767 27.2385 63.04 27.0844L61.7299 26.6563C61.2675 26.5364 60.7623 26.3908 60.1886 26.2196Z" fill="#00477B"/>
<path d="M81.0306 27.9321V31.4943H81.3646H82.0838L82.6576 31.4172V33.5237C82.2289 33.4684 81.7968 33.4426 81.3646 33.4466H81.0306V37.3513C81.3218 37.2314 81.553 37.1458 81.7071 37.0944L82.178 36.9232L82.8117 36.6834L82.9145 38.6186L81.6043 39.1752L80.6453 39.5691L79.6092 39.9459L78.1107 40.4768L77.4942 40.6908L77.0746 40.8535L76.6464 38.5416C76.8691 38.5416 77.0746 38.4816 77.2544 38.4474L77.9137 38.2932C78.1792 38.2247 78.5388 38.1134 79.0012 37.9678V33.4124H78.6501C78.359 33.4124 78.1107 33.4124 77.9137 33.4124C77.6986 33.4243 77.4843 33.4471 77.2715 33.4809V31.3573C77.463 31.3996 77.6579 31.4254 77.8538 31.4344C78.0507 31.4344 78.2991 31.4344 78.6159 31.4344H79.0012V27.9321H78.5388H77.6055C77.3819 27.9394 77.1589 27.9594 76.9376 27.9921V25.8685L77.7253 25.9455H78.6758H81.3646C81.7328 25.9455 82.041 25.9455 82.3065 25.9455L83.0857 25.8856V28.0092C82.5741 27.951 82.0593 27.9253 81.5444 27.9321H81.0306ZM83.5139 36.8718L85.2264 37.1972C85.1066 37.9764 84.9952 38.6529 84.8754 39.2266C84.7536 39.786 84.5992 40.3378 84.413 40.8792C84.2331 41.4187 83.9934 42.0266 83.7022 42.7031L82.0582 41.7355C82.3664 41.119 82.6062 40.5795 82.7946 40.1171C82.9789 39.6465 83.1277 39.1628 83.2398 38.67C83.3255 38.1562 83.4197 37.5568 83.5139 36.8547V36.8718ZM90.4412 28.7713H92.1538H93.0786L93.7808 28.7114V30.4839C93.2491 30.4257 92.7143 30.4 92.1795 30.4068H90.4669V31.657H92.1795C92.7058 31.6647 93.232 31.6389 93.7551 31.5799V33.3696C93.5081 33.3336 93.2595 33.3108 93.0101 33.3011C92.7618 33.3011 92.4878 33.3011 92.1966 33.3011H90.4327V34.6626H93.9349C94.1756 34.6559 94.4157 34.6359 94.6542 34.6026C94.6542 34.7311 94.6542 34.8424 94.6542 34.928C94.6542 35.0136 94.6542 35.1335 94.6542 35.2791C94.6542 35.4247 94.6542 35.6559 94.6542 35.9812C94.6028 37.377 94.5343 38.5501 94.4401 39.4064C94.3746 40.1221 94.2428 40.8302 94.0462 41.5214C93.9064 41.9914 93.6026 42.3955 93.1899 42.6603C92.9644 42.7918 92.7183 42.8844 92.4621 42.9343C92.1027 42.9934 91.7387 43.0192 91.3746 43.0114H90.5611L89.7562 42.9514V42.823C89.7565 42.5362 89.7336 42.2498 89.6877 41.9667C89.6877 41.7013 89.5764 41.3416 89.4822 40.9049C89.9703 40.9991 90.3385 41.0676 90.6296 41.1019C90.8909 41.1352 91.154 41.1523 91.4174 41.1532C91.6431 41.1685 91.8671 41.105 92.0511 40.9734C92.2206 40.7973 92.3312 40.5729 92.3679 40.3312C92.4726 39.8318 92.5385 39.3251 92.5648 38.8156C92.6248 38.122 92.6676 37.2914 92.6847 36.3495H85.7316C85.2778 36.3495 84.8754 36.3495 84.55 36.3495C84.2246 36.3495 83.9249 36.3495 83.6937 36.4008C83.6937 36.1097 83.7365 35.81 83.7451 35.4932C83.7536 35.1763 83.7451 34.6968 83.7451 34.0375V27.9321C83.7451 27.367 83.7451 26.9303 83.7451 26.6306C83.7451 26.3309 83.7451 26.0055 83.6937 25.6887L84.7469 25.7572C85.1151 25.7572 85.6032 25.7572 86.0913 25.7572H92.2566C92.7875 25.7572 93.2327 25.7572 93.6009 25.7572L94.6285 25.6887V27.5982C94.3374 27.5982 94.0291 27.5382 93.6951 27.5211H92.4878H90.5354L90.4412 28.7713ZM85.7402 37.2486L87.2901 37.1629C87.3928 37.9593 87.4699 38.6614 87.5127 39.2694C87.5555 39.8774 87.5727 40.4853 87.5727 41.1019V41.5557L85.8002 41.7355C85.8002 41.333 85.8002 41.0162 85.8002 40.785V40.0058C85.8002 39.552 85.8002 39.1495 85.8002 38.7299C85.8002 38.3104 85.783 37.8223 85.783 37.2314L85.7402 37.2486ZM88.4803 28.7713V27.504H85.783V28.7884L88.4803 28.7713ZM88.4803 30.3897H85.783V31.6399H88.506L88.4803 30.3897ZM88.4803 33.2583H85.783V34.6197H88.506L88.4803 33.2583ZM87.8467 37.1972L89.3366 37.0259L89.6192 38.199C89.6877 38.533 89.7476 38.8841 89.799 39.2351C89.8504 39.5862 89.9018 40.0315 89.9531 40.5453L88.3519 40.7765C88.3519 40.3483 88.3005 39.9202 88.2577 39.6034C88.2149 39.2865 88.1635 38.8926 88.1036 38.5159C88.0436 38.1391 87.9494 37.7024 87.8467 37.1801V37.1972ZM89.799 37.1372L91.1434 36.7862C91.3146 37.2057 91.4517 37.5311 91.5373 37.7709C91.6229 38.0107 91.7085 38.2419 91.7856 38.4902C91.8627 38.7385 91.9654 39.0896 92.0939 39.5434L90.681 39.9716C90.5868 39.552 90.4926 39.1923 90.4155 38.9012C90.3385 38.6101 90.2443 38.336 90.1415 38.0449C90.0388 37.7538 89.936 37.4712 89.799 37.1201V37.1372Z" fill="#00477B"/>
<path d="M106.334 28.3432H111.694H112.705L113.467 28.2833C113.467 28.5573 113.415 28.8142 113.407 29.0625C113.398 29.3108 113.407 29.6191 113.407 30.0044V35.947C113.407 36.3923 113.407 36.7605 113.407 37.0517C113.407 37.3428 113.45 37.6254 113.484 37.9079H111.181V36.7434H106.334V40.708C106.334 41.2903 106.334 41.7527 106.334 42.0952C106.334 42.4377 106.394 42.7802 106.445 43.1228H103.936C103.979 42.7631 104.013 42.4035 104.039 42.0524C104.065 41.7013 104.039 41.2475 104.039 40.708V36.7434H99.4836V37.9079H97.1802C97.2145 37.5883 97.2401 37.2886 97.2573 37.0088C97.2573 36.7177 97.2573 36.3666 97.2573 35.9556V29.9616C97.2573 29.6019 97.2573 29.3108 97.2573 29.1053C97.2573 28.8998 97.2573 28.6086 97.1973 28.249L98.0022 28.309H98.9527H104.09V27.1187C104.09 26.6106 104.09 26.2082 104.09 25.9113C104.075 25.6045 104.043 25.2987 103.996 24.9951H106.462C106.42 25.2948 106.394 25.5945 106.368 25.8514C106.343 26.1083 106.368 26.5364 106.368 27.0074L106.334 28.3432ZM104.116 34.6455V30.4154H99.4836V34.6455H104.116ZM106.334 30.4154V34.6455H111.181V30.4154H106.334Z" fill="#00477B"/>
<path d="M127.501 28.0263V30.2098H130.43C130.918 30.2098 131.338 30.2098 131.689 30.2098C132.029 30.2018 132.37 30.1761 132.708 30.1328C132.665 30.5267 132.639 30.8948 132.631 31.2459C132.622 31.597 132.631 32.008 132.631 32.4961V40.3997C132.615 41.2375 132.652 42.0754 132.742 42.9086H130.558V41.7697H119.127V42.9086H116.943C116.943 42.5233 117.003 42.1551 117.029 41.7954C117.055 41.4358 117.029 40.9391 117.029 40.3825V32.4961C117.029 32.0765 117.029 31.6826 117.029 31.3059C117.029 30.9291 116.978 30.5352 116.943 30.1328C117.273 30.1781 117.604 30.2039 117.937 30.2098C118.305 30.2098 118.733 30.2098 119.221 30.2098H121.858V28.0263H118.262C117.868 28.0263 117.483 28.0263 117.089 28.0263C116.695 28.0263 116.335 28.0263 115.993 28.1119V25.8856C116.76 25.9726 117.532 26.0126 118.305 26.0054H131.38C132.144 26.013 132.908 25.9729 133.667 25.8856V28.1119C132.913 28.0306 132.156 27.9905 131.398 27.992L127.501 28.0263ZM119.127 37.043V39.7489H130.541V37.18H129.445H128.82H128.024C127.572 37.1898 127.12 37.1698 126.671 37.1201C126.444 37.0956 126.226 37.0163 126.037 36.8889C125.863 36.7776 125.736 36.6073 125.678 36.4093C125.606 36.1123 125.574 35.8071 125.583 35.5017V32.0765H123.768C123.717 32.7444 123.657 33.2925 123.597 33.7292C123.54 34.1147 123.454 34.4953 123.34 34.868C123.22 35.2127 123.074 35.5476 122.903 35.8699C122.678 36.3247 122.39 36.7456 122.047 37.1201C121.605 37.5725 121.117 37.9772 120.591 38.3274C120.167 37.8317 119.674 37.3992 119.127 37.043ZM119.127 32.205V36.8974C119.486 36.6967 119.827 36.4646 120.146 36.2038C120.429 35.9785 120.675 35.7097 120.874 35.4075C121.147 35.026 121.353 34.6002 121.482 34.1487C121.628 33.5129 121.717 32.8653 121.747 32.2135L119.127 32.205ZM125.583 28.0263H123.871V30.2098H125.583V28.0263ZM130.541 35.3304V32.2135H127.501V35.0992C127.501 35.2419 127.536 35.3361 127.604 35.3818C127.754 35.4271 127.911 35.4445 128.067 35.4332H129.154C129.531 35.4103 129.993 35.3761 130.541 35.3304Z" fill="#00477B"/>
<path d="M139.875 36.7348H138.017C137.948 37.7538 137.863 38.6444 137.751 39.415C137.655 40.1041 137.509 40.7852 137.314 41.453C137.141 42.0441 136.911 42.6175 136.629 43.1656C136.402 42.8353 136.156 42.518 135.893 42.2151C135.644 41.9521 135.375 41.7088 135.088 41.4873C135.352 40.9895 135.55 40.46 135.679 39.9117C135.863 39.1458 135.989 38.3673 136.056 37.5826C136.15 36.6492 136.218 35.5189 136.261 34.1574C136.304 32.7959 136.321 31.2118 136.321 29.3451C136.321 28.5915 136.321 27.9921 136.321 27.5554C136.321 27.1187 136.321 26.7676 136.321 26.4851C136.321 26.2025 136.278 25.9199 136.244 25.6288C136.518 25.6288 136.792 25.6802 137.1 25.6887H137.957H140.217H141.142C141.363 25.6827 141.583 25.6626 141.801 25.6288C141.801 25.8257 141.801 26.0484 141.759 26.2881C141.716 26.5279 141.759 26.879 141.759 27.3242V40.9735C141.801 41.276 141.771 41.5842 141.671 41.873C141.572 42.1617 141.405 42.4227 141.185 42.6347C140.972 42.7415 140.744 42.8137 140.508 42.8488C140.137 42.9065 139.762 42.9323 139.387 42.9258H139.053H138.59C138.569 42.5607 138.523 42.1974 138.453 41.8383C138.38 41.5034 138.274 41.1765 138.137 40.8622C138.411 40.9135 138.659 40.9478 138.873 40.9735C139.053 40.9847 139.233 40.9847 139.412 40.9735C139.567 40.9905 139.723 40.9575 139.858 40.8793C139.936 40.7576 139.97 40.6121 139.952 40.4683L139.875 36.7348ZM138.119 32.128V34.8681H139.909V32.128H138.119ZM138.162 30.2699H139.875V27.701H138.162V30.2699ZM148.438 27.4527V28.4203H151.323C151.757 28.4203 152.125 28.4203 152.428 28.4203L153.241 28.3518V30.1586L152.488 30.1072C152.257 30.1072 151.931 30.1072 151.529 30.1072H148.463V31.0148H151.803H152.599C152.591 31.1603 152.591 31.3061 152.599 31.4515C152.599 31.58 152.599 31.7513 152.599 31.9482C152.599 32.1451 152.599 32.4192 152.599 32.8045V35.5018C152.599 36.0413 152.599 36.4352 152.599 36.6578C152.599 36.8804 152.599 37.1287 152.651 37.3771L151.923 37.3257H150.972H148.463V38.2077H150.75H151.846C152.092 38.1964 152.338 38.1707 152.582 38.1306V39.9202L151.777 39.8603H150.733H148.463V40.7765H151.255H152.462C152.788 40.7765 153.087 40.7765 153.361 40.6995V42.6004C153.078 42.5568 152.792 42.5282 152.505 42.5148C152.171 42.5148 151.743 42.5148 151.203 42.5148H144.353H143.052C142.726 42.5148 142.427 42.5576 142.135 42.5919V40.7765C142.392 40.7765 142.666 40.8279 142.992 40.845H146.58V39.8346H144.533H143.531L142.675 39.8946V38.182L143.454 38.2419H144.524H146.58V37.1801H144.362H143.386L142.701 37.2315C142.701 36.9404 142.701 36.6749 142.701 36.4266C142.701 36.1783 142.701 35.8186 142.701 35.3734V32.599C142.701 32.1623 142.701 31.8283 142.701 31.6142C142.713 31.3775 142.713 31.1403 142.701 30.9035H143.454H146.58V29.9959H143.069L142.272 30.0387V28.249C142.521 28.249 142.786 28.309 143.129 28.3261H144.156H146.58V27.4698L145.235 27.5469H144.379H143.72H142.863C142.813 27.2565 142.742 26.9703 142.649 26.6906C142.555 26.3937 142.432 26.1069 142.281 25.8343H142.992H143.488C144.25 25.8343 145.038 25.8343 145.843 25.7572C146.648 25.6802 147.419 25.6374 148.155 25.5432C148.892 25.449 149.551 25.3548 150.133 25.2435C150.585 25.1599 151.03 25.0367 151.46 24.8752L152.916 26.5878C152.806 26.6133 152.695 26.6305 152.582 26.6392H152.394L152.103 26.6906L151.409 26.8276L150.022 27.0331L148.438 27.4527ZM146.58 33.3782V32.4791H144.533V33.3782H146.58ZM146.58 35.6816V34.7825H144.533V35.6987L146.58 35.6816ZM148.481 33.3782H150.707V32.4791H148.481V33.3782ZM148.481 35.6816H150.707V34.7825H148.481V35.6816Z" fill="#00477B"/>
<path d="M159.424 28.0692V30.6894C159.424 32.402 159.364 33.8833 159.244 35.2192C159.149 36.4082 158.96 37.5879 158.679 38.7471C158.557 39.2784 158.403 39.8017 158.216 40.3141C158.054 40.7657 157.857 41.2038 157.626 41.6242C157.365 42.0824 157.079 42.5255 156.769 42.9514C156.504 42.6279 156.218 42.3218 155.913 42.0352C155.649 41.7861 155.363 41.5625 155.057 41.3673C155.361 41.0296 155.63 40.6624 155.862 40.2713C156.093 39.8566 156.29 39.4242 156.453 38.9783C156.611 38.5561 156.743 38.1242 156.846 37.6853C156.941 37.2486 157.026 36.7091 157.103 36.0754L156.495 36.4437L156.119 36.6749L155.725 36.8975L155.399 37.0859L155.091 37.2657L154.474 34.9965C154.895 34.9066 155.305 34.7746 155.699 34.6026C156.256 34.3748 156.799 34.1146 157.326 33.8234C157.326 33.3781 157.326 33.0271 157.369 32.7616C157.412 32.4962 157.369 32.1879 157.369 31.854L156.119 32.6332C155.936 32.0196 155.713 31.4189 155.451 30.835C155.181 30.265 154.875 29.7129 154.534 29.1823L156.119 28.326C156.341 28.6686 156.512 28.9511 156.641 29.1823C156.769 29.4135 156.881 29.6362 156.983 29.8674L157.369 30.7236V29.0111C157.369 28.249 157.369 27.6838 157.369 27.2985C157.369 26.9132 157.317 26.5621 157.275 26.2538C157.591 26.2538 157.917 26.3138 158.259 26.3309H159.535H163.911C163.851 26.211 163.799 26.0997 163.74 25.9969L163.483 25.5517L165.512 24.8409C165.767 25.3225 165.99 25.8202 166.18 26.3309H170.556C171.129 26.3309 171.583 26.3309 171.926 26.3309C172.268 26.3309 172.594 26.2795 172.902 26.2367V28.2062C172.594 28.2062 172.277 28.1462 171.96 28.1291H170.624L159.424 28.0692ZM165.718 34.6454L164.861 35.0565C164.784 34.7225 164.724 34.5084 164.699 34.4057C164.673 34.3029 164.639 34.2173 164.613 34.1402C163.979 34.3971 163.337 34.6283 162.669 34.8424C162.001 35.0565 161.291 35.2705 160.503 35.4846L159.963 33.969C160.119 33.8972 160.252 33.7848 160.349 33.6436C160.432 33.4607 160.476 33.2623 160.477 33.0613C160.468 32.9845 160.468 32.9069 160.477 32.8301V30.4325C160.468 30.0393 160.431 29.6473 160.366 29.2594C161.076 29.1738 161.667 29.0796 162.164 28.9854C162.607 28.9079 163.045 28.8021 163.474 28.6686C163.872 28.5398 164.264 28.3912 164.647 28.2233L165.786 29.6875C165.512 29.796 165.227 29.8988 164.93 29.9958C164.63 30.0986 164.262 30.2013 163.842 30.3041L162.267 30.6637V33.3011L163.02 33.0527L163.483 32.8986L164.099 32.676C163.979 32.342 163.877 32.1108 163.817 31.9738C163.757 31.8368 163.654 31.657 163.534 31.4258L164.938 30.8949C165.164 31.2954 165.37 31.7069 165.555 32.128C165.749 32.5729 165.92 33.0274 166.069 33.4895C166.467 33.1314 166.79 32.6977 167.019 32.2136C167.25 31.6909 167.386 31.1313 167.422 30.561H167.293C166.844 30.5518 166.394 30.5776 165.949 30.638V28.7884C166.154 28.7884 166.385 28.8398 166.642 28.8484H167.67H171.035H171.891C172.097 28.8484 172.302 28.8484 172.508 28.7884C172.508 28.9854 172.508 29.1395 172.457 29.2508C172.405 29.3621 172.457 29.5163 172.457 29.7132C172.457 29.9102 172.457 30.2013 172.414 30.5695C172.311 32.7445 172.097 34.0375 171.763 34.4399C171.594 34.6603 171.356 34.8172 171.086 34.8852C170.691 34.977 170.285 35.0173 169.879 35.0051H169.46H168.766C168.709 34.4539 168.571 33.9142 168.355 33.4038C168.153 33.7886 167.906 34.148 167.619 34.4742C167.258 34.8572 166.869 35.2121 166.454 35.536C166.334 35.339 166.214 35.1678 166.111 35.0308C165.984 34.8955 165.85 34.7669 165.709 34.6454H165.718ZM162.087 35.7758H171.009L171.754 35.7329C171.754 35.947 171.754 36.1868 171.712 36.4522C171.669 36.7177 171.712 37.0431 171.712 37.4284V41.3159C171.712 41.727 171.712 42.0609 171.712 42.3349C171.719 42.5877 171.744 42.8395 171.789 43.0885H169.759V42.3863H162.481V43.0885H160.451C160.451 42.8744 160.503 42.6175 160.52 42.3264C160.537 42.0352 160.52 41.7013 160.52 41.3159V37.4284C160.52 37.0431 160.52 36.7262 160.52 36.4865C160.52 36.2467 160.52 35.9898 160.477 35.7329L161.179 35.7758H162.087ZM162.515 39.8174V40.7165H165.084V39.8174H162.515ZM162.515 37.4027V38.259H165.084V37.4027H162.515ZM166.925 37.4027V38.259H169.699V37.4027H166.925ZM166.925 39.8174V40.7165H169.699V39.8174H166.925ZM170.598 30.561H169.203C169.133 31.5257 168.862 32.4651 168.406 33.3182H168.603L168.98 33.3696L169.451 33.421H169.776C169.915 33.436 170.055 33.3974 170.166 33.313C170.278 33.2287 170.353 33.1049 170.376 32.9671C170.448 32.6432 170.494 32.3138 170.513 31.9824C170.556 31.5542 170.556 31.0747 170.607 30.561H170.598Z" fill="#00477B"/>
<path d="M188.538 36.5978V37.8309H190.25C190.701 37.8309 191.069 37.8309 191.355 37.8309C191.642 37.8168 191.928 37.7853 192.211 37.7367V39.7318C191.929 39.7318 191.629 39.6633 191.355 39.6548C191.081 39.6462 190.713 39.6548 190.327 39.6548H188.615V41.6328C188.627 41.8968 188.556 42.158 188.411 42.3793C188.267 42.6006 188.056 42.7709 187.81 42.8659C187.577 42.9709 187.328 43.0346 187.073 43.0542C186.722 43.1043 186.367 43.1272 186.012 43.1228H185.626H184.838H184.659H184.393C184.345 42.785 184.276 42.4504 184.188 42.1209C184.102 41.8469 183.991 41.5386 183.845 41.1875C184.325 41.2475 184.701 41.2903 184.967 41.3074C185.232 41.3245 185.566 41.3074 185.935 41.3074C186.117 41.3279 186.301 41.2952 186.465 41.2132C186.517 41.1719 186.557 41.1177 186.581 41.056C186.605 40.9944 186.612 40.9275 186.602 40.8621V39.689H179.846C180.31 39.9494 180.759 40.2353 181.191 40.5453C181.618 40.8389 182.022 41.1653 182.398 41.5215L181.071 43.0114C180.814 42.7545 180.566 42.5148 180.317 42.3007C180.069 42.0866 179.778 41.8554 179.461 41.6157C179.144 41.3759 178.716 41.0933 178.211 40.7594L179.273 39.7062H176.592C176.207 39.7062 175.882 39.7062 175.599 39.7062C175.317 39.7062 175.034 39.749 174.743 39.7832V37.7881C175.026 37.8365 175.312 37.868 175.599 37.8823C175.865 37.8823 176.233 37.8823 176.695 37.8823H186.662V36.7862C186.268 36.7862 185.746 36.8462 185.104 36.8718L182.997 36.9575L180.754 37.0431L178.733 37.0945H177.329H177.132H176.866H176.601H176.25H175.762H175.428L175.043 35.0822C175.306 35.1313 175.572 35.1656 175.839 35.1849H176.969H180.163H180.977H182.364V34.3287H178.168H177.183L176.43 34.38C176.43 34.1317 176.43 33.9176 176.473 33.7293C176.515 33.5409 176.473 33.2754 176.473 32.9329V30.0044C176.473 29.6533 176.473 29.3879 176.473 29.1995C176.473 29.0111 176.473 28.7885 176.43 28.5402L177.149 28.583H182.364V27.9322H176.798H175.685C175.411 27.9322 175.12 27.9322 174.828 27.9921V26.0826C175.145 26.0826 175.471 26.1511 175.822 26.1682C176.173 26.1854 176.584 26.1682 177.072 26.1682H182.364C182.364 25.86 182.364 25.6373 182.364 25.4918C182.344 25.3248 182.316 25.159 182.278 24.9951H184.505C184.505 25.1492 184.453 25.3376 184.436 25.5517C184.419 25.7658 184.436 25.9798 184.436 26.1682H190.13C190.601 26.1682 190.987 26.1682 191.346 26.1682C191.706 26.1682 192.023 26.1168 192.365 26.0826V27.9921C192.066 27.9921 191.774 27.9407 191.509 27.9322H190.387H184.256V28.5915H189.831L190.567 28.5487C190.567 28.7628 190.567 28.9683 190.507 29.1652C190.447 29.3622 190.507 29.6448 190.507 30.0215V32.95C190.507 33.3011 190.507 33.5666 190.507 33.7635C190.507 33.9605 190.507 34.166 190.567 34.3972H190.379H189.873C190.276 34.7226 190.653 35.0479 190.995 35.3733C191.343 35.6879 191.671 36.0224 191.98 36.3752L190.661 37.6511L190.216 37.0688C190.113 36.9489 189.968 36.7777 189.762 36.555L188.76 36.615L188.538 36.5978ZM182.227 30.7665V30.0387H178.322V30.7665H182.227ZM182.227 32.8558V32.128H178.322V32.8558H182.227ZM184.239 30.7665H188.426V30.0387H184.256L184.239 30.7665ZM184.239 32.8558H188.426V32.128H184.256L184.239 32.8558ZM188.255 34.3287H184.256V35.1849L185.541 35.1421H186.397H187.193L188.358 35.0822L188.135 34.9024L187.87 34.6712L188.255 34.3287Z" fill="#00477B"/>
<path d="M199.318 32.068V32.6503C199.839 33.0441 200.339 33.4642 200.817 33.909C201.236 34.3029 201.673 34.7653 202.127 35.2534L200.997 36.966C200.723 36.5892 200.5 36.2981 200.337 36.1097C200.194 35.9102 200.039 35.7186 199.875 35.536L199.318 34.8938V40.7679C199.318 41.3245 199.318 41.7783 199.318 42.1123C199.318 42.4462 199.361 42.8059 199.404 43.1741H197.101C197.101 42.8059 197.169 42.4462 197.186 42.078C197.203 41.7098 197.186 41.2731 197.186 40.7679V37.5996C197.186 37.377 197.186 37.0916 197.186 36.7434C197.186 36.4008 197.229 35.8871 197.28 35.1164C197.005 35.9222 196.67 36.7064 196.279 37.4626C195.891 38.1848 195.438 38.8699 194.926 39.5092C194.78 39.1752 194.652 38.9012 194.557 38.7043C194.461 38.5064 194.352 38.3148 194.232 38.1305C194.112 37.9507 193.958 37.7366 193.77 37.4798C194.201 37.0411 194.594 36.5655 194.943 36.0583C195.32 35.5089 195.663 34.937 195.97 34.3458C196.167 33.969 196.347 33.6008 196.51 33.2154C196.659 32.8627 196.791 32.5026 196.904 32.1365H195.893C195.542 32.1365 195.242 32.1365 194.986 32.1365C194.729 32.1365 194.455 32.1879 194.181 32.2307V30.1071C194.455 30.1071 194.729 30.1842 194.977 30.2013H195.936H197.161V28.249C196.887 28.3003 196.655 28.3517 196.45 28.3774L195.799 28.4716L194.874 28.6C194.801 28.2717 194.707 27.9485 194.592 27.6324C194.461 27.3227 194.309 27.0223 194.138 26.7333C195.509 26.5963 196.87 26.3732 198.214 26.0654C199.118 25.8751 199.986 25.5397 200.783 25.0721L201.999 26.8618H201.904L201.682 26.9645C201.425 27.0673 201.057 27.1957 200.603 27.3499C200.149 27.504 199.678 27.641 199.224 27.7609V30.1671H200.303H201.117C201.331 30.1671 201.536 30.1671 201.742 30.09V32.2136C201.516 32.1705 201.287 32.1448 201.057 32.1365C200.823 32.1365 200.557 32.1365 200.26 32.1365L199.318 32.068ZM209.996 27.3841V35.8014C210.416 35.7072 210.75 35.6302 211.007 35.5531C211.298 35.4782 211.584 35.3838 211.863 35.2705L212.034 37.5483L211.178 37.6767L210.159 37.8822H210.005V40.785C210.005 41.3331 210.005 41.7783 210.005 42.1209C210.021 42.4479 210.056 42.7738 210.108 43.097H207.744C207.796 42.7768 207.827 42.4536 207.838 42.1294C207.838 41.8212 207.838 41.3673 207.838 40.7679V38.3446L203.446 39.3293L202.401 39.5862L201.545 39.8174L201.288 37.5483H201.468C201.697 37.5373 201.926 37.5116 202.153 37.4712C202.487 37.4198 202.803 37.3599 203.12 37.2828L207.821 36.221V27.4013C207.821 26.8361 207.821 26.3908 207.821 26.074C207.812 25.761 207.781 25.4491 207.727 25.1406H210.09C210.039 25.4612 210.005 25.7841 209.988 26.1082C209.996 26.4251 209.996 26.8447 209.996 27.3841ZM201.853 32.6503L203.095 31.1004C203.677 31.5029 204.165 31.8625 204.559 32.1622C204.953 32.4619 205.312 32.7616 205.655 33.0613C205.997 33.361 206.374 33.7121 206.794 34.1231L205.561 35.8357C205.047 35.2962 204.602 34.851 204.225 34.4913C203.848 34.1317 203.48 33.8234 203.112 33.5408C202.744 33.2583 202.332 32.9757 201.853 32.6503ZM202.521 27.8123L203.771 26.2196C204.396 26.6477 204.927 27.0159 205.355 27.3327C205.754 27.6231 206.137 27.9347 206.503 28.2661C206.837 28.5658 207.179 28.8998 207.53 29.2765L206.211 31.0319C205.792 30.5695 205.407 30.1756 205.047 29.816C204.701 29.4538 204.335 29.1108 203.951 28.7884C203.514 28.5059 203.095 28.1719 202.521 27.8123Z" fill="#00477B"/>
<path d="M63.588 15.3447L65.2578 15.6358C65.1712 15.9841 65.0566 16.3249 64.9153 16.6548C64.7946 16.9115 64.6483 17.1554 64.4786 17.3826C64.1252 17.8025 63.6717 18.1265 63.1599 18.3245C62.5632 18.5478 61.9302 18.6581 61.2932 18.6499C60.7425 18.6812 60.1914 18.5985 59.6742 18.4069C59.1571 18.2154 58.685 17.9191 58.2876 17.5368C57.8644 17.08 57.5458 16.5365 57.3542 15.9441C57.1264 15.2772 57.0135 14.5765 57.0203 13.8718C57.0127 13.1454 57.1345 12.4234 57.3799 11.7397C57.5884 11.125 57.9339 10.5657 58.3903 10.1042C58.7453 9.72579 59.1816 9.43299 59.6662 9.24787C60.1901 9.05653 60.744 8.96083 61.3017 8.96531C61.7135 8.96064 62.1244 9.00374 62.5262 9.09375C62.885 9.18595 63.2283 9.33019 63.5452 9.52189C64.0562 9.83398 64.4803 10.2698 64.7783 10.7892C64.8468 10.9105 64.9068 11.0364 64.9581 11.166C65.0095 11.2944 65.0694 11.4657 65.1379 11.6883L63.5195 12.0651C63.4339 11.8082 63.3568 11.6112 63.2969 11.4742C63.2208 11.323 63.1259 11.182 63.0143 11.0546C62.8045 10.8098 62.5404 10.6172 62.2431 10.4924C61.9458 10.3675 61.6235 10.3137 61.3017 10.3354C60.9267 10.3201 60.5534 10.3954 60.2136 10.5549C59.8738 10.7144 59.5773 10.9533 59.3494 11.2516C58.8393 11.9917 58.5893 12.8802 58.6387 13.7776C58.6257 14.4095 58.7363 15.0378 58.9641 15.6272C59.1485 16.1039 59.4667 16.5172 59.8803 16.8175C60.2971 17.1064 60.7946 17.2563 61.3017 17.2456C61.6825 17.2514 62.0598 17.1724 62.4063 17.0144C62.642 16.9162 62.8548 16.7704 63.0316 16.5862C63.2084 16.4021 63.3453 16.1835 63.4339 15.9441C63.5048 15.7498 63.5564 15.549 63.588 15.3447Z" fill="#00477B"/>
<path d="M66.1483 15.7044V14.1545L66.645 14.2059H67.2358H69.0511H69.6591L70.1557 14.1545V15.7044C69.983 15.6741 69.8085 15.6541 69.6334 15.6444H66.6621C66.4897 15.6536 66.3182 15.6737 66.1483 15.7044Z" fill="#00477B"/>
<path d="M76.9889 18.513H75.6103C75.5727 18.2802 75.5154 18.0511 75.4391 17.8279C75.3449 17.5539 75.2336 17.2628 75.1051 16.9717L73.3925 12.9728L73.1956 12.4761C73.1442 12.3306 73.0843 12.1508 73.0243 11.9538C72.9644 11.7569 72.8873 11.5 72.8017 11.1832C72.8017 11.3887 72.8017 11.6199 72.8017 11.8767C72.8017 12.1336 72.8017 12.3563 72.8017 12.5703C72.8017 12.7844 72.8017 12.93 72.8017 13.0156V16.8004C72.8017 17.2029 72.8017 17.5282 72.8017 17.7851C72.8017 18.042 72.8445 18.2732 72.8788 18.5044H71.2433C71.2433 18.2647 71.3032 18.0249 71.3203 17.768C71.3374 17.5111 71.3203 17.1857 71.3203 16.8004V10.9434C71.3203 10.5666 71.3203 10.2412 71.3203 9.97578C71.3203 9.71033 71.2775 9.45344 71.2433 9.21368H73.3754C73.4758 9.68911 73.6221 10.1537 73.8121 10.6009L76.1755 16.3894L78.5303 10.6009C78.633 10.3608 78.7217 10.1149 78.7957 9.86446C78.8557 9.65039 78.907 9.43632 78.9499 9.21368H81.0991C81.0991 9.49626 81.0392 9.75315 81.0306 9.99291C81.0221 10.2327 81.0306 10.5495 81.0306 10.9434V16.8004C81.0306 17.2285 81.0306 17.5625 81.0306 17.8108C81.0399 18.0432 81.0628 18.2748 81.0991 18.5044H79.4636C79.4636 18.2647 79.5236 18.0163 79.5407 17.7766C79.5578 17.5368 79.5407 17.2029 79.5407 16.8004V12.93C79.5407 12.4162 79.5835 12.0137 79.6006 11.714C79.6178 11.4143 79.6006 11.226 79.6006 11.1403C79.5236 11.4572 79.4379 11.7654 79.3352 12.0737C79.2324 12.3819 79.1468 12.6303 79.0612 12.8444L77.3486 16.946C77.2287 17.22 77.126 17.5026 77.0318 17.8023C77.0043 18.0382 76.99 18.2755 76.9889 18.513Z" fill="#00477B"/>
<path d="M89.5164 16.9974V18.513C89.3009 18.4799 89.0836 18.4599 88.8657 18.4531C88.6516 18.4531 88.3605 18.4531 88.0094 18.4531H83.5396H82.8888C82.923 18.2133 82.9487 17.9821 82.9658 17.7595C82.9658 17.5368 82.9658 17.2542 82.9658 16.9032V10.6009C82.9658 10.3012 82.9658 10.0443 82.9658 9.83023C82.9658 9.61616 82.923 9.36783 82.8888 9.09382H83.5396H87.8895H88.6602C88.8828 9.09382 89.1311 9.09381 89.3966 9.03387V10.5666L88.7372 10.5067H87.8809H84.5243V12.9129H87.3586C87.6669 12.9129 87.9237 12.9129 88.1549 12.9129C88.3861 12.9129 88.6173 12.9129 88.8742 12.8529V14.3857C88.6345 14.3857 88.4118 14.3258 88.2063 14.3172H87.35H84.5071V17.0659H88.0094C88.3348 17.0659 88.6002 17.0659 88.8057 17.0659C89.0112 17.0659 89.2681 17.0231 89.5164 16.9974Z" fill="#00477B"/>
<path d="M98.7301 18.5129H96.8035C96.6625 17.8723 96.4588 17.247 96.1955 16.6462C96.0377 16.2136 95.8428 15.7953 95.6132 15.396C95.4727 15.1408 95.2693 14.9257 95.0224 14.771C94.7865 14.6515 94.5246 14.5926 94.2603 14.5997H92.5477V16.9802C92.5477 17.3313 92.5477 17.6138 92.5477 17.8365C92.5477 18.0591 92.5905 18.2817 92.6248 18.5129H90.9122C90.9122 18.2646 90.9721 18.042 90.9893 17.8365C91.0064 17.631 90.9893 17.3484 90.9893 16.9802V10.695C90.9893 10.3867 90.9893 10.1299 90.9893 9.9158C90.9893 9.70173 90.9893 9.4534 90.9122 9.17939H91.6058H95.2022C95.9457 9.13182 96.6806 9.36052 97.2659 9.82161C97.5127 10.0452 97.7062 10.3212 97.8321 10.6295C97.9581 10.9377 98.0133 11.2703 97.9937 11.6027C98.0269 12.2301 97.8115 12.8454 97.3943 13.3153C97.2424 13.4737 97.0661 13.6067 96.872 13.7092C96.6261 13.8288 96.3676 13.9207 96.1013 13.9832C96.4808 14.0965 96.8025 14.3508 97.0004 14.6939C97.1882 14.9956 97.3542 15.3104 97.4971 15.6358C97.6854 16.0468 97.9252 16.5948 98.2078 17.2799L98.3619 17.5967C98.4219 17.7423 98.4903 17.8878 98.5674 18.042L98.7301 18.5129ZM92.522 13.2724H94.8683C95.0712 13.281 95.2738 13.2483 95.4637 13.1761C95.6536 13.104 95.8268 12.994 95.9729 12.8529C96.1021 12.7161 96.2021 12.5545 96.2669 12.3778C96.3316 12.2012 96.3598 12.0132 96.3496 11.8253C96.3496 10.969 95.8701 10.558 94.9111 10.558H92.522V13.2724Z" fill="#00477B"/>
<path d="M107.815 8.9996C108.378 8.97534 108.94 9.06526 109.466 9.26394C109.993 9.46261 110.474 9.76593 110.881 10.1556C111.314 10.604 111.645 11.1418 111.848 11.7312C112.078 12.3947 112.191 13.0928 112.182 13.7948C112.204 14.6813 112.019 15.5606 111.643 16.3637C111.315 17.0699 110.788 17.6651 110.127 18.0763C109.432 18.4898 108.633 18.6976 107.824 18.6757C107.016 18.6956 106.219 18.491 105.52 18.0848C104.861 17.6714 104.335 17.0768 104.005 16.3722C103.636 15.567 103.455 14.6888 103.474 13.8034C103.465 13.1006 103.581 12.4019 103.816 11.7397C104.022 11.1473 104.359 10.6088 104.801 10.1642C105.199 9.77728 105.672 9.47475 106.19 9.27465C106.707 9.07455 107.26 8.981 107.815 8.9996ZM107.815 17.2799C108.328 17.2919 108.831 17.1421 109.254 16.8518C109.679 16.5554 110.004 16.1375 110.187 15.653C110.42 15.0619 110.531 14.4298 110.513 13.7948C110.549 13.3041 110.487 12.8111 110.329 12.3448C110.172 11.8786 109.923 11.4487 109.596 11.0804C109.164 10.6794 108.611 10.4332 108.023 10.3806C107.436 10.3279 106.848 10.4716 106.351 10.7892C105.924 11.088 105.594 11.5046 105.401 11.9881C105.159 12.5649 105.042 13.1866 105.058 13.8119C105.052 14.3501 105.136 14.8855 105.306 15.3961C105.446 15.8365 105.686 16.2382 106.009 16.5692C106.251 16.8072 106.539 16.9931 106.855 17.1153C107.172 17.2375 107.51 17.2936 107.85 17.2799H107.815Z" fill="#00477B"/>
<path d="M115.119 18.5129H113.407C113.407 18.2561 113.467 18.0249 113.484 17.8108C113.501 17.5967 113.484 17.3141 113.484 16.9545V13.2896C113.484 12.9642 113.484 12.6902 113.484 12.4333C113.484 12.1764 113.441 11.9795 113.407 11.7397H115V12.3562C115.005 12.4246 115.005 12.4933 115 12.5617C115 12.6131 115 12.7073 115 12.8614C115.283 12.4684 115.648 12.1413 116.07 11.9024C116.477 11.7015 116.927 11.6045 117.38 11.6198C117.756 11.5882 118.134 11.6498 118.481 11.7992C118.827 11.9486 119.131 12.1811 119.367 12.4761C119.51 12.6763 119.612 12.9035 119.666 13.144C119.739 13.4612 119.771 13.7864 119.761 14.1116V16.9031C119.761 17.2285 119.761 17.5111 119.761 17.7594C119.77 17.9889 119.793 18.2177 119.829 18.4444H118.116C118.116 18.179 118.168 17.9307 118.176 17.708C118.185 17.4854 118.176 17.2199 118.176 16.9202V14.3514C118.202 13.9966 118.131 13.6415 117.971 13.3238C117.867 13.1633 117.721 13.034 117.549 12.9496C117.377 12.8652 117.186 12.8288 116.995 12.8443C116.138 12.8443 115.471 13.4266 114.957 14.5569V16.9117C114.957 17.2028 114.957 17.4683 114.957 17.6995C114.957 17.9307 115.085 18.2132 115.119 18.5129Z" fill="#00477B"/>
<path d="M127.364 13.6749L125.943 14.0089C125.874 13.829 125.823 13.692 125.772 13.5893C125.72 13.4854 125.657 13.3878 125.583 13.2981C125.44 13.12 125.257 12.9782 125.049 12.8844C124.84 12.7907 124.613 12.7476 124.385 12.7587C124.124 12.7493 123.864 12.8018 123.628 12.9119C123.391 13.0221 123.184 13.1867 123.023 13.3923C122.697 13.904 122.523 14.4981 122.523 15.1049C122.523 15.7117 122.697 16.3059 123.023 16.8175C123.19 17.0215 123.403 17.1841 123.643 17.2925C123.884 17.401 124.146 17.4523 124.41 17.4426C124.67 17.4588 124.93 17.4073 125.164 17.2933C125.398 17.1792 125.599 17.0064 125.746 16.7918C125.799 16.7166 125.845 16.6363 125.883 16.552C125.926 16.4405 125.96 16.3261 125.986 16.2095L127.433 16.5007C127.367 16.6936 127.29 16.8823 127.202 17.0658C127.131 17.2188 127.042 17.3626 126.936 17.494C126.664 17.8711 126.294 18.167 125.866 18.3502C125.396 18.5554 124.888 18.6576 124.376 18.65C123.754 18.6656 123.139 18.5148 122.595 18.2132C122.089 17.9263 121.678 17.4977 121.413 16.9802C121.121 16.3993 120.977 15.7551 120.994 15.1049C120.97 14.613 121.046 14.1214 121.216 13.6594C121.387 13.1974 121.649 12.7746 121.987 12.4162C122.298 12.1202 122.667 11.8915 123.071 11.7442C123.475 11.5969 123.904 11.5342 124.333 11.5599C124.833 11.5333 125.332 11.635 125.781 11.8554C126.231 12.0757 126.617 12.4073 126.902 12.8186C126.977 12.9318 127.045 13.049 127.108 13.1697C127.21 13.2896 127.287 13.4523 127.364 13.6749Z" fill="#00477B"/>
<path d="M131.783 18.6842C131.142 18.7015 130.507 18.5509 129.942 18.2475C129.421 17.9693 128.997 17.5393 128.726 17.0144C128.444 16.4264 128.298 15.7827 128.298 15.1306C128.298 14.4785 128.444 13.8348 128.726 13.2468C128.998 12.726 129.418 12.297 129.933 12.0137C130.497 11.7054 131.132 11.5517 131.774 11.5684C132.413 11.5534 133.044 11.7039 133.607 12.0051C134.117 12.2914 134.534 12.7198 134.806 13.2382C135.099 13.8156 135.243 14.4574 135.225 15.1049C135.238 15.7584 135.091 16.4052 134.797 16.9887C134.528 17.5138 134.111 17.9484 133.598 18.2389C133.044 18.5471 132.417 18.7008 131.783 18.6842ZM131.783 12.7844C131.508 12.763 131.233 12.8051 130.977 12.9076C130.722 13.0101 130.494 13.1701 130.31 13.3752C129.936 13.8649 129.751 14.4727 129.788 15.0878C129.751 15.7028 129.936 16.3106 130.31 16.8004C130.494 16.996 130.716 17.152 130.963 17.2586C131.21 17.3652 131.476 17.4201 131.744 17.4201C132.013 17.4201 132.279 17.3652 132.526 17.2586C132.772 17.152 132.994 16.996 133.179 16.8004C133.559 16.3139 133.745 15.7036 133.701 15.0878C133.742 14.4617 133.563 13.8409 133.196 13.3324C133.014 13.1411 132.793 12.9927 132.547 12.8979C132.301 12.8031 132.037 12.7643 131.774 12.7844H131.783Z" fill="#00477B"/>
<path d="M136.39 9.17938H138.102C138.07 9.40361 138.05 9.62943 138.042 9.85584C138.042 10.0699 138.042 10.3611 138.042 10.7121V16.9459C138.042 17.2627 138.042 17.5282 138.042 17.7508C138.042 17.9735 138.042 18.2132 138.102 18.4701H136.39C136.39 18.2132 136.441 17.982 136.458 17.7765C136.475 17.571 136.458 17.2884 136.458 16.9202V10.6779C136.458 10.3182 136.458 10.0357 136.458 9.8216C136.458 9.60753 136.424 9.40202 136.39 9.17938Z" fill="#00477B"/>
<path d="M142.76 18.6842C142.117 18.7002 141.48 18.5498 140.911 18.2475C140.392 17.9688 139.971 17.5387 139.704 17.0144C139.422 16.4264 139.275 15.7827 139.275 15.1306C139.275 14.4785 139.422 13.8348 139.704 13.2468C139.976 12.726 140.396 12.297 140.911 12.0137C141.474 11.7034 142.109 11.5497 142.752 11.5684C143.388 11.5521 144.016 11.7027 144.576 12.0051C145.09 12.2865 145.508 12.7161 145.775 13.2382C146.071 13.8149 146.218 14.4567 146.203 15.1049C146.216 15.7584 146.069 16.4052 145.775 16.9887C145.503 17.5144 145.083 17.949 144.567 18.2389C144.016 18.5471 143.392 18.701 142.76 18.6842ZM142.76 12.7844C142.487 12.7705 142.215 12.8197 141.964 12.9281C141.713 13.0365 141.49 13.2012 141.313 13.4094C140.936 13.898 140.748 14.5059 140.782 15.122C140.748 15.7381 140.936 16.346 141.313 16.8346C141.485 17.0446 141.704 17.2108 141.953 17.3195C142.202 17.4282 142.473 17.4762 142.743 17.4597C143.014 17.4726 143.284 17.4238 143.534 17.317C143.783 17.2102 144.005 17.0482 144.182 16.8432C144.562 16.3567 144.748 15.7464 144.704 15.1306C144.743 14.5035 144.561 13.8826 144.19 13.3752C144.014 13.1702 143.792 13.0098 143.542 12.9071C143.292 12.8044 143.021 12.7623 142.752 12.7844H142.76Z" fill="#00477B"/>
<path d="M147.222 19.5406L148.395 18.7357C148.586 19.0205 148.845 19.253 149.148 19.4121C149.479 19.559 149.84 19.6293 150.202 19.6176C150.605 19.6265 151.005 19.5476 151.375 19.3864C151.685 19.2573 151.946 19.0323 152.12 18.7442C152.219 18.5526 152.291 18.3479 152.334 18.1363C152.383 17.8245 152.411 17.5098 152.419 17.1943C152.158 17.5351 151.821 17.8105 151.435 17.9992C151.022 18.1812 150.575 18.2689 150.125 18.2561C149.564 18.2675 149.011 18.1285 148.523 17.8537C148.065 17.591 147.695 17.1974 147.461 16.7234C147.205 16.1894 147.076 15.6031 147.085 15.0108C147.076 14.4175 147.208 13.8306 147.47 13.2982C147.708 12.8119 148.087 12.4089 148.558 12.1422C149.009 11.9047 149.507 11.7666 150.016 11.737C150.526 11.7075 151.036 11.7873 151.512 11.971C151.881 12.1439 152.198 12.4131 152.428 12.7502C152.428 12.6389 152.428 12.5618 152.428 12.519C152.428 12.4762 152.428 12.4334 152.428 12.3649V11.834H153.995C153.995 12.0823 153.944 12.3049 153.926 12.5104C153.909 12.716 153.926 12.9728 153.926 13.2897V17.1943C153.938 17.7737 153.86 18.3515 153.695 18.9069C153.551 19.3404 153.294 19.7276 152.95 20.0287C152.144 20.5853 151.17 20.8482 150.193 20.7736C149.793 20.7802 149.394 20.7428 149.003 20.6623C148.675 20.5878 148.362 20.4574 148.078 20.277C147.758 20.0754 147.469 19.8272 147.222 19.5406ZM148.617 15.0194C148.594 15.3109 148.628 15.6043 148.719 15.8822C148.81 16.1602 148.956 16.4171 149.148 16.6377C149.307 16.8025 149.5 16.931 149.714 17.0145C149.924 17.1074 150.151 17.1569 150.381 17.1601C150.708 17.1537 151.028 17.0658 151.312 16.9043C151.596 16.7428 151.836 16.5128 152.008 16.2353C152.237 15.8313 152.35 15.372 152.334 14.908C152.354 14.5888 152.302 14.2692 152.182 13.9727C152.062 13.6763 151.877 13.4106 151.64 13.1955C151.326 12.9182 150.921 12.7658 150.501 12.7673C150.245 12.7608 149.99 12.812 149.756 12.9172C149.521 13.0225 149.314 13.179 149.148 13.3753C148.78 13.8421 148.592 14.4255 148.617 15.0194Z" fill="#00477B"/>
<path d="M157.66 17.9992L155.485 13.2212L155.108 12.3649C155.031 12.1851 154.971 12.0652 154.937 11.9967C154.903 11.9282 154.86 11.8425 154.817 11.7569H156.59C156.629 11.9689 156.683 12.1777 156.752 12.382C156.838 12.6389 156.932 12.8786 157.035 13.1184L158.456 16.4322L159.749 13.1355C159.895 12.7759 159.989 12.5019 160.049 12.2792C160.108 12.0967 160.157 11.9109 160.195 11.7227H161.907C161.907 11.7997 161.796 11.9538 161.693 12.1936L161.273 13.1698L158.619 19.4036C158.446 19.8202 158.143 20.1704 157.757 20.403C157.37 20.6357 156.919 20.7385 156.47 20.6966H155.93L155.245 20.5852L155.511 19.258C155.78 19.3799 156.071 19.4468 156.367 19.4549C156.561 19.4576 156.751 19.4041 156.915 19.3008C157.074 19.1962 157.199 19.0474 157.275 18.8727L157.66 17.9992Z" fill="#00477B"/>
<path d="M31.8368 31.1432C32.1506 31.1608 32.465 31.1608 32.7788 31.1432C32.7788 31.4086 32.7788 31.6997 32.7788 32.0765V33.8661C32.7788 34.2001 32.7787 34.6026 32.8216 34.8338H31.8026V34.4741H26.896V34.7824H25.9199C25.9199 34.4998 25.9199 34.1659 25.9199 33.8233V31.9652C25.9199 31.6912 25.9199 31.4172 25.9199 31.1089C26.0997 31.1089 26.4508 31.1089 26.8532 31.1089H28.1205C28.1262 31.0005 28.1262 30.8919 28.1205 30.7835H26.1425C25.8162 30.7832 25.4902 30.8032 25.1664 30.8435V29.9872C25.4903 30.0243 25.8165 30.0386 26.1425 30.03H32.6931C32.9621 30.0362 33.2312 30.0219 33.498 29.9872V30.8435C33.1512 30.8044 32.8023 30.7872 32.4534 30.7921H30.4325V31.1175L31.8368 31.1432ZM28.6258 27.6067C28.8266 27.6189 29.0281 27.6046 29.2252 27.5639V28.1633C28.9683 28.1633 28.8741 28.1633 28.6943 28.1633H28.3432C28.612 28.3925 28.9193 28.5722 29.2508 28.6942C29.1116 28.8072 28.9929 28.9434 28.8998 29.0966H29.2851V29.8416C29.1224 29.8416 28.797 29.8416 28.5572 29.8416H26.1425H25.4232C25.4395 29.5764 25.4395 29.3105 25.4232 29.0453V26.7333C25.4232 26.3822 25.4232 26.1681 25.4232 25.8256C25.6768 25.8478 25.9318 25.8478 26.1853 25.8256H28.4117C28.6978 25.8241 28.9837 25.8069 29.268 25.7742V26.5363C28.9083 26.5363 28.7628 26.5363 28.5059 26.5363H27.5554C27.5111 26.6216 27.4739 26.7104 27.4441 26.8018H28.4802C28.6796 26.8186 28.8801 26.8186 29.0796 26.8018V27.4183C28.8801 27.4023 28.6797 27.4023 28.4802 27.4183H28.2404C28.2404 27.581 28.2404 27.6409 28.1976 27.7351L28.6258 27.6067ZM26.9132 28.1376C26.7592 28.1272 26.6047 28.1272 26.4508 28.1376V27.5467C26.5647 27.5574 26.6794 27.5574 26.7933 27.5467C26.6761 27.4073 26.5338 27.2911 26.3737 27.2042C26.6245 26.9944 26.8163 26.7229 26.9303 26.4164H26.2538V28.9853H26.6991C26.6076 28.8309 26.4886 28.6945 26.348 28.5828C26.7041 28.513 27.0266 28.3261 27.2643 28.052L26.9132 28.1376ZM27.5383 27.6067C27.5383 27.5125 27.5383 27.4782 27.5383 27.2899H27.093C27.011 27.4058 26.9163 27.5121 26.8104 27.6067H27.5554H27.5383ZM27.5383 32.83C27.3648 32.6046 27.1567 32.408 26.9217 32.2478C27.1105 32.2443 27.2962 32.1986 27.4651 32.1142C27.6339 32.0297 27.7818 31.9086 27.8979 31.7597H26.8361V32.83H27.5383ZM26.8361 33.4551V33.7377H31.7426V33.4551H26.8361ZM28.6172 29.0709C28.3132 28.8876 28.0484 28.6461 27.838 28.3602C27.6374 28.6643 27.3596 28.9096 27.0331 29.0709H28.6172ZM31.7426 32.83V31.7597H31.0405C31.2424 31.8873 31.4658 31.9772 31.6998 32.0251C31.6056 32.5475 31.4686 32.616 30.5524 32.616C29.7646 32.616 29.5505 32.5218 29.5505 32.145V31.7597H28.8313C28.7413 32.0223 28.5867 32.2579 28.3817 32.445C28.1767 32.6321 27.9278 32.7645 27.6581 32.83H31.7426ZM29.5505 30.8178H28.9683C28.9683 31.0404 28.9683 31.0661 28.9683 31.1432H29.5677L29.5505 30.8178ZM30.6466 26.4764C30.6381 26.7548 30.5214 27.019 30.3212 27.2128C30.1899 27.3423 30.0361 27.4468 29.8674 27.5211H32.0766C32.2616 27.5408 32.4482 27.5408 32.6332 27.5211L33.0528 27.9749C32.9916 28.0308 32.9343 28.0909 32.8815 28.1547C32.6298 28.472 32.3425 28.7593 32.0252 29.011C32.5244 29.1683 33.0433 29.2548 33.5665 29.2679C33.401 29.5045 33.2712 29.7642 33.1812 30.0386C32.5203 29.9505 31.8764 29.7629 31.2717 29.482C30.7861 29.7249 30.2708 29.9034 29.7389 30.0128C29.6506 29.7547 29.5328 29.5076 29.3878 29.2765C29.7857 29.2327 30.1768 29.1407 30.5524 29.0024C30.2714 28.784 30.0284 28.5207 29.8331 28.2232C29.6966 28.2074 29.5586 28.2074 29.4221 28.2232V27.5211C29.5047 27.5291 29.5878 27.5291 29.6704 27.5211C29.5682 27.3021 29.4292 27.1022 29.2594 26.9302C29.4783 26.8814 29.6762 26.7645 29.8246 26.5963C29.9414 26.424 30.0067 26.222 30.0129 26.014C30.0178 25.9256 30.0178 25.837 30.0129 25.7485C30.221 25.7641 30.43 25.7641 30.638 25.7485H31.7084C31.9108 25.7639 32.114 25.7639 32.3164 25.7485C32.3 25.9108 32.3 26.0743 32.3164 26.2366V26.6048C32.3164 26.7418 32.3164 26.7504 32.5818 26.7504C32.8473 26.7504 32.9243 26.7504 32.95 26.1339C33.1566 26.2546 33.3826 26.3386 33.6179 26.3822C33.6417 26.691 33.5468 26.9973 33.3525 27.2385C33.1983 27.3669 33.0014 27.3926 32.342 27.3926C31.6827 27.3926 31.5543 27.3327 31.5543 26.9302V26.5021L30.6466 26.4764ZM30.4068 31.8539C30.4068 32.0251 30.4068 32.0508 30.7151 32.0508C31.0234 32.0508 31.0148 32.0508 31.0319 31.7597H30.4068V31.8539ZM30.6295 28.1461C30.7927 28.3356 30.9903 28.4924 31.2117 28.6085C31.4555 28.4785 31.6851 28.3236 31.8968 28.1461H30.6295Z" fill="#00477B"/>
<path d="M43.2511 31.6827C43.2511 32.1622 43.2511 32.2992 43.2511 32.5389C43.0572 32.5286 42.8628 32.5286 42.6689 32.5389C43.1027 33.0698 43.6498 33.497 44.2701 33.7891C44.0582 34.053 43.8772 34.3403 43.7307 34.6454C43.0054 34.2165 42.3665 33.656 41.8468 32.9928L42.4548 32.5389H41.3587V33.9261C41.371 34.0406 41.3557 34.1563 41.314 34.2636C41.2722 34.3709 41.2054 34.4666 41.119 34.5427C40.8623 34.698 40.5594 34.7586 40.2627 34.7139C39.9287 34.7139 39.5948 34.7139 39.2095 34.7139C39.1935 34.3788 39.112 34.0501 38.9697 33.7463C39.3088 33.8075 39.6526 33.839 39.9972 33.8405C40.3055 33.8405 40.3483 33.8405 40.3483 33.6093V32.5732H38.9098L39.5263 32.9414C39.0779 33.6228 38.4952 34.2056 37.8137 34.654C37.6347 34.3876 37.4184 34.1482 37.1715 33.9433C37.7638 33.6264 38.2627 33.16 38.6186 32.5903H38.4816C38.4816 32.342 38.4816 32.1879 38.4816 31.734V30.7835C38.297 30.9084 38.1054 31.0228 37.9079 31.1261C37.9015 30.9158 37.8757 30.7065 37.8308 30.501C37.7904 31.3207 37.6465 32.132 37.4027 32.9157C37.2213 33.5329 36.9314 34.1129 36.5464 34.6283C36.3388 34.3275 36.0877 34.0591 35.8014 33.8319C36.4375 33.0197 36.8029 32.0284 36.8461 30.9976C36.5721 31.1774 36.2125 31.3915 35.9898 31.5114C35.9241 31.5343 35.8631 31.5691 35.81 31.6141L35.5189 30.578C36.0125 30.4365 36.4849 30.2291 36.9232 29.9615C36.9232 29.6276 36.9232 29.4734 36.9232 29.0282L36.2467 29.4991C36.0935 28.863 35.8574 28.2498 35.5445 27.6752L36.2638 27.2214C36.5312 27.7194 36.7519 28.2411 36.9232 28.7798V28.4373C36.9232 28.2661 36.9232 27.7095 36.9232 27.3926C36.9536 26.985 36.9536 26.5757 36.9232 26.1682C37.304 26.2112 37.6874 26.2284 38.0706 26.2195H39.9459V26.151C39.9532 25.9527 39.9359 25.7543 39.8945 25.5602H41.0505C41.0168 25.7553 40.9996 25.953 40.9991 26.151V26.2195H43.2255C43.6061 26.2312 43.987 26.2112 44.3643 26.1596V27.1443C44.0229 27.1101 43.6798 27.0958 43.3368 27.1015H41.2817L41.1276 27.6067H43.2683C43.5916 27.6108 43.9148 27.5936 44.2359 27.5553V28.4973C43.9268 28.4536 43.6145 28.4364 43.3025 28.4459H42.0523C42.2362 28.7342 42.4678 28.989 42.7374 29.1994C42.9879 28.9974 43.2022 28.7541 43.371 28.4801L44.1246 28.9682C43.8944 29.2094 43.6514 29.4381 43.3967 29.6532C43.7564 29.8547 44.1387 30.0128 44.5356 30.1242C44.3549 30.407 44.2191 30.7161 44.1331 31.0404C43.8595 30.9264 43.5935 30.7948 43.3368 30.6465L43.2511 31.6827ZM37.8565 28.5058C37.8565 29.0967 37.8565 29.5419 37.8137 30.1328C38.1005 30.0028 38.3707 29.8389 38.6186 29.6447C38.4253 29.42 38.2037 29.2214 37.9593 29.0538L38.5416 28.5401C38.7657 28.7288 38.9801 28.9288 39.1838 29.1395C39.3838 28.9342 39.5565 28.7039 39.6975 28.4544H38.9098C38.6248 28.4324 38.3385 28.4324 38.0535 28.4544V27.5296C38.3529 27.5473 38.6531 27.5473 38.9526 27.5296H40.1C40.1656 27.3651 40.22 27.1963 40.2627 27.0244H37.8308L37.8565 28.5058ZM39.5006 30.6294H42.3092V30.2184H39.5434L39.5006 30.6294ZM39.5006 31.7512H42.3092V31.3573H39.5434L39.5006 31.7512ZM41.7441 29.4392C41.4622 29.1439 41.2204 28.8128 41.0248 28.4544H40.6737C40.4955 28.8008 40.2862 29.1304 40.0486 29.4392H41.7441Z" fill="#00477B"/>
</g>
<defs>
<clipPath id="clip0_23_79">
<rect width="212" height="48.7057" fill="white"/>
</clipPath>
</defs>
</svg>
