<svg width="72" height="58" viewBox="0 0 72 58" fill="none" xmlns="http://www.w3.org/2000/svg">
<path d="M62.4387 2H9.73517C8.28647 2 7.11206 3.17441 7.11206 4.62311V37.9891C7.11206 39.4378 8.28647 40.6122 9.73517 40.6122H62.4387C63.8874 40.6122 65.0618 39.4378 65.0618 37.9891V4.62311C65.0618 3.17441 63.8874 2 62.4387 2Z" stroke="#80C5DE" stroke-width="2.5" stroke-linecap="round" stroke-linejoin="round"/>
<path d="M64.6001 39.8041L69.8988 53.6332C70.0738 53.921 70.169 54.2502 70.1747 54.587C70.1805 54.9238 70.0966 55.2561 69.9316 55.5497C69.7666 55.8434 69.5265 56.0879 69.2359 56.2581C68.9453 56.4284 68.6145 56.5183 68.2777 56.5186H3.89612C3.55908 56.519 3.22805 56.4295 2.93718 56.2592C2.6463 56.089 2.40612 55.8442 2.24144 55.5501C2.07676 55.256 1.99356 54.9233 2.00039 54.5863C2.00722 54.2494 2.10379 53.9203 2.28025 53.6332L7.57373 39.8041" stroke="#80C5DE" stroke-width="2.5" stroke-linecap="round" stroke-linejoin="round"/>
<path d="M23.1235 52.7047H49.0556" stroke="#80C5DE" stroke-width="2.5" stroke-linecap="round" stroke-linejoin="round"/>
<path d="M17.552 47.3011H13.5754L14.1 44.8983H17.0274L17.552 47.3011Z" fill="#80C5DE"/>
<path d="M23.3229 47.3011H19.3463L19.8709 44.8983H22.7983L23.3229 47.3011Z" fill="#80C5DE"/>
<path d="M29.0937 47.3011H25.1171L25.6417 44.8983H28.5691L29.0937 47.3011Z" fill="#80C5DE"/>
<path d="M34.8645 47.3011H30.8879L31.4125 44.8983H34.3399L34.8645 47.3011Z" fill="#80C5DE"/>
<path d="M40.6354 47.3011H36.6588L37.1834 44.8983H40.1108L40.6354 47.3011Z" fill="#80C5DE"/>
<path d="M46.4062 47.3011H42.4296L42.9542 44.8983H45.8816L46.4062 47.3011Z" fill="#80C5DE"/>
<path d="M52.1771 47.3011H48.2004L48.7251 44.8983H51.6525L52.1771 47.3011Z" fill="#80C5DE"/>
<path d="M57.9479 47.3011H53.9713L54.4959 44.8983H57.4233L57.9479 47.3011Z" fill="#80C5DE"/>
<path d="M38.8569 33.1888L38.1067 33.9232C37.7164 34.2953 37.1979 34.5028 36.6587 34.5028C36.1195 34.5028 35.601 34.2953 35.2108 33.9232L34.4659 33.1888" stroke="#80C5DE" stroke-width="2.5" stroke-linecap="round" stroke-linejoin="round"/>
<path d="M37.7919 34.1751L39.5075 40.4653H33.8101L35.5256 34.1751" stroke="#80C5DE" stroke-width="2.5" stroke-miterlimit="10" stroke-linecap="round"/>
<path d="M51.1489 40.4704L50.1678 35.56C49.9162 34.2923 49.2342 33.1506 48.2372 32.3283C47.6927 31.8523 47.0439 31.5108 46.3432 31.3315L41.4591 29.915C41.3521 29.8851 41.251 29.8372 41.16 29.7734C41.032 29.6882 40.9243 29.5759 40.8446 29.4444C40.7648 29.3129 40.7148 29.1656 40.6983 29.0127L40.4727 27.0821C41.8953 25.9341 42.9016 24.3509 43.3372 22.5756C44.208 22.5021 44.8796 21.5264 44.8796 20.304C44.8796 19.1761 44.313 18.258 43.5313 18.0638" stroke="#80C5DE" stroke-width="2.5" stroke-miterlimit="10" stroke-linecap="round"/>
<path d="M29.7442 18.0797C28.9888 18.2948 28.4432 19.1972 28.4432 20.3041C28.4432 21.5265 29.1094 22.497 29.9803 22.5757C30.4191 24.3496 31.4248 25.9319 32.8447 27.0822L32.6244 29.0128C32.6079 29.1657 32.558 29.3131 32.4783 29.4445C32.3985 29.576 32.2907 29.6883 32.1627 29.7735C32.0706 29.8354 31.9699 29.8831 31.8637 29.9152L26.9952 31.3264C26.2885 31.505 25.634 31.8483 25.0855 32.3284C24.0876 33.1508 23.4039 34.2922 23.1497 35.5601L22.1687 40.4706" stroke="#80C5DE" stroke-width="2.5" stroke-miterlimit="10" stroke-linecap="round"/>
<path d="M30.2636 14.5962C29.9025 15.7215 29.7253 16.8978 29.739 18.0797" stroke="#80C5DE" stroke-width="2.5" stroke-miterlimit="10" stroke-linecap="round"/>
<path d="M43.5313 18.0639C43.547 16.8819 43.3698 15.7053 43.0067 14.5804" stroke="#80C5DE" stroke-width="2.5" stroke-miterlimit="10" stroke-linecap="round"/>
<path d="M43.0277 14.5803C41.7457 15.2176 40.3007 15.4517 38.8831 15.2519C37.3092 15.084 36.1342 14.3442 34.7544 13.7147C33.7996 13.2792 32.6926 12.9907 31.7116 13.3527C31.0899 13.5707 30.573 14.0145 30.2636 14.5961" stroke="#80C5DE" stroke-width="2.5" stroke-miterlimit="10" stroke-linecap="round"/>
<path d="M40.6459 28.5616L36.6588 32.129L32.6716 28.5616" stroke="#80C5DE" stroke-width="2.5" stroke-linecap="round" stroke-linejoin="round"/>
<path d="M42 37.8446L46.5117 37" stroke="#80C5DE" stroke-width="2.5" stroke-linecap="round" stroke-linejoin="round"/>
<path d="M30.1272 15.0158V9.35522C30.1272 8.78892 30.3522 8.24582 30.7526 7.84539C31.153 7.44496 31.6962 7.21997 32.2624 7.21997H40.8819C41.1623 7.21997 41.44 7.2752 41.6991 7.38251C41.9582 7.48981 42.1935 7.64712 42.3918 7.84539C42.59 8.04367 42.7474 8.279 42.8547 8.53806C42.962 8.79711 43.0172 9.07482 43.0172 9.35522V14.6014" stroke="#80C5DE" stroke-width="2.5" stroke-miterlimit="10" stroke-linecap="round"/>
<path d="M36.5801 12.1304V9.14526" stroke="#80C5DE" stroke-miterlimit="10" stroke-linecap="round"/>
<path d="M35.0901 10.6405H38.0752" stroke="#80C5DE" stroke-miterlimit="10" stroke-linecap="round"/>
</svg>
