<svg width="69" height="70" viewBox="0 0 69 70" fill="none" xmlns="http://www.w3.org/2000/svg">
<path d="M28.3044 15.7398C26.8934 12.3246 26.8934 8.4894 28.3044 5.07422H52.5682V15.7398H28.3044Z" stroke="#80C5DE" stroke-width="2.5" stroke-miterlimit="10" stroke-linecap="round"/>
<path d="M19.7007 10.4097H9.64899" stroke="#80C5DE" stroke-width="2.5" stroke-miterlimit="10" stroke-linecap="round"/>
<path d="M56.1252 17.0724C56.1252 17.3057 56.0793 17.5367 55.9898 17.7522C55.9004 17.9676 55.7692 18.1634 55.604 18.3281C55.4388 18.4928 55.2428 18.6233 55.027 18.7121C54.8113 18.8009 54.5801 18.8463 54.3468 18.8456C54.1135 18.8463 53.8823 18.8009 53.6665 18.7121C53.4508 18.6233 53.2548 18.4928 53.0895 18.3281C52.9243 18.1634 52.7932 17.9676 52.7038 17.7522C52.6143 17.5367 52.5682 17.3057 52.5682 17.0724V3.77848C52.5682 3.3068 52.7556 2.85444 53.0892 2.52091C53.4227 2.18738 53.8751 2 54.3468 2C54.8185 2 55.2708 2.18738 55.6043 2.52091C55.9378 2.85444 56.1252 3.3068 56.1252 3.77848" stroke="#80C5DE" stroke-width="2.5" stroke-miterlimit="10" stroke-linecap="round"/>
<path d="M64.0996 13.5049V7.31443C64.0989 7.08112 64.1442 6.84999 64.233 6.63425C64.3218 6.41851 64.4523 6.22239 64.617 6.05718C64.7817 5.89196 64.9774 5.76084 65.1929 5.6714C65.4084 5.58196 65.6394 5.53595 65.8727 5.53595V5.53595C66.1063 5.53595 66.3376 5.58196 66.5534 5.67133C66.7691 5.76071 66.9651 5.89171 67.1302 6.05686C67.2954 6.222 67.4264 6.41803 67.5158 6.6338C67.6051 6.84957 67.6511 7.08087 67.6511 7.31443V13.5049C67.6511 13.7382 67.6052 13.9692 67.5158 14.1847C67.4263 14.4002 67.2952 14.5959 67.13 14.7606C66.9648 14.9254 66.7687 15.0559 66.553 15.1447C66.3372 15.2335 66.106 15.2788 65.8727 15.2781V15.2781C65.6399 15.2781 65.4093 15.2323 65.1942 15.1432C64.979 15.0541 64.7835 14.9234 64.6188 14.7588C64.4542 14.5941 64.3236 14.3987 64.2344 14.1836C64.1453 13.9684 64.0996 13.7378 64.0996 13.5049V13.5049Z" stroke="#80C5DE" stroke-width="2.5" stroke-miterlimit="10" stroke-linecap="round"/>
<path d="M52.5683 13.0643H64.0943V7.7551H52.5683" stroke="#80C5DE" stroke-width="2.5" stroke-miterlimit="10" stroke-linecap="round"/>
<path d="M19.8371 11.6897C19.9056 12.1268 20.1275 12.5251 20.463 12.8135C20.7985 13.1019 21.2256 13.2615 21.668 13.2636H27.5647C27.1765 11.3967 27.1765 9.46983 27.5647 7.60291H21.668C21.2259 7.6061 20.7993 7.76601 20.464 8.0542C20.1288 8.34239 19.9066 8.74017 19.8371 9.17677C19.6956 10.0084 19.6956 10.8581 19.8371 11.6897V11.6897Z" stroke="#80C5DE" stroke-width="2.5" stroke-miterlimit="10" stroke-linecap="round"/>
<path d="M42.8627 8.04364H30.4712C30.13 9.59901 30.13 11.2099 30.4712 12.7652H44.0013C43.2739 11.2961 42.8848 9.68278 42.8627 8.04364Z" fill="#80C5DE"/>
<path d="M3.80996 27.9898H8.0489" stroke="#80C5DE" stroke-width="2.5" stroke-miterlimit="10" stroke-linecap="round"/>
<path d="M2 25.1621V26.2113C2 26.6802 2.18627 27.1299 2.51783 27.4615C2.84939 27.793 3.29914 27.9793 3.76804 27.9793V27.9793V62.2948C3.76804 63.8573 4.38868 65.3559 5.49355 66.4607C6.59842 67.5656 8.09701 68.1863 9.65953 68.1863V68.1863C10.4337 68.187 11.2003 68.0351 11.9157 67.7393C12.6311 67.4435 13.2812 67.0097 13.8288 66.4625C14.3765 65.9154 14.8108 65.2657 15.1072 64.5506C15.4036 63.8355 15.5563 63.0689 15.5563 62.2948V27.9793C15.7882 27.9793 16.0178 27.9335 16.232 27.8446C16.4462 27.7557 16.6408 27.6254 16.8046 27.4611C16.9683 27.2969 17.098 27.1019 17.1862 26.8875C17.2745 26.673 17.3196 26.4432 17.3189 26.2113V25.1621C17.3196 24.9302 17.2745 24.7003 17.1862 24.4859C17.098 24.2714 16.9683 24.0764 16.8046 23.9122C16.6408 23.748 16.4462 23.6177 16.232 23.5288C16.0178 23.4399 15.7882 23.3941 15.5563 23.3941H3.76804C3.29914 23.3941 2.84939 23.5804 2.51783 23.9119C2.18627 24.2435 2 24.6932 2 25.1621Z" stroke="#80C5DE" stroke-width="2.5" stroke-miterlimit="10" stroke-linecap="round"/>
<path d="M6.57994 45.3074V62.3052C6.61271 63.0979 6.95067 63.8472 7.52313 64.3965C8.0956 64.9458 8.85822 65.2525 9.65159 65.2525C10.445 65.2525 11.2076 64.9458 11.7801 64.3965C12.3525 63.8472 12.6905 63.0979 12.7232 62.3052V43.7861C11.3843 44.8613 9.71885 45.4479 8.00165 45.4491C7.5243 45.4474 7.04823 45.4 6.57994 45.3074Z" fill="#80C5DE"/>
<path d="M23.6092 39.3636H27.8481" stroke="#80C5DE" stroke-width="2.5" stroke-miterlimit="10" stroke-linecap="round"/>
<path d="M21.7835 36.5358V37.5851C21.7835 38.054 21.9697 38.5037 22.3013 38.8352C22.6329 39.1668 23.0826 39.3531 23.5515 39.3531V62.2895C23.5515 63.0636 23.704 63.8302 24.0004 64.5454C24.2968 65.2605 24.7313 65.9102 25.2789 66.4574C25.8266 67.0045 26.4766 67.4383 27.192 67.7341C27.9074 68.0298 28.6741 68.1818 29.4483 68.1811C31.0108 68.1811 32.5092 67.5604 33.6141 66.4555C34.719 65.3506 35.3397 63.852 35.3397 62.2895V39.3688C35.8086 39.3688 36.2583 39.1825 36.5898 38.851C36.9214 38.5194 37.1077 38.0697 37.1077 37.6008V36.5516C37.1077 36.0827 36.9214 35.633 36.5898 35.3015C36.2583 34.9699 35.8086 34.7836 35.3397 34.7836H23.5515C23.0853 34.7836 22.6379 34.9677 22.3068 35.2959C21.9757 35.6241 21.7876 36.0697 21.7835 36.5358V36.5358Z" stroke="#80C5DE" stroke-width="2.5" stroke-miterlimit="10" stroke-linecap="round"/>
<path d="M26.3739 56.6814V62.3053C26.4067 63.098 26.7446 63.8473 27.3171 64.3966C27.8896 64.9459 28.6522 65.2527 29.4456 65.2527C30.2389 65.2527 31.0016 64.9459 31.574 64.3966C32.1465 63.8473 32.4844 63.098 32.5172 62.3053V55.16C31.6673 55.8484 30.6765 56.3415 29.6149 56.6044C28.5533 56.8673 27.4468 56.8936 26.3739 56.6814Z" fill="#80C5DE"/>
<path d="M43.4032 39.3636H47.6421" stroke="#80C5DE" stroke-width="2.5" stroke-miterlimit="10" stroke-linecap="round"/>
<path d="M41.5827 36.5358V37.5851C41.582 37.817 41.6271 38.0468 41.7154 38.2613C41.8037 38.4758 41.9334 38.6707 42.0972 38.8349C42.261 38.9992 42.4555 39.1295 42.6697 39.2184C42.8839 39.3073 43.1136 39.3531 43.3455 39.3531V62.2895C43.3455 63.0636 43.498 63.8302 43.7944 64.5454C44.0908 65.2605 44.5253 65.9102 45.0729 66.4574C45.6206 67.0045 46.2707 67.4383 46.9861 67.7341C47.7015 68.0298 48.4681 68.1818 49.2422 68.1811C50.8048 68.1811 52.3032 67.5604 53.4081 66.4555C54.513 65.3506 55.1337 63.852 55.1337 62.2895V39.3688C55.6026 39.3688 56.0522 39.1825 56.3838 38.851C56.7154 38.5194 56.9016 38.0697 56.9016 37.6008V36.5516C56.9016 36.0827 56.7154 35.633 56.3838 35.3015C56.0522 34.9699 55.6026 34.7836 55.1337 34.7836H43.3455C42.8798 34.7836 42.433 34.9679 42.1027 35.2962C41.7724 35.6245 41.5855 36.0702 41.5827 36.5358V36.5358Z" stroke="#80C5DE" stroke-width="2.5" stroke-miterlimit="10" stroke-linecap="round"/>
<path d="M46.1731 56.6814V62.3053C46.1731 63.1193 46.4965 63.8999 47.072 64.4755C47.6476 65.051 48.4283 65.3743 49.2422 65.3743C50.0562 65.3743 50.8368 65.051 51.4123 64.4755C51.9879 63.8999 52.3112 63.1193 52.3112 62.3053V55.16C51.4623 55.8483 50.4725 56.3414 49.4117 56.6043C48.3509 56.8672 47.2452 56.8936 46.1731 56.6814Z" fill="#80C5DE"/>
<path d="M11.5744 17.6758C11.5744 16.6265 9.64903 13.9771 9.64903 13.9771C9.64903 13.9771 7.72358 16.6003 7.72358 17.6758C7.72358 18.1864 7.92645 18.6761 8.28752 19.0372C8.6486 19.3983 9.13839 19.6011 9.64903 19.6011C10.1597 19.6011 10.6493 19.3983 11.0104 19.0372C11.3715 18.6761 11.5744 18.1864 11.5744 17.6758Z" fill="#80C5DE"/>
</svg>
