<svg width="71" height="69" viewBox="0 0 71 69" fill="none" xmlns="http://www.w3.org/2000/svg">
<path d="M26.9458 49.3261V58.8532H55.6531V49.3261" stroke="#80C5DE" stroke-width="2.5" stroke-miterlimit="10" stroke-linecap="round"/>
<path d="M55.6531 49.3314H67.0689V46.4198C67.0689 45.77 66.8107 45.1468 66.3512 44.6873C65.8918 44.2279 65.2687 43.9698 64.6189 43.9698H17.98C17.3311 43.9711 16.7093 44.2299 16.251 44.6892C15.7927 45.1485 15.5353 45.7709 15.5353 46.4198V49.3314H26.9406" stroke="#80C5DE" stroke-width="2.5" stroke-miterlimit="10" stroke-linecap="round"/>
<path d="M2 58.8532H63.3808C64.8612 58.8532 66.281 59.4413 67.3278 60.4881C68.3747 61.5349 68.9628 62.9547 68.9628 64.4352V67.436" stroke="#80C5DE" stroke-width="2.5" stroke-miterlimit="10" stroke-linecap="round"/>
<path d="M11.6374 13.0118H23.8662V15.0001C23.8662 15.6958 24.1426 16.363 24.6345 16.855C25.1265 17.3469 25.7936 17.6233 26.4893 17.6233H29.7578C30.3388 17.6235 30.91 17.7726 31.417 18.0564C31.9239 18.3402 32.3497 18.7492 32.6536 19.2443L34.3272 21.9933H48.3031L49.9819 19.2443C50.2842 18.7489 50.7089 18.3396 51.2152 18.0557C51.7214 17.7718 52.2921 17.6229 52.8726 17.6233H56.1409C56.8366 17.6233 57.5039 17.3469 57.9958 16.855C58.4877 16.363 58.764 15.6958 58.764 15.0001V5.21594C58.7647 4.79342 58.6821 4.37492 58.5207 3.98444C58.3593 3.59395 58.1224 3.23914 57.8237 2.94038C57.5249 2.64161 57.1702 2.40473 56.7797 2.24336C56.3892 2.08199 55.9707 1.99931 55.5482 2H27.1137C26.6912 1.99931 26.2727 2.08199 25.8822 2.24336C25.4917 2.40473 25.1368 2.64161 24.8381 2.94038C24.5393 3.23914 24.3024 3.59395 24.1411 3.98444C23.9797 4.37492 23.897 4.79342 23.8977 5.21594V8.00165H10.3624C8.15291 8.00165 6.03394 8.87943 4.47157 10.4418C2.90921 12.0042 2.03149 14.1231 2.03149 16.3326V67.4413H68.9889" stroke="#80C5DE" stroke-width="2.5" stroke-miterlimit="10" stroke-linecap="round"/>
<path d="M55.9154 31.3736L49.6462 31.6306C49.0435 31.6507 48.4516 31.7953 47.9075 32.0553C47.3634 32.3153 46.879 32.685 46.4848 33.1413C46.0906 33.5976 45.7951 34.1306 45.6169 34.7067C45.4387 35.2828 45.3816 35.8894 45.4492 36.4886H40.7696C40.0878 36.4886 39.4336 36.7584 38.95 37.2391C38.4664 37.7197 38.1926 38.3722 38.1884 39.054V43.9592H53.8484C54.5508 43.9428 55.2187 43.6518 55.7091 43.1487C56.1994 42.6456 56.4731 41.9704 56.4715 41.2679V39.0383C56.4695 38.6978 56.3998 38.3611 56.2664 38.0479C56.1329 37.7347 55.9384 37.4511 55.6942 37.2138C55.4501 36.9765 55.1612 36.7901 54.8443 36.6656C54.5274 36.5411 54.1888 36.481 53.8484 36.4886" stroke="#80C5DE" stroke-width="2.5" stroke-miterlimit="10" stroke-linecap="round"/>
<path d="M68.2545 41.8975C68.7314 41.1496 68.9758 40.277 68.9569 39.3901C68.9379 38.5033 68.6565 37.642 68.1481 36.9151C67.6396 36.1883 66.9271 35.6284 66.1005 35.3064C65.274 34.9845 64.3706 34.9147 63.5045 35.1061C62.6383 35.2975 61.8483 35.7415 61.2345 36.3818C60.6206 37.0221 60.2103 37.8301 60.0556 38.7035C59.9009 39.577 60.0086 40.4767 60.3652 41.2889C60.7217 42.1012 61.311 42.7895 62.0587 43.2668C62.5554 43.5839 63.1097 43.8 63.6899 43.9028C64.2702 44.0056 64.8649 43.993 65.4403 43.8658C66.0157 43.7387 66.5604 43.4994 67.0432 43.1616C67.5261 42.8239 67.9377 42.3944 68.2545 41.8975Z" stroke="#80C5DE" stroke-width="2.5" stroke-miterlimit="10" stroke-linecap="round"/>
<path d="M33.2623 43.9645H18.5729C17.7645 43.9645 16.9891 43.6434 16.4175 43.0718C15.8459 42.5002 15.5248 41.7248 15.5248 40.9164V38.86H38.1989" stroke="#80C5DE" stroke-width="2.5" stroke-miterlimit="10"/>
<path d="M26.9458 49.3261H32.6065" stroke="#80C5DE" stroke-width="2.5" stroke-miterlimit="10" stroke-linecap="round"/>
<path d="M34.3062 26.2112H48.2927" stroke="#80C5DE" stroke-width="2.5" stroke-miterlimit="10" stroke-linecap="round"/>
</svg>
