<svg width="134" height="49" viewBox="0 0 134 49" fill="none" xmlns="http://www.w3.org/2000/svg">
<g clip-path="url(#clip0_2_2)">
<path d="M48.7594 0H0V48.7594H48.7594V0Z" fill="#E4F4FB"/>
<path d="M14.6492 23.0036H16.4656V15.7379H18.2821V23.0036H20.0985V15.7379H21.9149V23.0036H23.7313V13.9214H14.6492V23.0036Z" fill="#004E7D"/>
<path d="M4.26367 23.0036H13.3458V21.1872H6.0801V15.7379H13.3458V13.9214H4.26367V23.0036Z" fill="#004E7D"/>
<path fill-rule="evenodd" clip-rule="evenodd" d="M20.9237 31.635L21.6933 31.3369C22.0261 32.1342 22.2271 32.6542 22.3034 32.9037L21.5061 33.1394C21.339 32.6279 21.1446 32.1257 20.9237 31.635ZM19.7451 31.7806L20.584 31.5934C20.7859 32.2551 20.9457 32.929 21.0624 33.6109L20.2097 33.7426C20.0987 33.1325 19.9462 32.4808 19.7798 31.7806H19.7451ZM18.6428 31.7806H19.5094C19.5926 32.7928 19.6342 33.6109 19.6273 34.2349L18.7745 34.1933C18.8059 33.3936 18.7618 32.5928 18.6428 31.8014V31.7806ZM17.4642 32.5918C16.7454 33.0716 15.9923 33.4979 15.211 33.8674L14.7673 32.9869L15.7102 32.5779V30.1583H15.0515V29.2223H15.7102V27.1841H15.0515V26.2689H17.2909V27.2048H16.5976V29.2431H17.2008V30.1791H16.5976V32.0787L16.972 31.8083L17.4919 32.5016C17.5613 32.2474 17.6237 31.977 17.6791 31.6905L18.5873 31.9401C18.3822 32.9014 17.981 33.81 17.4087 34.6092C17.217 34.3762 16.9815 34.1831 16.7155 34.0407C16.974 33.7018 17.1883 33.3314 17.3533 32.9384C17.3819 32.8271 17.419 32.7182 17.4642 32.6125V32.5918ZM19.9115 28.945H18.525V28.4459H19.9115V28.945ZM19.9115 27.6208H18.525V27.191C18.5228 27.1775 18.5237 27.1636 18.5277 27.1505C18.5317 27.1373 18.5387 27.1253 18.5481 27.1153C18.5574 27.1052 18.5689 27.0975 18.5818 27.0926C18.5946 27.0877 18.6083 27.0858 18.622 27.087H19.8838L19.9115 27.6208ZM18.525 30.2623V29.7631H19.9115V30.29L18.525 30.2623ZM17.6167 30.6089V30.9833C17.6167 31.0942 17.6653 31.1497 17.7762 31.1497H22.2271C22.3103 31.1497 22.345 31.1497 22.345 31.2259C22.3916 31.8884 22.3916 32.5533 22.345 33.2157C22.3168 33.4254 22.2248 33.6215 22.0816 33.7773C21.9895 33.8509 21.8734 33.8879 21.7557 33.8813C21.4152 33.8534 21.0771 33.8024 20.7435 33.7288L20.8336 34.7202C21.4762 34.8536 22.1449 34.7682 22.7332 34.4775C22.9748 34.271 23.1306 33.9817 23.17 33.6664C23.2913 32.6056 23.3353 31.5374 23.3018 30.4703C23.3018 30.3316 23.2463 30.2623 23.1215 30.2554H20.8128V29.7562H22.8442V28.9381H20.8128V28.4389H22.8026V27.6139H20.8128V27.0801H23.0244V26.1857H17.8455C17.8177 26.1821 17.7893 26.1851 17.7628 26.1943C17.7363 26.2036 17.7123 26.219 17.6927 26.2392C17.6732 26.2594 17.6587 26.2839 17.6503 26.3107C17.6419 26.3375 17.6399 26.366 17.6445 26.3937L17.6167 30.6089ZM8.49297 31.6766V34.6786H9.43586V31.6766H11.1899C11.2454 31.6766 11.2731 31.6766 11.2731 31.7529V33.2781C11.2731 33.4029 11.1899 33.493 11.0235 33.5623C10.5849 33.6259 10.1372 33.5709 9.72704 33.4029V34.4775C10.3893 34.6665 11.0937 34.6471 11.7445 34.4221C11.8746 34.3703 11.986 34.2803 12.064 34.1639C12.1419 34.0476 12.1828 33.9104 12.1813 33.7704V30.9972C12.1859 30.9651 12.1831 30.9324 12.1729 30.9017C12.1627 30.871 12.1454 30.8431 12.1225 30.8202C12.0997 30.7973 12.0717 30.7801 12.041 30.7699C12.0103 30.7597 11.9776 30.7568 11.9456 30.7614H9.40812V30.0681H8.46524V30.7614H7.18265C7.51436 30.4526 7.82692 30.1239 8.11859 29.777L8.15326 29.7354H12.729V28.7994H8.83962C8.92975 28.6469 9.03375 28.4944 9.14467 28.3419L8.48605 27.8981C8.63164 27.8427 8.80495 27.7803 8.99908 27.7248C9.85876 27.9813 10.7947 28.2933 11.7723 28.6816L12.0288 27.7733C11.4603 27.5584 10.9126 27.3574 10.3787 27.1702L11.3493 26.7195L10.9334 25.8529C10.3144 26.1831 9.67797 26.4794 9.02681 26.7403C7.90797 26.3864 6.76273 26.1221 5.60194 25.95L5.39395 26.8721C5.96245 26.9553 6.57947 27.08 7.25197 27.2464C6.37562 27.4285 5.48454 27.5306 4.58972 27.5515L4.79771 28.4805C5.79456 28.4688 6.78629 28.3361 7.75114 28.0853L8.29885 27.9467C8.09086 28.2656 7.90367 28.5498 7.72342 28.7994H4.52039V29.7354H6.96079C6.38086 30.2875 5.74143 30.7734 5.05423 31.1843L4.21535 31.6073L4.73532 32.4254C5.0681 32.252 5.42861 32.0579 5.74059 31.8569V34.4151H6.68347V31.7667C6.6834 31.7476 6.69048 31.7292 6.70331 31.7151C6.71615 31.701 6.73381 31.6922 6.75281 31.6905L8.49297 31.6766Z" fill="#004E7D"/>
<path d="M25.0281 23.0036H34.1103V21.1872H26.8445V19.3707H34.1103V17.5543H26.8445V15.7379H34.1103V13.9214H25.0281V23.0036Z" fill="#004E7D"/>
<path d="M44.4887 13.9214H35.4065V15.7379H42.6722V17.5543H35.4065V23.0036H37.2229V19.3707H39.0394L42.1107 23.0036H44.4887L41.4174 19.3707H44.4887V13.9214Z" fill="#004E7D"/>
<path d="M60.684 38.0064C59.9353 38.638 59.1455 39.2193 58.3199 39.7466C58.0207 38.9315 57.5689 38.1809 56.9888 37.5349C58.9368 36.5243 60.6643 35.1362 62.0706 33.4514H59.9422C59.0675 33.434 58.1926 33.4664 57.3216 33.5485V31.0457C58.1916 31.1417 59.067 31.181 59.9422 31.1636H63.6167C63.8776 30.6906 64.0735 30.1845 64.1991 29.6591L66.9722 30.0127C66.8282 30.2121 66.7094 30.4288 66.6186 30.6575C66.5424 30.8169 66.48 30.9278 66.3483 31.1636H72.678C73.5394 31.1807 74.4009 31.1413 75.2571 31.0457V33.5485C74.4002 33.4638 73.5389 33.4314 72.678 33.4514H68.3103V35.0322H71.8669C72.4803 35.0471 73.0941 35.0216 73.7041 34.9559C73.6467 35.4807 73.6212 36.0086 73.6279 36.5366V40.0031C73.6279 40.9598 73.4337 41.3897 72.9346 41.7432C72.3425 41.9983 71.6993 42.1122 71.0557 42.076C70.7854 42.076 70.5496 42.076 69.7454 42.0344C69.6805 41.2536 69.4909 40.4882 69.1838 39.7673C69.6544 39.8384 70.1292 39.8778 70.6051 39.8852C71.0557 39.8852 71.1944 39.7881 71.1944 39.5178V37.223H68.3103V41.0707C68.2956 41.7822 68.335 42.4937 68.4281 43.1991H65.752C65.8437 42.4935 65.8831 41.7821 65.8699 41.0707V37.223H63.1522V40.1695C63.1328 40.8642 63.1652 41.5594 63.2492 42.2493H60.5731C60.6603 41.5596 60.6997 40.8646 60.691 40.1695L60.684 38.0064ZM71.4301 30.8724C70.0261 30.1072 68.5846 29.413 67.1109 28.7925C64.5991 29.6273 62.0162 30.2307 59.3945 30.5951C59.0474 29.8565 58.5787 29.1816 58.0079 28.5984C60.0036 28.4353 61.9791 28.0824 63.9079 27.5445C62.623 27.063 61.3131 26.6511 59.9838 26.3105L62.2648 24.9239C63.5751 25.3122 64.83 25.7281 66.9584 26.5046C68.1456 26.059 69.2636 25.4475 70.2792 24.6882L73.0178 25.9985C72.6812 26.1456 72.3546 26.3146 72.0402 26.5046C71.3123 26.8998 70.4526 27.3643 69.8702 27.6624C70.3971 27.8774 71.5688 28.4042 73.3367 29.2431L71.4301 30.8724ZM65.8838 35.0322V33.4514H64.9478C64.5624 34.0036 64.1433 34.5315 63.6929 35.0322H65.8838Z" fill="#004E7D"/>
<path d="M78.3007 28.1338C77.7724 28.1209 77.2439 28.1487 76.72 28.217V25.735C77.3047 25.8001 77.8926 25.8325 78.4809 25.8321H81.157C81.7638 25.8327 82.3702 25.8003 82.9735 25.735V28.21C82.4539 28.1439 81.9303 28.1161 81.4066 28.1269H81.06V31.3923H81.2333C81.6714 31.3999 82.1094 31.3743 82.5436 31.316V33.7564C82.1091 33.7011 81.6713 33.6756 81.2333 33.6802H81.06V37.2229C81.3928 37.1258 81.6216 37.0496 82.6615 36.696L82.7586 38.9631C81.1764 39.6477 79.556 40.2403 77.9055 40.7379C77.5935 40.8558 77.2122 40.9944 76.9071 41.1123L76.4426 38.4153C77.184 38.3176 77.9149 38.1529 78.6265 37.9231V33.6871H78.4324C77.9682 33.678 77.5042 33.7104 77.0458 33.7841V31.3229C77.4914 31.3837 77.9412 31.4092 78.3908 31.3992H78.6265V28.1338H78.3007ZM85.0811 37.2229C84.9306 39.1622 84.4425 41.0603 83.639 42.8317L81.8018 41.7362C82.663 40.2527 83.1773 38.5936 83.3063 36.8832L85.0811 37.2229ZM90.676 34.4497H92.8807C93.4756 34.466 94.071 34.4405 94.6624 34.3735C94.6624 34.6092 94.6 35.351 94.5584 36.6405C94.4267 40.1555 94.191 41.4936 93.6017 42.2701C93.1372 42.8525 92.4092 43.0674 90.773 43.0674C90.3432 43.0674 90.0797 43.0673 89.4627 43.0119C89.4674 42.2269 89.3624 41.4452 89.1507 40.6894L88.1524 40.8627C88.0927 39.641 87.949 38.4249 87.7226 37.2229L89.1715 37.008C89.4899 38.1777 89.6919 39.3759 89.7747 40.5853L89.2894 40.6824C89.3808 40.6789 89.4722 40.6906 89.5598 40.7171C90.0167 40.809 90.4805 40.8623 90.9464 40.8766C91.4317 40.8766 91.709 40.7587 91.8269 40.4467C92.0626 39.9545 92.1804 38.7273 92.1943 36.4395H85.5733C84.5334 36.4395 83.9718 36.4395 83.4241 36.5019C83.4915 35.681 83.517 34.8572 83.5004 34.0337V27.7941C83.5151 27.0325 83.4827 26.2707 83.4033 25.5131C84.241 25.6085 85.084 25.6479 85.9269 25.631H92.0764C92.9054 25.6426 93.7343 25.6032 94.5584 25.5131V27.7802C93.8329 27.7063 93.1038 27.6739 92.3746 27.6831H90.676V28.7161H92.2567C92.7778 28.7274 93.2991 28.7019 93.8166 28.6399V30.595C93.3064 30.5289 92.7919 30.5011 92.2775 30.5118H90.676V31.5656H92.2775C92.7871 31.5776 93.2969 31.5521 93.8027 31.4893V33.4444C93.3008 33.3899 92.7962 33.3645 92.2914 33.3682H90.676V34.4497ZM87.1332 37.1327C87.3145 38.3216 87.4141 39.5215 87.4314 40.724V41.6253L85.5317 41.8194C85.5941 40.8835 85.6149 40.4328 85.6149 39.6286C85.6149 38.8244 85.6149 38.242 85.5317 37.2298L87.1332 37.1327ZM88.4158 27.6901H85.8992V28.7231H88.4158V27.6901ZM88.4158 30.5187H85.8992V31.5725H88.4158V30.5187ZM85.8992 33.3751V34.4844H88.4158V33.3751H85.8992ZM90.9394 36.8416C91.294 37.7155 91.5746 38.6177 91.7783 39.5385L90.3917 39.9683C90.2073 39.024 89.9452 38.0965 89.6083 37.1952L90.9394 36.8416Z" fill="#004E7D"/>
<path d="M100.202 34.2904C100.008 34.8174 99.9454 34.9837 99.675 35.677L97.0335 35.261C97.7742 33.6357 98.3502 31.9402 98.7529 30.2C98.8688 29.765 98.9545 29.3226 99.0094 28.8758L101.665 29.2225C101.568 29.576 101.547 29.6523 101.415 30.1861C101.283 30.7199 101.117 31.2746 100.944 31.9402H107.488V28.03H100.146C99.2667 28.0194 98.3871 28.0587 97.5119 28.1478V25.5688C98.3866 25.6651 99.2666 25.7044 100.146 25.6866H110.601C111.483 25.704 112.366 25.6646 113.243 25.5688V28.1478C112.365 28.055 111.483 28.0156 110.601 28.03H109.998L110.04 31.9402H111.426C112.281 31.9553 113.135 31.9159 113.985 31.8223V34.4222C113.135 34.3342 112.281 34.2949 111.426 34.3043H110.04L110.102 40.5786C110.102 42.6585 109.457 43.1022 106.351 43.1022C105.922 43.1022 105.568 43.1022 104.708 43.0606C104.615 42.1907 104.405 41.3373 104.084 40.5232C104.933 40.629 105.787 40.6869 106.643 40.6965C107.44 40.6965 107.558 40.6341 107.558 40.225L107.502 34.4984C106.675 35.7891 105.669 36.9561 104.514 37.9649C102.475 39.7814 100.167 41.2711 97.6714 42.3812C97.2397 41.5688 96.7011 40.8179 96.0699 40.1488C98.2929 39.3488 100.372 38.1946 102.226 36.7308C103.144 36.0348 103.971 35.2266 104.688 34.3251L100.202 34.2904Z" fill="#004E7D"/>
<path d="M118.921 28.4112C118.373 28.5083 117.943 28.5846 116.772 28.7232C116.605 27.9641 116.33 27.2332 115.953 26.5532C119.136 26.2412 121.541 25.6519 122.713 24.9309L124.1 27.0108C124.011 27.0587 123.918 27.0981 123.822 27.1286C123.012 27.4589 122.177 27.7277 121.327 27.9328V30.1583H122.297C122.796 30.1739 123.295 30.1414 123.788 30.0613V32.5017C123.281 32.4441 122.772 32.4186 122.262 32.4254H121.437C122.692 34.1032 122.824 34.2419 124.1 35.1986C123.609 35.9549 123.215 36.7702 122.928 37.6251C122.273 36.916 121.707 36.129 121.243 35.2818C121.243 35.67 121.306 36.3703 121.327 37.3617V40.7796C121.304 41.6016 121.341 42.4241 121.437 43.2408H118.782C118.868 42.4233 118.907 41.6016 118.9 40.7796V38.048C118.9 37.6737 118.9 37.2022 118.976 35.9681C118.513 37.3965 117.771 38.7186 116.792 39.8575C116.493 38.9799 116.093 38.14 115.6 37.3547C116.961 35.9536 117.989 34.2641 118.609 32.4115H117.708C117.133 32.4088 116.559 32.4412 115.988 32.5086V30.0474C116.572 30.1234 117.161 30.1558 117.749 30.1445H118.921V28.4112ZM125.563 39.5664C124.703 39.7466 124.12 39.8991 123.649 40.0378L123.413 37.3617C124.039 37.3413 124.661 37.2624 125.271 37.1259L129.549 36.2039V27.4337C129.578 26.6437 129.539 25.8527 129.431 25.0695H132.204C132.103 25.8463 132.063 26.6299 132.086 27.4129V35.6631C132.677 35.5394 133.259 35.3749 133.827 35.1708L133.979 37.8123C133.342 37.8864 132.71 37.9975 132.086 38.1451V40.8767C132.062 41.6735 132.101 42.4711 132.204 43.2616H129.431C129.539 42.4645 129.578 41.6597 129.549 40.8559V38.6859L125.563 39.5664ZM125.16 30.9834C126.46 31.8693 127.676 32.8718 128.793 33.9784L127.31 35.9889C126.219 34.7887 124.993 33.7186 123.656 32.7998L125.16 30.9834ZM125.854 26.1303C127.209 26.9718 128.457 27.9752 129.57 29.1184L127.934 31.0874C126.853 29.8782 125.626 28.8091 124.28 27.9051L125.854 26.1303Z" fill="#004E7D"/>
<path d="M63.79 15.6754C63.6846 16.2 63.4644 16.6949 63.1452 17.1244C62.4624 17.7784 61.5598 18.1538 60.6146 18.1769C59.6693 18.1999 58.7496 17.8691 58.0356 17.2492C57.3378 16.3736 56.9643 15.2837 56.9782 14.1643C56.9921 13.0448 57.3926 11.9645 58.1119 11.1066C58.4335 10.8021 58.8124 10.5644 59.2265 10.4073C59.6407 10.2502 60.0819 10.1768 60.5246 10.1914C61.1732 10.1674 61.8152 10.3285 62.3756 10.6559C62.7964 10.9156 63.1465 11.2753 63.3948 11.7028C63.5237 11.9372 63.6238 12.1863 63.6929 12.4446L62.3549 12.7566C62.2844 12.4502 62.1418 12.1649 61.9389 11.9247C61.767 11.728 61.5532 11.5723 61.3133 11.4691C61.0733 11.3659 60.8133 11.3179 60.5523 11.3285C59.1657 11.3285 58.3545 12.3961 58.3545 14.1709C58.3545 15.9458 59.2004 17.0343 60.5523 17.0343C60.849 17.0535 61.1459 17.0005 61.4177 16.8798C61.6894 16.759 61.9277 16.5741 62.1122 16.341C62.2898 16.0759 62.3994 15.771 62.4311 15.4535L63.79 15.6754Z" fill="#004E7D"/>
<path d="M68.3798 18.0187C68.2849 17.5729 68.1431 17.1383 67.9569 16.7222L66.5703 13.4152C66.3702 12.9357 66.2056 12.4422 66.0781 11.9385C66.1127 12.4446 66.1543 13.235 66.1543 13.4499V16.6113C66.1444 17.0748 66.1699 17.5383 66.2306 17.9979H64.8787C64.9385 17.5383 64.964 17.0748 64.9549 16.6113V11.7583C64.9638 11.281 64.9383 10.8037 64.8787 10.3301H66.6466C66.7262 10.7244 66.8447 11.1099 67.0001 11.4809L68.9552 16.2647L70.9034 11.4809C71.0649 11.1127 71.1813 10.7263 71.25 10.3301H73.0249C72.9667 10.8038 72.9412 11.281 72.9486 11.7583V16.6113C72.9366 17.0748 72.9621 17.5385 73.0249 17.9979H71.6799C71.7399 17.5383 71.7654 17.0748 71.7561 16.6113V13.4152C71.7908 12.5763 71.8255 12.0841 71.8324 11.9385C71.712 12.4091 71.5639 12.8721 71.3887 13.3251L69.9397 16.7153C69.7618 17.1297 69.6203 17.5589 69.5168 17.9979L68.3798 18.0187Z" fill="#004E7D"/>
<path d="M79.8676 18.088C79.4563 18.0333 79.0414 18.0101 78.6266 18.0187H75.6177C75.0422 18.0187 74.7788 18.0187 74.3975 18.0187C74.4565 17.5984 74.482 17.1742 74.4737 16.7499V11.571C74.4775 11.1561 74.452 10.7414 74.3975 10.33C74.7788 10.33 75.0284 10.33 75.6177 10.33H78.5295C78.9465 10.3323 79.3632 10.3091 79.7774 10.2607V11.571C79.3637 11.5178 78.9466 11.4946 78.5295 11.5017H75.7563V13.4915H78.0997C78.5167 13.4947 78.9335 13.4715 79.3476 13.4221V14.6839C78.9339 14.63 78.5166 14.6092 78.0997 14.6215H75.7425V16.8955H78.6335C79.0459 16.9005 79.4583 16.8773 79.8676 16.8262V18.088Z" fill="#004E7D"/>
<path d="M85.8922 18.0188C85.7831 17.489 85.6157 16.9728 85.3931 16.4797C84.8731 15.1486 84.5334 14.7881 83.7916 14.7881H82.3564V16.757C82.3474 17.179 82.3729 17.601 82.4327 18.0188H80.9976C81.0564 17.6056 81.0819 17.1883 81.0738 16.7709V11.5712C81.078 11.1516 81.0525 10.7323 80.9976 10.3163C81.3997 10.3163 81.6909 10.3163 82.2316 10.3163H84.5472C86.0101 10.3163 86.849 11.0513 86.849 12.3269C86.8663 12.5868 86.8317 12.8476 86.7472 13.094C86.6627 13.3404 86.5299 13.5674 86.3567 13.762C86.0648 14.0501 85.6927 14.2434 85.2891 14.3167C85.8922 14.5108 86.0794 14.7812 87.0362 17.0413C87.1124 17.2146 87.3551 17.7346 87.4868 17.9911L85.8922 18.0188ZM84.2977 13.6927C84.6361 13.7004 84.9644 13.5761 85.2128 13.346C85.3183 13.2317 85.3998 13.0972 85.4522 12.9507C85.5046 12.8042 85.5269 12.6486 85.5179 12.4933C85.5179 11.8 85.1227 11.4464 84.3323 11.4464H82.3564V13.6927H84.2977Z" fill="#004E7D"/>
<path d="M91.7367 11.571C91.7426 11.1514 91.7171 10.732 91.6604 10.3162C92.0417 10.3162 92.2775 10.3162 92.8806 10.3162H94.6555C95.1253 10.271 95.5994 10.3235 96.0479 10.4702C96.4965 10.617 96.91 10.8548 97.2622 11.1689C97.6316 11.5557 97.9172 12.0146 98.1009 12.5168C98.2846 13.0191 98.3626 13.5539 98.3299 14.0877C98.3625 14.6493 98.2783 15.2116 98.0826 15.7391C97.8869 16.2665 97.5839 16.7476 97.1929 17.1521C96.8507 17.4608 96.4493 17.6968 96.0131 17.8457C95.5769 17.9947 95.115 18.0535 94.6555 18.0187H92.8945C92.3121 18.0187 92.0695 18.0187 91.6743 18.0187C91.7331 17.5984 91.7586 17.1742 91.7505 16.7499L91.7367 11.571ZM94.5515 16.8817C94.8639 16.9143 95.1796 16.8757 95.475 16.7689C95.7704 16.662 96.0377 16.4896 96.257 16.2647C96.7522 15.6648 97.0001 14.8987 96.9503 14.1224C96.977 13.7471 96.9295 13.3703 96.8106 13.0135C96.6916 12.6566 96.5035 12.3266 96.257 12.0425C96.0271 11.8242 95.7521 11.6589 95.4515 11.5583C95.1508 11.4577 94.8318 11.4242 94.5168 11.4601H92.9777V16.8609L94.5515 16.8817Z" fill="#004E7D"/>
<path d="M100.334 15.5714C100.334 15.9615 100.46 16.341 100.694 16.653C100.841 16.8282 101.026 16.9679 101.235 17.0615C101.444 17.1552 101.672 17.2004 101.9 17.1937C102.116 17.2004 102.33 17.1606 102.529 17.0768C102.727 16.993 102.906 16.8674 103.051 16.7084C103.18 16.5637 103.277 16.3937 103.335 16.2093L104.472 16.5767C104.335 16.9078 104.135 17.2092 103.883 17.4641C103.619 17.7135 103.307 17.9076 102.967 18.035C102.626 18.1623 102.264 18.2205 101.9 18.2059C100.188 18.2059 99.1272 17.069 99.1272 15.2664C99.1272 13.4638 100.195 12.3129 101.845 12.3129C102.354 12.2847 102.859 12.4167 103.289 12.6902C103.72 12.9638 104.053 13.3652 104.244 13.8382C104.431 14.3031 104.525 14.8 104.521 15.301C104.521 15.301 104.521 15.3496 104.521 15.5714H100.334ZM103.273 14.6147C103.245 14.267 103.096 13.9404 102.85 13.6926C102.713 13.5597 102.55 13.4567 102.371 13.3899C102.192 13.3231 102.001 13.2939 101.81 13.3043C101.449 13.3043 101.101 13.4383 100.833 13.6804C100.566 13.9225 100.397 14.2555 100.361 14.6147H103.273Z" fill="#004E7D"/>
<path d="M105.485 18.0188C105.542 17.6053 105.567 17.1881 105.561 16.7708V13.7411C105.568 13.3215 105.542 12.902 105.485 12.4863H106.795V12.9993C106.803 13.1379 106.803 13.2767 106.795 13.4153C107.003 13.0854 107.295 12.8166 107.641 12.6363C107.987 12.456 108.374 12.3708 108.764 12.3892C109.072 12.3626 109.383 12.4119 109.668 12.5327C109.953 12.6536 110.205 12.8423 110.4 13.0825C110.657 13.484 110.772 13.96 110.726 14.4344V16.75C110.716 17.1676 110.744 17.5853 110.809 17.998H109.423C109.471 17.5838 109.495 17.167 109.492 16.75V14.6078C109.518 14.3135 109.46 14.018 109.325 13.755C109.236 13.6242 109.115 13.5189 108.972 13.4495C108.83 13.3802 108.672 13.3493 108.514 13.3598C107.821 13.3598 107.253 13.8451 106.83 14.8019V16.75C106.825 17.1673 106.851 17.5843 106.906 17.998L105.485 18.0188Z" fill="#004E7D"/>
<path d="M113.998 11.0026C113.952 11.396 113.928 11.7919 113.929 12.1881V12.4862H114.331C114.658 12.4966 114.985 12.478 115.309 12.4307V13.5678C114.995 13.5185 114.677 13.4976 114.359 13.5053H113.929V16.5004C113.929 16.9718 114.102 17.1451 114.567 17.1451C114.814 17.1438 115.056 17.069 115.26 16.9302L115.434 17.9563C115.049 18.1043 114.639 18.1727 114.227 18.1574C113.118 18.1574 112.674 17.7622 112.674 16.7708V13.5262H112.314C112.026 13.5214 111.738 13.5423 111.454 13.5885V12.4516C111.74 12.4985 112.031 12.517 112.321 12.507H112.681V12.2089C112.681 11.7929 112.681 11.37 112.619 11.0234L113.998 11.0026Z" fill="#004E7D"/>
<path d="M119.815 17.3947C119.542 17.6928 119.188 17.9048 118.796 18.0048C118.504 18.0806 118.203 18.1178 117.902 18.1157C116.723 18.1157 116.009 17.5126 116.009 16.5003C116.015 16.1607 116.121 15.8303 116.315 15.5513C116.509 15.2723 116.781 15.0572 117.098 14.9335C117.972 14.6382 118.894 14.5088 119.815 14.5522V14.06C119.815 13.4984 119.441 13.2072 118.706 13.2072C118.352 13.1982 118.004 13.2974 117.708 13.4915C117.508 13.6431 117.37 13.8624 117.319 14.1085L116.085 13.8867C116.213 13.4534 116.481 13.0751 116.848 12.812C117.389 12.4439 118.039 12.2704 118.692 12.3198C119.031 12.2814 119.374 12.3119 119.7 12.4096C120.027 12.5073 120.33 12.6702 120.592 12.8883C120.761 13.0628 120.889 13.2728 120.967 13.503C121.045 13.7333 121.071 13.978 121.042 14.2194V16.8123C121.037 17.2158 121.063 17.619 121.119 18.0187H119.815V17.3947ZM119.815 15.3911C117.978 15.3911 117.25 15.7447 117.25 16.5003C117.25 16.951 117.59 17.1936 118.131 17.1936C118.624 17.1987 119.102 17.018 119.469 16.6875C119.582 16.5772 119.672 16.4444 119.732 16.2976C119.791 16.1508 119.82 15.9932 119.815 15.8348V15.3911Z" fill="#004E7D"/>
<path d="M123.663 10.3441C123.61 10.7625 123.587 11.1841 123.594 11.6059V16.7709C123.59 17.1879 123.613 17.6048 123.663 18.0188H122.276C122.328 17.6049 122.351 17.188 122.346 16.7709V11.5712C122.353 11.1518 122.33 10.7324 122.276 10.3163L123.663 10.3441Z" fill="#004E7D"/>
<path d="M31.8638 31.1774C32.1787 31.1868 32.4938 31.1729 32.8067 31.1358C32.7908 31.4499 32.7908 31.7646 32.8067 32.0787V33.8673C32.8061 34.1892 32.8223 34.5109 32.8552 34.831H31.8361V34.4497H26.9275V34.7964H25.9431C25.9431 34.5191 25.9916 34.1863 25.9916 33.8396V31.9816C25.9916 31.7043 25.9916 31.427 25.9916 31.1219C26.1718 31.1219 26.5185 31.1219 26.9275 31.1219H28.0992C28.1076 31.0135 28.1076 30.9045 28.0992 30.7961H26.1164C25.7917 30.7924 25.4673 30.8133 25.1458 30.8585V29.971C25.4677 30.0109 25.7921 30.0271 26.1164 30.0196H32.668C32.937 30.0259 33.206 30.0097 33.4722 29.971V30.8446C33.1243 30.8103 32.7749 30.7941 32.4254 30.7961H30.4564V31.1219L31.8638 31.1774ZM28.6538 27.6346C28.8535 27.6433 29.0535 27.6294 29.2501 27.593V28.2101C28.9936 28.2101 28.8965 28.2101 28.7162 28.2101H28.3696C28.6394 28.4389 28.9466 28.6195 29.2778 28.7439C29.1349 28.8537 29.0148 28.9903 28.9242 29.146C29.0535 29.1547 29.1832 29.1547 29.3125 29.146V29.8948C29.0684 29.8681 28.8231 29.8542 28.5776 29.8532H26.1649H25.4716C25.4716 29.666 25.4716 29.3887 25.4716 29.0559V26.7403C25.4716 26.3867 25.4716 26.1787 25.4716 25.8321C25.7241 25.8686 25.9793 25.8825 26.2342 25.8737H28.4597C28.7516 25.8746 29.0433 25.8584 29.3333 25.8251V26.5878C28.9727 26.5878 28.8272 26.5531 28.5706 26.5531H27.5792L27.4683 26.8235H28.5082C28.7101 26.8282 28.9121 26.8142 29.1114 26.7819V27.4059C28.912 27.3745 28.7101 27.3606 28.5082 27.3643H28.2656C28.2656 27.5307 28.2656 27.593 28.224 27.6832L28.6538 27.6346ZM26.9483 28.1685C26.7937 28.1562 26.6384 28.1562 26.4838 28.1685V27.5723C26.5947 27.5723 26.671 27.5723 26.8235 27.5723C26.7063 27.4323 26.5626 27.3168 26.4006 27.2326C26.654 27.023 26.8477 26.7504 26.9622 26.4422H26.2689V29.042H26.7473C26.6513 28.8882 26.5293 28.7521 26.3868 28.6399C26.7451 28.5698 27.0697 28.3819 27.3088 28.1061L26.9483 28.1685ZM27.5654 27.6346C27.5654 27.5445 27.5654 27.5029 27.607 27.3157H27.1563C27.0781 27.4336 26.9849 27.5408 26.879 27.6346H27.5723H27.5654ZM27.5654 32.869C27.398 32.6379 27.1887 32.4404 26.9483 32.2867C27.137 32.2795 27.322 32.2318 27.4907 32.1468C27.6593 32.0619 27.8077 31.9417 27.9259 31.7944H26.8721V32.869H27.5654ZM26.8721 33.493V33.7564H31.7806V33.4722L26.8721 33.493ZM28.6469 29.1044C28.3448 28.927 28.0808 28.6913 27.8704 28.4111C27.6649 28.7088 27.3853 28.9478 27.0593 29.1044H28.6469ZM31.7806 32.869V31.7944H31.0873C31.3014 31.9217 31.536 32.0109 31.7806 32.0579C31.6905 32.5848 31.5518 32.6541 30.6367 32.6541C29.8463 32.6541 29.6314 32.5501 29.6314 32.1757V31.7944H28.9381C28.8446 32.0563 28.6883 32.2913 28.4828 32.4786C28.2773 32.666 28.0289 32.8001 27.7595 32.869H31.7806ZM29.5828 30.8515H29.0005C29.0005 31.0734 29.0005 31.1011 29.0005 31.1774H29.6036L29.5828 30.8515ZM30.6783 26.5046C30.6686 26.781 30.5546 27.0435 30.3593 27.2395C30.2246 27.3706 30.0672 27.4763 29.8948 27.5514H32.1064C32.293 27.5729 32.4814 27.5729 32.668 27.5514L33.0909 28.0021C33.0263 28.0552 32.9682 28.1157 32.9176 28.1824C32.6541 28.4927 32.3538 28.7697 32.0232 29.0074C32.5253 29.1604 33.0449 29.2489 33.5693 29.2708C33.4006 29.5056 33.2696 29.7652 33.181 30.0404C32.5201 29.9498 31.8771 29.7581 31.2745 29.4719C30.7884 29.7196 30.2705 29.8992 29.7354 30.0057C29.6465 29.761 29.5277 29.5281 29.3818 29.3124C29.7793 29.2643 30.17 29.1712 30.5465 29.0351C30.2759 28.8118 30.042 28.5475 29.8532 28.2517C29.7172 28.238 29.5802 28.238 29.4442 28.2517V27.5584C29.5249 27.5648 29.6061 27.5648 29.6868 27.5584C29.5886 27.336 29.4499 27.1338 29.2778 26.9622C29.4987 26.9167 29.6985 26.7997 29.8463 26.6294C29.9573 26.4548 30.0196 26.2537 30.0266 26.047C30.0266 25.9499 30.0266 25.8667 30.0266 25.7766C30.235 25.8112 30.4463 25.8251 30.6575 25.8182H31.7182C31.9247 25.8249 32.1314 25.811 32.3352 25.7766C32.3062 25.9413 32.2946 26.1087 32.3006 26.2758V26.6363C32.3006 26.7749 32.3006 26.7888 32.564 26.7888C32.8275 26.7888 32.9037 26.7888 32.9315 26.1649C33.1476 26.285 33.3817 26.3692 33.6248 26.4144C33.6248 26.8789 33.5069 27.1077 33.3544 27.2533C33.2018 27.3989 33.0077 27.4128 32.3491 27.4128C31.6905 27.4128 31.5587 27.3504 31.5587 26.9483V26.5184L30.6783 26.5046ZM30.4356 31.8915C30.4356 32.0579 30.4841 32.0856 30.7476 32.0856C31.011 32.0856 31.0457 32.0856 31.0596 31.7944H30.4356V31.8915ZM30.6575 28.1754C30.8241 28.3647 31.0238 28.5221 31.2468 28.6399C31.492 28.5074 31.7242 28.3518 31.94 28.1754H30.6575Z" fill="#004E7D"/>
<path d="M43.2894 31.7182C43.2744 32.0022 43.2744 32.2869 43.2894 32.5709C43.0883 32.5709 42.9635 32.5709 42.707 32.5709C43.1454 33.0967 43.6916 33.5223 44.3085 33.8189C44.0952 34.0808 43.9137 34.367 43.7678 34.6716C43.0405 34.2458 42.4006 33.6859 41.882 33.0216L42.4921 32.5709H41.3967V33.9575C41.411 34.0724 41.3963 34.1891 41.3539 34.2969C41.3115 34.4047 41.2428 34.5002 41.154 34.5745C40.905 34.7197 40.6149 34.7782 40.329 34.7409C39.9893 34.7409 39.6357 34.7409 39.2683 34.6993C39.2503 34.364 39.1704 34.0349 39.0326 33.7288C39.3688 33.791 39.7098 33.8234 40.0517 33.8258C40.3637 33.8258 40.4122 33.8258 40.4122 33.5901V32.564H38.9702L39.5872 32.9314C39.1466 33.6098 38.5736 34.1923 37.9025 34.6439C37.7193 34.383 37.4998 34.1496 37.2508 33.9506C37.8471 33.6212 38.3486 33.1436 38.7067 32.564H38.5681C38.5681 32.3214 38.5681 32.1619 38.5681 31.7182V30.7753C38.3878 30.8932 38.2907 30.9486 37.9926 31.115C37.9343 30.9252 37.8625 30.7399 37.7777 30.5604C37.7364 31.3795 37.592 32.1901 37.3478 32.973C37.1541 33.5883 36.8512 34.1637 36.4535 34.6716C36.2462 34.3691 35.9936 34.1002 35.7047 33.8743C36.3491 33.0655 36.7184 32.0721 36.7586 31.0388C36.4812 31.2121 36.1207 31.4339 35.9058 31.5518C35.8403 31.5761 35.7794 31.6113 35.7255 31.6558L35.4344 30.6158C35.9237 30.4777 36.3907 30.2699 36.8209 29.9988C36.8209 29.666 36.8209 29.5135 36.8209 29.0628L36.1277 29.5343C35.9714 28.9006 35.7386 28.2884 35.4344 27.711L36.1277 27.2603C36.4088 27.7566 36.641 28.279 36.8209 28.8202V28.4736C36.8209 28.3072 36.8209 27.7803 36.8209 27.4336C36.8392 27.0239 36.823 26.6134 36.7724 26.2065C37.1546 26.2477 37.539 26.2639 37.9233 26.255H39.8853V26.1857C39.8913 25.9884 39.8774 25.7909 39.8437 25.5964H40.9946C40.9611 25.791 40.9449 25.9882 40.946 26.1857V26.255H43.1715C43.5537 26.2663 43.9362 26.2478 44.3155 26.1995V27.1771C43.9757 27.1771 43.747 27.1771 43.2824 27.1771H41.2026C41.1263 27.4198 41.0986 27.5168 41.0431 27.6763H43.1854C43.5096 27.6815 43.8339 27.6653 44.156 27.6277V28.5706C43.8482 28.5292 43.5375 28.513 43.227 28.5221H41.9721C42.1609 28.8097 42.3951 29.0649 42.6654 29.2778C42.916 29.0847 43.1317 28.8503 43.3032 28.5845L44.052 29.0767C43.8344 29.321 43.6029 29.5524 43.3587 29.77C43.7184 29.9703 44.0999 30.1284 44.4957 30.2415C44.3198 30.5264 44.1845 30.8344 44.0936 31.1566C43.8186 31.0445 43.5521 30.9124 43.2963 30.7614L43.2894 31.7182ZM37.8886 28.5359C37.8886 29.1252 37.8886 29.5759 37.854 30.1652C38.1378 30.0285 38.4072 29.8635 38.6582 29.673C38.4518 29.4492 38.219 29.2513 37.9649 29.0837L38.5473 28.5706C38.7768 28.7555 38.9923 28.9571 39.192 29.1738C39.3912 28.965 39.5636 28.7321 39.7051 28.4805H38.9216C38.6323 28.4742 38.3429 28.4857 38.055 28.5152V27.5931C38.3543 27.6251 38.6553 27.639 38.9563 27.6347H40.1141C40.1765 27.4683 40.2112 27.3574 40.2736 27.1355H37.8609L37.8886 28.5359ZM39.5387 30.6644H42.3534V30.29H39.5387V30.6644ZM39.5387 31.7875H42.3534V31.3646H39.5387V31.7875ZM41.778 29.465C41.5074 29.169 41.2745 28.8407 41.0847 28.4874H40.7311C40.5534 28.8332 40.3421 29.1606 40.1002 29.465H41.778Z" fill="#004E7D"/>
</g>
<defs>
<clipPath id="clip0_2_2">
<rect width="134" height="48.7594" fill="white"/>
</clipPath>
</defs>
</svg>
