<svg width="87" height="75" viewBox="0 0 87 75" fill="none" xmlns="http://www.w3.org/2000/svg">
<path d="M60.2082 63.2558C59.0236 69.3268 58.3185 71.6184 55.6038 71.6184C52.8891 71.6184 51.768 66.6826 50.668 62.2827C49.4411 57.2553 48.2847 52.5028 44.5617 52.5028C40.8387 52.5028 39.6894 57.2553 38.4625 62.2827C37.3907 66.6615 36.1779 71.6184 33.5267 71.6184C30.8755 71.6184 30.1069 69.3268 28.9223 63.2558C28.1537 59.3213 27.2019 54.4208 24.741 49.5766C20.3341 40.9108 17.9508 34.6212 17.9508 26.2304C17.9508 18.5447 22.4917 13.9614 30.0857 13.9614C33.2468 13.949 36.3815 14.5376 39.3227 15.696C40.9777 16.3881 42.7414 16.7842 44.5335 16.8665H44.6322C47.6289 16.8665 55.4698 17.7761 57.2325 21.9926L59.8345 20.8997C58.4595 17.621 55.0326 15.9146 51.7609 15.0191C54.0998 14.2904 56.5386 13.9335 58.9883 13.9614C66.5823 13.9614 71.1233 18.5447 71.1233 26.2304C71.1298 28.965 70.8461 31.6926 70.2771 34.3674L73.0341 34.9597C73.6455 32.0903 73.9505 29.1641 73.9437 26.2304C73.9437 17.0639 68.0701 11.141 58.9883 11.141C55.5075 11.1266 52.0554 11.7701 48.8135 13.0377C47.4703 13.6101 46.0399 13.9511 44.5829 14.046H44.5335C43.0617 13.9583 41.6162 13.6172 40.2605 13.0377C37.0187 11.7701 33.5665 11.1266 30.0857 11.141C21.0039 11.141 15.1303 17.0639 15.1303 26.2304C15.1303 35.143 17.7322 42.0108 22.2237 50.8529C24.5083 55.3515 25.3827 59.836 26.1583 63.7987C27.2724 69.5101 28.2313 74.4389 33.5267 74.4389C38.3638 74.4389 39.8728 68.3397 41.1702 62.9526C42.0022 59.554 43.0316 55.3233 44.5335 55.3233C46.0354 55.3233 47.0719 59.554 47.9039 62.9526C49.2154 68.3397 50.7244 74.4389 55.5473 74.4389C60.8427 74.4389 61.8017 69.5031 62.9158 63.7917L63.1979 62.3815L60.4338 61.8315L60.2082 63.2558Z" fill="#80C5DE"/>
<path d="M75.3891 35.8622C73.6261 35.8692 71.906 36.4073 70.4534 37.4064C69.6618 36.6976 68.7332 36.159 67.7248 35.8239C66.7165 35.4889 65.6501 35.3646 64.5918 35.4588C63.5334 35.553 62.5057 35.8636 61.5724 36.3714C60.6391 36.8791 59.82 37.5732 59.1661 38.4107C58.5121 39.2481 58.0372 40.2109 57.7707 41.2395C57.5043 42.2681 57.452 43.3404 57.6172 44.39C57.7823 45.4396 58.1614 46.4441 58.7308 47.3411C59.3002 48.2382 60.0478 49.0087 60.9273 49.6048C60.2184 50.6455 59.7637 51.838 59.5997 53.0864C59.4357 54.3348 59.5671 55.6043 59.9832 56.7927C60.3992 57.9811 61.0884 59.0553 61.9953 59.9288C62.9022 60.8023 64.0014 61.4507 65.2045 61.8219C66.4077 62.1932 67.6812 62.2768 68.9226 62.0661C70.164 61.8555 71.3386 61.3564 72.352 60.609C73.3653 59.8616 74.1891 58.8868 74.757 57.763C75.325 56.6392 75.6212 55.3979 75.6219 54.1387C75.6219 53.8849 75.6219 53.631 75.6219 53.3772C77.9445 53.3501 80.1612 52.4014 81.7844 50.7399C83.4076 49.0784 84.3042 46.8401 84.2771 44.5175C84.25 42.1948 83.3013 39.9781 81.6398 38.3549C79.9783 36.7318 77.74 35.8351 75.4174 35.8622H75.3891ZM75.3891 50.5708C75.1848 50.5814 74.9801 50.5814 74.7757 50.5708C74.38 49.7879 73.861 49.0737 73.2386 48.4555L71.2572 50.4651C71.9829 51.1772 72.4856 52.0851 72.7042 53.0781C72.9227 54.0711 72.8476 55.1062 72.488 56.0572C72.1283 57.0082 71.4998 57.8341 70.6789 58.434C69.858 59.0339 68.8803 59.382 67.865 59.4359C66.8497 59.4897 65.8407 59.2469 64.9609 58.7371C64.0812 58.2274 63.3688 57.4727 62.9107 56.565C62.4525 55.6573 62.2684 54.636 62.3807 53.6254C62.4931 52.6149 62.897 51.6589 63.5433 50.874C64.1713 51.0417 64.8183 51.127 65.4683 51.1279V48.3074C64.6868 48.3089 63.9161 48.1248 63.2197 47.7702C62.5233 47.4157 61.921 46.9009 61.4624 46.2681C61.0038 45.6353 60.702 44.9027 60.5819 44.1305C60.4617 43.3583 60.5266 42.5686 60.7712 41.8264C61.0159 41.0842 61.4333 40.4107 61.9891 39.8614C62.5449 39.312 63.2232 38.9024 63.9682 38.6664C64.7132 38.4304 65.5035 38.3746 66.2743 38.5037C67.045 38.6328 67.7741 38.943 68.4016 39.4089C68.211 39.6501 68.0344 39.902 67.8727 40.1634L70.2912 41.6159C70.8261 40.7252 71.5851 39.9903 72.4926 39.4843C73.4001 38.9784 74.4244 38.7192 75.4633 38.7325C76.5022 38.7458 77.5194 39.0312 78.4136 39.5602C79.3078 40.0893 80.0478 40.8434 80.5597 41.7475C81.0715 42.6517 81.3375 43.6742 81.331 44.7131C81.3246 45.7521 81.0458 46.7712 80.5227 47.6689C79.9996 48.5666 79.2504 49.3115 78.3496 49.8293C77.4489 50.3471 76.4281 50.6198 75.3891 50.6202V50.5708Z" fill="#80C5DE"/>
<path d="M14.0515 27.6407L13.438 24.8837C11.9834 25.209 10.4699 25.1569 9.04114 24.7321C7.61243 24.3073 6.31613 23.524 5.27561 22.4568C4.23509 21.3895 3.48494 20.0738 3.0965 18.6348C2.70805 17.1958 2.69425 15.6813 3.05639 14.2355C3.41852 12.7896 4.14455 11.4604 5.16544 10.3744C6.18632 9.28836 7.46807 8.48158 8.88879 8.0308C10.3095 7.58002 11.822 7.50024 13.2822 7.79904C14.7425 8.09783 16.102 8.76527 17.2315 9.73787L19.0789 7.62253C18.6337 7.24653 18.1625 6.90252 17.6687 6.59307C18.497 5.44835 19.6557 4.58442 20.9892 4.1173C22.3228 3.65017 23.7672 3.6022 25.1288 3.97982C26.4904 4.35744 27.7039 5.14258 28.6064 6.22982C29.5088 7.31707 30.057 8.65439 30.1774 10.0622C30.1879 10.2595 30.1879 10.4572 30.1774 10.6545H32.9978C32.9978 10.3725 32.9978 10.0975 32.9978 9.82249C32.8215 7.79522 32.0158 5.87378 30.6936 4.32701C29.3713 2.78024 27.5985 1.68551 25.6233 1.19599C23.6482 0.706474 21.5694 0.84666 19.6778 1.59692C17.7862 2.34718 16.1766 3.66999 15.0739 5.38028C13.3846 4.83901 11.5932 4.69413 9.83887 4.95691C8.08451 5.21968 6.41426 5.88304 4.95766 6.89553C3.50105 7.90801 2.29723 9.24241 1.43959 10.7952C0.581938 12.3481 0.0934867 14.0776 0.0121479 15.8496C-0.0691909 17.6217 0.258783 19.3887 0.970573 21.0136C1.68236 22.6384 2.75891 24.0775 4.11664 25.2192C5.47437 26.3608 7.0768 27.1744 8.79971 27.5968C10.5226 28.0192 12.3196 28.039 14.0515 27.6548V27.6407Z" fill="#80C5DE"/>
<path d="M10.935 50.599C9.86505 50.599 8.8191 50.9164 7.92958 51.5109C7.04005 52.1055 6.34688 52.9506 5.93776 53.9392C5.52863 54.9279 5.42191 56.0156 5.63116 57.0649C5.84041 58.1142 6.3562 59.0778 7.11326 59.8339C7.87031 60.59 8.83466 61.1045 9.88421 61.3124C10.9338 61.5202 12.0213 61.4121 13.0094 61.0017C13.9975 60.5913 14.8417 59.897 15.4352 59.0067C16.0286 58.1164 16.3445 57.0701 16.3431 56.0002C16.3413 54.567 15.7707 53.1932 14.7566 52.1805C13.7426 51.1678 12.3681 50.599 10.935 50.599ZM10.935 58.5879C10.4232 58.5879 9.92287 58.4361 9.49731 58.1518C9.07176 57.8674 8.74 57.4633 8.54414 56.9905C8.34828 56.5176 8.2971 55.9973 8.39695 55.4953C8.4968 54.9933 8.74326 54.5322 9.10516 54.1703C9.46707 53.8084 9.92811 53.562 10.4301 53.4621C10.9321 53.3623 11.4524 53.4135 11.9253 53.6094C12.3981 53.8053 12.8022 54.1369 13.0866 54.5625C13.3709 54.988 13.5227 55.4883 13.5227 56.0002C13.5227 56.6865 13.25 57.3447 12.7647 57.83C12.2794 58.3153 11.6213 58.5879 10.935 58.5879Z" fill="#80C5DE"/>
<path d="M79.8526 3.70908C78.6212 3.70908 77.4173 4.07424 76.3935 4.75837C75.3696 5.44251 74.5715 6.4149 74.1003 7.55258C73.6291 8.69026 73.5058 9.94213 73.746 11.1499C73.9863 12.3576 74.5793 13.467 75.45 14.3378C76.3207 15.2085 77.4301 15.8015 78.6379 16.0417C79.8457 16.2819 81.0975 16.1587 82.2352 15.6874C83.3728 15.2162 84.3452 14.4182 85.0294 13.3943C85.7135 12.3704 86.0787 11.1666 86.0787 9.93521C86.0768 8.28451 85.4203 6.70196 84.2531 5.53473C83.0858 4.36751 81.5033 3.71094 79.8526 3.70908ZM79.8526 13.3409C79.179 13.3409 78.5205 13.1412 77.9604 12.7669C77.4004 12.3927 76.9638 11.8608 76.7061 11.2385C76.4483 10.6162 76.3809 9.93144 76.5123 9.2708C76.6437 8.61017 76.968 8.00332 77.4443 7.52703C77.9206 7.05073 78.5274 6.72638 79.1881 6.59497C79.8487 6.46356 80.5335 6.531 81.1558 6.78877C81.7781 7.04653 82.3101 7.48306 82.6843 8.04312C83.0585 8.60318 83.2582 9.26163 83.2582 9.93521C83.2564 10.8379 82.8969 11.7031 82.2587 12.3413C81.6204 12.9796 80.7552 13.339 79.8526 13.3409Z" fill="#80C5DE"/>
</svg>
