<svg width="65" height="65" viewBox="0 0 65 65" fill="none" xmlns="http://www.w3.org/2000/svg">
<path d="M6.5277 23.301C6.0515 20.8382 5.81536 18.3351 5.82259 15.8268C5.82259 8.14105 10.3565 3.55782 17.9576 3.55782C21.1168 3.54162 24.2498 4.13042 27.1875 5.2924C28.8453 5.98372 30.6112 6.37984 32.4054 6.46287H32.5252C35.536 6.46287 43.3346 7.36542 45.0974 11.589L47.6992 10.4961C46.3313 7.21735 42.8974 5.50392 39.6328 4.61548C41.9692 3.88675 44.4058 3.52984 46.8531 3.55782C54.4542 3.55782 58.988 8.14105 58.988 15.8268C58.9985 18.3376 58.7623 20.8433 58.2829 23.308L61.0541 23.8439C61.57 21.2029 61.825 18.5176 61.8155 15.8268C61.8155 6.66031 55.942 0.737368 46.8602 0.737368C43.3825 0.724652 39.9333 1.36568 36.6924 2.62707C35.3495 3.20151 33.9191 3.5448 32.4617 3.64243H32.4194C30.9449 3.55283 29.497 3.20934 28.1394 2.62707C24.8983 1.36649 21.4493 0.725489 17.9717 0.737368C8.88276 0.737368 3.01626 6.66031 3.01626 15.8268C3.00677 18.5176 3.26181 21.2029 3.77775 23.8439L6.5277 23.301Z" fill="#80C5DE"/>
<path d="M52.2049 39.173C49.744 44.0171 48.7851 48.9176 48.0165 52.8521C46.832 58.9232 46.1268 61.2148 43.4192 61.2148C40.7116 61.2148 39.5763 56.279 38.4834 51.8791C37.2565 46.8517 36.0931 42.0992 32.3771 42.0992C28.6612 42.0992 27.4977 46.8517 26.2708 51.8791C25.1991 56.2579 23.9933 61.2148 21.3351 61.2148C18.6768 61.2148 17.9223 58.9232 16.7377 52.8521C15.9691 48.9176 15.0102 44.0171 12.5494 39.173C10.8712 35.8731 9.7289 33.377 8.81226 31.0783L6.18926 32.1148C7.13411 34.4981 8.30456 37.0506 10.0321 40.4492C12.3166 44.9408 13.191 49.4324 13.9667 53.388C15.0807 59.1065 16.082 64.0352 21.3351 64.0352C26.1792 64.0352 27.681 57.936 28.9855 52.549C29.8105 49.1503 30.847 44.9196 32.3489 44.9196C33.8508 44.9196 34.8803 49.1503 35.7123 52.549C37.0309 57.936 38.5327 64.0352 43.3627 64.0352C48.6511 64.0352 49.6101 59.0994 50.7312 53.388C51.4998 49.4324 52.3811 44.9267 54.6586 40.4492C56.2028 37.4172 57.2817 35.0974 58.1842 32.9257L55.5753 31.8469C54.7644 33.9552 53.7068 36.2256 52.2049 39.173Z" fill="#80C5DE"/>
<path d="M40.3801 26.3541V21.1997C40.3801 20.8257 40.2315 20.467 39.9671 20.2025C39.7026 19.9381 39.3439 19.7895 38.9699 19.7895H25.8407C25.4667 19.7895 25.108 19.9381 24.8436 20.2025C24.5791 20.467 24.4305 20.8257 24.4305 21.1997V26.3541H0.717587V29.1745H24.4305V34.3218C24.4305 34.6958 24.5791 35.0545 24.8436 35.319C25.108 35.5835 25.4667 35.7321 25.8407 35.7321H38.9699C39.3439 35.7321 39.7026 35.5835 39.9671 35.319C40.2315 35.0545 40.3801 34.6958 40.3801 34.3218V29.1745H64.093V26.3541H40.3801ZM37.5597 32.9116H27.2509V22.6099H37.5597V32.9116Z" fill="#80C5DE"/>
</svg>
