<svg width="59" height="65" viewBox="0 0 59 65" fill="none" xmlns="http://www.w3.org/2000/svg">
<path d="M43.8162 0.737419C40.3354 0.723029 36.8832 1.36657 33.6414 2.63417C32.2865 3.21594 30.8405 3.55714 29.3684 3.64248C27.8944 3.55484 26.4465 3.21375 25.0884 2.63417C21.8604 1.37001 18.4227 0.726497 14.956 0.737419C5.86707 0.737419 0.000562979 6.66036 0.000562979 15.8198C-0.0206737 19.8923 0.559018 23.9457 1.72099 27.849L2.02423 28.8573H14.0111V35.2033C14.0111 35.5773 14.1596 35.936 14.4241 36.2005C14.6886 36.4649 15.0473 36.6135 15.4214 36.6135H20.9282V57.0618C20.9279 57.2563 20.9678 57.4488 21.0455 57.6272C21.1231 57.8056 21.2369 57.966 21.3795 58.0983L28.4306 64.5642C28.6918 64.8051 29.0343 64.9385 29.3896 64.9379C29.7425 64.9368 30.0821 64.8034 30.3415 64.5642L37.3926 58.0983C37.5365 57.9666 37.6516 57.8065 37.7305 57.6281C37.8094 57.4497 37.8504 57.2568 37.8509 57.0618V36.6135H43.4213C43.7953 36.6135 44.154 36.4649 44.4185 36.2005C44.6829 35.936 44.8315 35.5773 44.8315 35.2033V28.8573H56.7691L57.0652 27.849C58.2421 23.9455 58.8361 19.8897 58.828 15.8127C58.7716 6.69562 52.8981 0.737419 43.8162 0.737419ZM34.9741 56.4413L29.3332 61.6097L23.6923 56.4483V36.6206H34.9107L34.9741 56.4413ZM41.9547 33.7931H16.8386V28.8573H41.9547V33.7931ZM54.5973 26.0368H4.13957C3.22505 22.7063 2.76955 19.2665 2.78572 15.8127C2.78572 8.13404 7.31956 3.55082 14.9207 3.55082C18.07 3.54183 21.1925 4.13043 24.1224 5.28539C25.7888 5.98049 27.5646 6.37671 29.3684 6.45588C33.0068 6.45588 40.3399 7.52765 42.0604 11.575L44.6623 10.4891C43.2944 7.21034 39.8746 5.49693 36.6099 4.60848C38.9424 3.88359 41.3738 3.52675 43.8162 3.55082C51.4103 3.55082 55.9512 8.13404 55.9512 15.8127C55.9645 19.2686 55.509 22.7104 54.5973 26.0439V26.0368Z" fill="#80C5DE"/>
<path d="M25.1093 36.9631L23.9946 39.5539L33.7102 43.7341L34.8249 41.1432L25.1093 36.9631Z" fill="#80C5DE"/>
<path d="M25.1018 42.7779L23.9871 45.3687L33.7027 49.5488L34.8174 46.958L25.1018 42.7779Z" fill="#80C5DE"/>
<path d="M25.1076 48.5884L23.9929 51.1792L33.7085 55.3594L34.8232 52.7686L25.1076 48.5884Z" fill="#80C5DE"/>
</svg>
