<svg width="43" height="51" viewBox="0 0 43 51" fill="none" xmlns="http://www.w3.org/2000/svg">
<path d="M38.4281 24.9467C38.4281 24.9467 33.2412 30.0169 21.4385 30.0169C9.63575 30.0169 4.45261 24.9467 4.45261 24.9467" stroke="white" stroke-width="2.5" stroke-linecap="round" stroke-linejoin="round"/>
<path d="M3.49826 29.541C10.8018 34.3836 14.7955 33.9527 20.218 40.6217C20.3746 40.8027 20.5681 40.9478 20.7854 41.0473C21.0027 41.1468 21.2388 41.1983 21.4777 41.1983C21.7166 41.1983 21.9526 41.1468 22.17 41.0473C22.3873 40.9478 22.5808 40.8027 22.7373 40.6217C28.1409 33.9527 32.1308 34.3836 39.4571 29.541" stroke="white" stroke-width="2.5" stroke-linecap="round" stroke-linejoin="round"/>
<path d="M21.4389 41.1982V49.4318" stroke="white" stroke-width="2.5" stroke-linecap="round" stroke-linejoin="round"/>
<path d="M7.35646 18.0524C6.92811 19.2717 6.42032 20.4615 5.83638 21.614C4.06989 25.0004 3.1197 28.7553 3.06221 32.5772C3.0478 38.5211 4.6693 44.3536 7.74789 49.4318" stroke="white" stroke-width="2.5" stroke-linecap="round" stroke-linejoin="round"/>
<path d="M6.78912 2.03732C6.78912 2.03732 10.0917 7.18514 8.1535 15.3835" stroke="white" stroke-width="2.5" stroke-linecap="round" stroke-linejoin="round"/>
<path d="M13.7023 19.3678C6.42151 18.4222 1.29153 16.1457 1.29153 13.4917C1.29153 11.8062 3.35115 10.2771 6.71796 9.14079" stroke="white" stroke-width="2.5" stroke-linecap="round" stroke-linejoin="round"/>
<path d="M14.873 16.5347L17.187 19.8882L14.0674 22.3642" stroke="white" stroke-width="2.5" stroke-linecap="round" stroke-linejoin="round"/>
<path d="M35.506 18.0524C35.9422 19.2715 36.4562 20.4612 37.0449 21.614C38.8118 25 39.7607 28.7554 39.815 32.5772C39.8312 38.5214 38.2098 44.3544 35.1298 49.4318" stroke="white" stroke-width="2.5" stroke-linecap="round" stroke-linejoin="round"/>
<path d="M36.0921 2.03732C36.0921 2.03732 32.7861 7.18514 34.7241 15.3835" stroke="white" stroke-width="2.5" stroke-linecap="round" stroke-linejoin="round"/>
<path d="M29.1797 19.3678C36.4604 18.4222 41.5866 16.1457 41.5866 13.4917C41.5866 11.8062 39.527 10.2771 36.164 9.14079" stroke="white" stroke-width="2.5" stroke-linecap="round" stroke-linejoin="round"/>
<path d="M28.0064 16.5347L25.692 19.8882L28.812 22.3642" stroke="white" stroke-width="2.5" stroke-linecap="round" stroke-linejoin="round"/>
</svg>
