<svg width="52" height="41" viewBox="0 0 52 41" fill="none" xmlns="http://www.w3.org/2000/svg">
<path d="M14.5741 16.5167C12.4006 16.0819 10.9139 14.5824 10.9139 13.0829" stroke="white" stroke-width="2.5" stroke-linecap="round" stroke-linejoin="round"/>
<path d="M13.8868 22.0782C10.9133 22.0782 7.93981 20.5786 6.45306 17.5795" stroke="white" stroke-width="2.5" stroke-linecap="round" stroke-linejoin="round"/>
<path d="M45.6256 12.1138C45.6256 12.1138 44.0792 17.8129 38.4398 17.1934" stroke="white" stroke-width="2.5" stroke-linecap="round" stroke-linejoin="round"/>
<path d="M37.5422 29.1698C38.2225 27.4168 37.282 24.4142 34.7021 23.5749" stroke="white" stroke-width="2.5" stroke-linecap="round" stroke-linejoin="round"/>
<path d="M23.3891 35.4466C22.0397 33.4061 23.088 29.3475 26.0507 29.5788C26.3143 29.603 26.5701 29.6814 26.8022 29.809C27.0343 29.9367 27.2378 30.1109 27.3999 30.3208C27.562 30.5308 27.6794 30.7719 27.7447 31.0293C27.81 31.2867 27.8218 31.5549 27.7794 31.817C27.7292 32.0976 27.6135 32.3623 27.4416 32.5893C27.2697 32.8162 27.0465 32.999 26.7905 33.1226" stroke="white" stroke-width="2.5" stroke-linecap="round" stroke-linejoin="round"/>
<path d="M16.8612 5.5882C16.8612 5.5882 18.6604 7.16271 19.2291 9.18494C19.4538 9.99983 19.371 10.8693 18.9964 11.6267C18.6219 12.384 17.982 12.976 17.1995 13.2891" stroke="white" stroke-width="2.5" stroke-linecap="round" stroke-linejoin="round"/>
<path d="M31.2441 4.55737C31.2441 4.55737 28.5249 8.11843 32.5731 11.293C32.5731 11.293 35.5954 13.6022 34.6697 15.8442C34.4244 16.41 33.9918 16.8736 33.4452 17.1563C32.8986 17.4391 32.2715 17.5238 31.6698 17.396C30.9678 17.2366 30.3178 16.9002 29.7814 16.4187C28.7622 15.514 27.4466 15.0181 26.086 15.0257C24.7254 15.0332 23.4153 15.5438 22.4062 16.4597L22.0345 16.8327C21.4804 17.4389 21.0528 18.1502 20.777 18.9248C20.5012 19.6994 20.3827 20.5216 20.4285 21.3428" stroke="white" stroke-width="2.5" stroke-linecap="round" stroke-linejoin="round"/>
<path d="M7.80487 27.933C8.47228 28.0878 9.05813 28.4868 9.44784 29.0521C9.69133 29.4409 9.82724 29.8877 9.84161 30.3466C9.85599 30.8055 9.74829 31.26 9.52961 31.6633C8.93172 32.8078 7.91308 33.6735 6.68971 34.0768" stroke="white" stroke-width="2.5" stroke-linecap="round" stroke-linejoin="round"/>
<path d="M37.6758 29.5693C43.6228 32.5669 48.083 26.5717 46.5963 22.0754C51.4312 22.0794 51.3987 11.2118 45.877 12.1363C46.5963 8.58628 43.6228 4.08991 38.379 5.95149C39.1625 2.59112 31.7288 -0.406453 28.2679 4.2542C27.2685 -0.406453 18.348 1.09254 17.5434 6.34319C13.8878 4.09015 7.94083 8.58651 10.0641 13.2629C6.49103 12.8271 1.99383 19.078 4.77067 22.9579C-0.979666 25.0732 1.14825 35.7123 6.93046 34.2159C6.96795 34.9221 7.25406 35.5919 7.73791 36.1061C11.0094 39.5825 21.3215 41.5596 22.8083 34.0657C27.2685 40.0608 37.6758 38.5621 37.6758 29.5693Z" stroke="white" stroke-width="2.5" stroke-miterlimit="10" stroke-linecap="round" stroke-linejoin="round"/>
</svg>
