<svg width="42" height="42" viewBox="0 0 42 42" fill="none" xmlns="http://www.w3.org/2000/svg">
<path d="M24.9974 29.0028C26.295 32.5043 27.2613 35.9049 27.8859 38.3283C28.2965 39.9244 30.2739 40.3869 31.285 39.1166C36.0197 33.1851 36.4406 26.765 36.3302 23.7683C36.2839 22.7836 36.6011 21.8143 37.2275 21.0257C38.4111 19.573 39.1047 17.586 39.4981 15.9672C40.5921 11.4982 39.084 6.70024 35.464 4.03579C33.7067 2.72448 31.534 2.00763 29.2939 2C25.9051 2 22.8821 3.62865 20.922 6.20514C18.9619 3.64167 15.9389 2 12.5501 2C10.3099 2.00763 8.13721 2.72448 6.37984 4.03579C2.74949 6.71001 1.25183 11.5275 2.35612 16.0095C2.75297 17.6153 3.43972 19.5925 4.61302 21.0159C5.24088 21.8115 5.55894 22.787 5.51366 23.7781C5.40323 26.7748 5.83117 33.1818 10.5451 39.0873C11.5631 40.3674 13.5473 39.9179 13.958 38.3153C14.5826 35.8919 15.5524 32.4913 16.8464 28.9897C18.2855 25.1168 23.5653 25.1168 24.9974 29.0028Z" stroke="white" stroke-width="2.5" stroke-miterlimit="10" stroke-linecap="round"/>
</svg>
