<svg width="48" height="46" viewBox="0 0 48 46" fill="none" xmlns="http://www.w3.org/2000/svg">
<path d="M28.9283 35.6801C35.8769 32.7205 39.1107 24.6883 36.1512 17.7397C33.1916 10.791 25.1594 7.55723 18.2108 10.5168C11.2621 13.4763 8.02832 21.5085 10.9879 28.4572C13.9474 35.4058 21.9796 38.6396 28.9283 35.6801Z" stroke="white" stroke-width="2.18074" stroke-miterlimit="10" stroke-linecap="round"/>
<path d="M17.4305 10.8397C18.3667 6.37779 13.8978 6.72754 12.9934 5.33564C12.089 3.94373 13.4951 2.42111 13.4951 2.42111" stroke="white" stroke-width="2.18074" stroke-miterlimit="10" stroke-linecap="round"/>
<path d="M12.0608 15.6866C12.0608 15.6866 9.81391 15.4641 8.94838 14.2276C7.11488 11.5957 8.06169 9.91414 5.09417 9.00269" stroke="white" stroke-width="2.18074" stroke-miterlimit="10" stroke-linecap="round"/>
<path d="M10.7819 27.917C6.94176 27.2387 5.23548 29.0934 4.99879 30.8421C4.99879 30.8421 4.77266 33.7885 2.32093 33.1561" stroke="white" stroke-width="2.18074" stroke-miterlimit="10" stroke-linecap="round"/>
<path d="M14.9223 12.4718C14.9223 12.4718 11.227 12.2845 10.6158 7.82267C10.6158 7.82267 10.5205 3.74589 5.83255 3.37848C5.83255 3.37848 3.5362 3.37846 2.6742 1.9053" stroke="white" stroke-width="2.18074" stroke-miterlimit="10" stroke-linecap="round"/>
<path d="M12.4882 31.0647C12.4882 31.0647 8.76474 30.0649 8.12531 33.9545C8.12531 33.9545 7.84263 39.992 2.49756 37.9677" stroke="white" stroke-width="2.18074" stroke-miterlimit="10" stroke-linecap="round"/>
<path d="M14.7209 33.4918C10.4463 35.7563 14.6185 38.0843 10.1284 40.37" stroke="white" stroke-width="2.18074" stroke-miterlimit="10" stroke-linecap="round"/>
<path d="M9.89523 21.7771C9.89523 21.7771 8.57042 19.1734 5.54638 20.5406C5.54638 20.5406 2.32098 22.1975 1.14104 19.5691" stroke="white" stroke-width="2.18074" stroke-miterlimit="10" stroke-linecap="round"/>
<path d="M29.7246 35.2616C28.7884 39.7235 33.2574 39.3737 34.1617 40.7656C35.0661 42.1576 33.66 43.6802 33.66 43.6802" stroke="white" stroke-width="2.18074" stroke-miterlimit="10" stroke-linecap="round"/>
<path d="M35.0873 30.4147C35.0873 30.4147 37.3341 30.6372 38.1996 31.8737C40.0367 34.5091 39.0863 36.1872 42.0538 37.0986" stroke="white" stroke-width="2.18074" stroke-miterlimit="10" stroke-linecap="round"/>
<path d="M36.3591 18.1843C40.1992 18.8626 41.9055 17.0079 42.1422 15.2592C42.1422 15.2592 42.3683 12.3128 44.82 12.9487" stroke="white" stroke-width="2.18074" stroke-miterlimit="10" stroke-linecap="round"/>
<path d="M32.2187 33.6295C32.2187 33.6295 35.9139 33.8168 36.5251 38.2786C36.5251 38.2786 36.6205 42.3554 41.3085 42.7228C41.3085 42.7228 43.6048 42.7228 44.4667 44.196" stroke="white" stroke-width="2.18074" stroke-miterlimit="10" stroke-linecap="round"/>
<path d="M34.6704 15.026C34.6704 15.026 38.394 16.0258 39.0334 12.1362C39.0334 12.1362 39.3195 6.09873 44.6611 8.123" stroke="white" stroke-width="2.18074" stroke-miterlimit="10" stroke-linecap="round"/>
<path d="M32.42 12.6096C36.6946 10.3451 32.5225 8.01702 37.0126 5.73132" stroke="white" stroke-width="2.18074" stroke-miterlimit="10" stroke-linecap="round"/>
<path d="M37.2458 24.3242C37.2458 24.3242 38.5706 26.9279 41.5982 25.5607C41.5982 25.5607 44.8201 23.9038 46 26.5322" stroke="white" stroke-width="2.18074" stroke-miterlimit="10" stroke-linecap="round"/>
<path d="M26.7253 9.75513C26.2303 9.00416 26.0376 8.09384 26.1857 7.20673C26.3338 6.31962 26.8117 5.52128 27.5237 4.97176C27.5237 4.97176 29.7776 3.1029 28.7495 1.19168" stroke="white" stroke-width="2.18074" stroke-miterlimit="10" stroke-linecap="round"/>
<path d="M22.659 9.4195C22.659 9.4195 21.3272 5.94679 24.2417 3.58337" stroke="white" stroke-width="2.18074" stroke-miterlimit="10" stroke-linecap="round"/>
<path d="M22.6343 36.7418C22.6343 36.7418 23.6941 39.3525 22.1044 42.797" stroke="white" stroke-width="2.18074" stroke-miterlimit="10" stroke-linecap="round"/>
<path d="M18.3243 35.6997C18.3243 35.6997 19.4124 38.0525 17.0702 41.5323C17.0702 41.5323 15.59 43.6802 17.54 44.8283" stroke="white" stroke-width="2.18074" stroke-miterlimit="10" stroke-linecap="round"/>
<path d="M17.9498 16.5557C17.9498 16.8352 17.867 17.1083 17.7117 17.3407C17.5564 17.5731 17.3357 17.7542 17.0775 17.8612C16.8193 17.9681 16.5352 17.9961 16.2611 17.9416C15.987 17.8871 15.7352 17.7525 15.5375 17.5549C15.3399 17.3573 15.2053 17.1054 15.1508 16.8313C15.0963 16.5572 15.1242 16.2731 15.2312 16.0149C15.3381 15.7567 15.5193 15.536 15.7517 15.3807C15.9841 15.2254 16.2572 15.1426 16.5367 15.1426C16.9115 15.1426 17.271 15.2914 17.536 15.5564C17.801 15.8215 17.9498 16.1809 17.9498 16.5557Z" fill="white"/>
<path d="M23.8249 13.1431C23.8249 13.4225 23.742 13.6958 23.5867 13.9281C23.4314 14.1605 23.2107 14.3416 22.9525 14.4486C22.6943 14.5556 22.4101 14.5835 22.136 14.529C21.8619 14.4745 21.6102 14.3399 21.4126 14.1422C21.2149 13.9446 21.0803 13.6929 21.0258 13.4187C20.9713 13.1446 20.9992 12.8605 21.1062 12.6023C21.2132 12.3441 21.3942 12.1234 21.6266 11.9681C21.859 11.8128 22.1323 11.7299 22.4118 11.7299C22.7865 11.7299 23.1459 11.8788 23.4109 12.1438C23.676 12.4088 23.8249 12.7683 23.8249 13.1431Z" fill="white"/>
<path d="M30.4311 24.3242C30.4311 24.6037 30.3482 24.8769 30.193 25.1093C30.0377 25.3417 29.817 25.5228 29.5588 25.6297C29.3006 25.7367 29.0165 25.7647 28.7423 25.7101C28.4682 25.6556 28.2164 25.521 28.0188 25.3234C27.8212 25.1258 27.6866 24.874 27.6321 24.5999C27.5775 24.3257 27.6055 24.0416 27.7124 23.7834C27.8194 23.5252 28.0006 23.3045 28.233 23.1492C28.4653 22.994 28.7385 22.9111 29.018 22.9111C29.3928 22.9111 29.7522 23.06 30.0172 23.325C30.2822 23.59 30.4311 23.9494 30.4311 24.3242Z" fill="white"/>
<path d="M16.9819 26.9597C16.9819 27.2392 16.899 27.5124 16.7437 27.7448C16.5885 27.9771 16.3678 28.1583 16.1095 28.2652C15.8513 28.3722 15.5672 28.4001 15.2931 28.3456C15.019 28.2911 14.7672 28.1565 14.5696 27.9589C14.3719 27.7612 14.2374 27.5095 14.1828 27.2354C14.1283 26.9613 14.1563 26.6771 14.2632 26.4189C14.3702 26.1607 14.5513 25.94 14.7837 25.7847C15.0161 25.6294 15.2893 25.5466 15.5688 25.5466C15.9435 25.5466 16.303 25.6954 16.568 25.9604C16.8331 26.2254 16.9819 26.5849 16.9819 26.9597Z" fill="white"/>
<path d="M24.9942 25.8433C24.9942 26.2416 24.8761 26.6309 24.6548 26.962C24.4336 27.2932 24.1191 27.5513 23.7511 27.7037C23.3832 27.8561 22.9783 27.896 22.5877 27.8183C22.1971 27.7406 21.8382 27.5488 21.5566 27.2672C21.275 26.9856 21.0832 26.6268 21.0055 26.2362C20.9278 25.8456 20.9677 25.4407 21.1201 25.0727C21.2725 24.7048 21.5306 24.3903 21.8617 24.169C22.1929 23.9477 22.5822 23.8297 22.9805 23.8297C23.5145 23.8297 24.0267 24.0418 24.4044 24.4194C24.782 24.7971 24.9942 25.3092 24.9942 25.8433V25.8433Z" fill="white"/>
<path d="M26.1282 19.9895C27.2403 19.9895 28.1419 19.0879 28.1419 17.9758C28.1419 16.8637 27.2403 15.9622 26.1282 15.9622C25.0161 15.9622 24.1145 16.8637 24.1145 17.9758C24.1145 19.0879 25.0161 19.9895 26.1282 19.9895Z" fill="white"/>
<path d="M26.6581 32.3789C26.6581 32.6584 26.5753 32.9316 26.42 33.164C26.2647 33.3964 26.044 33.5775 25.7858 33.6845C25.5276 33.7914 25.2434 33.8194 24.9693 33.7649C24.6952 33.7104 24.4434 33.5758 24.2458 33.3782C24.0481 33.1805 23.9136 32.9287 23.8591 32.6546C23.8046 32.3805 23.8325 32.0964 23.9395 31.8381C24.0464 31.5799 24.2275 31.3593 24.4599 31.204C24.6923 31.0487 24.9656 30.9658 25.245 30.9658C25.6198 30.9658 25.9792 31.1147 26.2442 31.3797C26.5092 31.6447 26.6581 32.0041 26.6581 32.3789Z" fill="white"/>
<path d="M33.1584 17.1033C33.1584 17.3827 33.0755 17.656 32.9202 17.8883C32.765 18.1207 32.5443 18.3019 32.2861 18.4088C32.0278 18.5158 31.7437 18.5438 31.4696 18.4892C31.1955 18.4347 30.9437 18.3001 30.7461 18.1025C30.5485 17.9049 30.4139 17.6531 30.3593 17.379C30.3048 17.1048 30.3328 16.8207 30.4397 16.5625C30.5467 16.3043 30.7279 16.0836 30.9602 15.9283C31.1926 15.7731 31.4658 15.6902 31.7453 15.6902C32.1201 15.6902 32.4795 15.8391 32.7445 16.1041C33.0095 16.3691 33.1584 16.7285 33.1584 17.1033Z" fill="white"/>
<path d="M21.5639 20.4134C21.5639 20.5804 21.5144 20.7437 21.4216 20.8825C21.3289 21.0214 21.1969 21.1296 21.0427 21.1935C20.8884 21.2574 20.7186 21.2741 20.5548 21.2415C20.3911 21.209 20.2406 21.1286 20.1226 21.0105C20.0045 20.8924 19.9241 20.7419 19.8915 20.5782C19.8589 20.4144 19.8756 20.2446 19.9395 20.0903C20.0034 19.9361 20.1116 19.8042 20.2505 19.7114C20.3893 19.6186 20.5526 19.5691 20.7196 19.5691C20.8305 19.5691 20.9402 19.591 21.0427 19.6334C21.1451 19.6758 21.2382 19.738 21.3166 19.8164C21.395 19.8948 21.4572 19.9879 21.4996 20.0903C21.542 20.1928 21.5639 20.3025 21.5639 20.4134V20.4134Z" fill="white"/>
<path d="M33.5011 22.9499C33.9674 22.9499 34.3454 22.5719 34.3454 22.1056C34.3454 21.6393 33.9674 21.2613 33.5011 21.2613C33.0348 21.2613 32.6567 21.6393 32.6567 22.1056C32.6567 22.5719 33.0348 22.9499 33.5011 22.9499Z" fill="white"/>
<path d="M31.1659 29.7788C31.6322 29.7788 32.0103 29.4008 32.0103 28.9345C32.0103 28.4682 31.6322 28.0901 31.1659 28.0901C30.6996 28.0901 30.3216 28.4682 30.3216 28.9345C30.3216 29.4008 30.6996 29.7788 31.1659 29.7788Z" fill="white"/>
<path d="M20.2921 31.2096C20.2921 31.3493 20.2507 31.4859 20.173 31.6021C20.0954 31.7183 19.9851 31.8089 19.856 31.8623C19.7269 31.9158 19.5848 31.9298 19.4478 31.9025C19.3107 31.8753 19.1848 31.808 19.086 31.7092C18.9871 31.6104 18.9198 31.4845 18.8926 31.3474C18.8653 31.2103 18.8793 31.0683 18.9328 30.9392C18.9863 30.8101 19.0769 30.6997 19.1931 30.6221C19.3093 30.5445 19.4459 30.503 19.5856 30.503C19.773 30.503 19.9526 30.5774 20.0852 30.7099C20.2177 30.8424 20.2921 31.0222 20.2921 31.2096Z" fill="white"/>
<path d="M14.7209 22.625C15.1872 22.625 15.5653 22.2469 15.5653 21.7806C15.5653 21.3143 15.1872 20.9363 14.7209 20.9363C14.2546 20.9363 13.8766 21.3143 13.8766 21.7806C13.8766 22.2469 14.2546 22.625 14.7209 22.625Z" fill="white"/>
</svg>
