<svg width="70" height="55" viewBox="0 0 70 55" fill="none" xmlns="http://www.w3.org/2000/svg">
<path d="M30.4925 31.0678C31.3474 30.6908 32.2717 30.4967 33.206 30.498C34.7342 30.498 36.2177 31.014 37.416 31.9624C38.6143 32.9107 39.4573 34.236 39.8085 35.7233C40.1596 37.2106 39.9982 38.7729 39.3505 40.1571C38.7028 41.5412 37.6068 42.6662 36.2399 43.3496C34.873 44.033 33.3154 44.2349 31.8195 43.9226C30.3235 43.6103 28.9769 42.8019 27.9977 41.6287C27.0185 40.4554 26.4641 38.9859 26.4244 37.4582C26.3847 35.9305 26.862 34.4341 27.7789 33.2116" stroke="white" stroke-width="2.5" stroke-miterlimit="10"/>
<path d="M33.2059 21.0003C36.4261 21.0003 39.5739 21.9552 42.2514 23.7442C44.9288 25.5332 47.0157 28.076 48.248 31.051C49.4803 34.0261 49.8027 37.2997 49.1745 40.458C48.5462 43.6163 46.9956 46.5173 44.7186 48.7943C42.4416 51.0713 39.5406 52.622 36.3823 53.2502C33.224 53.8784 29.9504 53.556 26.9753 52.3237C24.0003 51.0914 21.4575 49.0045 19.6685 46.3271C17.8794 43.6496 16.9246 40.5018 16.9246 37.2816C16.9246 32.9636 18.6399 28.8223 21.6933 25.769C24.7466 22.7156 28.8878 21.0003 33.2059 21.0003Z" stroke="white" stroke-width="2.5" stroke-miterlimit="10" stroke-linecap="round"/>
<path d="M33.206 21C50.5456 21 64.4119 37.2814 64.4119 37.2814C64.4119 37.2814 50.5456 53.5627 33.206 53.5627C15.8663 53.5627 2 37.2814 2 37.2814C2 37.2814 15.8663 21 33.206 21Z" stroke="white" stroke-width="2.5" stroke-linecap="round" stroke-linejoin="round"/>
<path d="M53.7965 31.5929C61.9683 31.5929 68.5929 24.9683 68.5929 16.7965C68.5929 8.6246 61.9683 2 53.7965 2C45.6246 2 39 8.6246 39 16.7965C39 24.9683 45.6246 31.5929 53.7965 31.5929Z" fill="white" stroke="white" stroke-width="2.5" stroke-linecap="round" stroke-linejoin="round"/>
<path d="M45.5726 16.7964H62.0121" stroke="white" stroke-width="2.5" stroke-miterlimit="10"/>
<path d="M53.7966 25.0118V8.57227" stroke="white" stroke-width="2.5" stroke-miterlimit="10"/>
</svg>
