<svg width="56" height="64" viewBox="0 0 56 64" fill="none" xmlns="http://www.w3.org/2000/svg">
<path d="M24.9974 51.0028C26.295 54.5043 27.2613 57.9049 27.8859 60.3283C28.2965 61.9244 30.2739 62.3869 31.285 61.1166C36.0197 55.1851 36.4406 48.765 36.3302 45.7683C36.2839 44.7836 36.6011 43.8143 37.2275 43.0257C38.4111 41.573 39.1047 39.586 39.4981 37.9672C40.5921 33.4982 39.084 28.7002 35.464 26.0358C33.7067 24.7245 31.534 24.0076 29.2939 24C25.9051 24 22.8821 25.6286 20.922 28.2051C18.9619 25.6417 15.9389 24 12.5501 24C10.3099 24.0076 8.13721 24.7245 6.37984 26.0358C2.74949 28.71 1.25183 33.5275 2.35612 38.0095C2.75297 39.6153 3.43972 41.5925 4.61302 43.0159C5.24088 43.8115 5.55894 44.787 5.51366 45.7781C5.40323 48.7748 5.83117 55.1818 10.5451 61.0873C11.5631 62.3674 13.5473 61.9179 13.958 60.3153C14.5826 57.8919 15.5524 54.4913 16.8464 50.9897C18.2855 47.1168 23.5653 47.1168 24.9974 51.0028Z" stroke="white" stroke-width="2.5" stroke-miterlimit="10" stroke-linecap="round"/>
<path d="M39.7965 31.5929C47.9683 31.5929 54.5929 24.9683 54.5929 16.7965C54.5929 8.6246 47.9683 2 39.7965 2C31.6246 2 25 8.6246 25 16.7965C25 24.9683 31.6246 31.5929 39.7965 31.5929Z" fill="white" stroke="white" stroke-width="2.5" stroke-linecap="round" stroke-linejoin="round"/>
<path d="M31.5726 16.7964H48.0121" stroke="white" stroke-width="2.5" stroke-miterlimit="10"/>
<path d="M39.7966 25.0118V8.57227" stroke="white" stroke-width="2.5" stroke-miterlimit="10"/>
</svg>
