<svg width="66" height="36" viewBox="0 0 66 36" fill="none" xmlns="http://www.w3.org/2000/svg">
<path d="M30.4925 12.0678C31.3474 11.6908 32.2717 11.4967 33.206 11.498C34.7342 11.498 36.2177 12.014 37.416 12.9624C38.6143 13.9107 39.4573 15.236 39.8085 16.7233C40.1596 18.2106 39.9982 19.7729 39.3505 21.1571C38.7028 22.5412 37.6068 23.6662 36.2399 24.3496C34.873 25.033 33.3154 25.2349 31.8195 24.9226C30.3235 24.6103 28.9769 23.8019 27.9977 22.6287C27.0185 21.4554 26.4641 19.9859 26.4244 18.4582C26.3847 16.9305 26.862 15.4341 27.7789 14.2116" stroke="white" stroke-width="2.5" stroke-miterlimit="10"/>
<path d="M33.2059 2.00027C36.4261 2.00027 39.5739 2.95517 42.2514 4.74419C44.9288 6.53321 47.0157 9.07601 48.248 12.051C49.4803 15.0261 49.8027 18.2997 49.1745 21.458C48.5462 24.6163 46.9956 27.5173 44.7186 29.7943C42.4416 32.0713 39.5406 33.622 36.3823 34.2502C33.224 34.8784 29.9504 34.556 26.9753 33.3237C24.0003 32.0914 21.4575 30.0045 19.6685 27.3271C17.8794 24.6496 16.9246 21.5018 16.9246 18.2816C16.9246 13.9636 18.6399 9.82233 21.6933 6.76899C24.7466 3.71564 28.8878 2.00027 33.2059 2.00027Z" stroke="white" stroke-width="2.5" stroke-miterlimit="10" stroke-linecap="round"/>
<path d="M33.206 2C50.5456 2 64.4119 18.2814 64.4119 18.2814C64.4119 18.2814 50.5456 34.5627 33.206 34.5627C15.8663 34.5627 2 18.2814 2 18.2814C2 18.2814 15.8663 2 33.206 2Z" stroke="white" stroke-width="2.5" stroke-linecap="round" stroke-linejoin="round"/>
</svg>
