<svg width="149" height="49" viewBox="0 0 149 49" fill="none" xmlns="http://www.w3.org/2000/svg">
<g clip-path="url(#clip0_1_928)">
<path d="M48.4099 0.000183105H0V49.0002H48.4099V0.000183105Z" fill="#1B407A"/>
<path d="M14.545 23.1214H16.3476V15.8159H18.1571V23.1214H19.9598V15.8159H21.7624V23.1214H23.5651V13.9913H14.545V23.1214Z" fill="white"/>
<path d="M4.23828 23.1214H13.2515V21.2968H6.04092V15.8159H13.2515V13.9913H4.23828V23.1214Z" fill="white"/>
<path fill-rule="evenodd" clip-rule="evenodd" d="M20.7785 31.7848L21.5423 31.4784C21.8725 32.2862 22.0789 32.8085 22.1477 33.0523L21.3634 33.2891C21.1956 32.7772 21.0004 32.2751 20.7785 31.7848ZM19.6089 31.9241L20.4414 31.736C20.6418 32.4007 20.8003 33.0776 20.9161 33.7626L20.0699 33.8949C19.9515 33.2346 19.7976 32.5813 19.6089 31.938V31.9241ZM18.5149 31.9241H19.375C19.4575 32.9409 19.4988 33.7626 19.4919 34.3894L18.6456 34.3476C18.6756 33.549 18.6319 32.7493 18.5149 31.9589V31.9241ZM17.3453 32.7389C16.629 33.2222 15.8795 33.6527 15.1023 34.0273L14.6688 33.1358L15.6045 32.7319V30.2944H14.9509V29.3612H15.6045V27.3068H14.9509V26.3667H17.1733V27.3068H16.4852V29.3612H17.0838V30.2944H16.4852V32.2096L16.8568 31.931L17.3728 32.6275C17.4416 32.3767 17.5035 32.1052 17.5585 31.8127L18.4668 32.0703C18.2579 33.0333 17.8576 33.9432 17.2902 34.7446C17.1018 34.5105 16.8675 34.3184 16.6022 34.1805C16.8559 33.8382 17.0684 33.4664 17.2352 33.0732C17.2754 32.9696 17.3237 32.8695 17.3797 32.7737L17.3453 32.7389ZM19.774 29.0757H18.3979V28.5743H19.774V29.0757ZM19.774 27.7456H18.3979V27.3138C18.3958 27.3002 18.3967 27.2863 18.4007 27.2731C18.4047 27.2599 18.4116 27.2478 18.4209 27.2377C18.4302 27.2276 18.4416 27.2199 18.4543 27.2149C18.4671 27.21 18.4807 27.2081 18.4943 27.2093H19.7465L19.774 27.7456ZM18.3979 30.3989V29.8975H19.774V30.3989H18.3979ZM17.4966 30.7541V31.1302C17.4966 31.2416 17.5517 31.3043 17.6549 31.3043H22.0789C22.1546 31.3043 22.1959 31.3043 22.1959 31.3739C22.2348 32.0396 22.2348 32.707 22.1959 33.3726C22.1675 33.5853 22.0764 33.7843 21.9344 33.9437C21.8403 34.0176 21.7231 34.0546 21.6042 34.0482C21.2663 34.0201 20.9307 33.9689 20.5996 33.8949L20.6891 34.8908C21.673 34.9674 22.2991 34.8908 22.5743 34.6401C22.814 34.4317 22.9706 34.142 23.0146 33.8253C23.1353 32.7621 23.1767 31.6912 23.1385 30.6218C23.1385 30.4825 23.0834 30.4059 22.9665 30.3989H20.6685V29.8975H22.6844V29.0757H20.6685V28.5743H22.65V27.7456H20.6685V27.2093H22.8839V26.311H17.7237C17.696 26.3073 17.6679 26.3103 17.6416 26.3196C17.6152 26.3289 17.5914 26.3444 17.5721 26.3647C17.5527 26.385 17.5382 26.4096 17.5299 26.4365C17.5216 26.4635 17.5196 26.492 17.5242 26.5199L17.4966 30.7541ZM8.43526 31.8475V34.856H9.36411V31.8475H11.1048C11.1599 31.8475 11.1874 31.8475 11.1874 31.9241V33.4562C11.1874 33.5746 11.1048 33.6721 10.9466 33.7417C10.509 33.8051 10.0626 33.7499 9.65308 33.5815V34.661C10.3132 34.8496 11.0147 34.8277 11.6621 34.5983C11.7901 34.5467 11.8999 34.4574 11.9772 34.3419C12.0545 34.2264 12.0957 34.0901 12.0956 33.9506V31.165C12.1002 31.1328 12.0973 31.1 12.0872 31.0691C12.0771 31.0383 12.06 31.0102 12.0373 30.9872C12.0146 30.9642 11.9868 30.9469 11.9564 30.9367C11.9259 30.9264 11.8934 30.9235 11.8617 30.9282H9.33658V30.2318H8.43526V30.9282H7.15553C7.48485 30.6206 7.79506 30.2926 8.08437 29.9462C8.09179 29.9254 8.10647 29.9081 8.12565 29.8975H12.6666V28.9573H8.79992L9.10265 28.4977L8.44903 28.052L8.95816 27.8779C9.8182 28.1356 10.7402 28.4489 11.7103 28.8389L11.9649 27.9266L10.3342 27.3207L11.2975 26.8681L10.8778 25.9976C10.2659 26.3292 9.63652 26.6268 8.99257 26.889C7.87911 26.5346 6.74055 26.2669 5.58682 26.0881L5.3804 27.0213C5.94459 27.1049 6.55694 27.2302 7.22433 27.3974C6.35518 27.5837 5.47055 27.6863 4.58229 27.7038L4.7887 28.637C5.77798 28.6253 6.76219 28.492 7.71972 28.24L8.26326 28.1007C8.05685 28.4211 7.87108 28.7066 7.69219 28.9573H4.51349V29.8975H6.93536C6.35997 30.4542 5.7254 30.9447 5.04327 31.36L4.21075 31.7778L4.72678 32.6066C5.05703 32.4325 5.41481 32.2375 5.72442 32.0285V34.5705H6.66014V31.9241C6.66014 31.8753 6.66014 31.8544 6.73583 31.8475H8.43526Z" fill="white"/>
<path fill-rule="evenodd" clip-rule="evenodd" d="M42.424 32.7668L39.0458 33.2961L38.8393 32.335L42.424 31.7709V26.1996H43.3597V31.6107L44.0477 31.4993L44.2129 32.4813L43.3941 32.6205V34.856H42.424V32.7668ZM39.4861 29.6956L40.1741 28.9992C40.7553 29.4977 41.296 30.0426 41.791 30.6288L41.103 31.2556C40.6007 30.6979 40.0604 30.1767 39.4861 29.6956ZM39.8026 27.3208C40.4186 27.897 40.9891 28.521 41.5089 29.1872L42.2382 28.5813C41.6969 27.9035 41.1107 27.2636 40.4837 26.6662L39.8026 27.3208ZM38.1376 30.9631C38.454 31.367 38.7361 31.7361 38.9838 32.0843L39.6719 31.4366C39.1834 30.8307 38.6673 30.2457 38.1307 29.6886V29.5842H39.3278V28.6092H38.1307V27.2929C38.5298 27.2159 38.9248 27.1183 39.3141 27.0004L39.1283 26.0185C38.086 26.314 37.016 26.4984 35.9359 26.5687L36.0666 27.5437C36.4519 27.5437 36.8303 27.4879 37.195 27.4392V28.6092H35.8189V29.5842H37.195C36.8108 30.6069 36.2467 31.5507 35.5299 32.3698L36.3968 32.7738C36.7095 32.3306 36.9901 31.8651 37.2362 31.3809V34.7934H38.172L38.1376 30.9631ZM29.5234 28.0799V27.5367C29.5234 27.3835 29.5922 27.3138 29.7436 27.3138H32.1517C32.1796 27.3105 32.2079 27.3136 32.2344 27.3229C32.261 27.3322 32.2851 27.3475 32.305 27.3676C32.3249 27.3877 32.34 27.4121 32.3492 27.439C32.3584 27.4659 32.3614 27.4945 32.3581 27.5228V28.0799H29.5234ZM32.3581 28.9783V29.4588C32.3624 29.4912 32.3595 29.5243 32.3493 29.5554C32.3392 29.5865 32.3223 29.6148 32.2997 29.6383C32.2772 29.6618 32.2497 29.6798 32.2193 29.6909C32.1888 29.702 32.1563 29.706 32.1242 29.7026H29.5234V29.0061L32.3581 28.9783ZM27.0809 27.2163C27.1 27.2129 27.1197 27.2141 27.1383 27.2197C27.1569 27.2254 27.1739 27.2354 27.1879 27.249C27.202 27.2625 27.2127 27.2793 27.2192 27.2978C27.2257 27.3163 27.2278 27.3361 27.2254 27.3556V28.6649H26.2415V27.3278C26.2393 27.3089 26.2413 27.2898 26.2475 27.2719C26.2536 27.254 26.2637 27.2377 26.2769 27.2243C26.2901 27.2109 26.3062 27.2007 26.3239 27.1945C26.3416 27.1883 26.3605 27.1862 26.3791 27.1885L27.0809 27.2163ZM27.2254 33.2543C27.2254 33.3796 27.1703 33.4353 27.0534 33.4353H26.2415V31.8754H27.2254V33.2543ZM27.2254 31.0118H26.2415V29.5284H27.2254V31.0118ZM26.2415 34.2989H27.8033H27.9272L28.0097 35.058C29.087 34.9034 30.1409 34.6133 31.1472 34.1944L30.7687 33.3796C30.4012 33.5475 30.0244 33.694 29.6404 33.8184C29.6017 33.8113 29.5621 33.8113 29.5234 33.8184V30.594H30.1151C30.3921 31.9864 31.0979 33.2542 32.131 34.2153C32.4063 34.4521 32.7365 34.7098 33.1287 34.9884L33.8511 34.2571C33.1265 33.8781 32.4815 33.3601 31.9521 32.732C32.5131 32.3496 33.0382 31.916 33.5209 31.4366L32.9704 30.7402C32.5112 31.1959 32.014 31.6107 31.4843 31.9798C31.2717 31.5335 31.1035 31.067 30.982 30.587H32.9773C33.0164 30.5905 33.0558 30.585 33.0926 30.571C33.1293 30.557 33.1625 30.5348 33.1896 30.506C33.2167 30.4772 33.237 30.4427 33.2491 30.4048C33.2612 30.367 33.2647 30.3269 33.2594 30.2875V26.6662C33.2594 26.4851 33.17 26.3946 32.9842 26.3876H28.856C28.684 26.3876 28.5946 26.4851 28.5877 26.6662V33.9925C28.4025 34.0144 28.2188 34.0469 28.0373 34.09V33.9716V26.6105C28.0417 26.5719 28.0374 26.5328 28.0248 26.4961C28.0121 26.4594 27.9915 26.4261 27.9644 26.3987C27.9373 26.3712 27.9043 26.3503 27.8681 26.3376C27.8319 26.3248 27.7933 26.3205 27.7552 26.3249H25.636C25.464 26.3249 25.3746 26.4154 25.3746 26.6035V34.8212H26.2346L26.2415 34.2989Z" fill="white"/>
<path d="M24.8517 23.1214H33.8718V21.2968H26.6543V19.4721H33.8718V17.6475H26.6543V15.8159H33.8718V13.9913H24.8517V23.1214Z" fill="white"/>
<path d="M44.1785 13.9913H35.1584V15.8159H42.3758V17.6475H35.1584V23.1214H36.961V19.4721H38.7637L41.8117 23.1214H44.1785L41.1236 19.4721H44.1785V13.9913Z" fill="white"/>
<path d="M59.3014 32.7597C59.0879 33.0758 58.8583 33.3803 58.6133 33.672H59.8518V32.9129H60.9114V33.672H63.4777V35.8866C63.4777 36.3741 63.3883 36.6318 63.0443 36.785C62.5999 36.9271 62.1328 36.9814 61.6682 36.9452C61.6039 36.615 61.4927 36.2959 61.3379 35.998C61.7026 35.998 62.1292 35.998 62.2462 35.998C62.3631 35.998 62.4113 35.9632 62.4113 35.8588V34.6331H60.9664V37.4745H59.9068V34.6331H58.5996V36.9939H57.5125V34.8072C57.198 35.0747 56.8567 35.3081 56.4942 35.5036C56.2758 35.2061 56.0317 34.9287 55.7649 34.6749C56.6275 34.203 57.3805 33.5501 57.9735 32.7597H55.9919V31.7847H58.5996C58.7176 31.5596 58.8211 31.327 58.9092 31.0883C58.2212 31.2694 57.5675 31.4087 56.9346 31.541C56.7098 31.2143 56.459 30.9069 56.1846 30.6217C57.0722 30.4894 58.001 30.3222 58.8748 30.0994C58.1868 29.8626 57.4506 29.6467 56.8107 29.4796L57.5744 28.8389C58.4207 29.0478 59.4321 29.3264 60.416 29.6328C61.1122 29.4092 61.7779 29.098 62.3975 28.7065L63.3126 29.3403C62.8393 29.633 62.3448 29.8891 61.8333 30.1064C62.5214 30.3501 63.1337 30.5938 63.6222 30.8028L62.7828 31.5688C62.022 31.2031 61.2409 30.8822 60.4435 30.6078C60.1958 30.6913 59.9412 30.7749 59.6729 30.8515L60.1821 30.9908C60.0777 31.2474 59.9606 31.4984 59.8312 31.7429H64.1864V32.7109L59.3014 32.7597Z" fill="#1B407A"/>
<path d="M68.0119 35.2669L64.9295 36.0748L64.7094 35.0162C65.0671 34.9396 65.5006 34.849 65.9684 34.7376V32.9269H64.9846V31.9102H65.9684V30.3363H64.9295V29.3125H68.0601V30.3363H67.028V31.9102H67.9706V32.9269H67.028V34.4799L67.9018 34.271L68.0119 35.2669ZM67.4477 36.7294C67.8628 36.1391 68.1016 35.4405 68.1358 34.7167L68.9958 34.9326C68.9601 35.7327 68.6894 36.5038 68.2183 37.1472L67.4477 36.7294ZM73.3992 33.4214C73.3992 33.4214 73.3992 33.7 73.3992 33.8323C73.3097 35.9564 73.2203 36.8129 72.9726 37.1124C72.8148 37.3138 72.5848 37.4439 72.3327 37.4746C71.9937 37.4977 71.6535 37.4977 71.3145 37.4746C71.2878 37.1343 71.1942 36.8028 71.0392 36.4996C71.295 36.5298 71.5524 36.5438 71.8098 36.5413C71.8623 36.5488 71.9159 36.5424 71.9653 36.5229C72.0146 36.5034 72.0583 36.4714 72.0919 36.4299C72.2183 36.1671 72.2864 35.8795 72.2915 35.5872L71.6653 35.8728C71.5489 35.4865 71.3798 35.1185 71.1631 34.7794L71.7342 34.5705C71.9574 34.8945 72.14 35.2454 72.2777 35.6151C72.2777 35.3087 72.3327 34.9187 72.3603 34.3825H68.3697V29.1384H73.1859V30.0925H71.4383V30.6009H72.8488V31.4714H71.4383V32.0077H72.8556V32.8642H71.4383V33.4353L73.3992 33.4214ZM69.904 34.9326C70.0219 35.4962 70.0864 36.0699 70.0966 36.6458L69.3192 36.7781C69.3258 36.1968 69.2774 35.6161 69.1747 35.044L69.904 34.9326ZM69.3742 30.0577V30.5661H70.4613V30.0577H69.3742ZM70.4613 31.4505H69.3742V31.9868H70.4613V31.4505ZM69.3742 33.4144H70.4613V32.8434H69.3742V33.4144ZM70.8672 34.8073C71.0487 35.2708 71.1847 35.7514 71.2732 36.2419L70.5439 36.4578C70.4771 35.9623 70.3619 35.4747 70.1998 35.0023L70.8672 34.8073Z" fill="#1B407A"/>
<path d="M77.2384 34.459C77.0732 34.1526 76.798 33.6999 76.5503 33.296V37.4745H75.477V33.7487C75.2011 34.5265 74.8089 35.257 74.3142 35.9145C74.1675 35.5402 73.9855 35.181 73.7707 34.8421C74.4876 33.9293 75.0164 32.8802 75.3256 31.7569H74.0046V30.7123H75.4564V28.7832H76.5503V30.7123H77.7544V31.7848H76.5503V31.931C76.8255 32.2096 77.7337 33.2681 77.9264 33.5258L77.2384 34.459ZM80.8437 31.7569C81.1901 32.9697 81.7622 34.1043 82.5293 35.0997C82.2209 35.3482 81.9457 35.6361 81.7106 35.9563C81.2531 35.27 80.8876 34.5253 80.6235 33.7417V37.4745H79.5226V33.6999C79.1476 34.6226 78.6116 35.4695 77.9402 36.2001C77.7684 35.8407 77.5609 35.5 77.3209 35.1833C78.2477 34.2147 78.9401 33.0419 79.3437 31.7569H78.009V30.7123H79.5226V28.7832H80.6235V30.7123H82.2472V31.7848L80.8437 31.7569Z" fill="#1B407A"/>
<path d="M83.2518 29.1382H84.1187V33.1775C84.1187 34.821 84.0568 36.2974 83.4306 37.4535C83.2316 37.2067 83.0001 36.9888 82.7426 36.8058C83.1566 35.6398 83.3276 34.3997 83.2449 33.1635L83.2518 29.1382ZM84.5453 29.7998H85.2952V36.1929H84.5453V29.7998ZM86.6093 36.764C87.1556 36.4976 87.6534 36.1398 88.0817 35.7055L88.9418 36.2765C88.406 36.7941 87.7871 37.2156 87.1116 37.5231C86.9564 37.3243 86.7886 37.1359 86.6093 36.959V37.1819H85.7287V29.0895H86.6093V36.764ZM88.4739 30.7261C88.5152 30.5311 88.5496 30.3152 88.5771 30.1202H86.9258V29.1661H91.3224V30.1202H89.733C89.6642 30.3221 89.5885 30.5311 89.5266 30.7261H91.0815V35.6637H87.1598V30.7261H88.4739ZM90.0495 31.5339H88.1437V32.1328H90.0495V31.5339ZM90.0495 32.8849H88.1437V33.4839H90.0495V32.8849ZM90.0495 34.2778H88.1437V34.8697H90.0495V34.2778ZM90.1114 35.7751C90.6336 36.1263 91.1303 36.515 91.5976 36.9381L90.7375 37.537C90.2997 37.0823 89.8231 36.6674 89.3133 36.2974L90.1114 35.7751Z" fill="#1B407A"/>
<path d="M93.2076 33.0939C92.7701 32.6741 92.293 32.2985 91.7833 31.9727L92.4301 31.2763C92.9507 31.5689 93.4376 31.9193 93.8818 32.3209L93.2076 33.0939ZM91.9691 36.8894C92.399 35.8495 92.7666 34.7844 93.0699 33.6998L93.9369 34.243C93.6617 35.3085 93.2488 36.4507 92.9323 37.4048L91.9691 36.8894ZM92.7947 28.8945C93.2801 29.2238 93.7237 29.612 94.1157 30.0506L93.3589 30.747C92.9849 30.2836 92.555 29.8695 92.0792 29.5143L92.7947 28.8945ZM100.232 36.2487C100.232 36.7432 100.164 37.0496 99.8814 37.2237C99.4953 37.4066 99.0669 37.4788 98.643 37.4326C98.5966 37.0692 98.5042 36.7134 98.3678 36.374C98.6774 36.374 99.0076 36.374 99.1177 36.374C99.2278 36.374 99.2691 36.3323 99.2691 36.2069V34.3614H98.4641C98.4265 35.4696 98.1243 36.552 97.5834 37.5162C97.3422 37.2805 97.0688 37.0811 96.7716 36.9242C96.9732 36.6128 97.1329 36.2756 97.2463 35.9214H96.2142V37.4883H95.2166V35.9214H93.9575V34.9534H95.2166V34.3823H94.2121V31.2345H95.2166V30.6913H94.1157V29.7442H95.2166V28.8318H96.2142V29.7442H97.2876V30.6913H96.2142V31.2345H97.1912V34.3823H96.228V34.9534H97.3289V35.6498C97.5129 34.7475 97.5937 33.8268 97.5697 32.9059V29.1174H100.246L100.232 36.2487ZM95.0859 32.4811H96.2762V32.0005H95.0859V32.4811ZM95.0859 33.665H96.2762V33.1775H95.0859V33.665ZM99.2691 33.4073V32.2373H98.5123V32.9337C98.5123 33.087 98.5123 33.2471 98.5123 33.4143L99.2691 33.4073ZM98.5123 30.1272V31.2554H99.2553V30.1272H98.5123Z" fill="#1B407A"/>
<path d="M103.934 36.0329H102.111V36.785H101.189V29.3333H103.941L103.934 36.0329ZM102.111 30.3014V31.2415H103.046V30.3014H102.111ZM102.111 33.1358H103.046V32.1747H102.111V33.1358ZM103.046 35.0649V34.069H102.111V35.0649H103.046ZM109.5 34.3058C109.08 34.6331 108.578 35.0022 108.165 35.2668C108.53 35.7948 109.023 36.2192 109.596 36.4995C109.301 36.7775 109.053 37.1021 108.86 37.4605C107.525 36.6875 106.796 35.2529 106.383 33.4352H105.647V36.0538L106.934 35.7613C106.924 36.0986 106.94 36.4363 106.982 36.7711C106.165 36.9082 105.371 37.1589 104.622 37.5163C104.508 37.2035 104.348 36.91 104.147 36.6457C104.283 36.5616 104.394 36.4424 104.469 36.3004C104.544 36.1584 104.58 35.9988 104.574 35.8379V29.1592H108.97V33.4352H107.319C107.423 33.7867 107.55 34.131 107.697 34.4659C108.091 34.1886 108.457 33.8738 108.791 33.5258L109.5 34.3058ZM105.647 30.1273V30.8237H107.897V30.1273H105.647ZM105.647 32.4951H107.897V31.7499H105.647V32.4951Z" fill="#1B407A"/>
<path d="M112.94 34.7306C112.777 34.3765 112.593 34.0324 112.39 33.6999V37.4884H111.33V34.1317C111.07 34.7858 110.733 35.4055 110.326 35.9772C110.192 35.6112 110.024 35.2591 109.823 34.9256C110.412 34.1728 110.877 33.3285 111.2 32.4255H109.954V31.3948H111.33V30.3362C110.972 30.3919 110.642 30.4546 110.291 30.4894C110.228 30.1927 110.129 29.905 109.995 29.6328C111.009 29.4889 112.003 29.2319 112.961 28.8668L113.573 29.7721C113.188 29.9165 112.792 30.0306 112.39 30.1134V31.3948H113.601V32.4255H112.39V32.4812C112.658 32.7389 113.408 33.6163 113.587 33.8322L112.94 34.7306ZM117.481 35.1276V37.4745H116.401V35.3226L113.649 35.8101L113.477 34.7585L116.429 34.2431V28.7832H117.509V34.0551L118.417 33.9019L118.596 34.9326L117.481 35.1276ZM115.169 33.8322C114.739 33.2988 114.247 32.8195 113.704 32.4046L114.392 31.7708C114.946 32.1582 115.452 32.6119 115.899 33.1219L115.169 33.8322ZM115.41 31.3739C115.018 30.8473 114.555 30.3785 114.034 29.981L114.722 29.3473C115.251 29.7302 115.728 30.1821 116.14 30.6914L115.41 31.3739Z" fill="#1B407A"/>
<path d="M127.024 30.3919V35.044H125.875V34.5704H123.811V37.4815H122.648V34.5704H120.584V35.0858H119.477V30.3919H122.648V28.7832H123.804V30.3919H127.024ZM122.648 33.491V31.4853H120.584V33.491H122.648ZM125.889 33.491V31.4853H123.825V33.491H125.889Z" fill="#1B407A"/>
<path d="M129.783 32.1957C129.657 33.5007 129.427 34.7933 129.095 36.0608L127.994 35.6151C128.34 34.4311 128.57 33.216 128.682 31.9868L129.783 32.1957ZM131.51 31.4366V35.7614C131.51 36.2001 131.586 36.2767 132.026 36.2767H133.347C133.801 36.2767 133.884 35.9773 133.953 34.5217C134.268 34.7359 134.617 34.8937 134.985 34.9884C134.854 36.7573 134.558 37.3074 133.43 37.3074H131.896C130.705 37.3074 130.368 36.9383 130.368 35.7614V31.4366H131.51ZM131.428 28.9295C132.337 29.489 133.192 30.135 133.98 30.8586L133.168 31.7291C132.411 30.9658 131.578 30.2821 130.685 29.6886L131.428 28.9295ZM135.446 31.7152C135.958 32.8312 136.355 33.9982 136.629 35.1973L135.515 35.6639C135.286 34.4638 134.919 33.295 134.421 32.1818L135.446 31.7152Z" fill="#1B407A"/>
<path d="M56.3979 11.9229H57.2854V13.7406H59.0055V11.9229H59.9137V16.5332H59.0055V14.5414H57.2854V16.5332H56.3704L56.3979 11.9229Z" fill="#1B407A"/>
<path d="M60.65 14.799C60.678 14.4745 60.7987 14.1653 60.9974 13.909C61.1961 13.6528 61.4642 13.4606 61.7689 13.3559C62.0737 13.2513 62.4019 13.2386 62.7137 13.3195C63.0254 13.4004 63.3071 13.5714 63.5245 13.8116C63.7419 14.0518 63.8855 14.3508 63.9379 14.6722C63.9902 14.9936 63.9491 15.3235 63.8194 15.6216C63.6897 15.9197 63.4771 16.1732 63.2075 16.3511C62.938 16.5291 62.6231 16.6238 62.3012 16.6236C62.0723 16.6205 61.8464 16.5699 61.6374 16.4751C61.4285 16.3803 61.2409 16.2432 61.0863 16.0723C60.9316 15.9014 60.8131 15.7003 60.7381 15.4813C60.663 15.2624 60.6331 15.0302 60.65 14.799ZM63.0374 14.799C63.0374 14.1374 62.7691 13.7057 62.3012 13.7057C61.8334 13.7057 61.5719 14.1374 61.5719 14.799C61.5719 15.4606 61.8334 15.8715 62.3012 15.8715C62.7691 15.8715 63.0374 15.4536 63.0374 14.799Z" fill="#1B407A"/>
<path d="M64.5923 13.0441H65.3354L65.3973 13.5107C65.5383 13.3475 65.7102 13.2147 65.9029 13.1202C66.0955 13.0257 66.305 12.9714 66.5188 12.9605C67.2619 12.9605 67.5853 13.4828 67.5853 14.3533V16.5262H66.6771V14.4369C66.6771 13.9007 66.5326 13.7405 66.1886 13.7405C66.0532 13.7527 65.9219 13.7937 65.8033 13.861C65.6847 13.9282 65.5816 14.02 65.5006 14.1305V16.5262H64.5992L64.5923 13.0441Z" fill="#1B407A"/>
<path d="M68.1907 17.1599C68.2049 17.0107 68.2574 16.8679 68.3431 16.7456C68.4288 16.6234 68.5447 16.5261 68.6792 16.4635C68.5826 16.3991 68.5036 16.3111 68.4495 16.2076C68.3954 16.1042 68.3679 15.9885 68.3696 15.8715C68.3803 15.7416 68.4199 15.6159 68.4855 15.5038C68.551 15.3916 68.6408 15.2959 68.748 15.2238C68.608 15.1175 68.4941 14.9798 68.4153 14.8216C68.3365 14.6633 68.295 14.4887 68.2939 14.3115C68.2961 14.1352 68.3342 13.9612 68.4059 13.8005C68.4775 13.6398 68.5812 13.4958 68.7103 13.3775C68.8395 13.2591 68.9914 13.1691 69.1565 13.1129C69.3217 13.0567 69.4965 13.0357 69.67 13.051C69.8453 13.0505 70.0196 13.0787 70.186 13.1346H71.4314V13.831H70.8396C70.9461 13.9862 71.0014 14.1714 70.9979 14.3603C70.9983 14.5298 70.9629 14.6976 70.8942 14.8522C70.8254 15.0068 70.7247 15.1447 70.599 15.2568C70.4733 15.3689 70.3254 15.4525 70.1652 15.5021C70.005 15.5516 69.8361 15.566 69.67 15.5442C69.5198 15.5394 69.3713 15.5113 69.2297 15.4606C69.1815 15.4935 69.1423 15.5382 69.1159 15.5906C69.0894 15.643 69.0765 15.7013 69.0783 15.7601C69.0783 15.9481 69.2159 16.0456 69.6218 16.0456H70.2067C71.0392 16.0456 71.4864 16.3102 71.4864 16.9231C71.4864 17.5359 70.7984 18.1627 69.615 18.1627C68.8168 18.0513 68.1907 17.7658 68.1907 17.1599ZM70.6401 16.9718C70.6401 16.7211 70.4337 16.6584 70.0691 16.6584H69.67C69.508 16.6644 69.346 16.648 69.1884 16.6097C69.123 16.6555 69.0687 16.7156 69.0294 16.7855C68.9901 16.8554 68.9668 16.9334 68.9613 17.0136C68.9613 17.3061 69.2778 17.4733 69.787 17.4733C70.2961 17.4733 70.6401 17.2365 70.6401 16.9649V16.9718ZM70.2204 14.228C70.2204 13.8171 69.9934 13.5872 69.6838 13.5872C69.3741 13.5872 69.1402 13.8171 69.1402 14.228C69.1296 14.3074 69.1355 14.3882 69.1578 14.4651C69.18 14.5421 69.218 14.6134 69.2693 14.6745C69.3205 14.7356 69.384 14.785 69.4554 14.8197C69.5268 14.8544 69.6046 14.8734 69.6838 14.8756C69.9865 14.8687 70.2204 14.6319 70.2204 14.221V14.228Z" fill="#1B407A"/>
<path d="M73.3166 11.9229H74.2248V13.9216L75.7316 11.9229H76.7361L75.36 13.7406L76.9976 16.5262H75.9999L74.8234 14.437L74.2248 15.21V16.5053H73.3166V11.9229Z" fill="#1B407A"/>
<path d="M77.0319 14.799C77.06 14.4745 77.1807 14.1653 77.3794 13.909C77.5781 13.6528 77.8461 13.4606 78.1509 13.3559C78.4556 13.2513 78.7839 13.2386 79.0956 13.3195C79.4074 13.4004 79.6891 13.5714 79.9065 13.8116C80.1239 14.0518 80.2675 14.3508 80.3198 14.6722C80.3722 14.9936 80.331 15.3235 80.2013 15.6216C80.0716 15.9197 79.8591 16.1732 79.5895 16.3511C79.3199 16.5291 79.005 16.6238 78.6832 16.6236C78.4543 16.6205 78.2284 16.5699 78.0194 16.4751C77.8105 16.3803 77.6229 16.2432 77.4682 16.0723C77.3135 15.9014 77.1951 15.7003 77.12 15.4813C77.045 15.2624 77.015 15.0302 77.0319 14.799ZM79.4194 14.799C79.4194 14.1374 79.1511 13.7057 78.6832 13.7057C78.2153 13.7057 77.9539 14.1374 77.9539 14.799C77.9539 15.4606 78.2153 15.8715 78.6832 15.8715C79.1511 15.8715 79.4194 15.4536 79.4194 14.799Z" fill="#1B407A"/>
<path d="M80.9744 13.0441H81.7106L81.7725 13.5107C81.9134 13.3475 82.0853 13.2147 82.278 13.1202C82.4707 13.0257 82.6801 12.9714 82.894 12.9605C83.637 12.9605 83.9604 13.4828 83.9604 14.3533V16.5262H83.0522V14.4369C83.0522 13.9007 82.9077 13.7405 82.5637 13.7405C82.4283 13.7527 82.2971 13.7937 82.1785 13.861C82.0599 13.9282 81.9567 14.02 81.8757 14.1305V16.5262H80.9744V13.0441Z" fill="#1B407A"/>
<path d="M84.5728 17.1599C84.5869 17.0107 84.6394 16.8679 84.7251 16.7456C84.8109 16.6234 84.9267 16.5261 85.0612 16.4635C84.9646 16.3991 84.8856 16.3111 84.8315 16.2076C84.7774 16.1042 84.7499 15.9885 84.7516 15.8715C84.7623 15.7416 84.802 15.6159 84.8675 15.5038C84.933 15.3916 85.0228 15.2959 85.1301 15.2238C84.99 15.1175 84.8761 14.9798 84.7973 14.8216C84.7186 14.6633 84.677 14.4887 84.676 14.3115C84.6781 14.1352 84.7162 13.9612 84.7879 13.8005C84.8595 13.6398 84.9632 13.4958 85.0923 13.3775C85.2215 13.2591 85.3734 13.1691 85.5385 13.1129C85.7037 13.0567 85.8785 13.0357 86.052 13.051C86.2274 13.0505 86.4016 13.0787 86.568 13.1346H87.8134V13.831H87.2217C87.3281 13.9862 87.3835 14.1714 87.3799 14.3603C87.3803 14.5298 87.345 14.6976 87.2762 14.8522C87.2074 15.0068 87.1068 15.1447 86.9811 15.2568C86.8553 15.3689 86.7074 15.4525 86.5472 15.5021C86.387 15.5516 86.2182 15.566 86.052 15.5442C85.9019 15.5394 85.7533 15.5113 85.6117 15.4606C85.5635 15.4935 85.5244 15.5382 85.4979 15.5906C85.4714 15.643 85.4585 15.7013 85.4603 15.7601C85.4603 15.9481 85.5979 16.0456 86.0039 16.0456H86.5887C87.4212 16.0456 87.8684 16.3102 87.8684 16.9231C87.8684 17.5359 87.146 18.1627 85.997 18.1627C85.1989 18.0513 84.5728 17.7658 84.5728 17.1599ZM87.0221 16.9718C87.0221 16.7211 86.8157 16.6584 86.4511 16.6584H86.0314C85.8694 16.6644 85.7074 16.648 85.5498 16.6097C85.4844 16.6555 85.4301 16.7156 85.3908 16.7855C85.3515 16.8554 85.3282 16.9334 85.3227 17.0136C85.3227 17.3061 85.6392 17.4733 86.1483 17.4733C86.6575 17.4733 87.0221 17.2365 87.0221 16.9649V16.9718ZM86.6024 14.228C86.6024 13.8171 86.3754 13.5872 86.0658 13.5872C85.7562 13.5872 85.5222 13.8171 85.5222 14.228C85.5116 14.3074 85.5176 14.3882 85.5398 14.4651C85.562 14.5421 85.6 14.6134 85.6513 14.6745C85.7026 14.7356 85.766 14.785 85.8374 14.8197C85.9088 14.8544 85.9866 14.8734 86.0658 14.8756C86.3685 14.8687 86.6024 14.6319 86.6024 14.221V14.228Z" fill="#1B407A"/>
<path d="M89.4715 14.2488C89.441 13.947 89.4728 13.642 89.565 13.3533C89.6571 13.0645 89.8077 12.7984 90.007 12.5718C90.2063 12.3451 90.4501 12.1629 90.7227 12.0368C90.9953 11.9107 91.2909 11.8434 91.5907 11.8392C91.8412 11.8413 92.0886 11.8948 92.318 11.9966C92.5475 12.0983 92.7541 12.2462 92.9255 12.4311L92.4438 13.0161C92.3367 12.8978 92.2072 12.8023 92.063 12.7354C91.9189 12.6684 91.763 12.6312 91.6044 12.6261C90.9164 12.6261 90.4004 13.225 90.4004 14.214C90.4004 15.2029 90.8682 15.8227 91.5907 15.8227C91.7695 15.8188 91.9454 15.7765 92.1067 15.6984C92.2681 15.6203 92.4111 15.5084 92.5264 15.37L93.008 15.9411C92.8343 16.1613 92.6132 16.3385 92.3617 16.4592C92.1101 16.5798 91.8346 16.6408 91.5563 16.6375C90.4073 16.6236 89.4715 15.767 89.4715 14.2488Z" fill="#1B407A"/>
<path d="M93.125 14.423H94.8107V15.0706H93.125V14.423Z" fill="#1B407A"/>
<path d="M95.54 11.9229H96.5514L97.3289 14.0818C97.4252 14.3673 97.5078 14.6737 97.6041 14.9732C97.7073 14.6737 97.783 14.3673 97.8862 14.0818L98.643 11.9229H99.6475V16.5332H98.8425V14.6111C98.8425 14.1723 98.9113 13.5316 98.9595 13.0999L98.588 14.1793L97.8999 16.1153H97.377L96.689 14.1793L96.3312 13.0999C96.3725 13.5316 96.4482 14.1723 96.4482 14.6111V16.5332H95.54V11.9229Z" fill="#1B407A"/>
<path d="M100.673 11.9229H103.466V12.689H101.588V13.7545H103.184V14.5275H101.588V15.7671H103.535V16.5401H100.673V11.9229Z" fill="#1B407A"/>
<path d="M106.824 16.5332L105.888 14.7922H105.255V16.5332H104.347V11.9229H105.936C106.886 11.9229 107.642 12.2642 107.642 13.3157C107.66 13.6018 107.585 13.8857 107.428 14.1245C107.272 14.3633 107.043 14.544 106.776 14.6389L107.842 16.5262L106.824 16.5332ZM105.255 14.0609H105.847C106.432 14.0609 106.748 13.8102 106.748 13.3227C106.748 12.8352 106.432 12.6263 105.847 12.6263H105.255V14.0609Z" fill="#1B407A"/>
<path d="M109.686 11.9229H110.952C111.256 11.8935 111.562 11.9327 111.849 12.0376C112.137 12.1426 112.397 12.3107 112.612 12.5298C112.827 12.749 112.992 13.0137 113.094 13.305C113.196 13.5962 113.233 13.9067 113.202 14.2141C113.202 15.7601 112.342 16.5332 111 16.5332H109.7L109.686 11.9229ZM110.883 15.7671C111.729 15.7671 112.259 15.3075 112.259 14.1862C112.259 13.065 111.729 12.6332 110.883 12.6332H110.601V15.7671H110.883Z" fill="#1B407A"/>
<path d="M113.704 14.799C113.687 14.5706 113.716 14.3411 113.788 14.1241C113.861 13.9071 113.975 13.7069 114.125 13.5355C114.275 13.3641 114.458 13.2249 114.662 13.1261C114.866 13.0274 115.088 12.9711 115.314 12.9605C116.257 12.9605 116.752 13.6569 116.752 14.6319C116.753 14.77 116.739 14.9078 116.711 15.0428H114.585C114.59 15.1642 114.619 15.2833 114.67 15.3933C114.721 15.5032 114.793 15.6018 114.882 15.6834C114.971 15.765 115.075 15.828 115.188 15.8686C115.301 15.9093 115.421 15.9268 115.541 15.9203C115.816 15.9164 116.084 15.8317 116.312 15.6765L116.621 16.2337C116.267 16.4815 115.848 16.6173 115.417 16.6237C115.183 16.6303 114.95 16.5869 114.733 16.4963C114.516 16.4057 114.32 16.2699 114.159 16.0978C113.997 15.9258 113.873 15.7212 113.795 15.4974C113.717 15.2737 113.686 15.0357 113.704 14.799ZM115.975 14.4439C115.975 13.9703 115.768 13.6708 115.321 13.6708C115.122 13.678 114.933 13.7621 114.794 13.906C114.654 14.0498 114.574 14.2423 114.571 14.4439H115.975Z" fill="#1B407A"/>
<path d="M117.337 13.0441H118.08L118.142 13.5107C118.283 13.3475 118.455 13.2147 118.647 13.1202C118.84 13.0257 119.049 12.9714 119.263 12.9605C120.006 12.9605 120.33 13.4828 120.33 14.3533V16.5262H119.422V14.4369C119.422 13.9007 119.277 13.7405 118.94 13.7405C118.799 13.7496 118.662 13.7892 118.537 13.8564C118.412 13.9237 118.303 14.0171 118.217 14.1305V16.5262H117.316L117.337 13.0441Z" fill="#1B407A"/>
<path d="M121.162 13.0441H121.898L121.96 13.5107C122.101 13.3475 122.273 13.2147 122.466 13.1202C122.659 13.0257 122.868 12.9714 123.082 12.9605C123.825 12.9605 124.141 13.4828 124.141 14.3533V16.5262H123.268V14.4369C123.268 13.9007 123.116 13.7405 122.779 13.7405C122.644 13.7527 122.512 13.7937 122.394 13.861C122.275 13.9282 122.172 14.02 122.091 14.1305V16.5262H121.19L121.162 13.0441Z" fill="#1B407A"/>
<path d="M124.898 11.9856C124.913 11.8512 124.977 11.7271 125.076 11.6371C125.176 11.547 125.305 11.4972 125.438 11.4972C125.572 11.4972 125.701 11.547 125.8 11.6371C125.9 11.7271 125.963 11.8512 125.978 11.9856C125.963 12.1199 125.9 12.244 125.8 12.3341C125.701 12.4241 125.572 12.4739 125.438 12.4739C125.305 12.4739 125.176 12.4241 125.076 12.3341C124.977 12.244 124.913 12.1199 124.898 11.9856ZM124.988 13.0441H125.882V16.5262H124.988V13.0441Z" fill="#1B407A"/>
<path d="M126.405 16.1292L126.818 15.5582C127.076 15.7874 127.404 15.9201 127.747 15.9342C128.091 15.9342 128.242 15.788 128.242 15.5721C128.242 15.3562 127.884 15.189 127.52 15.0428C127.155 14.8965 126.584 14.611 126.584 14.033C126.584 13.455 127.086 12.9605 127.864 12.9605C128.291 12.9662 128.703 13.1184 129.033 13.3923L128.627 13.9425C128.417 13.7661 128.157 13.6613 127.884 13.643C127.575 13.643 127.43 13.7823 127.43 13.9842C127.43 14.1862 127.767 14.3325 128.118 14.4648C128.469 14.5971 129.075 14.8687 129.075 15.5164C129.075 16.164 128.607 16.6237 127.699 16.6237C127.226 16.6037 126.773 16.4303 126.405 16.1292Z" fill="#1B407A"/>
<path d="M131.008 11.9229H131.916V15.7671H133.76V16.5401H131.008V11.9229Z" fill="#1B407A"/>
<path d="M134.187 15.586C134.187 14.8408 134.785 14.4509 136.168 14.2976C136.178 14.2169 136.169 14.1351 136.144 14.0581C136.118 13.9811 136.075 13.9109 136.019 13.8528C135.963 13.7946 135.895 13.75 135.819 13.7221C135.744 13.6942 135.663 13.6839 135.583 13.6917C135.246 13.7174 134.92 13.8327 134.641 14.026L134.311 13.4201C134.74 13.1332 135.241 12.9739 135.755 12.9605C136.629 12.9605 137.076 13.4898 137.076 14.4996V16.5331H136.34L136.271 16.164C135.99 16.4371 135.622 16.6 135.233 16.6237C135.095 16.6326 134.956 16.6121 134.827 16.5634C134.697 16.5147 134.58 16.4389 134.481 16.341C134.382 16.2431 134.305 16.1253 134.254 15.9952C134.204 15.8651 134.181 15.7257 134.187 15.586ZM136.168 15.586V14.8896C135.336 15.001 135.054 15.2308 135.054 15.5442C135.054 15.8576 135.239 15.9342 135.508 15.9342C135.637 15.9238 135.763 15.8854 135.877 15.8218C135.991 15.7581 136.09 15.6706 136.168 15.5651V15.586Z" fill="#1B407A"/>
<path d="M137.875 13.044H138.618L138.679 13.5106C138.809 13.3493 138.969 13.217 139.152 13.1222C139.334 13.0275 139.534 12.9724 139.739 12.9604C139.941 12.9439 140.142 12.994 140.314 13.1033C140.485 13.2125 140.616 13.375 140.689 13.5663C140.818 13.3928 140.983 13.2491 141.171 13.1446C141.36 13.0402 141.568 12.9774 141.783 12.9604C142.512 12.9604 142.856 13.4827 142.856 14.3533V16.5261H141.948V14.4368C141.948 13.9006 141.796 13.7404 141.466 13.7404C141.331 13.7543 141.2 13.7961 141.082 13.8631C140.964 13.9302 140.86 14.0212 140.778 14.1304V16.5261H139.918V14.4368C139.918 13.9006 139.767 13.7404 139.436 13.7404C139.301 13.7543 139.171 13.7961 139.052 13.8631C138.934 13.9302 138.831 14.0212 138.748 14.1304V16.5261H137.847L137.875 13.044Z" fill="#1B407A"/>
<path d="M148.794 16.7351C148.391 16.6368 148.008 16.4721 147.658 16.2476C147.268 16.5646 146.783 16.7367 146.282 16.7351C146.098 16.7576 145.911 16.7406 145.734 16.6854C145.556 16.6302 145.392 16.5379 145.252 16.4145C145.112 16.2911 144.999 16.1394 144.921 15.9691C144.842 15.7988 144.8 15.6138 144.796 15.4259C144.809 15.1503 144.895 14.8833 145.046 14.653C145.196 14.4227 145.404 14.2374 145.649 14.1166C145.474 13.8135 145.375 13.4716 145.36 13.1207C145.357 12.9627 145.386 12.8056 145.446 12.6595C145.506 12.5134 145.594 12.3813 145.707 12.2714C145.819 12.1616 145.953 12.0765 146.099 12.0213C146.245 11.9661 146.402 11.9421 146.558 11.9507C146.694 11.9378 146.831 11.9544 146.96 11.9993C147.09 12.0443 147.208 12.1166 147.308 12.2115C147.407 12.3064 147.486 12.4216 147.538 12.5496C147.59 12.6775 147.615 12.8152 147.61 12.9536C147.61 13.5664 147.122 13.9425 146.633 14.2907C146.921 14.6482 147.252 14.9686 147.617 15.2448C147.876 14.8942 148.068 14.4972 148.181 14.0748H149C148.836 14.6432 148.575 15.1782 148.229 15.6557C148.477 15.8123 148.749 15.9253 149.034 15.99L148.794 16.7351ZM146.372 16.0387C146.619 16.0345 146.859 15.9544 147.06 15.8089C146.677 15.4898 146.33 15.1276 146.028 14.7295C145.923 14.8033 145.835 14.8996 145.771 15.0115C145.707 15.1234 145.668 15.2482 145.656 15.3771C145.667 15.5569 145.746 15.7256 145.877 15.8476C146.008 15.9697 146.18 16.0357 146.358 16.0318L146.372 16.0387ZM146.255 13.7475C146.613 13.5316 146.888 13.3018 146.888 12.9675C146.888 12.6332 146.785 12.5706 146.544 12.5706C146.303 12.5706 146.09 12.7864 146.09 13.1277C146.095 13.3407 146.147 13.5499 146.241 13.7405L146.255 13.7475Z" fill="#1B407A"/>
<path d="M56.3979 20.7395H57.8978C58.9023 20.7395 59.6798 21.0947 59.6798 22.188C59.6798 23.2814 58.8954 23.7132 57.9184 23.7132H57.2854V25.3498H56.3704L56.3979 20.7395ZM57.8565 22.9819C58.4895 22.9819 58.7853 22.7173 58.7853 22.188C58.7853 21.6588 58.4551 21.4916 57.829 21.4916H57.2854V23.0029L57.8565 22.9819Z" fill="#1B407A"/>
<path d="M59.8862 24.4026C59.8862 23.6574 60.4848 23.2605 61.8677 23.1142C61.8677 22.773 61.7095 22.5083 61.2829 22.5083C60.9442 22.5344 60.6175 22.647 60.3334 22.8356L60.0101 22.2367C60.4378 21.951 60.9358 21.7918 61.448 21.7771C62.3218 21.7771 62.7691 22.3064 62.7691 23.3092V25.3497H62.0329L61.9641 24.9737C61.6861 25.2521 61.3158 25.4159 60.9251 25.4333C60.7882 25.4422 60.6509 25.4219 60.5222 25.3735C60.3936 25.3252 60.2764 25.2499 60.1784 25.1527C60.0804 25.0554 60.0037 24.9384 59.9533 24.8091C59.903 24.6799 59.8801 24.5414 59.8862 24.4026ZM61.8677 24.4026V23.7062C61.0283 23.8176 60.7463 24.0544 60.7463 24.3608C60.7463 24.6672 60.9389 24.7578 61.2004 24.7578C61.3326 24.7476 61.461 24.7079 61.5763 24.6417C61.6917 24.5755 61.7912 24.4843 61.8677 24.3747V24.4026Z" fill="#1B407A"/>
<path d="M63.5741 21.8608H64.3103L64.3722 22.4806C64.4588 22.2868 64.595 22.12 64.7669 21.9975C64.9387 21.875 65.1398 21.8014 65.3492 21.7842C65.4878 21.7788 65.626 21.8025 65.7551 21.8538L65.5969 22.6478C65.482 22.6074 65.3607 22.5885 65.2391 22.592C64.9639 22.592 64.6405 22.7731 64.441 23.2884V25.3777H63.5466L63.5741 21.8608Z" fill="#1B407A"/>
<path d="M66.2643 24.1241V22.5781H65.7758V21.8817L66.3055 21.8399L66.4087 20.9067H67.1656V21.8399H68.0187V22.5363H67.1656V24.1241C67.1656 24.5211 67.3238 24.7091 67.6334 24.7091C67.7492 24.7026 67.8631 24.6767 67.9706 24.6325L68.1219 25.3289C67.8873 25.4112 67.6409 25.4535 67.3926 25.4543C66.5739 25.4334 66.2643 24.9111 66.2643 24.1241Z" fill="#1B407A"/>
<path d="M68.5967 21.8607H69.3329L69.3948 22.3203C69.535 22.1586 69.706 22.0272 69.8975 21.9339C70.089 21.8406 70.2971 21.7872 70.5094 21.7771C71.2594 21.7771 71.5759 22.2994 71.5759 23.1699V25.3428H70.7021V23.2535C70.7021 22.7173 70.5507 22.5223 70.2135 22.5223C70.0782 22.5374 69.9473 22.5804 69.829 22.6487C69.7106 22.717 69.6074 22.809 69.5255 22.9192V25.3149H68.6311L68.5967 21.8607Z" fill="#1B407A"/>
<path d="M72.202 23.6087C72.1852 23.3806 72.2138 23.1514 72.2863 22.9348C72.3587 22.7182 72.4734 22.5185 72.6236 22.3477C72.7738 22.1768 72.9564 22.0382 73.1605 21.9402C73.3647 21.8422 73.5862 21.7867 73.812 21.7771C74.7546 21.7771 75.2499 22.4735 75.2499 23.4415C75.2512 23.5819 75.2374 23.722 75.2087 23.8594H73.1102C73.1163 23.9802 73.146 24.0985 73.1974 24.2077C73.2488 24.3168 73.321 24.4147 73.4099 24.4955C73.4987 24.5764 73.6025 24.6387 73.7151 24.6789C73.8278 24.7192 73.9472 24.7365 74.0665 24.7299C74.341 24.7305 74.6093 24.6481 74.8371 24.4931L75.1467 25.0503C74.7916 25.2956 74.3726 25.4289 73.9427 25.4333C73.7057 25.4451 73.4689 25.4054 73.2483 25.317C73.0276 25.2286 72.8282 25.0935 72.6634 24.9207C72.4986 24.7479 72.3721 24.5415 72.2925 24.3152C72.213 24.0889 72.1821 23.848 72.202 23.6087ZM74.4725 23.2535C74.4725 22.7799 74.2661 22.4874 73.8188 22.4874C73.621 22.4945 73.4332 22.5776 73.2938 22.72C73.1545 22.8623 73.074 23.0532 73.0689 23.2535H74.4725Z" fill="#1B407A"/>
<path d="M75.8623 21.8606H76.6054L76.6673 22.4804C76.7556 22.2865 76.8933 22.1198 77.0661 21.9975C77.239 21.8751 77.4409 21.8014 77.6512 21.784C77.7897 21.78 77.9276 21.8036 78.0571 21.8536L77.892 22.6476C77.7772 22.6066 77.6559 22.5877 77.5342 22.5918C77.2659 22.5918 76.9425 22.7729 76.743 23.2883V25.3775H75.8623V21.8606Z" fill="#1B407A"/>
<path d="M78.0571 24.9458L78.4699 24.3747C78.7275 24.6002 79.0519 24.7325 79.3919 24.7508C79.7359 24.7508 79.8942 24.6046 79.8942 24.3817C79.8942 24.1588 79.5364 24.0056 79.1717 23.8594C78.8071 23.7131 78.2291 23.4276 78.2291 22.8426C78.2291 22.2576 78.7314 21.7771 79.5089 21.7771C79.9367 21.783 80.3505 21.9324 80.6854 22.2019L80.2795 22.7591C80.0665 22.587 79.8079 22.4827 79.5364 22.4596C79.2268 22.4596 79.0823 22.5989 79.0823 22.7939C79.0823 22.9889 79.4194 23.1421 79.7703 23.2814C80.1212 23.4206 80.7267 23.6853 80.7267 24.3329C80.7267 24.9806 80.252 25.4333 79.3506 25.4333C78.8787 25.4168 78.4248 25.2457 78.0571 24.9458Z" fill="#1B407A"/>
<path d="M82.6531 20.7395H85.4534V21.5055H83.5682V22.5711H85.1645V23.3441H83.5682V24.5768H85.4947V25.3498H82.6325L82.6531 20.7395Z" fill="#1B407A"/>
<path d="M85.997 26.6798L86.1621 25.9834C86.2401 26.0086 86.3212 26.0226 86.403 26.0252C86.5521 26.0209 86.6959 25.9676 86.8126 25.8734C86.9292 25.7792 87.0124 25.6491 87.0497 25.5029L87.1116 25.2939L85.77 21.8676H86.685L87.2286 23.4902C87.3318 23.7966 87.4212 24.1379 87.5176 24.4722H87.5588C87.6345 24.1448 87.724 23.8106 87.8065 23.4902L88.2744 21.8676H89.1413L87.9166 25.4611C87.6208 26.2828 87.2286 26.7564 86.4786 26.7564C86.3149 26.7601 86.1518 26.7342 85.997 26.6798Z" fill="#1B407A"/>
<path d="M89.3201 23.6087C89.3024 23.381 89.3301 23.152 89.4018 22.9354C89.4734 22.7188 89.5875 22.519 89.7371 22.348C89.8868 22.1771 90.0689 22.0384 90.2727 21.9403C90.4765 21.8422 90.6978 21.7867 90.9233 21.7771C91.8727 21.7771 92.3612 22.4735 92.3612 23.4415C92.3661 23.5821 92.3522 23.7226 92.32 23.8594H90.1939C90.2001 23.9802 90.2297 24.0985 90.2812 24.2077C90.3326 24.3168 90.4048 24.4147 90.4936 24.4955C90.5825 24.5764 90.6862 24.6387 90.7989 24.6789C90.9116 24.7192 91.031 24.7365 91.1503 24.7299C91.4265 24.7278 91.6963 24.6456 91.9278 24.4931L92.2374 25.0503C91.8798 25.2958 91.4585 25.4291 91.0265 25.4333C90.7923 25.44 90.5593 25.3966 90.3429 25.3059C90.1264 25.2153 89.9313 25.0794 89.7702 24.9072C89.6092 24.735 89.4858 24.5303 89.4083 24.3065C89.3307 24.0828 89.3007 23.845 89.3201 23.6087ZM91.5906 23.2535C91.5906 22.7799 91.3774 22.4874 90.9026 22.4874C90.7042 22.4928 90.5155 22.5754 90.3758 22.7181C90.236 22.8609 90.1561 23.0526 90.1527 23.2535H91.5906Z" fill="#1B407A"/>
<path d="M94.1089 23.0654C94.0773 22.764 94.1081 22.4592 94.1995 22.1704C94.2909 21.8817 94.4408 21.6155 94.6395 21.3887C94.8383 21.1619 95.0817 20.9796 95.354 20.8535C95.6263 20.7273 95.9217 20.6599 96.2211 20.6558C96.4718 20.6571 96.7195 20.7103 96.949 20.8121C97.1786 20.9139 97.3851 21.0622 97.5559 21.2478L97.0812 21.8328C96.975 21.7132 96.8458 21.6169 96.7014 21.5498C96.557 21.4827 96.4006 21.4463 96.2418 21.4428C95.5538 21.4428 95.0377 22.0417 95.0377 23.0306C95.0377 24.0195 95.5056 24.6393 96.2211 24.6393C96.4009 24.6356 96.5779 24.5933 96.7404 24.5153C96.9029 24.4372 97.0471 24.3252 97.1637 24.1867L97.6454 24.7577C97.4706 24.9768 97.2494 25.1531 96.998 25.2737C96.7467 25.3943 96.4717 25.4559 96.1936 25.4542C95.0446 25.4333 94.1089 24.6045 94.1089 23.0654Z" fill="#1B407A"/>
<path d="M97.9687 23.6087C97.9509 23.381 97.9787 23.152 98.0503 22.9354C98.122 22.7188 98.236 22.519 98.3857 22.348C98.5353 22.1771 98.7175 22.0384 98.9213 21.9403C99.1251 21.8422 99.3463 21.7867 99.5718 21.7771C100.521 21.7771 101.01 22.4735 101.01 23.4415C101.015 23.5821 101.001 23.7226 100.969 23.8594H98.8494C98.8547 23.9798 98.8835 24.0981 98.9342 24.2072C98.9849 24.3163 99.0564 24.4142 99.1447 24.4951C99.233 24.5761 99.3363 24.6385 99.4486 24.6788C99.5609 24.7191 99.6799 24.7365 99.7989 24.7299C100.075 24.7278 100.345 24.6456 100.576 24.4931L100.886 25.0503C100.528 25.2958 100.107 25.4291 99.675 25.4333C99.4408 25.44 99.2079 25.3966 98.9914 25.3059C98.775 25.2153 98.5798 25.0794 98.4188 24.9072C98.2577 24.735 98.1344 24.5303 98.0568 24.3065C97.9793 24.0828 97.9492 23.845 97.9687 23.6087ZM100.239 23.2535C100.239 22.7799 100.026 22.4874 99.5856 22.4874C99.3872 22.4928 99.1984 22.5754 99.0587 22.7181C98.919 22.8609 98.8391 23.0526 98.8356 23.2535H100.239Z" fill="#1B407A"/>
<path d="M101.636 21.8607H102.372L102.434 22.3203C102.575 22.1581 102.747 22.0264 102.94 21.9331C103.133 21.8398 103.342 21.7867 103.556 21.7771C104.299 21.7771 104.615 22.2994 104.615 23.1699V25.3428H103.714V23.2535C103.714 22.7173 103.562 22.5223 103.225 22.5223C103.09 22.5362 102.958 22.5786 102.84 22.647C102.721 22.7154 102.618 22.8081 102.537 22.9192V25.3149H101.636V21.8607Z" fill="#1B407A"/>
<path d="M105.585 24.1241V22.5781H105.104V21.8817L105.633 21.8399L105.737 20.9067H106.493V21.8399H107.34V22.5363H106.493V24.1241C106.493 24.5211 106.652 24.7091 106.961 24.7091C107.077 24.7026 107.191 24.6767 107.298 24.6325L107.45 25.3289C107.215 25.4112 106.969 25.4535 106.721 25.4543C105.902 25.4334 105.585 24.9111 105.585 24.1241Z" fill="#1B407A"/>
<path d="M107.587 23.6087C107.571 23.3806 107.599 23.1514 107.672 22.9348C107.744 22.7182 107.859 22.5185 108.009 22.3477C108.159 22.1768 108.342 22.0382 108.546 21.9402C108.75 21.8422 108.972 21.7867 109.197 21.7771C110.14 21.7771 110.635 22.4735 110.635 23.4415C110.637 23.5819 110.623 23.722 110.594 23.8594H108.468C108.474 23.9802 108.504 24.0985 108.555 24.2077C108.607 24.3168 108.679 24.4147 108.768 24.4955C108.857 24.5764 108.96 24.6387 109.073 24.6789C109.186 24.7192 109.305 24.7365 109.424 24.7299C109.699 24.7305 109.967 24.6481 110.195 24.4931L110.505 25.0503C110.15 25.2956 109.731 25.4289 109.301 25.4333C109.066 25.441 108.832 25.3983 108.615 25.3081C108.398 25.2179 108.202 25.0822 108.04 24.9099C107.878 24.7375 107.754 24.5325 107.676 24.3082C107.598 24.084 107.568 23.8456 107.587 23.6087ZM109.858 23.2535C109.858 22.7799 109.651 22.4874 109.17 22.4874C108.972 22.4945 108.784 22.5776 108.645 22.72C108.505 22.8623 108.425 23.0532 108.42 23.2535H109.858Z" fill="#1B407A"/>
<path d="M111.151 21.9026H111.888L111.95 22.5224C112.038 22.3299 112.175 22.1642 112.346 22.042C112.518 21.9197 112.718 21.8453 112.927 21.826C113.066 21.8188 113.205 21.8451 113.332 21.9026L113.174 22.6895C113.059 22.6519 112.938 22.6331 112.816 22.6338C112.629 22.6518 112.452 22.7287 112.31 22.8536C112.169 22.9785 112.069 23.1451 112.025 23.3302V25.4195H111.124L111.151 21.9026Z" fill="#1B407A"/>
</g>
<defs>
<clipPath id="clip0_1_928">
<rect width="149" height="49" fill="white"/>
</clipPath>
</defs>
</svg>
