<svg width="152" height="48" viewBox="0 0 152 48" fill="none" xmlns="http://www.w3.org/2000/svg">
<g clip-path="url(#clip0_100_38)">
<path d="M48 -4.57764e-05H0V48H48V-4.57764e-05Z" fill="#4570B6"/>
<path d="M14.4275 22.6479H16.208V15.4924H17.9969V22.6479H19.7858V15.4924H21.5746V22.6479H23.3635V13.7119H14.4275V22.6479Z" fill="#D9E9EC"/>
<path d="M4.20177 22.6479H13.1378V20.859H5.99064V15.4924H13.1378V13.7119H4.20177V22.6479Z" fill="#D9E9EC"/>
<path fill-rule="evenodd" clip-rule="evenodd" d="M20.6012 31.1513L21.3583 30.8517C21.6828 31.6339 21.8908 32.1497 21.9574 32.391L21.1753 32.624C21.0108 32.123 20.8192 31.6314 20.6012 31.1513ZM19.4446 31.2844L20.2767 31.1014C20.4721 31.7542 20.6277 32.4182 20.7426 33.0899L19.9106 33.2147C19.8024 32.6157 19.6443 31.975 19.453 31.2844H19.4446ZM18.363 31.2844H19.195C19.2748 32.0862 19.3137 32.8915 19.3115 33.6973H18.4795C18.5064 32.9128 18.4619 32.1274 18.3464 31.351L18.363 31.2844ZM17.1815 32.183C16.4736 32.6524 15.7341 33.0721 14.9683 33.4394L14.5356 32.5657L15.4592 32.1664V29.7867H14.8518V28.8382H15.5008V26.8247H14.8518V25.9012H17.0567V26.8247H16.3911V28.8382H16.9818V29.7535H16.3911V31.6255L16.7572 31.3593L17.273 32.0166C17.3396 31.767 17.3978 31.4896 17.4477 31.1846L18.3547 31.4342C18.1453 32.3794 17.7492 33.2733 17.1898 34.0634C17.0003 33.8322 16.7652 33.6424 16.4992 33.5059C16.7517 33.1699 16.9613 32.8038 17.1233 32.416C17.1477 32.3134 17.1811 32.2132 17.2231 32.1164L17.1815 32.183ZM19.636 28.5221H18.2631V28.0062H19.6027L19.636 28.5221ZM19.636 27.2241H18.2631V26.7997C18.2619 26.7863 18.2636 26.7728 18.2681 26.7601C18.2727 26.7474 18.28 26.7358 18.2895 26.7263C18.2991 26.7167 18.3106 26.7094 18.3233 26.7049C18.336 26.7003 18.3496 26.6986 18.363 26.6999H19.6027L19.636 27.2241ZM18.2964 29.82V29.3291H19.636V29.82H18.2964ZM17.4062 30.1695V30.5023C17.4062 30.6188 17.4561 30.6687 17.5642 30.6687H21.9491C22.0239 30.6687 22.0655 30.6687 22.0655 30.7436C22.1126 31.3945 22.1126 32.048 22.0655 32.6989C22.0408 32.9073 21.9505 33.1025 21.8076 33.2563C21.7636 33.2948 21.7119 33.3236 21.656 33.3409C21.6001 33.3581 21.5412 33.3633 21.4831 33.3562C21.1475 33.3314 20.8139 33.2841 20.4847 33.2147L20.5762 34.1882C21.2096 34.3198 21.8689 34.2348 22.4483 33.9469C22.6931 33.7347 22.8478 33.4372 22.8809 33.1149C23.0011 32.0711 23.0428 31.0198 23.0057 29.9698C23.0057 29.8367 22.9558 29.7618 22.831 29.7535H20.5595V29.2626H22.5564V28.4305H20.5595V28.0062H22.5232V27.1742H20.5595V26.65H22.7395V25.768H17.6391C17.6119 25.7638 17.5841 25.766 17.5579 25.7745C17.5317 25.783 17.508 25.7976 17.4885 25.8171C17.469 25.8366 17.4544 25.8604 17.4459 25.8865C17.4374 25.9127 17.4352 25.9405 17.4394 25.9677L17.4062 30.1695ZM8.39522 31.2012V34.1549H9.32709V31.2012H11.0494C11.0993 31.2012 11.1326 31.2012 11.1326 31.2761V32.7821C11.1326 32.8986 11.0494 32.9901 10.8913 33.0566C10.4578 33.123 10.0144 33.0683 9.61001 32.8986V33.9552C10.2625 34.1417 10.9563 34.1243 11.5986 33.9053C11.7257 33.8529 11.8346 33.7642 11.9115 33.6502C11.9885 33.5363 12.0301 33.4022 12.0312 33.2647V30.5023C12.0372 30.4704 12.0353 30.4375 12.0257 30.4065C12.0161 30.3755 11.9991 30.3474 11.9761 30.3244C11.9532 30.3015 11.925 30.2845 11.894 30.2749C11.863 30.2653 11.8301 30.2634 11.7982 30.2693H9.30213V29.5621H8.36196V30.2693H7.09725C7.42293 29.9652 7.73129 29.6429 8.02082 29.3042C8.01693 29.2878 8.01693 29.2707 8.02082 29.2542H12.5221V28.339H8.69477C8.77797 28.1892 8.87782 28.0395 8.98598 27.8814L8.3453 27.4487C8.48675 27.3905 8.65316 27.3406 8.84453 27.2823C9.67656 27.5319 10.6084 27.8398 11.5986 28.2225L11.8482 27.3322C11.2907 27.1159 10.7499 26.9246 10.2257 26.7332L11.1825 26.2922L10.7665 25.4602C10.1607 25.7889 9.53555 26.0807 8.89445 26.3338C7.79274 25.9877 6.66623 25.7263 5.52472 25.5517L5.31671 26.4669C5.93314 26.5552 6.54421 26.6774 7.14717 26.833C6.28491 27.0151 5.40738 27.1154 4.52627 27.1326L4.73428 28.0478C5.7145 28.0358 6.6896 27.9045 7.63807 27.6567L8.17891 27.5236C7.9709 27.8398 7.78783 28.1144 7.61311 28.3556H4.45972V29.2709H6.85598C6.2874 29.8164 5.65945 30.2964 4.9839 30.702L4.15187 31.118L4.6594 31.95C5.01728 31.7643 5.36451 31.5588 5.69944 31.3343V33.8304H6.63131V31.2262C6.6312 31.2077 6.63794 31.1898 6.65023 31.1759C6.66252 31.1621 6.67951 31.1533 6.69789 31.1513L8.39522 31.2012Z" fill="#D9E9EC"/>
<path fill-rule="evenodd" clip-rule="evenodd" d="M42.0593 32.0915L38.7312 32.6157L38.5315 31.6755L42.0842 31.118V25.6765H43.0161V30.9849L43.6901 30.8684L43.8232 31.8169L42.9912 31.9584V34.1466H42.0593V32.0915ZM39.1472 29.0629L39.7961 28.3973C40.3724 28.8839 40.9093 29.4153 41.402 29.9864L40.7031 30.6021C40.2202 30.0541 39.7003 29.5399 39.1472 29.0629ZM39.4634 26.7332C40.0636 27.3003 40.6199 27.9122 41.1274 28.5637L41.8513 27.9646C41.3146 27.302 40.7336 26.6765 40.1123 26.0925L39.4634 26.7332ZM37.7993 30.3026C38.1071 30.6937 38.3817 31.0598 38.6313 31.4009L39.3219 30.7686C38.8393 30.1695 38.3318 29.5954 37.7993 29.0546V28.9547H38.9808V28.0062H37.8159V26.7165C38.2095 26.6421 38.5984 26.5449 38.9808 26.4253L38.7977 25.4685C37.7652 25.7569 36.7057 25.9381 35.636 26.0093L35.7608 26.9662C36.1435 26.9662 36.5179 26.9329 36.884 26.8663V28.0062H35.5029V28.963H36.8424C36.4547 29.9721 35.8913 30.9045 35.1784 31.7171L36.0104 32.0998C36.3178 31.6784 36.5958 31.2364 36.8424 30.7769V34.105H37.7743L37.7993 30.3026ZM29.2543 27.4737V26.9495C29.2487 26.9195 29.2503 26.8886 29.259 26.8594C29.2677 26.8301 29.2833 26.8034 29.3045 26.7814C29.3257 26.7594 29.3518 26.7428 29.3807 26.733C29.4096 26.7231 29.4404 26.7204 29.4706 26.7249H31.8586C31.9917 26.7249 32.0583 26.7914 32.0666 26.9329V27.4737H29.2543ZM32.0666 28.3557V28.8382C32.0704 28.8701 32.0671 28.9025 32.0568 28.9329C32.0466 28.9633 32.0297 28.9911 32.0074 29.0142C31.9851 29.0373 31.9579 29.0552 31.9279 29.0665C31.8978 29.0778 31.8656 29.0822 31.8336 29.0795H29.2543V28.364L32.0666 28.3557ZM26.8331 26.6333C26.9329 26.6333 26.9745 26.6749 26.9745 26.7748V28.0478H26.001V26.7748C26.001 26.6749 26.0426 26.6333 26.1342 26.6333H26.8331ZM26.9745 32.5491C26.9786 32.5722 26.9772 32.596 26.9705 32.6185C26.9637 32.641 26.9517 32.6615 26.9355 32.6786C26.9193 32.6956 26.8993 32.7085 26.8772 32.7164C26.8551 32.7243 26.8314 32.7268 26.8081 32.7238H25.9761V31.1929H26.9496L26.9745 32.5491ZM26.9745 30.3525H26.001V28.8965H26.9745V30.3525ZM26.001 33.5725H27.5486H27.6734L27.7483 34.3213C28.8158 34.1727 29.8609 33.8932 30.8601 33.4893L30.4857 32.6573C30.1231 32.8239 29.7508 32.9684 29.3708 33.0899C29.3324 33.0816 29.2927 33.0816 29.2543 33.0899V29.9282H29.8367C30.113 31.2945 30.815 32.5383 31.8419 33.481C32.159 33.7473 32.4894 33.9972 32.832 34.2298L33.5393 33.5143C32.82 33.1474 32.1808 32.6411 31.6589 32.0249C32.2175 31.6519 32.7385 31.2256 33.2148 30.7519L32.6739 30.0613C32.2157 30.5076 31.7202 30.914 31.1929 31.2761C30.9882 30.8428 30.8239 30.3916 30.702 29.9282H32.6739C32.7128 29.9323 32.7522 29.9276 32.789 29.9143C32.8257 29.901 32.859 29.8795 32.8863 29.8514C32.9135 29.8234 32.9341 29.7895 32.9463 29.7523C32.9585 29.7152 32.9621 29.6757 32.9569 29.637V26.0925C32.9606 26.0563 32.9563 26.0196 32.9444 25.9852C32.9325 25.9507 32.9131 25.9193 32.8877 25.8931C32.8624 25.867 32.8316 25.8467 32.7975 25.8337C32.7634 25.8207 32.727 25.8153 32.6906 25.8179H28.6219C28.4555 25.8179 28.3723 25.9095 28.364 26.0925V33.2647C28.1795 33.2857 27.9962 33.3162 27.8149 33.3562C27.8149 33.3562 27.8149 33.2813 27.8149 33.248V26.0426C27.8149 25.8596 27.7233 25.768 27.532 25.768H25.4186C25.2522 25.768 25.169 25.8512 25.1607 26.0343V34.08H25.9927L26.001 33.5725Z" fill="#D9E9EC"/>
<path d="M24.6448 22.6479H33.5809V20.859H26.4337V19.0702H33.5809V17.2813H26.4337V15.4924H33.5809V13.7119H24.6448V22.6479Z" fill="#D9E9EC"/>
<path d="M43.7982 13.7119H34.8622V15.4924H42.0093V17.2813H34.8622V22.6479H36.6511V19.0702H38.4399L41.4602 22.6479H43.7982L40.7779 19.0702H43.7982V13.7119Z" fill="#D9E9EC"/>
<path d="M57.3853 31.534L57.0858 31.9584C57.0109 32.0582 56.9028 32.1913 56.7697 32.3411L56.7031 32.4243L56.3453 31.3011C57.0036 30.5565 57.5424 29.7145 57.9428 28.805C57.9765 28.7249 58.0155 28.647 58.0593 28.572L58.7666 29.1294C58.7427 29.1775 58.7232 29.2276 58.7083 29.2792C58.5865 29.6025 58.4361 29.9144 58.259 30.2111V35.2033H57.4269L57.3853 31.534ZM56.4535 28.2725C57.1294 27.6278 57.6919 26.874 58.1175 26.0426L58.9496 26.392L58.8247 26.6333C58.398 27.5382 57.815 28.3607 57.1025 29.0629L56.4535 28.2725ZM60.1726 31.2095V32.1664C60.1853 32.7272 60.1209 33.2871 59.9813 33.8304C59.8281 34.2945 59.6096 34.7343 59.3323 35.1367L58.5502 34.4295C58.8791 34.0737 59.1011 33.6326 59.1908 33.1565C59.2764 32.5642 59.3154 31.966 59.3073 31.3676V31.1762L60.1726 31.2095ZM63.2928 26.3504C63.2928 26.2589 63.3427 26.1341 63.376 25.9927L64.208 26.0759L64.0583 26.858C63.9751 27.2795 63.9168 27.5569 63.8835 27.69H65.6058V28.5803H65.1898C65.1529 30.05 64.8948 31.5057 64.4244 32.8986L64.5825 33.1149C64.8586 33.4732 65.1588 33.8124 65.481 34.13L65.6058 34.2464L65.0983 35.1367C64.7013 34.7003 64.3291 34.2419 63.9834 33.7639C63.6192 34.2433 63.2034 34.6814 62.7436 35.0702L62.6188 35.1783L62.0198 34.3463C62.6098 33.9537 63.1183 33.4508 63.5174 32.8653C63.2293 32.1876 63.001 31.486 62.8352 30.7686C62.8352 30.6743 62.8102 30.5578 62.7603 30.4191L62.5856 30.7436L62.3692 31.0847L62.0697 30.5605H58.6667V29.7285H62.1529C62.7019 28.6646 63.0836 27.5224 63.2845 26.3421L63.2928 26.3504ZM58.9329 29.1378V26.5335H59.765V28.314H60.3225V25.9677H61.0962V28.314H61.6787V26.5335H62.5107V29.1378H58.9329ZM61.8617 31.2012V32.7405L62.2361 32.4243C62.3198 32.3559 62.3977 32.2808 62.4691 32.1996L62.5939 32.0499L62.8186 32.8819L62.5273 33.1731C62.0471 33.6358 61.5232 34.051 60.9631 34.4128L60.4805 33.5808H60.5721L60.7801 33.4643L61.0213 33.3062V31.2262L61.8617 31.2012ZM63.6423 28.5387L63.5174 28.8798L63.3927 29.2293C63.4167 30.1458 63.6055 31.0505 63.9501 31.9001C64.2039 30.9512 64.3545 29.9776 64.3994 28.9963C64.3994 28.8798 64.3994 28.7217 64.3994 28.5387H63.6423Z" fill="#4570B6"/>
<path d="M69.6828 27.7233C69.7606 27.8955 69.8245 28.0735 69.8742 28.2558L70.0239 28.7717L69.1087 28.9048L68.9755 28.314C68.9306 28.1115 68.8666 27.9137 68.7842 27.7233H68.3432L67.8523 28.364C67.6942 28.5637 67.5362 28.7384 67.3947 28.8965L67.2782 29.013L66.5627 28.3224C67.2881 27.6765 67.8571 26.8742 68.2267 25.976L69.1253 26.1008L68.9672 26.5085L68.7759 26.8996H71.1471V27.7316L69.6828 27.7233ZM71.4883 30.1612V30.5689V31.0764H75.6485V31.975H72.3203C72.6125 32.5479 73.0483 33.0352 73.585 33.3895C74.2753 33.8029 75.0285 34.1008 75.8149 34.2714L75.3156 35.1783C74.4357 34.9603 73.6054 34.5762 72.8695 34.0468C72.195 33.494 71.6689 32.782 71.3385 31.975C70.9003 33.4061 69.5608 34.4794 67.3198 35.195L66.5876 34.3629C68.4514 33.9802 69.6772 33.1981 70.2652 32.0166H66.8123V31.118H70.4732L70.5231 30.6271V30.2527C70.3234 30.2527 69.8825 30.2527 69.2002 30.2527H67.7358L67.4363 29.2792H71.3635C72.4221 29.3129 73.4804 29.2009 74.5086 28.9464L74.9995 29.7784C74.0093 29.9365 73.0192 30.053 72.0291 30.1196L71.48 30.1695L71.4883 30.1612ZM73.9095 27.7316C73.962 27.8534 74.0065 27.9785 74.0427 28.106L74.1674 28.5054L73.2189 28.6469L73.1274 28.1643C73.0924 28.0153 73.0422 27.8703 72.9776 27.7316H72.3869C72.1214 28.1435 71.7992 28.516 71.4301 28.8382L70.7062 28.2225C71.4089 27.6225 71.9544 26.8599 72.2954 26.001L73.194 26.1175L73.0359 26.5585L72.8445 26.9245H75.7899V27.7566L73.9095 27.7316Z" fill="#4570B6"/>
<path d="M78.0863 30.8268H76.8299V29.9448H78.1778C78.2129 29.669 78.2268 29.3908 78.2194 29.1128V28.156H77.9615L77.7369 28.805C77.6499 29.0485 77.5442 29.285 77.4207 29.5122L76.7384 28.9131C77.1565 27.9743 77.4582 26.988 77.637 25.976L78.4108 26.1924L78.311 26.7332L78.1861 27.274H79.7504V28.156H79.1097V29.1045C79.1235 29.3828 79.1068 29.6618 79.0598 29.9365H79.8918V30.8185H78.9682L78.9183 31.3343L78.8684 31.6255C79.0931 31.8086 79.3426 32.0249 79.6255 32.2828L80.0998 32.7405L79.559 33.5226L79.1679 33.0483L78.6604 32.4742C78.3789 33.401 77.952 34.2772 77.3957 35.0702L76.7717 34.2381C77.1117 33.8185 77.3917 33.3537 77.6037 32.857C77.8621 32.2125 78.0274 31.5345 78.0946 30.8434L78.0863 30.8268ZM79.9916 27.69H81.9635L82.1216 27.3655L82.2465 27.1742C81.9705 27.2101 81.6927 27.2296 81.4144 27.2324H80.441L80.2246 26.4586C81.0067 26.4087 81.8388 26.3837 82.7207 26.3837C83.5405 26.3785 84.3565 26.2723 85.1502 26.0676L85.508 26.7831C85.0771 26.8802 84.6409 26.9524 84.2017 26.9994L83.1367 27.1159L83.0286 27.3406L82.8788 27.6734H85.9074V28.4056H84.3016C84.7895 28.9042 85.3723 29.3003 86.0156 29.5704L85.5413 30.2693L85.1669 30.0447L84.7342 29.7535V30.8767H81.1232V29.7451L80.7322 30.0364C80.6071 30.1361 80.4701 30.2199 80.3245 30.286L79.7504 29.6703C80.4031 29.3736 80.9954 28.9589 81.4976 28.4472H80L79.9916 27.69ZM83.9604 34.4461H81.4144V32.4825H84.2184V34.3213H84.468C84.6593 34.3213 84.7592 34.2132 84.7592 33.9968V32.0249H80.9318V35.195H80.0998V31.2594H85.6245V34.0967C85.6435 34.3635 85.5827 34.63 85.4498 34.8622C85.3333 35.0369 85.092 35.1201 84.7176 35.1201H84.1352L83.9604 34.4461ZM83.9105 29.6703H81.8804V30.2693H83.9105V29.6703ZM83.5777 28.7384L83.3447 28.4472H82.4545L82.2548 28.7134L81.9802 29.0379H83.8439L83.5777 28.7384ZM83.4862 33.1315H82.1799V33.8304H83.4862V33.1315Z" fill="#4570B6"/>
<path d="M88.6116 27.5902L88.5533 27.3655C88.4452 26.9351 88.2801 26.5209 88.0624 26.1341L88.9777 25.976C89.2341 26.4913 89.4348 27.0324 89.5767 27.5902H90.6583V28.3473C90.4087 28.9275 90.108 29.4844 89.7598 30.0114L89.6599 30.1778C89.9594 30.4274 90.1841 30.6271 90.3256 30.7686L90.9579 31.3759L90.4087 32.208C90.2423 32.0083 90.0676 31.8086 89.8762 31.6172L89.3854 31.1346V35.2199H88.4951V31.4675C88.1934 31.804 87.8651 32.1156 87.5133 32.3993L87.4051 32.4909L87.0057 31.5091C88.1129 30.7128 89.0236 29.674 89.6682 28.4721H87.1721V27.6401L88.6116 27.5902ZM90.9912 32.0748V26.3421H95.559V32.1164H94.4275V33.8304C94.4275 34.0384 94.494 34.1383 94.6272 34.1383H94.9766C95.168 34.1383 95.2761 34.0884 95.326 33.9802C95.3794 33.7879 95.4047 33.589 95.4009 33.3895C95.4009 33.0982 95.4009 32.8403 95.4009 32.6157L96.233 32.9069C96.2533 33.4886 96.1571 34.0685 95.9501 34.6125C95.8668 34.7214 95.7579 34.808 95.633 34.8646C95.5082 34.9212 95.3713 34.9461 95.2345 34.937H94.5523C94.4129 34.9531 94.2718 34.9391 94.1383 34.8961C94.0048 34.853 93.8821 34.7819 93.7785 34.6874C93.6221 34.4394 93.5492 34.1478 93.5705 33.8554V32.0748H92.7384C92.6993 32.72 92.4972 33.3447 92.1509 33.8904C91.8045 34.4361 91.3253 34.8849 90.7582 35.195L90.1425 34.4545C90.6082 34.2349 91.0114 33.902 91.3152 33.4863C91.619 33.0705 91.8137 32.5853 91.8815 32.0748H90.9912ZM94.6688 27.1492H91.8815V27.9812H94.6688V27.1492ZM91.8815 29.5288H94.6688V28.6968H91.8815V29.5288ZM91.8815 31.1929H94.6688V30.2943H91.8815V31.1929Z" fill="#4570B6"/>
<path d="M105.976 27.6235V32.0582H102.315V35.195H101.283V32.0582H97.689V27.6235H101.283V25.9594H102.315V27.6235H105.976ZM101.283 28.5221H98.6708V31.1596H101.283V28.5221ZM104.994 28.5221H102.315V31.1596H104.994V28.5221Z" fill="#4570B6"/>
<path d="M109.487 29.0296C109.346 30.7488 108.976 32.4415 108.389 34.0634L107.432 33.481C107.732 32.5741 107.965 31.8169 108.123 31.1846C108.303 30.4015 108.426 29.6061 108.489 28.805L109.487 29.0296ZM111.21 28.4555H110.228V34.1632C110.222 34.3022 110.25 34.4405 110.311 34.5655C110.372 34.6905 110.464 34.7982 110.577 34.8788C110.808 35.0008 111.066 35.0611 111.326 35.0535H113.231C113.578 35.0589 113.917 34.9508 114.197 34.7457C114.312 34.6285 114.404 34.4894 114.465 34.3366C114.527 34.1837 114.557 34.0201 114.554 33.8554C114.554 33.4061 114.621 32.8819 114.621 32.2912V32.0915L113.622 31.792C113.622 32.1164 113.622 32.3744 113.622 32.5491V32.7488C113.636 33.1272 113.613 33.5061 113.556 33.8804C113.556 34.0468 113.373 34.1383 113.132 34.1383H111.542C111.494 34.1456 111.445 34.1414 111.398 34.1259C111.352 34.1103 111.31 34.084 111.276 34.049C111.242 34.0141 111.216 33.9715 111.202 33.9248C111.188 33.8781 111.184 33.8286 111.193 33.7805L111.21 28.4555ZM111.426 26.0176C112.126 26.6574 112.782 27.344 113.389 28.0728L113.714 28.4721L112.882 29.2376C112.337 28.4202 111.722 27.6518 111.043 26.9412L110.694 26.5917L111.426 26.0176ZM115.586 33.6723C115.298 32.1047 114.831 30.575 114.197 29.1128L115.17 28.8133C115.711 30.1015 116.156 31.4281 116.501 32.7821L116.626 33.2231L115.586 33.6723Z" fill="#4570B6"/>
<path d="M60.4056 14.6937L59.5736 15.2178C59.4761 15 59.3277 14.8089 59.1409 14.6604C58.978 14.5544 58.786 14.502 58.5918 14.5106C58.4653 14.5053 58.339 14.5254 58.2204 14.5697C58.1018 14.614 57.9933 14.6816 57.9012 14.7685C57.8129 14.8482 57.7427 14.9459 57.6954 15.0549C57.648 15.164 57.6245 15.282 57.6266 15.4009C57.6266 15.7503 57.8679 16.0332 58.3422 16.2329L58.9995 16.5241C59.4584 16.6952 59.8653 16.9818 60.181 17.3562C60.4378 17.7206 60.5693 18.1586 60.5554 18.6042C60.5809 19.2174 60.3625 19.8157 59.948 20.2683C59.7544 20.4777 59.5186 20.6439 59.2562 20.7557C58.9937 20.8676 58.7106 20.9226 58.4254 20.9173C58.1635 20.9257 57.9027 20.8815 57.6583 20.7871C57.4138 20.6928 57.1909 20.5503 57.0026 20.3681C56.6119 19.9376 56.3724 19.3913 56.3204 18.8122L57.3271 18.5709C57.3374 18.8771 57.4201 19.1765 57.5684 19.4446C57.6641 19.5937 57.7978 19.7147 57.9557 19.7952C58.1136 19.8756 58.2901 19.9125 58.467 19.9022C58.6123 19.9059 58.7568 19.8781 58.8904 19.8206C59.0239 19.7631 59.1435 19.6774 59.2408 19.5694C59.4405 19.3383 59.5498 19.0428 59.5486 18.7373C59.5508 18.6074 59.5312 18.478 59.4904 18.3546C59.4569 18.239 59.4003 18.1315 59.324 18.0384C59.2414 17.9327 59.1432 17.8401 59.0328 17.7639C58.8988 17.6686 58.7568 17.5851 58.6085 17.5142L57.9678 17.2314C57.5814 17.1045 57.2438 16.8614 57.001 16.5352C56.7582 16.209 56.6222 15.8157 56.6116 15.4092C56.6061 15.1554 56.6543 14.9033 56.7533 14.6696C56.8523 14.4358 56.9996 14.2257 57.1857 14.053C57.3727 13.8714 57.5943 13.7293 57.8372 13.635C58.0802 13.5406 58.3396 13.4961 58.6001 13.5039C58.984 13.5058 59.359 13.6193 59.6796 13.8306C60.0001 14.0418 60.2524 14.3417 60.4056 14.6937Z" fill="#4570B6" stroke="#4570B6" stroke-width="0.024961" stroke-miterlimit="10"/>
<path d="M70.1987 13.5954H71.1971V20.7758H70.1987V13.5954Z" fill="#4570B6" stroke="#4570B6" stroke-width="0.024961" stroke-miterlimit="10"/>
<path d="M73.7764 13.5954V19.7524H75.7233V20.7758H72.7863V13.5954H73.7764Z" fill="#4570B6" stroke="#4570B6" stroke-width="0.024961" stroke-miterlimit="10"/>
<path d="M80.3078 14.6105H77.662V16.3577H80.233V17.3728H77.662V19.7691H80.3078V20.7925H76.6635V13.612H80.3078V14.6105Z" fill="#4570B6" stroke="#4570B6" stroke-width="0.024961" stroke-miterlimit="10"/>
<path d="M86.5564 17.7139L88.6033 20.7758H87.3801L85.4997 17.8387H85.3167V20.7758H84.3183V13.5954H85.4831C86.1594 13.5336 86.8348 13.7232 87.3801 14.1279C87.5924 14.3295 87.7593 14.5741 87.8697 14.8452C87.9802 15.1163 88.0317 15.4079 88.0208 15.7004C88.0342 16.1717 87.8908 16.634 87.6131 17.015C87.3613 17.3726 86.984 17.6221 86.5564 17.7139ZM85.3167 16.8819H85.6329C86.5731 16.8819 87.0474 16.4909 87.0474 15.7087C87.0474 14.9266 86.5897 14.6021 85.6745 14.6021H85.3167V16.8819Z" fill="#4570B6" stroke="#4570B6" stroke-width="0.024961" stroke-miterlimit="10"/>
<path d="M93.0629 18.754H90.0759C90.0822 19.08 90.1996 19.3941 90.4087 19.6443C90.5039 19.75 90.6209 19.8337 90.7516 19.8898C90.8823 19.9458 91.0237 19.9727 91.1659 19.9687C91.3778 19.9761 91.586 19.9116 91.7566 19.7857C91.9712 19.5866 92.1512 19.3533 92.2891 19.0951L93.1212 19.586C93.0093 19.7972 92.8783 19.9977 92.7301 20.1851C92.5993 20.3405 92.4482 20.4777 92.2808 20.5928C92.1202 20.6989 91.943 20.7776 91.7566 20.8257C91.5611 20.8772 91.3597 20.9024 91.1576 20.9006C90.8752 20.9119 90.5939 20.8595 90.3346 20.7471C90.0753 20.6347 89.8447 20.4654 89.6599 20.2516C89.2645 19.7609 89.0632 19.1421 89.0941 18.5127C89.0646 17.8862 89.2593 17.2697 89.6433 16.7737C89.8274 16.5689 90.0526 16.4051 90.3042 16.293C90.5557 16.1809 90.8281 16.123 91.1035 16.123C91.3789 16.123 91.6512 16.1809 91.9028 16.293C92.1544 16.4051 92.3796 16.5689 92.5637 16.7737C92.9393 17.2792 93.1249 17.9007 93.0879 18.5293L93.0629 18.754ZM92.0728 17.922C92.0457 17.6859 91.9302 17.4689 91.7496 17.3146C91.569 17.1602 91.3367 17.08 91.0993 17.0899C90.9884 17.0875 90.878 17.1073 90.7748 17.1482C90.6694 17.182 90.5727 17.2389 90.4919 17.3146C90.4068 17.3887 90.3338 17.4758 90.2756 17.5725C90.2142 17.6817 90.1693 17.7995 90.1425 17.922H92.0728Z" fill="#4570B6" stroke="#4570B6" stroke-width="0.024961" stroke-miterlimit="10"/>
<path d="M95.1097 17.1898V20.7425H94.1445V17.1898H93.8034V16.208H94.1445V14.4607C94.1072 14.0397 94.2033 13.6176 94.4191 13.2542C94.5482 13.0911 94.7145 12.9613 94.9042 12.8758C95.0939 12.7904 95.3014 12.7518 95.5091 12.7633C95.7336 12.7734 95.954 12.8271 96.1581 12.9214V13.9947L96.0582 13.9365C95.9027 13.8391 95.7254 13.7819 95.5424 13.7701C95.4718 13.7638 95.4011 13.7797 95.3399 13.8155C95.2788 13.8513 95.2303 13.9052 95.2012 13.9698C95.1246 14.2116 95.0936 14.4655 95.1097 14.7186V16.208H96.1581V17.1898H95.1097Z" fill="#4570B6" stroke="#4570B6" stroke-width="0.024961" stroke-miterlimit="10"/>
<path d="M96.7156 16.2412H97.6724V16.6489C97.8071 16.4857 97.9673 16.3452 98.1466 16.2329C98.2979 16.1534 98.4667 16.1133 98.6376 16.1164C98.9367 16.1193 99.2275 16.2152 99.4696 16.391L99.0286 17.3478C98.8802 17.2183 98.6928 17.1421 98.4961 17.1315C97.972 17.1315 97.6641 17.5642 97.6641 18.4212V20.7758H96.7072L96.7156 16.2412Z" fill="#4570B6" stroke="#4570B6" stroke-width="0.024961" stroke-miterlimit="10"/>
<path d="M102.997 16.2412H103.963V20.7758H102.997V20.3016C102.836 20.4833 102.639 20.6301 102.418 20.7331C102.198 20.8361 101.959 20.8931 101.716 20.9006C101.443 20.9055 101.173 20.8472 100.926 20.7303C100.679 20.6134 100.462 20.441 100.293 20.2267C99.9078 19.7339 99.7076 19.1214 99.7275 18.4961C99.7141 17.892 99.9144 17.3026 100.293 16.832C100.458 16.6185 100.67 16.4459 100.912 16.3276C101.155 16.2093 101.421 16.1484 101.691 16.1497C101.945 16.1526 102.194 16.2133 102.42 16.3272C102.647 16.4411 102.844 16.6052 102.997 16.807V16.2412ZM100.718 18.4961C100.7 18.874 100.811 19.2467 101.034 19.5527C101.131 19.6819 101.256 19.7867 101.401 19.8589C101.545 19.9312 101.704 19.9687 101.866 19.9687C102.026 19.9682 102.183 19.9321 102.327 19.8631C102.471 19.794 102.598 19.6936 102.698 19.5694C102.921 19.2667 103.036 18.8971 103.022 18.521C103.038 18.1421 102.923 17.7693 102.698 17.4643C102.598 17.3396 102.471 17.239 102.327 17.1698C102.183 17.1007 102.026 17.0649 101.866 17.065C101.705 17.0633 101.546 17.0994 101.401 17.1701C101.257 17.2409 101.131 17.3445 101.034 17.4726C100.814 17.7675 100.703 18.1288 100.718 18.4961Z" fill="#4570B6" stroke="#4570B6" stroke-width="0.024961" stroke-miterlimit="10"/>
<path d="M108.422 16.4409V17.8304C108.261 17.5988 108.061 17.3962 107.832 17.2314C107.651 17.1155 107.439 17.0574 107.224 17.065C107.054 17.0619 106.884 17.0968 106.729 17.1674C106.573 17.2379 106.436 17.3422 106.326 17.4726C106.082 17.763 105.954 18.1337 105.968 18.5127C105.954 18.8915 106.075 19.2628 106.309 19.5611C106.492 19.7713 106.743 19.9106 107.018 19.9547C107.293 19.9988 107.575 19.9449 107.815 19.8023C108.052 19.6378 108.258 19.4321 108.422 19.195V20.5761C108.066 20.7831 107.662 20.8949 107.249 20.9006C106.948 20.9074 106.649 20.8509 106.371 20.7348C106.093 20.6187 105.842 20.4456 105.635 20.2267C105.211 19.7773 104.978 19.1805 104.986 18.5626C104.97 17.9268 105.206 17.3105 105.643 16.8486C105.847 16.6239 106.097 16.4453 106.375 16.3248C106.653 16.2042 106.954 16.1446 107.257 16.1497C107.665 16.1401 108.067 16.2408 108.422 16.4409Z" fill="#4570B6" stroke="#4570B6" stroke-width="0.024961" stroke-miterlimit="10"/>
<path d="M110.344 17.1898V20.7425H109.379V17.1898H108.971V16.208H109.379V14.5439H110.344V16.208H111.093V17.1898H110.344Z" fill="#4570B6" stroke="#4570B6" stroke-width="0.024961" stroke-miterlimit="10"/>
<path d="M111.601 14.3609C111.601 14.1855 111.666 14.0165 111.784 13.8866C111.84 13.8242 111.908 13.7744 111.985 13.7402C112.062 13.7061 112.145 13.6884 112.229 13.6884C112.313 13.6884 112.396 13.7061 112.472 13.7402C112.549 13.7744 112.618 13.8242 112.674 13.8866C112.735 13.9511 112.782 14.0269 112.814 14.1097C112.845 14.1925 112.86 14.2806 112.857 14.3692C112.862 14.5478 112.796 14.7211 112.674 14.8517C112.619 14.9151 112.552 14.9658 112.476 15.0003C112.399 15.0348 112.317 15.0523 112.233 15.0514C112.148 15.0524 112.064 15.035 111.987 15.0006C111.909 14.9661 111.84 14.9153 111.784 14.8517C111.664 14.7163 111.599 14.5415 111.601 14.3609ZM112.707 16.2412V20.7758H111.75V16.2412H112.707Z" fill="#4570B6" stroke="#4570B6" stroke-width="0.024961" stroke-miterlimit="10"/>
<path d="M114.446 16.2412L115.528 18.7873L116.601 16.2412H117.683L115.52 21.0837L113.373 16.2412H114.446Z" fill="#4570B6" stroke="#4570B6" stroke-width="0.024961" stroke-miterlimit="10"/>
<path d="M121.976 18.754H118.989C118.995 19.08 119.113 19.3941 119.322 19.6443C119.495 19.8242 119.726 19.9371 119.974 19.963C120.222 19.9889 120.472 19.9261 120.678 19.7857C120.887 19.5836 121.064 19.3507 121.202 19.0951L122.034 19.586C121.922 19.7972 121.792 19.9977 121.643 20.1851C121.512 20.3405 121.361 20.4777 121.194 20.5928C121.033 20.6989 120.856 20.7776 120.67 20.8257C120.474 20.8772 120.273 20.9024 120.071 20.9006C119.788 20.9119 119.507 20.8595 119.248 20.7471C118.989 20.6347 118.758 20.4654 118.573 20.2516C118.178 19.7609 117.976 19.1421 118.007 18.5127C117.978 17.8862 118.172 17.2697 118.556 16.7737C118.741 16.5689 118.966 16.4051 119.217 16.293C119.469 16.1809 119.741 16.123 120.017 16.123C120.292 16.123 120.564 16.1809 120.816 16.293C121.068 16.4051 121.293 16.5689 121.477 16.7737C121.853 17.2792 122.038 17.9007 122.001 18.5293L121.976 18.754ZM120.986 17.922C120.959 17.6859 120.843 17.4689 120.663 17.3146C120.482 17.1602 120.25 17.08 120.013 17.0899C119.902 17.0875 119.791 17.1073 119.688 17.1482C119.584 17.1843 119.487 17.2409 119.405 17.3146C119.32 17.3887 119.247 17.4758 119.189 17.5725C119.127 17.6817 119.082 17.7995 119.056 17.922H120.986Z" fill="#4570B6" stroke="#4570B6" stroke-width="0.024961" stroke-miterlimit="10"/>
<path d="M130.796 13.9781V15.2678C130.321 14.7876 129.682 14.5052 129.007 14.4773C128.677 14.4772 128.351 14.5521 128.054 14.6962C127.757 14.8403 127.497 15.05 127.293 15.3094C126.817 15.8379 126.564 16.5292 126.586 17.2397C126.565 17.9426 126.818 18.626 127.293 19.145C127.504 19.3915 127.768 19.5885 128.064 19.7222C128.36 19.8559 128.682 19.923 129.007 19.9188C129.316 19.9287 129.624 19.866 129.905 19.7358C130.055 19.6678 130.197 19.5841 130.33 19.4862C130.471 19.378 130.629 19.2532 130.796 19.1034V20.4097C130.257 20.7486 129.635 20.9302 128.998 20.9339C128.541 20.9391 128.089 20.8459 127.671 20.6607C127.253 20.4755 126.88 20.2026 126.577 19.8606C125.916 19.1533 125.558 18.2158 125.579 17.248C125.568 16.3615 125.862 15.4981 126.411 14.8018C126.896 14.1308 127.62 13.6708 128.434 13.5161C129.247 13.3614 130.089 13.5237 130.787 13.9698L130.796 13.9781Z" fill="#4570B6" stroke="#4570B6" stroke-width="0.024961" stroke-miterlimit="10"/>
<path d="M135.663 18.754H132.676C132.67 19.0933 132.785 19.4235 133.001 19.6859C133.172 19.8652 133.402 19.9778 133.649 20.0037C133.895 20.0296 134.143 19.9671 134.348 19.8273C134.563 19.6283 134.743 19.3949 134.881 19.1367L135.713 19.6276C135.601 19.8409 135.468 20.0417 135.314 20.2267C135.187 20.3859 135.035 20.5236 134.864 20.6344C134.707 20.7409 134.532 20.8197 134.348 20.8673C134.153 20.9189 133.952 20.944 133.749 20.9422C133.467 20.9535 133.186 20.9011 132.926 20.7887C132.667 20.6764 132.436 20.507 132.252 20.2932C131.856 19.8025 131.655 19.1837 131.686 18.5543C131.656 17.9278 131.851 17.3113 132.235 16.8153C132.413 16.6017 132.638 16.4315 132.891 16.3176C133.145 16.2037 133.421 16.1491 133.699 16.158C133.974 16.1472 134.247 16.1993 134.498 16.3104C134.749 16.4214 134.971 16.5885 135.147 16.7987C135.529 17.3013 135.718 17.9242 135.68 18.5543L135.663 18.754ZM134.673 17.922C134.646 17.6859 134.53 17.4689 134.35 17.3146C134.169 17.1602 133.937 17.08 133.699 17.0899C133.588 17.0875 133.478 17.1073 133.375 17.1482C133.27 17.182 133.173 17.2389 133.092 17.3146C133.007 17.3887 132.934 17.4758 132.876 17.5725C132.815 17.6831 132.768 17.8003 132.734 17.922H134.673Z" fill="#4570B6" stroke="#4570B6" stroke-width="0.024961" stroke-miterlimit="10"/>
<path d="M136.711 16.2412H137.677V16.6656C137.816 16.4977 137.99 16.3618 138.187 16.267C138.383 16.1723 138.598 16.1209 138.816 16.1164C139.031 16.106 139.245 16.1456 139.441 16.2323C139.638 16.319 139.811 16.4502 139.948 16.6157C140.216 17.0237 140.34 17.5102 140.297 17.9968V20.7758H139.332V18.2797C139.361 17.9616 139.3 17.6419 139.158 17.3562C139.089 17.2619 138.997 17.1876 138.89 17.1408C138.783 17.094 138.666 17.0765 138.55 17.0899C138.416 17.0791 138.282 17.1061 138.163 17.1679C138.044 17.2297 137.944 17.3238 137.876 17.4394C137.715 17.8111 137.646 18.2167 137.677 18.6209V20.8091H136.711V16.2412Z" fill="#4570B6" stroke="#4570B6" stroke-width="0.024961" stroke-miterlimit="10"/>
<path d="M142.502 17.1898V20.7425H141.546V17.1898H141.13V16.208H141.546V14.5439H142.502V16.208H143.251V17.1898H142.502Z" fill="#4570B6" stroke="#4570B6" stroke-width="0.024961" stroke-miterlimit="10"/>
<path d="M147.777 18.754H144.79C144.801 19.0792 144.918 19.3921 145.123 19.6443C145.296 19.8242 145.527 19.9371 145.775 19.963C146.024 19.9889 146.273 19.9261 146.479 19.7857C146.688 19.5836 146.865 19.3507 147.004 19.0951L147.836 19.586C147.724 19.7993 147.59 20.0001 147.436 20.1851C147.306 20.3405 147.154 20.4777 146.987 20.5928C146.83 20.6993 146.655 20.7781 146.471 20.8257C146.273 20.8767 146.069 20.9019 145.864 20.9006C145.582 20.9101 145.301 20.8569 145.042 20.7446C144.783 20.6324 144.552 20.464 144.366 20.2516C143.974 19.7597 143.775 19.141 143.809 18.5127C143.777 17.8872 143.968 17.2708 144.349 16.7737C144.528 16.5611 144.753 16.3915 145.007 16.2777C145.26 16.1639 145.536 16.1088 145.814 16.1164C146.089 16.1049 146.364 16.1567 146.616 16.2678C146.869 16.3788 147.092 16.5462 147.27 16.7571C147.649 17.2614 147.837 17.8831 147.802 18.5127L147.777 18.754ZM146.787 17.9219C146.762 17.6866 146.648 17.4697 146.469 17.3152C146.29 17.1607 146.059 17.0801 145.822 17.0899C145.708 17.0875 145.595 17.1073 145.489 17.1482C145.387 17.184 145.294 17.2407 145.215 17.3146C145.127 17.3864 145.054 17.4739 144.998 17.5725C144.934 17.6814 144.887 17.7991 144.857 17.9219H146.787Z" fill="#4570B6" stroke="#4570B6" stroke-width="0.024961" stroke-miterlimit="10"/>
<path d="M148.809 16.2412H149.766V16.6489C149.899 16.4839 150.059 16.3431 150.24 16.2329C150.391 16.1534 150.56 16.1133 150.731 16.1164C151.03 16.1193 151.321 16.2152 151.563 16.391L151.122 17.3478C150.974 17.2183 150.786 17.1421 150.59 17.1315C150.066 17.1315 149.758 17.5642 149.758 18.4212V20.7758H148.809V16.2412Z" fill="#4570B6" stroke="#4570B6" stroke-width="0.024961" stroke-miterlimit="10"/>
<path d="M65.2064 18.6292L63.0931 13.4373H62.8684L61.5455 20.7675H62.5772L63.2844 16.4326L65.1898 21.1003L67.1451 16.4409L67.7774 20.7675H68.8008L67.611 13.4373H67.3947L65.2064 18.6292Z" fill="#4570B6" stroke="#4570B6" stroke-width="0.024961" stroke-miterlimit="10"/>
</g>
<defs>
<clipPath id="clip0_100_38">
<rect width="151.572" height="48" fill="white"/>
</clipPath>
</defs>
</svg>
