<svg width="131" height="49" viewBox="0 0 131 49" fill="none" xmlns="http://www.w3.org/2000/svg">
<g clip-path="url(#clip0_1_1066)">
<path d="M48.4024 -0.0106644L0.0148926 0.116638L0.141571 48.7425L48.529 48.6152L48.4024 -0.0106644Z" fill="#00A4CF"/>
<path d="M14.5986 23.0308L16.3966 23.0239L16.3828 15.7755H18.1808L18.2016 23.0169H20.0065L19.9857 15.7685L21.7838 15.7616L21.8045 23.01L23.6095 23.003L23.5818 13.9478L14.5709 13.9756L14.5986 23.0308Z" fill="white"/>
<path d="M4.29451 23.0516L13.3054 23.0308L13.2985 21.2239L6.08562 21.2378L6.0787 15.8033L13.2846 15.7894L13.2777 13.9755L4.26685 13.9964L4.29451 23.0516Z" fill="white"/>
<path fill-rule="evenodd" clip-rule="evenodd" d="M20.8502 31.6205L21.6109 31.3216C21.9428 32.1139 22.1434 32.6351 22.2194 32.8784L21.4311 33.1146C21.2634 32.6068 21.0695 32.1081 20.8502 31.6205ZM19.6815 31.7664L20.5113 31.5788C20.7125 32.2374 20.8719 32.9083 20.9885 33.5872L20.1448 33.7193C20.0229 33.0609 19.8683 32.4092 19.6815 31.7664ZM18.5819 31.7664H19.4463C19.5293 32.7741 19.5708 33.5872 19.5639 34.2057L18.7271 34.171C18.7507 33.3736 18.7021 32.5758 18.5819 31.7873V31.7664ZM17.4132 32.6351C16.7006 33.1176 15.9541 33.5473 15.1795 33.9208L14.7438 33.0382L15.6774 32.6282V30.2167H15.0273V29.2854H15.7189V27.2145H15.0619V26.2832H17.2818V27.2145H16.5902V29.2577H17.1919V30.1889H16.5972V32.0861L16.9706 31.8081L17.4892 32.5031C17.5515 32.2529 17.6137 31.9819 17.669 31.6969L18.575 31.9471C18.3675 32.9031 17.9725 33.8079 17.4132 34.6088C17.2223 34.3767 16.9872 34.1853 16.7216 34.0459C16.975 33.7044 17.1863 33.3334 17.3509 32.9409C17.3615 32.8371 17.3823 32.7347 17.4132 32.6351ZM19.8336 28.9936H18.4851V28.4654H19.8336V28.9936ZM19.8336 27.6801H18.4505V27.2492C18.4505 27.189 18.4851 27.1542 18.5542 27.145H19.8059L19.8336 27.6801ZM18.4851 30.314V29.8136H19.8682V30.314H18.4851ZM17.593 30.6615V31.0367C17.593 31.1479 17.6414 31.2105 17.7451 31.2105H22.171C22.2471 31.2105 22.2886 31.2105 22.2886 31.2869C22.33 31.9465 22.33 32.608 22.2886 33.2675C22.2588 33.4773 22.1673 33.6733 22.0258 33.8304C21.9333 33.9031 21.818 33.9401 21.7008 33.9347C21.3616 33.9069 21.0244 33.8582 20.6911 33.7888L20.7879 34.7756C21.4252 34.904 22.0869 34.816 22.669 34.5254C22.9099 34.3184 23.0653 34.0284 23.1046 33.7123C23.2225 32.6557 23.2618 31.5918 23.2222 30.5294C23.2222 30.3904 23.1738 30.3209 23.0493 30.314H20.7534V29.8136H22.7658V28.9519H20.7534V28.4654H22.7243V27.6523H20.7464V27.0755H22.9387V26.1859H17.8004C17.7726 26.1823 17.7444 26.1853 17.7179 26.1946C17.6915 26.2039 17.6675 26.2193 17.648 26.2396C17.6286 26.2598 17.6141 26.2843 17.6057 26.3112C17.5973 26.3381 17.5954 26.3666 17.5999 26.3944L17.593 30.6615ZM8.51295 31.7386V34.72H9.44654V31.7317H11.1892C11.1995 31.7306 11.2099 31.7318 11.2196 31.7353C11.2293 31.7387 11.2381 31.7443 11.2454 31.7516C11.2527 31.759 11.2583 31.7679 11.2617 31.7776C11.2652 31.7874 11.2664 31.7978 11.2653 31.8081V33.3301C11.2653 33.4482 11.1823 33.5386 11.0233 33.6081C10.5886 33.6717 10.1449 33.619 9.737 33.4552V34.5254C10.3959 34.7134 11.0965 34.6916 11.7425 34.4629C11.8699 34.4103 11.9787 34.3207 12.0551 34.2055C12.1315 34.0904 12.1719 33.9549 12.1712 33.8166V31.0367C12.1712 30.8838 12.0952 30.8074 11.9361 30.8074H9.44654V30.1124H8.51295V30.8074H7.23358C7.56459 30.5004 7.87639 30.1732 8.16718 29.8275C8.16718 29.8275 8.16718 29.8275 8.16718 29.7858H12.7037V28.8546H8.84489C8.93479 28.7017 9.03162 28.5488 9.14226 28.389L8.48528 27.9511L8.99703 27.7774C9.85455 28.0276 10.7812 28.3403 11.7632 28.7225L12.0122 27.8191L10.3801 27.2214L11.3414 26.7697L10.9195 25.908C10.3112 26.2407 9.68297 26.5354 9.03853 26.7905C7.92519 26.4466 6.7879 26.1864 5.63611 26.0122L5.42864 26.9365C6.0503 27.0256 6.66668 27.1485 7.27508 27.3048C6.40609 27.4903 5.52157 27.5927 4.63337 27.6106L4.84774 28.5418C5.83546 28.5268 6.81772 28.3915 7.77299 28.1388L8.31932 27.9998C8.11186 28.3194 7.92514 28.6044 7.74533 28.8546H4.56421V29.7858H6.98463C6.41382 30.3393 5.78285 30.8265 5.10362 31.2383L4.26685 31.6622L4.78551 32.4822C5.11745 32.3015 5.47705 32.1139 5.78133 31.9054V34.4559H6.71492V31.8151C6.71492 31.7734 6.71492 31.7456 6.79099 31.7386H8.51295Z" fill="white"/>
<path fill-rule="evenodd" clip-rule="evenodd" d="M42.4818 32.5239L39.1071 33.0591L38.8927 32.1139L42.4818 31.5441V26.0261H43.4154V31.4051L44.107 31.2869L44.2453 32.246L43.4292 32.3919V34.6088H42.4957L42.4818 32.5239ZM39.5427 29.4592L40.1928 28.7642C40.7747 29.2568 41.3159 29.796 41.811 30.3765L41.1195 30.9951C40.6264 30.4504 40.0998 29.9374 39.5427 29.4592ZM39.8539 27.1033C40.4687 27.6755 41.0397 28.2934 41.5621 28.9519L42.2536 28.3473C41.7123 27.6771 41.1279 27.0433 40.504 26.45L39.8539 27.1033ZM38.1942 30.724C38.5123 31.1201 38.789 31.4885 39.0379 31.829L39.7295 31.1896C39.2385 30.585 38.7267 30.0082 38.1873 29.4592V29.3549H39.3768V28.389H38.215V27.0755C38.6368 26.9921 39.0241 26.8879 39.3906 26.7767L39.2039 25.8107C38.163 26.1053 37.0947 26.2916 36.0159 26.3666L36.1472 27.3326C36.5345 27.3326 36.9079 27.2701 37.2814 27.2214V28.382H35.8983V29.3549H37.2814C36.9032 30.3748 36.3431 31.3168 35.6286 32.1348L36.493 32.5309C36.802 32.101 37.0815 31.6506 37.3298 31.1827V34.5671H38.215L38.1942 30.724ZM29.5775 27.8816V27.3465C29.5775 27.1936 29.6398 27.1241 29.7919 27.1172H32.1985C32.2264 27.1129 32.255 27.115 32.282 27.1234C32.309 27.1318 32.3338 27.1462 32.3544 27.1656C32.3751 27.185 32.391 27.2089 32.4012 27.2354C32.4113 27.2619 32.4153 27.2904 32.4129 27.3187V27.8747L29.5775 27.8816ZM32.4129 28.7642V29.2438C32.4171 29.2755 32.4142 29.3078 32.4044 29.3383C32.3946 29.3687 32.3782 29.3966 32.3564 29.4199C32.3345 29.4432 32.3077 29.4613 32.278 29.4729C32.2483 29.4845 32.2164 29.4893 32.1847 29.487H29.5775V28.792L32.4129 28.7642ZM27.1502 27.0338C27.247 27.0338 27.2954 27.0755 27.2954 27.1728V28.4654H26.3134V27.1658C26.3112 27.1471 26.3132 27.128 26.3194 27.1101C26.3256 27.0922 26.3357 27.076 26.349 27.0626C26.3623 27.0492 26.3785 27.0391 26.3963 27.0329C26.4141 27.0267 26.433 27.0246 26.4517 27.0268L27.1502 27.0338ZM27.3092 33.0243C27.3092 33.1425 27.2539 33.205 27.1364 33.205H26.3203V31.6552H27.3023L27.3092 33.0243ZM27.3092 30.8004H26.3203V29.3271H27.3092V30.8004ZM26.3342 34.0598H27.8417C27.883 34.0664 27.925 34.0664 27.9662 34.0598L28.0561 34.8104C29.1315 34.6529 30.1836 34.3635 31.1888 33.9486L30.8016 33.1425C30.438 33.3107 30.0637 33.4547 29.6813 33.5733C29.6398 33.5798 29.6 33.5939 29.5637 33.615V30.4113H30.1515C30.434 31.7933 31.1431 33.0506 32.1778 34.0042C32.4544 34.2335 32.7863 34.4837 33.1805 34.7617L33.872 34.0667C33.1478 33.6913 32.504 33.1765 31.9772 32.5517C32.5518 32.1681 33.089 31.7307 33.5816 31.2452L33.0284 30.5503C32.569 31.0027 32.0716 31.4142 31.5415 31.7803C31.3328 31.3337 31.1661 30.8683 31.0436 30.3904H33.0353C33.0742 30.3951 33.1137 30.3907 33.1507 30.3776C33.1877 30.3644 33.2212 30.3429 33.2486 30.3147C33.276 30.2865 33.2966 30.2523 33.3088 30.2149C33.321 30.1774 33.3244 30.1376 33.3188 30.0986V26.4987C33.3233 26.462 33.3194 26.4248 33.3074 26.3899C33.2954 26.3549 33.2757 26.3232 33.2497 26.2971C33.2237 26.271 33.1921 26.2511 33.1574 26.2391C33.1226 26.2271 33.0856 26.2231 33.0491 26.2276H28.9482C28.7823 26.2276 28.6923 26.3249 28.6854 26.5056V33.7749C28.4993 33.7967 28.3146 33.8292 28.1322 33.8722V33.754V26.457C28.1369 26.4187 28.1327 26.3799 28.12 26.3436C28.1073 26.3072 28.0864 26.2743 28.059 26.2474C28.0315 26.2205 27.9983 26.2003 27.9618 26.1885C27.9253 26.1766 27.8866 26.1734 27.8487 26.179H25.6841C25.5181 26.179 25.4282 26.2763 25.4213 26.457V34.6088H26.2858L26.3342 34.0598Z" fill="white"/>
<path d="M24.8957 23.003L33.9066 22.9821V21.1683L26.6938 21.1892L26.6869 19.3753L33.8997 19.3545L33.8928 17.5476L26.6869 17.5615L26.6799 15.7546L33.8928 15.7338L33.8859 13.9199L24.875 13.9477L24.8957 23.003Z" fill="white"/>
<path d="M44.1831 13.899L35.1722 13.9199L35.1791 15.7337L42.385 15.7129L42.3919 17.5198L35.186 17.5406L35.1998 22.9752L36.9979 22.9682L36.991 19.3475H38.789L41.8456 22.9613L44.2107 22.9543L41.1541 19.3405L44.1969 19.3336L44.1831 13.899Z" fill="white"/>
<path d="M59.1135 38.7299C59.0984 39.4493 59.1307 40.169 59.2103 40.8842H56.5825C56.6745 40.17 56.7138 39.4499 56.7 38.7299V34.3864C56.1105 34.9735 55.4796 35.5169 54.8121 36.0126C54.6125 35.0929 54.2793 34.2078 53.8232 33.3856C54.8755 32.7522 55.8209 31.9546 56.6239 31.0228C57.4472 30.1305 58.1241 29.1125 58.6294 28.0067H56.0984C55.5465 28.0039 54.9949 28.0295 54.4456 28.0832V25.6022C54.9436 25.6602 55.4449 25.6857 55.9462 25.6786H56.6378V24.0732C56.6324 23.5715 56.6001 23.0704 56.541 22.5721H59.1827C59.119 23.077 59.0867 23.5853 59.0859 24.0941V25.6856H59.6529C59.9973 25.6941 60.3418 25.6755 60.6833 25.63L61.7552 26.8183C61.5855 27.1224 61.4376 27.4382 61.3126 27.7635C60.8284 28.8586 60.2547 29.9116 59.5976 30.9116C60.2353 31.6554 60.9898 32.2893 61.8313 32.788C61.3718 33.5618 61.0446 34.4074 60.8631 35.2898C60.2121 34.7453 59.623 34.13 59.1066 33.4551L59.1135 38.7299ZM66.029 34.171C65.8699 36.0126 65.6556 36.8118 65.0332 37.8264C64.1253 39.2399 62.7966 40.3295 61.2366 40.9398C60.8303 40.1577 60.3132 39.439 59.7013 38.8063C61.0251 38.3994 62.1762 37.5606 62.9724 36.4226C63.379 35.7385 63.6161 34.9663 63.6639 34.171C62.9724 34.171 62.7649 34.171 61.8659 34.2266C61.8659 33.6011 61.9074 32.9548 61.9074 32.2529V25.1296C61.9228 24.4781 61.9044 23.8263 61.852 23.1768C62.4796 23.2338 63.1101 23.2523 63.74 23.2324H69.6389C70.7108 23.2324 70.9805 23.2324 71.5061 23.1768C71.4427 23.8257 71.4173 24.4777 71.43 25.1296V32.2529C71.43 33.1146 71.43 33.5038 71.5061 34.2266C71.0981 34.2266 70.0262 34.171 69.6735 34.171H69.1133V38.0836C69.1133 38.2781 69.2447 38.3546 69.5974 38.3546C70.1437 38.3546 70.3373 38.299 70.3996 38.1044C70.5433 37.2904 70.6012 36.4635 70.5725 35.6373C71.2135 36.0475 71.9131 36.3568 72.6471 36.5547C72.5503 38.5353 72.3774 39.5082 71.9556 40.0294C71.5337 40.5507 70.9044 40.6549 69.3692 40.6549C67.1908 40.6549 66.6998 40.3978 66.6998 39.265V34.1779L66.029 34.171ZM64.2725 26.3805H69.0027V25.345H64.2725V26.3805ZM64.2725 29.2715H69.0027V28.236H64.2725V29.2715ZM64.2725 32.2112H69.0027V31.134H64.2725V32.2112Z" fill="#00A4CF"/>
<path d="M81.3745 24.9002C81.3785 24.2035 81.3392 23.5072 81.257 22.8154H84.0785C83.9902 23.5066 83.9509 24.2034 83.9609 24.9002V29.5217H87.3841L85.3094 28.3055C86.471 26.8823 87.417 25.2946 88.1171 23.5937L90.5652 24.6709C89.7604 26.3959 88.7702 28.0272 87.6123 29.5356H89.1683C89.9635 29.5356 90.7242 29.4939 91.5057 29.4174V31.9957C90.7411 31.9109 89.972 31.8738 89.2028 31.8846H86.0701V37.75C86.0701 38.2017 86.2084 38.2573 87.4532 38.2573C88.698 38.2573 88.9539 38.1808 89.106 37.8125C89.2582 37.4442 89.3411 36.7909 89.3826 35.0327C90.1344 35.4741 90.9551 35.7843 91.81 35.95C91.6578 38.5144 91.3674 39.529 90.6274 40.1198C90.0811 40.5506 89.3204 40.6688 87.066 40.6688C83.9678 40.6688 83.4837 40.4117 83.4837 38.7855V31.9054H81.4782C81.4899 33.1275 81.3245 34.3449 80.9872 35.5192C80.5101 37.0163 79.5852 38.3291 78.3386 39.2789C77.379 40.0323 76.2819 40.5895 75.1091 40.919C74.6993 40.069 74.1834 39.275 73.5739 38.5561C75.1241 38.2949 76.5351 37.4986 77.5641 36.3045C78.2394 35.4038 78.6557 34.334 78.7674 33.2119C78.8089 32.8575 78.8296 32.6073 78.8642 31.9054H76.4299C75.6632 31.9035 74.897 31.9406 74.134 32.0166V29.4383C74.9105 29.5192 75.6908 29.5586 76.4714 29.5564H81.3814L81.3745 24.9002ZM77.163 23.6007C78.278 24.9978 79.2272 26.5208 79.9914 28.1387L77.6886 29.4244C76.9564 27.7434 76.0078 26.1662 74.867 24.7335L77.163 23.6007Z" fill="#00A4CF"/>
<path d="M100.766 24.7961C100.787 24.0713 100.748 23.346 100.648 22.6278H103.546C103.459 23.3192 103.422 24.0159 103.435 24.7127V25.8107H108.573C109.21 25.8216 109.848 25.796 110.482 25.7343C110.416 26.3318 110.388 26.933 110.399 27.5342V33.7332C110.382 34.4134 110.414 35.094 110.496 35.7694H107.812V34.6714H103.435V38.3894C103.414 39.2324 103.458 40.0758 103.566 40.9121H100.627C100.733 40.0755 100.779 39.2325 100.766 38.3894V34.6714H96.5817V35.7694H93.8915C93.9689 35.0936 94.0012 34.4133 93.9884 33.7332V27.5133C93.9945 26.9194 93.9691 26.3255 93.9123 25.7343C94.533 25.7921 95.1562 25.8176 95.7795 25.8107H100.766V24.7961ZM96.5817 28.2708V32.239H100.766V28.2708H96.5817ZM107.812 32.239V28.2708H103.435V32.239H107.812Z" fill="#00A4CF"/>
<path d="M112.211 36.6728C113.421 34.3239 113.87 32.5448 114.285 28.6113L116.796 29.2021C116.249 34.0667 115.917 35.4984 114.756 38.1044L112.211 36.6728ZM124.188 27.8678C122.356 26.6377 120.841 25.9358 117.473 24.7822L118.932 22.5513C121.301 23.2489 123.585 24.2068 125.744 25.4076L124.188 27.8678ZM120.316 37.4373C120.316 37.8473 120.641 37.9446 122.162 37.9446C123.483 37.9446 123.995 37.8126 124.188 37.4164C124.437 36.8883 124.576 35.6165 124.596 33.5455C125.425 33.956 126.301 34.264 127.203 34.4629C127.031 37.2427 126.837 38.3407 126.367 39.1955C126.092 39.6923 125.64 40.0651 125.101 40.238C123.965 40.4787 122.803 40.5698 121.643 40.509C119.423 40.509 118.663 40.3909 118.137 39.9391C117.771 39.6264 117.612 39.1399 117.612 38.2226V29.0422C117.615 28.357 117.576 27.6724 117.494 26.9921H120.433C120.358 27.6472 120.321 28.3063 120.323 28.9658L120.316 37.4373ZM128.372 37.7083C127.72 34.7983 126.673 31.9922 125.26 29.3688L127.729 28.2708C129.133 30.8503 130.224 33.5894 130.979 36.4296L128.372 37.7083Z" fill="#00A4CF"/>
<path d="M56.5548 15.6643C56.4739 15.3361 56.3722 15.0135 56.2505 14.6983L54.1759 9.13868C54.0422 8.74628 53.8828 8.36322 53.6987 7.992H55.2824C55.3408 8.33718 55.4287 8.67665 55.5452 9.00663L57.1357 13.774C57.1841 13.8852 57.3017 14.2744 57.3639 14.469C57.4538 14.1771 57.5299 13.9061 57.5852 13.774L59.1827 9.00663C59.2981 8.67683 59.3838 8.33725 59.4386 7.992H61.0361C60.8451 8.36004 60.6855 8.74363 60.5589 9.13868L58.4842 14.6983C58.3546 15.01 58.2551 15.3335 58.1869 15.6643H56.5548Z" fill="#00A4CF"/>
<path d="M63.2767 7.98505C63.2169 8.39686 63.1915 8.81296 63.2006 9.22902V14.4203C63.1917 14.8364 63.2172 15.2525 63.2767 15.6643H61.8175C61.8805 15.2528 61.906 14.8365 61.8936 14.4203V9.22902C61.9065 8.8129 61.881 8.39646 61.8175 7.98505H63.2767Z" fill="#00A4CF"/>
<path d="M65.7663 13.2737C65.7612 13.5784 65.856 13.8763 66.036 14.1215C66.2078 14.3165 66.4218 14.4692 66.6616 14.568C66.9014 14.6668 67.1605 14.709 67.4191 14.6914C68.3803 14.6914 68.9543 14.2536 68.9543 13.5308C68.9628 13.3522 68.9221 13.1746 68.8367 13.0177C68.7513 12.8607 68.6245 12.7305 68.4702 12.6413C67.9393 12.4065 67.3783 12.2474 66.8036 12.1687C66.2805 12.0918 65.7829 11.8918 65.3513 11.5849C65.1138 11.4016 64.9229 11.1643 64.7943 10.8925C64.6657 10.6207 64.603 10.3221 64.6114 10.0213C64.6114 8.68002 65.6902 7.81133 67.3776 7.81133C67.8236 7.77107 68.2727 7.83835 68.6877 8.00757C69.1026 8.17679 69.4714 8.44305 69.7634 8.78426C70.0087 9.11303 70.1702 9.49719 70.2337 9.90315L68.8506 10.0699C68.8299 9.8131 68.7282 9.56961 68.5601 9.37498C68.4068 9.2141 68.2201 9.08902 68.0134 9.00856C67.8067 8.92811 67.5849 8.89424 67.3637 8.90935C66.527 8.90935 65.9806 9.34023 65.9806 9.96569C65.9813 10.1624 66.0448 10.3537 66.1618 10.5114C66.2789 10.669 66.4432 10.7847 66.6307 10.8413C67.0808 10.9974 67.5436 11.1137 68.0138 11.1888C68.5688 11.2787 69.1003 11.4796 69.5767 11.7795C69.8401 11.9648 70.052 12.2147 70.1924 12.5053C70.3328 12.796 70.397 13.1179 70.3789 13.4405C70.3915 13.7408 70.3442 14.0407 70.2397 14.3224C70.1352 14.6041 69.9756 14.8618 69.7703 15.0806C69.1305 15.6181 68.3055 15.8803 67.4744 15.8103C66.7707 15.8311 66.0748 15.658 65.462 15.3099C65.0711 15.044 64.7754 14.6591 64.6183 14.2119C64.5207 13.9551 64.458 13.6863 64.4316 13.4127L65.7663 13.2737Z" fill="#00A4CF"/>
<path d="M72.9584 7.98505C72.8987 8.39686 72.8732 8.81296 72.8823 9.22902V14.4203C72.8734 14.8364 72.8989 15.2525 72.9584 15.6643H71.4992C71.565 15.2531 71.5928 14.8367 71.5822 14.4203V9.22902C71.5933 8.81267 71.5656 8.39618 71.4992 7.98505H72.9584Z" fill="#00A4CF"/>
<path d="M80.1643 8.79118C80.5331 9.19756 80.8184 9.67327 81.0035 10.1909C81.1887 10.7086 81.2701 11.2579 81.2431 11.8073C81.2431 14.2466 79.8254 15.8311 77.647 15.8311C75.4686 15.8311 74.0648 14.2535 74.0648 11.8073C74.0405 11.2565 74.1252 10.7063 74.314 10.1886C74.5027 9.67084 74.7917 9.19589 75.1643 8.79118C75.4894 8.46917 75.877 8.21785 76.3029 8.05285C76.7289 7.88786 77.184 7.81273 77.6401 7.83214C78.1039 7.80805 78.5677 7.88083 79.0022 8.0459C79.4366 8.21096 79.8323 8.46473 80.1643 8.79118ZM79.8945 11.8073C79.9474 10.9852 79.6739 10.1755 79.1338 9.55564C78.7401 9.17046 78.2103 8.95801 77.6608 8.96492C76.2777 8.96492 75.3995 10.0699 75.3995 11.8142C75.3539 12.6474 75.6344 13.4655 76.1809 14.0937C76.3781 14.2848 76.611 14.4348 76.8662 14.535C77.1214 14.6352 77.3938 14.6836 77.6678 14.6775C79.0163 14.6775 79.8945 13.5794 79.8945 11.7864V11.8073Z" fill="#00A4CF"/>
<path d="M87.3702 15.6642C87.1833 15.3084 86.9778 14.9628 86.7547 14.6287L84.279 10.876C84.0923 10.591 83.8571 10.181 83.5874 9.72235C83.5874 9.85439 83.5874 9.85438 83.6289 10.2158C83.6289 10.3964 83.6289 10.8273 83.6289 11.0497V14.2187C83.6215 14.7017 83.6469 15.1847 83.705 15.6642H82.3219C82.3812 15.1801 82.4066 14.6925 82.398 14.2048V9.22893C82.407 8.81287 82.3815 8.39678 82.3219 7.98496H83.8571C84.0126 8.34742 84.2099 8.69029 84.445 9.00654L86.8723 12.6829C87.1005 13.0303 87.4117 13.5307 87.6192 13.9199C87.6192 13.5446 87.5569 12.9608 87.5569 12.53V9.28452C87.5671 8.8405 87.5393 8.39641 87.4739 7.95715H88.857C88.798 8.39701 88.7725 8.84076 88.781 9.28452V14.3924C88.7721 14.8085 88.7975 15.2246 88.857 15.6364L87.3702 15.6642Z" fill="#00A4CF"/>
<path d="M99.9772 13.3222C99.8722 13.8461 99.6525 14.3398 99.334 14.7677C99.0031 15.1285 98.5958 15.4101 98.1422 15.5917C97.6886 15.7733 97.2002 15.8503 96.7131 15.8171C96.2606 15.8401 95.8083 15.77 95.3837 15.6111C94.9592 15.4521 94.5714 15.2077 94.2442 14.8928C93.551 14.0149 93.1806 12.9234 93.1957 11.8028C93.2108 10.6822 93.6105 9.60114 94.3272 8.74247C94.905 8.24419 95.6198 7.93417 96.3769 7.8535C97.1339 7.77283 97.8975 7.92531 98.5664 8.29075C98.9915 8.54953 99.3438 8.91313 99.5899 9.34708C99.714 9.58168 99.8137 9.82854 99.8873 10.0837L98.5526 10.3965C98.4787 10.0906 98.3368 9.80545 98.1377 9.56251C97.9653 9.36648 97.7519 9.21124 97.5128 9.10791C97.2736 9.00458 97.0147 8.95572 96.7546 8.96486C95.3715 8.96486 94.5693 10.042 94.5693 11.8142C94.5693 13.5863 95.413 14.6774 96.7546 14.6774C97.0505 14.6967 97.3467 14.6436 97.6178 14.5226C97.8888 14.4015 98.1265 14.2162 98.3105 13.9824C98.4877 13.7167 98.597 13.4112 98.6287 13.0929L99.9772 13.3222Z" fill="#00A4CF"/>
<path d="M101.969 13.2111C101.967 13.6023 102.094 13.9832 102.328 14.2952C102.475 14.4613 102.654 14.5953 102.854 14.6888C103.054 14.7823 103.271 14.8332 103.492 14.8384C103.713 14.8436 103.932 14.803 104.136 14.7191C104.341 14.6352 104.526 14.5098 104.68 14.3508C104.803 14.2036 104.897 14.0337 104.956 13.8505L106.09 14.2188C105.889 14.7281 105.533 15.16 105.071 15.4523C104.61 15.7446 104.069 15.8821 103.525 15.845C101.824 15.845 100.759 14.7122 100.759 12.9053C100.759 11.0984 101.824 9.95176 103.462 9.95176C103.969 9.924 104.472 10.0557 104.901 10.3285C105.33 10.6012 105.663 11.0015 105.855 11.4737C106.041 11.9399 106.135 12.4379 106.132 12.9401C106.132 12.9401 106.132 12.9887 106.132 13.2111H101.969ZM104.901 12.259C104.869 11.9117 104.72 11.5858 104.479 11.3347C104.342 11.2016 104.179 11.0983 104.001 11.0313C103.822 10.9643 103.632 10.9351 103.442 10.9456C103.081 10.9439 102.733 11.0777 102.466 11.3207C102.198 11.5637 102.031 11.8984 101.996 12.259H104.901Z" fill="#00A4CF"/>
<path d="M107.1 15.6642C107.157 15.2498 107.182 14.8316 107.176 14.4133V11.3833C107.183 10.9627 107.157 10.5422 107.1 10.1254H108.407V10.6397C108.415 10.7763 108.415 10.9132 108.407 11.0497C108.615 10.7214 108.905 10.454 109.249 10.2746C109.593 10.0952 109.977 10.0102 110.364 10.0281C110.672 10.0015 110.982 10.0509 111.266 10.172C111.551 10.2931 111.801 10.4823 111.996 10.7231C112.257 11.1212 112.374 11.597 112.328 12.0713V14.3925C112.317 14.8109 112.342 15.2295 112.404 15.6434H111.021C111.07 15.2282 111.093 14.8105 111.09 14.3925V12.2451C111.116 11.9524 111.058 11.6584 110.924 11.3972C110.837 11.2661 110.717 11.1604 110.576 11.0909C110.435 11.0213 110.279 10.9904 110.122 11.0011C109.431 11.0011 108.864 11.4876 108.442 12.4396V14.3925C108.438 14.8107 108.463 15.2287 108.518 15.6434L107.1 15.6642Z" fill="#00A4CF"/>
<path d="M115.578 8.63831C115.538 9.03313 115.517 9.42975 115.516 9.82667V10.1255H115.917C116.241 10.1357 116.565 10.1171 116.886 10.0699V11.2096C116.575 11.1602 116.26 11.1393 115.945 11.1471H115.516V14.1424C115.516 14.6149 115.689 14.7887 116.146 14.7887C116.392 14.7861 116.632 14.7112 116.837 14.5732L117.01 15.5948C116.627 15.7458 116.217 15.8145 115.807 15.7963C114.7 15.7963 114.265 15.4072 114.265 14.4064V11.161H113.898C113.611 11.1562 113.324 11.1772 113.041 11.2235V10.0838C113.326 10.1308 113.616 10.1495 113.905 10.1394H114.285V9.84059C114.285 9.42361 114.251 8.99967 114.216 8.6522L115.578 8.63831Z" fill="#00A4CF"/>
<path d="M118.725 13.2111C118.722 13.6015 118.845 13.9823 119.078 14.2952C119.225 14.4709 119.409 14.6109 119.618 14.7048C119.826 14.7986 120.053 14.844 120.281 14.8373C120.496 14.844 120.71 14.804 120.908 14.7201C121.106 14.6361 121.284 14.5102 121.429 14.3508C121.558 14.2072 121.652 14.0361 121.706 13.8505L122.84 14.2188C122.703 14.5489 122.506 14.8505 122.259 15.1083C121.722 15.6068 121.011 15.8716 120.281 15.845C118.58 15.845 117.515 14.7122 117.515 12.9053C117.515 11.0984 118.58 9.95175 120.226 9.95175C120.732 9.92606 121.234 10.0586 121.662 10.3311C122.091 10.6036 122.425 11.0028 122.618 11.4737C122.801 11.9409 122.895 12.4382 122.895 12.9401C122.895 12.9401 122.895 12.9887 122.895 13.2111H118.725ZM121.65 12.259C121.622 11.9108 121.472 11.5838 121.228 11.3347C121.092 11.2015 120.929 11.0982 120.75 11.0313C120.572 10.9643 120.381 10.9351 120.191 10.9455C119.831 10.944 119.484 11.0781 119.218 11.3212C118.951 11.5644 118.786 11.899 118.753 12.259H121.65Z" fill="#00A4CF"/>
<path d="M127.542 11.3416C127.266 11.2463 126.977 11.1948 126.685 11.1887C126.476 11.1777 126.267 11.2144 126.074 11.2963C125.881 11.3782 125.709 11.503 125.571 11.6613C125.331 11.9265 125.191 12.2686 125.177 12.6273V14.4133C125.174 14.8313 125.197 15.2491 125.246 15.6642H123.863C123.911 15.249 123.934 14.8313 123.932 14.4133V11.3833C123.943 10.9628 123.92 10.5422 123.863 10.1254H125.17V11.0358C125.334 10.7037 125.595 10.4292 125.917 10.2482C126.239 10.0671 126.608 9.98802 126.975 10.0212C127.275 10.0289 127.574 10.0638 127.867 10.1254L127.542 11.3416Z" fill="#00A4CF"/>
</g>
<defs>
<clipPath id="clip0_1_1066">
<rect width="131" height="48.7442" fill="white"/>
</clipPath>
</defs>
</svg>
