<svg width="213" height="49" viewBox="0 0 213 49" fill="none" xmlns="http://www.w3.org/2000/svg">
<g clip-path="url(#clip0_11_205)">
<path d="M48.7481 0H0V48.7481H48.7481V0Z" fill="#EEF7FD"/>
<path d="M14.6519 23.0017H16.4674V15.7399H18.2828V23.0017H20.0983V15.7399H21.9137V23.0017H23.7292V13.9245H14.6519V23.0017Z" fill="#004E83"/>
<path d="M4.27271 23.0017H13.3499V21.1863H6.08815V15.7399H13.3499V13.9245H4.27271V23.0017Z" fill="#004E83"/>
<path fill-rule="evenodd" clip-rule="evenodd" d="M20.9235 31.6267L21.6876 31.3271C22.0237 32.1218 22.2255 32.6414 22.2988 32.892L21.5042 33.1243C21.3276 32.6144 21.1235 32.1145 20.8929 31.6267H20.9235ZM19.7132 31.7672L20.5506 31.5777C20.7494 32.2401 20.9086 32.9136 21.0274 33.5949L20.1777 33.7294C20.0569 33.0678 19.9018 32.4128 19.7132 31.7672ZM18.6068 31.7672H19.4748C19.5604 32.7758 19.6032 33.601 19.597 34.2123L18.7474 34.1756C18.7738 33.3783 18.7267 32.5803 18.6068 31.7917V31.7672ZM17.4332 32.6047C16.7136 33.0852 15.9598 33.5122 15.1776 33.8822L14.7375 33.002C15.1043 32.8492 15.416 32.7147 15.6789 32.5925V30.1474H15.0248V29.2183H15.6789V27.2256H15.0248V26.2903H17.262V27.2256H16.5835V29.2672H17.1948V30.1963H16.5835V32.1034L16.9564 31.8284L17.476 32.4946C17.5412 32.242 17.6023 31.973 17.6593 31.6878L18.5762 31.9384C18.3643 32.8964 17.9632 33.8025 17.3965 34.6035C17.2023 34.3707 16.9633 34.1795 16.6936 34.0411C16.9431 33.6996 17.1484 33.3278 17.3048 32.9348C17.3304 32.83 17.3652 32.7278 17.4087 32.6291L17.4332 32.6047ZM19.8538 28.9616H18.4968V28.4481H19.8538V28.9616ZM19.8538 27.6473H18.4968V27.2256C18.4949 27.212 18.4961 27.1982 18.5003 27.1852C18.5044 27.1721 18.5115 27.1602 18.5208 27.1502C18.5302 27.1403 18.5417 27.1325 18.5545 27.1276C18.5672 27.1227 18.5809 27.1206 18.5946 27.1217H19.8538V27.6473ZM18.5518 30.2819V29.7868H19.9088V30.2819H18.5518ZM17.6471 30.6364V31.0093C17.6471 31.1254 17.696 31.1804 17.7999 31.1804H22.256C22.3355 31.1804 22.3722 31.1804 22.3722 31.2538C22.4133 31.9154 22.4133 32.5788 22.3722 33.2404C22.3411 33.4524 22.2475 33.6504 22.1032 33.8089C22.0108 33.88 21.8956 33.9148 21.7792 33.9066C21.4383 33.8787 21.0994 33.8297 20.7645 33.76L20.8562 34.7502C21.8404 34.8235 22.4761 34.7502 22.7511 34.4996C22.9938 34.2953 23.1509 34.0073 23.1913 33.6927C23.3141 32.6339 23.357 31.5672 23.3196 30.5019C23.3196 30.3613 23.2707 30.288 23.1485 30.2819H20.8379V29.7868H22.8612V28.9616H20.8379V28.4481H22.8245V27.629H20.8379V27.0911H23.0446V26.1987H17.8733C17.7388 26.1987 17.6716 26.2659 17.6716 26.4065L17.6471 30.6364ZM8.4782 31.6878V34.683H9.41343V31.6878H11.1677C11.2228 31.6878 11.2472 31.6878 11.2472 31.7611V33.2893C11.2472 33.4054 11.1678 33.5032 11.0027 33.5705C10.5643 33.6298 10.1179 33.575 9.70683 33.4115V34.4812C10.3687 34.6719 11.0735 34.6527 11.724 34.4262C11.8517 34.3725 11.9609 34.2824 12.0381 34.1673C12.1152 34.0521 12.1569 33.9169 12.158 33.7783V30.9909C12.163 30.959 12.1605 30.9264 12.1507 30.8956C12.1409 30.8648 12.1241 30.8367 12.1015 30.8136C12.079 30.7905 12.0514 30.7729 12.0208 30.7623C11.9903 30.7517 11.9577 30.7484 11.9257 30.7526H9.38286V30.0374H8.44764V30.7526H7.15787C7.49222 30.447 7.80665 30.1203 8.09922 29.7745C8.10733 29.7555 8.11991 29.7388 8.1359 29.7256H12.7081V28.7965H8.8205C8.91219 28.6437 9.01 28.4909 9.12003 28.332L8.46597 27.8919C8.60656 27.8368 8.77772 27.7818 8.97332 27.7207C9.84131 27.9733 10.7725 28.2912 11.7668 28.6743L12.0235 27.7696C11.455 27.5557 10.911 27.3539 10.3792 27.1583L11.345 26.7121L10.9294 25.8441C10.3115 26.1723 9.67695 26.4682 9.02833 26.7305C7.90872 26.3806 6.76451 26.115 5.60528 25.9358L5.39745 26.8588C5.95981 26.9444 6.57718 27.0667 7.23123 27.2378C6.35637 27.4215 5.46605 27.5218 4.57224 27.5373L4.78007 28.4725C5.77654 28.4585 6.76774 28.3252 7.73246 28.0752C7.8975 28.0263 8.08089 27.9835 8.2826 27.9346C8.07477 28.2525 7.87917 28.5459 7.67134 28.7904H4.46833V29.7195H6.91337C6.33862 30.277 5.7006 30.7652 5.01235 31.1743L4.17493 31.5961L4.69449 32.4152C5.03069 32.2379 5.36688 32.0484 5.69696 31.8406V34.4018H6.63831V31.7489C6.63831 31.7082 6.66276 31.6837 6.71166 31.6756L8.4782 31.6878Z" fill="#004E83"/>
<path d="M25.025 23.0017H34.1023V21.1863H26.8405V19.3708H34.1023V17.5554H26.8405V15.7399H34.1023V13.9245H25.025V23.0017Z" fill="#004E83"/>
<path d="M44.4754 13.9245H35.3981V15.7399H42.6599V17.5554H35.3981V23.0017H37.2136V19.3708H39.029L42.0976 23.0017H44.4754L41.4068 19.3708H44.4754V13.9245Z" fill="#004E83"/>
<path d="M31.8406 31.1682C32.155 31.175 32.4694 31.1607 32.7819 31.1254C32.7819 31.3943 32.7452 31.6877 32.7452 32.0667V33.8516C32.7433 34.1742 32.7596 34.4966 32.7941 34.8174H31.7733V34.4629H26.8832V34.8113H25.9052C25.9052 34.5362 25.948 34.2 25.948 33.8516V32.0178C25.948 31.7367 25.948 31.4616 25.948 31.1559C26.1314 31.1559 26.4798 31.1865 26.8832 31.1865H28.1486C28.1557 31.0786 28.1557 30.9704 28.1486 30.8625H26.1681C25.8432 30.8593 25.5186 30.8777 25.1962 30.9175V30.0312C25.5184 30.0722 25.8433 30.0885 26.1681 30.0801H32.7147C32.9825 30.0883 33.2506 30.0719 33.5154 30.0312V30.8931C33.1684 30.8546 32.8193 30.8383 32.4702 30.8442H30.453V31.1682H31.8406ZM28.6253 27.6229C28.8298 27.6316 29.0346 27.6193 29.2366 27.5862V28.1975C28.9799 28.1975 28.8882 28.1669 28.7048 28.1669H28.3564C28.6224 28.4001 28.9291 28.5825 29.261 28.7048C29.1212 28.8168 29.0032 28.9536 28.9126 29.1082C29.1144 29.1082 29.1449 29.1082 29.2977 29.1082V29.8601C29.0543 29.8311 28.8094 29.8168 28.5642 29.8173H26.1558H25.4407C25.4407 29.6339 25.4407 29.3588 25.4407 29.0226V26.7121C25.4407 26.3514 25.4407 26.1497 25.4407 25.8013C25.6917 25.8361 25.9452 25.8505 26.1986 25.8441H28.4297C28.72 25.8446 29.0099 25.8263 29.2977 25.7891V26.5532C28.9432 26.5532 28.7965 26.5226 28.5398 26.5226H27.5617C27.5251 26.602 27.5067 26.6509 27.4517 26.7915H28.4847C28.6894 26.7978 28.8942 26.7834 29.096 26.7487V27.36C28.8941 27.3262 28.6894 27.3119 28.4847 27.3172H28.2464C28.238 27.4239 28.2237 27.53 28.2036 27.6351L28.6253 27.6229ZM26.9199 28.1547C26.7666 28.1536 26.6133 28.1638 26.4615 28.1852V27.574C26.5715 27.574 26.6448 27.574 26.8038 27.574C26.6849 27.4371 26.5419 27.3232 26.382 27.2378C26.6306 27.0257 26.8218 26.7545 26.9383 26.4492H26.2781V29.0471H26.7549C26.6596 28.8941 26.5398 28.7578 26.4004 28.6437C26.7587 28.5749 27.0824 28.385 27.3172 28.1057L26.9199 28.1547ZM27.5312 27.6229C27.5312 27.5373 27.5312 27.4945 27.5679 27.305H27.1216C27.0424 27.4211 26.9501 27.5278 26.8466 27.6229H27.5617H27.5312ZM27.5312 32.8553C27.3653 32.6168 27.1584 32.4098 26.9199 32.244C27.1082 32.2371 27.2927 32.1892 27.4605 32.1036C27.6284 32.0181 27.7755 31.8971 27.8918 31.7489H26.8343V32.8247L27.5312 32.8553ZM26.8343 33.766H31.7244V33.4787H26.8343V33.766ZM28.6131 29.096C28.3102 28.9104 28.0465 28.6675 27.8368 28.3808C27.6331 28.684 27.3554 28.9302 27.03 29.096H28.6131ZM31.7428 32.8553V31.7794H31.0337C31.237 31.9058 31.4602 31.9967 31.6939 32.0484C31.6083 32.568 31.4677 32.6597 30.5508 32.6597C29.7623 32.6597 29.5483 32.5618 29.5483 32.189V31.8039H28.8271C28.7351 32.0659 28.5799 32.3013 28.3751 32.4889C28.1704 32.6766 27.9225 32.8108 27.6534 32.8797L31.7428 32.8553ZM29.5483 30.8442H28.9371C28.9446 30.952 28.9446 31.0603 28.9371 31.1682H29.5483V30.8442ZM30.6425 26.4981C30.63 26.7745 30.5144 27.0363 30.3185 27.2317C30.1861 27.3628 30.0307 27.4684 29.8601 27.5434H32.0729C32.2611 27.554 32.4499 27.5417 32.6352 27.5067L33.057 27.9591C32.9934 28.0135 32.9341 28.0727 32.8797 28.1363C32.6167 28.446 32.3193 28.7249 31.9934 28.9676C32.4936 29.1194 33.0114 29.2057 33.5338 29.2244C33.3635 29.4579 33.2333 29.7182 33.1487 29.9946C32.4868 29.9018 31.8422 29.7123 31.2354 29.4322C30.7476 29.6765 30.2297 29.8553 29.695 29.964C29.6136 29.7044 29.4963 29.4576 29.3466 29.2305C29.7456 29.1871 30.1377 29.0947 30.5141 28.9554C30.2359 28.7364 29.9945 28.4743 29.799 28.1791C29.6606 28.1676 29.5216 28.1676 29.3833 28.1791V27.4823C29.4666 27.4905 29.5506 27.4905 29.6339 27.4823C29.5355 27.2539 29.3944 27.0465 29.2183 26.871C29.4388 26.8225 29.638 26.7047 29.7867 26.5348C29.9072 26.3538 29.9711 26.141 29.9701 25.9235C29.9766 25.836 29.9766 25.7482 29.9701 25.6607C30.1725 25.6896 30.377 25.7019 30.5814 25.6974H31.645C31.8494 25.7026 32.0539 25.6903 32.2562 25.6607C32.2219 25.8234 32.2075 25.9897 32.2134 26.1558V26.6143C32.2134 26.7549 32.2134 26.7671 32.4824 26.7671C32.7514 26.7671 32.8247 26.7671 32.8491 26.1558C33.0581 26.2743 33.2853 26.3569 33.5215 26.4003C33.5404 26.7053 33.4445 27.0062 33.2526 27.2439C33.0998 27.3723 32.9042 27.3967 32.244 27.3967C31.5838 27.3967 31.4555 27.3417 31.4555 26.9321V26.5104L30.6425 26.4981ZM30.4041 31.8772C30.4041 32.0484 30.4469 32.0728 30.7159 32.0728C30.9848 32.0728 31.0093 32.0728 31.0276 31.7794H30.4163L30.4041 31.8772ZM30.6242 28.1669C30.7962 28.3595 31.0037 28.5173 31.2354 28.6314C31.4798 28.4988 31.7111 28.3432 31.9261 28.1669H30.6242Z" fill="#004E83"/>
<path d="M43.2712 31.7062C43.2671 31.9897 43.2773 32.2733 43.3017 32.5558C43.1061 32.5558 42.9717 32.5558 42.721 32.5558C43.1604 33.0741 43.7067 33.4912 44.3225 33.7783C44.1107 34.0408 43.9282 34.3257 43.7785 34.628C43.0515 34.2028 42.4125 33.6427 41.8958 32.9776L42.5071 32.5314H41.4068V33.9495C41.4193 34.063 41.4041 34.1779 41.3626 34.2844C41.3211 34.3908 41.2545 34.4856 41.1684 34.5607C40.9196 34.7065 40.629 34.7646 40.3432 34.7258C40.007 34.7258 39.6647 34.7258 39.2858 34.6891C39.2668 34.3532 39.186 34.0237 39.0474 33.7172C39.3843 33.7786 39.7258 33.8113 40.0682 33.815C40.3799 33.815 40.4227 33.815 40.4227 33.5766V32.5497H38.9862L39.5975 32.9165C39.1546 33.5952 38.5811 34.1791 37.9104 34.6341C37.7305 34.3636 37.5122 34.1206 37.2625 33.9128C37.8575 33.5979 38.3592 33.132 38.7173 32.5619H38.5645C38.5645 32.3174 38.5645 32.1646 38.5645 31.7184V30.7709C38.3872 30.8871 38.2955 30.9421 37.996 31.1132C37.9165 30.8687 37.8799 30.7893 37.7821 30.5509C37.7441 31.3813 37.5982 32.2032 37.3481 32.9959C37.155 33.6113 36.8527 34.1869 36.4556 34.6952C36.2474 34.3951 35.9962 34.1274 35.7099 33.9006C36.3491 33.0893 36.715 32.0964 36.7551 31.0644C36.4862 31.2416 36.1439 31.4555 35.9055 31.5717C35.8435 31.6035 35.7843 31.6403 35.7282 31.6817L35.4348 30.6426C35.9303 30.5073 36.4038 30.3015 36.8407 30.0313C36.8407 29.6951 36.8407 29.5484 36.8713 29.0961L36.1928 29.5668C36.0378 28.9289 35.8037 28.3128 35.4959 27.733L36.205 27.2806C36.4771 27.7774 36.7003 28.2994 36.8713 28.8394V28.4481C36.8713 28.2831 36.8713 27.7207 36.8713 27.409C36.8873 27.001 36.873 26.5924 36.8285 26.1865C37.2102 26.2254 37.594 26.2418 37.9777 26.2354H39.8542V26.1681C39.8604 25.9632 39.844 25.7582 39.8053 25.5569H41.0095C40.9786 25.7591 40.9643 25.9636 40.9667 26.1681V26.2354H43.1856C43.5676 26.2457 43.9499 26.2253 44.3287 26.1743V27.1584C43.9853 27.1259 43.6405 27.1116 43.2956 27.1156H41.2479C41.1746 27.3662 41.144 27.464 41.089 27.6168H43.2345C43.5552 27.6259 43.8761 27.6096 44.1942 27.5679V28.5092C43.8882 28.4697 43.5796 28.4534 43.2712 28.4604H41.9875C42.1741 28.7477 42.4052 29.0035 42.6721 29.2183C42.9271 29.0154 43.1444 28.7692 43.314 28.4909L44.0597 28.9799C43.8313 29.2224 43.5905 29.4529 43.3384 29.6707C43.6949 29.8728 44.0746 30.0309 44.4693 30.1413C44.2948 30.4248 44.161 30.7314 44.0719 31.0521C43.7948 30.9438 43.5269 30.813 43.2712 30.6609V31.7062ZM37.8799 28.5215C37.8799 29.1327 37.8799 29.5667 37.8432 30.1535C38.1248 30.016 38.3929 29.8523 38.6439 29.6645C38.4495 29.4348 38.2278 29.2295 37.9838 29.0533L38.5645 28.5459C38.7944 28.7322 39.009 28.9366 39.2063 29.1572C39.4067 28.9487 39.5811 28.7168 39.7259 28.4665H38.9373C38.6494 28.4604 38.3614 28.4747 38.0755 28.5092V27.5924C38.3739 27.6238 38.674 27.6361 38.974 27.629H40.1232C40.19 27.4661 40.2452 27.2986 40.2882 27.1278H37.8799V28.5215ZM39.5242 30.6548H42.3359V30.2391H39.5242V30.6548ZM39.5242 31.7734H42.3359V31.3516H39.5242V31.7734ZM41.7675 29.4567C41.4876 29.1609 41.2472 28.8301 41.0523 28.4726H40.6978C40.5267 28.8198 40.322 29.1495 40.0865 29.4567H41.7675Z" fill="#004E83"/>
<path d="M63.3694 13.35C63.2586 13.8733 63.0378 14.3672 62.7215 14.7986C62.3883 15.1606 61.9779 15.443 61.5209 15.625C61.0638 15.807 60.5717 15.8839 60.0809 15.85C59.6246 15.8744 59.1682 15.8045 58.7402 15.6446C58.3121 15.4848 57.9216 15.2384 57.593 14.9209C56.899 14.0411 56.5282 12.9496 56.5426 11.8291C56.5571 10.7086 56.956 9.62709 57.6725 8.7655C57.9974 8.45565 58.3812 8.21427 58.8013 8.05571C59.2213 7.89715 59.6689 7.82464 60.1175 7.84249C60.7603 7.82168 61.396 7.98271 61.9513 8.30706C62.3767 8.56809 62.7298 8.93171 62.9782 9.36457C63.108 9.60007 63.2085 9.85047 63.2777 10.1103L61.933 10.4159C61.8621 10.1098 61.7196 9.82495 61.5173 9.58461C61.3442 9.38177 61.1269 9.22122 60.8822 9.11527C60.6374 9.00932 60.3717 8.96079 60.1053 8.97335C58.73 8.97335 57.8987 10.0492 57.8987 11.8279C57.8987 13.6067 58.7483 14.7009 60.1053 14.7009C60.4047 14.7187 60.704 14.6628 60.9768 14.5382C61.2496 14.4135 61.4877 14.2238 61.6701 13.9857C61.8478 13.7183 61.9589 13.4123 61.9941 13.0932L63.3694 13.35Z" fill="#004E83"/>
<path d="M67.9661 15.6972C67.8734 15.2472 67.732 14.8085 67.5443 14.3891L66.1507 11.0761C65.9527 10.5946 65.7872 10.1004 65.6555 9.59679C65.6983 10.1102 65.735 10.8988 65.735 11.1127V14.2852C65.722 14.7572 65.7486 15.2296 65.8145 15.6972H64.4575C64.5225 15.2295 64.5491 14.7572 64.5369 14.2852V9.43177C64.5481 8.95364 64.5215 8.47535 64.4575 8.0014H66.2301C66.3137 8.39428 66.4324 8.77888 66.5847 9.15058L68.5468 13.949L70.5028 9.15058C70.6624 8.78207 70.7793 8.3965 70.8513 8.0014H72.63C72.5708 8.4758 72.5442 8.95373 72.5506 9.43177V14.2852C72.5385 14.7572 72.5651 15.2295 72.63 15.6972H71.2791C71.3387 15.229 71.3632 14.757 71.3525 14.2852V11.0761C71.3953 10.2325 71.4197 9.73738 71.4319 9.59679C71.3109 10.0758 71.1619 10.5472 70.9857 11.0088L69.5371 14.3891C69.3585 14.8041 69.2153 15.2335 69.1092 15.6727L67.9661 15.6972Z" fill="#004E83"/>
<path d="M79.5189 15.7644C79.1136 15.7118 78.705 15.6893 78.2964 15.6971H75.2401C74.6288 15.6971 74.3966 15.6971 74.0176 15.7277C74.0803 15.3049 74.1069 14.8775 74.097 14.4501V9.21775C74.1014 8.80882 74.0748 8.40015 74.0176 7.99522C74.4027 7.99522 74.6288 7.99522 75.2401 7.99522H78.1619C78.5705 7.99526 78.9788 7.97077 79.3844 7.92188V9.19943C78.9791 9.14798 78.5705 9.12552 78.1619 9.1322H75.3624V11.1249H77.7157C78.1344 11.129 78.5529 11.1066 78.9688 11.0576V12.323C78.5536 12.2673 78.1345 12.2448 77.7157 12.2557H75.3562V14.5418H78.2536C78.6622 14.5467 79.0706 14.5242 79.4761 14.4746L79.5189 15.7644Z" fill="#004E83"/>
<path d="M85.5337 15.6972C85.4215 15.1655 85.2535 14.6471 85.0325 14.1507C84.5068 12.8181 84.1706 12.4575 83.4249 12.4575H81.964V14.4319C81.9547 14.8549 81.9792 15.278 82.0373 15.6972H80.6192C80.6825 15.2806 80.7091 14.8592 80.6987 14.438V9.23002C80.7046 8.80887 80.678 8.38789 80.6192 7.97083C81.0287 7.97083 81.3283 7.97083 81.8417 7.97083H84.1645C85.6316 7.97083 86.4751 8.70432 86.4751 9.98186C86.4919 10.2422 86.4567 10.5032 86.3717 10.7498C86.2867 10.9964 86.1536 11.2237 85.98 11.4183C85.6895 11.711 85.3161 11.9073 84.9103 11.9807C85.5215 12.1763 85.6988 12.4453 86.6585 14.7069C86.7379 14.8842 86.9763 15.4038 87.1108 15.6666L85.5337 15.6972ZM83.9322 11.3572C84.2713 11.3631 84.5996 11.2383 84.8491 11.0088C84.9558 10.8943 85.0383 10.7596 85.0919 10.6126C85.1455 10.4656 85.1689 10.3093 85.1609 10.153C85.1609 9.45619 84.7636 9.10164 83.9384 9.10164H81.964V11.3328L83.9322 11.3572Z" fill="#004E83"/>
<path d="M92.6794 14.3035C92.6668 14.7693 92.6913 15.2353 92.7528 15.6972H91.3163C91.3774 15.2415 91.402 14.7816 91.3897 14.3219V9.23007C91.3954 8.80912 91.3709 8.3883 91.3163 7.97087C91.7075 7.97087 91.9275 7.97087 92.5388 7.97087H95.2528C95.6941 7.97679 96.1352 7.95228 96.5731 7.89752V9.20563C96.1352 9.15131 95.694 9.1288 95.2528 9.13836H92.6794V11.1861H94.7455C95.1866 11.1942 95.6278 11.1717 96.0658 11.1189V12.4086C95.6278 12.3554 95.1866 12.333 94.7455 12.3414H92.6794V14.3035Z" fill="#004E83"/>
<path d="M101.127 15.0676C100.852 15.3672 100.495 15.5797 100.1 15.6788C99.8074 15.7588 99.505 15.7979 99.2016 15.795C98.0218 15.795 97.3066 15.1837 97.3066 14.169C97.3137 13.8292 97.4215 13.4991 97.6162 13.2206C97.811 12.942 98.0841 12.7275 98.4008 12.6042C99.2765 12.302 100.202 12.1692 101.127 12.213V11.724C101.127 11.1616 100.748 10.8743 100.015 10.8743C99.6603 10.8626 99.3108 10.9585 99.0121 11.1494C98.8155 11.3024 98.6775 11.5181 98.6208 11.7607L97.3983 11.5345C97.5238 11.1013 97.7933 10.724 98.1624 10.4648C98.7003 10.0975 99.3466 9.923 99.9962 9.96967C100.336 9.93062 100.68 9.96087 101.008 10.0586C101.336 10.1563 101.64 10.3194 101.903 10.5381C102.075 10.7129 102.204 10.924 102.283 11.1557C102.361 11.3875 102.386 11.634 102.356 11.8768V14.4747C102.348 14.8837 102.375 15.2926 102.435 15.6972H101.127V15.0676ZM101.127 13.0565C99.2932 13.0932 98.5536 13.4172 98.5536 14.169C98.5536 14.6214 98.8959 14.9025 99.4338 14.9025C99.9313 14.9098 100.413 14.726 100.779 14.3891C100.892 14.2792 100.982 14.147 101.042 14.0008C101.102 13.8545 101.131 13.6974 101.127 13.5394V13.0565Z" fill="#004E83"/>
<path d="M103.584 15.6972C103.631 15.2792 103.653 14.8587 103.652 14.438V11.3817C103.658 10.961 103.635 10.5403 103.584 10.1225H104.88V10.6115C104.88 10.6727 104.88 10.8193 104.88 10.9722C105.062 10.6614 105.326 10.4068 105.643 10.2364C105.96 10.066 106.318 9.98643 106.677 10.0064C107.125 9.99078 107.562 10.1459 107.9 10.4404C108.073 10.5966 108.2 10.7975 108.267 11.0211C108.463 10.6985 108.743 10.4343 109.076 10.2559C109.409 10.0775 109.784 9.99139 110.161 10.0064C110.428 9.99083 110.695 10.0318 110.945 10.1266C111.194 10.2214 111.421 10.3679 111.61 10.5565C111.779 10.7603 111.905 10.9953 111.983 11.2481C112.061 11.5008 112.088 11.7664 112.062 12.0297V14.4136C112.057 14.8347 112.083 15.2557 112.142 15.6728H110.73C110.793 15.2561 110.819 14.8348 110.809 14.4136V12.2497C110.809 11.4001 110.51 11.0272 109.862 11.0272C109.569 11.0177 109.284 11.123 109.067 11.3206C108.714 11.6341 108.495 12.0721 108.456 12.5431V14.4564C108.45 14.8771 108.473 15.2978 108.523 15.7156H107.136C107.192 15.2983 107.217 14.8773 107.209 14.4564V12.2925C107.209 11.4795 106.897 11.07 106.274 11.07C106.079 11.0649 105.887 11.108 105.713 11.1954C105.539 11.2829 105.389 11.412 105.277 11.5712C105.061 11.8536 104.918 12.1855 104.862 12.537V14.4502C104.858 14.871 104.88 15.2915 104.929 15.7094L103.584 15.6972Z" fill="#004E83"/>
<path d="M114.764 8.0014V9.22393H113.346V8.0014H114.764ZM114.764 10.1469C114.711 10.5665 114.688 10.9894 114.697 11.4123V14.4319C114.691 14.8547 114.714 15.2774 114.764 15.6972H113.352C113.408 15.2798 113.434 14.8591 113.432 14.438V11.3817C113.437 10.9606 113.411 10.5396 113.352 10.1225L114.764 10.1469Z" fill="#004E83"/>
<path d="M117.368 8.0014C117.315 8.42102 117.293 8.84388 117.301 9.26672V14.438C117.297 14.8587 117.319 15.2793 117.368 15.6972H115.968C116.016 15.2792 116.039 14.8587 116.036 14.438V9.25448C116.041 8.83576 116.018 8.41717 115.968 8.0014H117.368Z" fill="#004E83"/>
<path d="M118.64 11.3328C118.218 10.3731 118.206 10.3486 118.09 10.1102H119.563C119.643 10.4995 119.766 10.8787 119.929 11.241L121.085 14.0223L122.154 11.29C122.318 10.9228 122.443 10.5398 122.527 10.1469H123.964C123.909 10.2692 123.731 10.6665 123.444 11.3694L121.238 16.5468C121.099 16.8954 120.85 17.1888 120.529 17.3821C120.207 17.5753 119.831 17.6577 119.459 17.6165C119.118 17.6117 118.778 17.5728 118.444 17.5004L118.664 16.4001C118.876 16.5034 119.107 16.5597 119.343 16.5651C119.502 16.5673 119.659 16.5227 119.794 16.437C119.928 16.3512 120.035 16.2279 120.101 16.0823L120.425 15.3365L118.64 11.3328Z" fill="#004E83"/>
<path d="M131.476 15.6972C131.378 15.2479 131.234 14.8096 131.048 14.3891L129.642 11.0761C129.444 10.5946 129.279 10.1004 129.147 9.59679C129.19 10.1102 129.227 10.8988 129.227 11.1127V14.2852C129.214 14.7572 129.24 15.2296 129.306 15.6972H127.949C128.014 15.2295 128.041 14.7572 128.029 14.2852V9.43177C128.04 8.95364 128.013 8.47535 127.949 8.0014H129.722C129.805 8.39428 129.924 8.77888 130.076 9.15058L132.045 13.949L133.995 9.15058C134.154 8.78207 134.271 8.3965 134.343 8.0014H136.122C136.065 8.47597 136.04 8.95388 136.048 9.43177V14.2852C136.035 14.7571 136.06 15.2292 136.122 15.6972H134.771C134.83 15.229 134.855 14.757 134.844 14.2852V11.0761C134.887 10.2325 134.911 9.73738 134.924 9.59679C134.803 10.0758 134.654 10.5472 134.477 11.0088L133.041 14.3891C132.862 14.8041 132.719 15.2335 132.613 15.6727L131.476 15.6972Z" fill="#004E83"/>
<path d="M138.414 13.2399C138.414 13.629 138.539 14.0079 138.768 14.3218C138.916 14.4879 139.097 14.6219 139.298 14.7155C139.5 14.8092 139.719 14.8604 139.941 14.8662C140.163 14.8719 140.384 14.832 140.591 14.7489C140.797 14.6658 140.984 14.5412 141.14 14.3829C141.267 14.2364 141.362 14.066 141.421 13.8817L142.564 14.2485C142.423 14.5824 142.215 14.8839 141.953 15.1348C141.688 15.3857 141.374 15.581 141.032 15.7091C140.69 15.8372 140.326 15.8955 139.96 15.8805C138.249 15.8805 137.167 14.7375 137.167 12.9343C137.167 11.131 138.243 9.96966 139.893 9.96966C140.404 9.94033 140.911 10.072 141.343 10.3462C141.775 10.6203 142.111 11.0231 142.302 11.4978C142.487 11.9669 142.582 12.4666 142.583 12.9709C142.583 12.9709 142.583 13.0198 142.583 13.2399H138.414ZM141.366 12.2863C141.332 11.9373 141.182 11.61 140.938 11.3572C140.801 11.2229 140.637 11.1187 140.457 11.0513C140.277 10.984 140.085 10.9549 139.893 10.966C139.531 10.966 139.181 11.1013 138.913 11.3456C138.645 11.5898 138.478 11.9253 138.445 12.2863H141.366Z" fill="#004E83"/>
<path d="M147.919 15.2265C147.919 15.1104 147.919 15.0003 147.919 14.8781C147.714 15.2023 147.424 15.4632 147.079 15.6316C146.735 15.8 146.351 15.8693 145.969 15.8317C145.389 15.8634 144.817 15.6879 144.355 15.3365C144.011 15.0337 143.741 14.6556 143.566 14.2317C143.391 13.8077 143.316 13.3491 143.347 12.8915C143.347 11.125 144.361 10.0002 145.957 10.0002C146.484 9.97625 147.004 10.1337 147.43 10.4465C147.619 10.5977 147.784 10.7771 147.919 10.9782C147.919 10.8621 147.919 10.8621 147.919 10.6665C147.911 10.5281 147.911 10.3893 147.919 10.2508V9.28508C147.926 8.85007 147.903 8.41508 147.852 7.98309H149.203C149.155 8.41338 149.133 8.84607 149.135 9.27896V14.3891C149.129 14.8261 149.152 15.2631 149.203 15.6972H147.919V15.2265ZM146.195 14.7986C146.444 14.8034 146.69 14.7508 146.915 14.6447C147.14 14.5387 147.337 14.3822 147.491 14.1874C147.753 13.8071 147.886 13.3529 147.87 12.8915C147.87 12.4225 147.705 11.9685 147.406 11.6079C147.242 11.4381 147.047 11.3025 146.831 11.2091C146.615 11.1157 146.382 11.0663 146.146 11.0638C145.211 11.0638 144.612 11.8035 144.612 12.9526C144.612 14.1018 145.229 14.7986 146.195 14.7986Z" fill="#004E83"/>
<path d="M151.831 8.0014V9.22393H150.425V8.0014H151.831ZM151.831 10.1469C151.778 10.5665 151.755 10.9894 151.764 11.4123V14.4319C151.758 14.8547 151.781 15.2774 151.831 15.6972H150.425C150.478 15.2796 150.503 14.8589 150.499 14.438V11.3817C150.506 10.9607 150.481 10.5398 150.425 10.1225L151.831 10.1469Z" fill="#004E83"/>
<path d="M156.892 12.0052C156.831 11.7834 156.728 11.5757 156.587 11.3939C156.467 11.2474 156.314 11.1309 156.141 11.0534C155.968 10.976 155.78 10.9398 155.59 10.9477C154.643 10.9477 154.056 11.6934 154.056 12.8915C154.056 14.0896 154.667 14.8475 155.633 14.8475C155.94 14.8713 156.244 14.7789 156.485 14.5886C156.726 14.3983 156.887 14.1241 156.935 13.8206L158.158 14.0651C158.068 14.3591 157.929 14.6359 157.748 14.8842C157.5 15.2081 157.176 15.4664 156.806 15.6369C156.435 15.8073 156.028 15.8847 155.621 15.8622C153.922 15.8622 152.815 14.7131 152.815 12.9221C152.784 12.0984 153.081 11.296 153.64 10.691C153.897 10.4417 154.202 10.2474 154.536 10.1202C154.87 9.993 155.227 9.93554 155.584 9.95134C156.004 9.92921 156.422 10.0134 156.8 10.1962C157.179 10.3789 157.505 10.6542 157.748 10.9966C157.89 11.2177 158.003 11.456 158.084 11.7057L156.892 12.0052Z" fill="#004E83"/>
<path d="M160.493 8.0014V9.22393H159.075V8.0014H160.493ZM160.493 10.1469C160.439 10.5665 160.417 10.9894 160.425 11.4123V14.4319C160.42 14.8547 160.442 15.2774 160.493 15.6972H159.081C159.134 15.2796 159.158 14.8589 159.154 14.438V11.3817C159.161 10.9607 159.137 10.5398 159.081 10.1225L160.493 10.1469Z" fill="#004E83"/>
<path d="M161.691 15.6972C161.752 15.2804 161.778 14.8592 161.77 14.438V11.3817C161.779 10.9605 161.752 10.5393 161.691 10.1225H163.005V10.6359C163.012 10.7744 163.012 10.9131 163.005 11.0516C163.214 10.7213 163.507 10.4523 163.854 10.2719C164.2 10.0915 164.589 10.0062 164.979 10.0247C165.291 10.001 165.604 10.0538 165.89 10.1785C166.177 10.3031 166.428 10.4958 166.624 10.7399C166.881 11.1431 166.997 11.6204 166.954 12.0969V14.4135C166.945 14.8345 166.97 15.2555 167.027 15.6727H165.627C165.676 15.2548 165.698 14.8342 165.695 14.4135V12.268C165.719 11.975 165.662 11.6809 165.529 11.4184C165.44 11.287 165.318 11.1813 165.176 11.1116C165.033 11.0419 164.875 11.0107 164.716 11.021C164.02 11.021 163.451 11.5039 163.023 12.4636V14.4135C163.02 14.8346 163.047 15.2553 163.103 15.6727L161.691 15.6972Z" fill="#004E83"/>
<path d="M169.197 13.2399C169.197 13.629 169.322 14.0079 169.552 14.3218C169.699 14.4879 169.88 14.6219 170.081 14.7155C170.283 14.8092 170.502 14.8604 170.724 14.8662C170.946 14.8719 171.168 14.832 171.374 14.7489C171.58 14.6658 171.767 14.5412 171.923 14.3829C172.05 14.2364 172.145 14.066 172.204 13.8817L173.341 14.2485C173.2 14.5824 172.992 14.8839 172.73 15.1348C172.464 15.3857 172.151 15.581 171.809 15.7091C171.467 15.8372 171.102 15.8955 170.737 15.8805C169.026 15.8805 167.944 14.7375 167.944 12.9343C167.944 11.131 169.014 9.96966 170.67 9.96966C171.181 9.94033 171.688 10.072 172.12 10.3462C172.552 10.6203 172.887 11.0231 173.078 11.4978C173.264 11.9669 173.359 12.4666 173.36 12.9709C173.36 12.9709 173.36 13.0198 173.36 13.2399H169.197ZM172.143 12.2863C172.114 11.9372 171.965 11.6089 171.721 11.3572C171.584 11.2229 171.42 11.1187 171.24 11.0513C171.06 10.984 170.868 10.9549 170.676 10.966C170.313 10.9658 169.963 11.101 169.694 11.3451C169.425 11.5892 169.256 11.9248 169.221 12.2863H172.143Z" fill="#004E83"/>
<path d="M184.24 13.35C184.129 13.8733 183.909 14.3672 183.592 14.7986C183.259 15.1606 182.849 15.443 182.392 15.625C181.935 15.807 181.442 15.8839 180.952 15.85C180.495 15.8744 180.039 15.8045 179.611 15.6446C179.183 15.4848 178.792 15.2384 178.464 14.9209C177.77 14.0411 177.399 12.9496 177.413 11.8291C177.428 10.7086 177.827 9.62709 178.543 8.7655C178.868 8.45565 179.252 8.21427 179.672 8.05571C180.092 7.89715 180.54 7.82464 180.988 7.84249C181.631 7.82168 182.267 7.98271 182.822 8.30706C183.247 8.56809 183.601 8.93171 183.849 9.36457C183.979 9.60007 184.079 9.85047 184.148 10.1103L182.804 10.4159C182.733 10.1098 182.59 9.82495 182.388 9.58461C182.215 9.38177 181.998 9.22122 181.753 9.11527C181.508 9.00932 181.242 8.96079 180.976 8.97335C179.601 8.97335 178.769 10.0492 178.769 11.8279C178.769 13.6067 179.619 14.7009 180.976 14.7009C181.275 14.7187 181.575 14.6628 181.848 14.5382C182.12 14.4135 182.358 14.2238 182.541 13.9857C182.719 13.7183 182.83 13.4123 182.865 13.0932L184.24 13.35Z" fill="#004E83"/>
<path d="M186.239 13.2399C186.239 13.629 186.364 14.0079 186.594 14.3218C186.741 14.4879 186.922 14.6219 187.123 14.7155C187.325 14.8092 187.544 14.8604 187.766 14.8662C187.988 14.8719 188.21 14.832 188.416 14.7489C188.622 14.6658 188.809 14.5412 188.965 14.3829C189.092 14.2364 189.187 14.066 189.246 13.8817L190.389 14.2485C190.248 14.5824 190.04 14.8839 189.778 15.1348C189.513 15.3857 189.199 15.581 188.857 15.7091C188.515 15.8372 188.151 15.8955 187.785 15.8805C186.074 15.8805 184.992 14.7375 184.992 12.9343C184.992 11.131 186.062 9.96966 187.718 9.96966C188.229 9.94033 188.736 10.072 189.168 10.3462C189.6 10.6203 189.936 11.0231 190.127 11.4978C190.312 11.9669 190.407 12.4666 190.408 12.9709C190.408 12.9709 190.408 13.0198 190.408 13.2399H186.239ZM189.185 12.2863C189.156 11.9372 189.007 11.6089 188.763 11.3572C188.626 11.2229 188.462 11.1187 188.282 11.0513C188.102 10.984 187.91 10.9549 187.718 10.966C187.355 10.9658 187.005 11.101 186.736 11.3451C186.467 11.5892 186.298 11.9248 186.263 12.2863H189.185Z" fill="#004E83"/>
<path d="M191.38 15.6972C191.441 15.2804 191.467 14.8592 191.459 14.438V11.3817C191.468 10.9605 191.441 10.5393 191.38 10.1225H192.694V10.6359C192.701 10.7744 192.701 10.9131 192.694 11.0516C192.903 10.7213 193.196 10.4523 193.543 10.2719C193.889 10.0915 194.278 10.0062 194.668 10.0247C194.98 10.001 195.293 10.0538 195.579 10.1785C195.866 10.3031 196.117 10.4958 196.313 10.7399C196.57 11.1431 196.686 11.6204 196.643 12.0969V14.4135C196.634 14.8345 196.659 15.2555 196.716 15.6727H195.316C195.365 15.2548 195.387 14.8342 195.383 14.4135V12.268C195.408 11.975 195.351 11.6809 195.218 11.4184C195.129 11.287 195.007 11.1813 194.865 11.1116C194.722 11.0419 194.564 11.0107 194.405 11.021C193.709 11.021 193.14 11.5039 192.712 12.4636V14.4135C192.709 14.8346 192.736 15.2553 192.792 15.6727L191.38 15.6972Z" fill="#004E83"/>
<path d="M199.937 8.65547C199.893 9.06147 199.871 9.46957 199.87 9.87799V10.1775H200.274C200.601 10.1865 200.928 10.166 201.252 10.1164V11.2594C200.938 11.2128 200.621 11.1944 200.304 11.2044H199.87V14.1996C199.87 14.6764 200.041 14.8475 200.481 14.8475C200.734 14.8474 200.98 14.7731 201.19 14.6336L201.362 15.6605C200.972 15.8105 200.556 15.8792 200.139 15.8622C199.033 15.8622 198.586 15.4649 198.586 14.4502V11.2044H198.22C197.931 11.197 197.643 11.2154 197.358 11.2594V10.1103C197.644 10.1595 197.935 10.18 198.226 10.1714H198.586V9.87187C198.585 9.46348 198.563 9.05541 198.519 8.64935L199.937 8.65547Z" fill="#004E83"/>
<path d="M208.171 13.2399C208.171 13.629 208.296 14.0079 208.526 14.3218C208.673 14.4879 208.854 14.6219 209.055 14.7155C209.257 14.8092 209.476 14.8604 209.698 14.8662C209.92 14.8719 210.142 14.832 210.348 14.7489C210.554 14.6658 210.741 14.5412 210.897 14.3829C211.024 14.2364 211.119 14.066 211.178 13.8817L212.315 14.2485C212.176 14.5836 211.968 14.8856 211.704 15.1348C211.439 15.3857 211.125 15.581 210.783 15.7091C210.441 15.8372 210.077 15.8955 209.711 15.8805C208 15.8805 206.918 14.7375 206.918 12.9343C206.918 11.131 207.988 9.96966 209.644 9.96966C210.155 9.94033 210.662 10.072 211.094 10.3462C211.526 10.6203 211.862 11.0231 212.053 11.4978C212.238 11.9669 212.333 12.4666 212.334 12.9709C212.334 12.9709 212.334 13.0198 212.334 13.2399H208.171ZM211.117 12.2863C211.088 11.9372 210.939 11.6089 210.696 11.3572C210.558 11.2229 210.394 11.1187 210.214 11.0513C210.034 10.984 209.842 10.9549 209.65 10.966C209.287 10.9658 208.937 11.101 208.668 11.3451C208.399 11.5892 208.23 11.9248 208.196 12.2863H211.117Z" fill="#004E83"/>
<path d="M205.842 11.4C205.565 11.3039 205.274 11.2503 204.98 11.2411C204.77 11.2295 204.559 11.2665 204.365 11.3492C204.171 11.4318 203.999 11.558 203.862 11.7179C203.619 11.9829 203.479 12.325 203.464 12.6837V14.4747C203.461 14.8954 203.483 15.3159 203.532 15.7339H202.15C202.198 15.3158 202.22 14.8954 202.217 14.4747V11.4184C202.228 10.9975 202.205 10.5765 202.15 10.1592H203.464V11.0699C203.63 10.7337 203.894 10.4562 204.222 10.2748C204.55 10.0934 204.925 10.0167 205.298 10.0552C205.6 10.0644 205.901 10.0992 206.197 10.1592L205.842 11.4Z" fill="#004E83"/>
<path d="M60.2581 35.0558C59.5043 35.6923 58.7078 36.2763 57.8742 36.804C57.575 35.9846 57.1228 35.2296 56.5417 34.579C58.5005 33.5622 60.2376 32.1658 61.6518 30.4713H59.5124C58.631 30.4523 57.7493 30.4849 56.8717 30.5691V28.0507C57.7487 28.1439 58.6306 28.1827 59.5124 28.1669H63.1799C63.4537 27.6927 63.6595 27.1824 63.7912 26.651L66.5663 27.0055C66.4227 27.2087 66.3037 27.4283 66.2118 27.6596C66.1323 27.8124 66.0712 27.9346 65.9367 28.1669H72.3061C73.1736 28.1827 74.0413 28.1439 74.9039 28.0507V30.5691C74.0409 30.4824 73.1732 30.4497 72.3061 30.4713H67.905V32.0606H71.4809C72.093 32.0717 72.7053 32.0472 73.3147 31.9873C73.2531 32.5147 73.2265 33.0456 73.2352 33.5766V37.0791C73.2352 38.0449 73.0396 38.4972 72.5078 38.8273C71.9136 39.0871 71.2663 39.2023 70.619 39.1635C70.3439 39.1635 70.1055 39.1635 69.3048 39.1268C69.2378 38.3388 69.0437 37.5668 68.7302 36.8407C69.2059 36.9125 69.6857 36.9534 70.1667 36.9629C70.619 36.9629 70.7779 36.8651 70.7779 36.5901V34.2856H67.905V38.161C67.8887 38.8781 67.9275 39.5954 68.0211 40.3066H65.3255C65.4206 39.5955 65.4614 38.8783 65.4477 38.161V34.2856H62.7093V37.2563C62.6921 37.9526 62.7248 38.6492 62.8071 39.3408H60.1114C60.2014 38.6497 60.2423 37.9531 60.2337 37.2563L60.2581 35.0558ZM71.0774 27.8735C69.6631 27.0996 68.2105 26.3978 66.7253 25.7708C64.1963 26.6155 61.5959 27.2292 58.9561 27.6045C58.6089 26.8601 58.1376 26.18 57.5625 25.5935C59.572 25.4302 61.5614 25.0761 63.5039 24.536C62.2089 24.0566 60.8887 23.6485 59.5491 23.3135L61.8535 21.9381C63.1677 22.3293 64.4269 22.745 66.5725 23.5336C67.7651 23.077 68.89 22.4601 69.916 21.6998L72.6667 23.0201C72.3266 23.1671 71.9977 23.3387 71.6826 23.5336C70.9552 23.9248 70.0933 24.3954 69.5004 24.6888C70.0322 24.9089 71.2119 25.4407 73.0212 26.2842L71.0774 27.8735ZM65.46 32.0606V30.4713H64.5125C64.1275 31.0277 63.7069 31.5586 63.2533 32.0606H65.46Z" fill="#004E83"/>
<path d="M77.9969 25.1167C77.4659 25.1063 76.9349 25.1328 76.4076 25.1962V22.7022C76.9942 22.7675 77.584 22.8002 78.1742 22.8001H80.8698C81.4824 22.8006 82.0946 22.7679 82.7036 22.7022V25.1962C82.1823 25.1353 81.6575 25.1088 81.1327 25.1167H80.7781V28.4053H80.9554C81.3949 28.415 81.8345 28.3884 82.2696 28.3258V30.7709C81.8339 30.7146 81.3948 30.688 80.9554 30.6914H80.7781V34.2734C81.1082 34.1756 81.3466 34.0961 82.3919 33.7416L82.4897 36.0216C80.8969 36.7159 79.264 37.314 77.5996 37.8126C77.2817 37.9288 76.8905 38.0693 76.5971 38.1855L76.1203 35.4715C76.8699 35.38 77.6089 35.2162 78.327 34.9825V30.7037H78.1314C77.6626 30.6948 77.1939 30.7295 76.7316 30.8076V28.3258C77.1808 28.391 77.6348 28.4176 78.0886 28.4053H78.327V25.1167H77.9969ZM84.8247 34.2856C84.6678 36.236 84.1757 38.1446 83.3699 39.9276L81.5361 38.8273C82.408 37.3343 82.9266 35.6616 83.052 33.9372L84.8247 34.2856ZM90.4483 31.5288H92.6733C93.2694 31.5437 93.8658 31.5172 94.4582 31.4494C94.4582 31.6878 94.4031 32.4335 94.3604 33.7355C94.2259 37.2747 93.9875 38.6256 93.4007 39.3958C92.9239 40.007 92.1782 40.2026 90.5461 40.2026C90.1121 40.2026 89.837 40.2027 89.2258 40.1476C89.2341 39.3564 89.1292 38.568 88.914 37.8065L87.9116 37.9838C87.8437 36.7524 87.6926 35.5271 87.4592 34.3162L88.914 34.1023C89.2375 35.2769 89.4423 36.481 89.5253 37.6965L89.0302 37.8004C89.1233 37.7964 89.2164 37.8088 89.3052 37.8371C89.7731 37.9266 90.2472 37.9797 90.7233 37.996C91.2124 37.996 91.4935 37.8737 91.6097 37.562C91.8481 37.073 91.9642 35.8321 91.9826 33.5277H85.3137C84.2746 33.5277 83.7 33.5277 83.1498 33.5888C83.2219 32.7657 83.2484 31.9392 83.2293 31.1132V24.7805C83.2454 24.0111 83.2128 23.2414 83.1315 22.4761C83.9734 22.5735 84.8209 22.6144 85.6682 22.5983H91.8664C92.6995 22.6105 93.5325 22.5697 94.3604 22.4761V24.7805C93.6292 24.7071 92.8946 24.6745 92.1598 24.6828H90.4483V25.7219H92.0437C92.5686 25.7351 93.0937 25.7085 93.6146 25.6424V27.6107C93.0997 27.5468 92.5808 27.5202 92.062 27.5312H90.4483V28.5948H92.062C92.5747 28.6053 93.0874 28.5787 93.5963 28.5153V30.4836C93.0931 30.4252 92.5868 30.3987 92.0803 30.4041H90.4483V31.5288ZM86.8907 34.2245C87.0679 35.423 87.1659 36.6318 87.1842 37.8432V38.7478L85.277 38.9434C85.332 38.0021 85.3504 37.5681 85.3504 36.7429C85.3504 35.9177 85.3504 35.3676 85.277 34.2979L86.8907 34.2245ZM88.205 24.6888H85.6682V25.728H88.205V24.6888ZM88.205 27.5373H85.6682V28.6009H88.205V27.5373ZM85.6682 30.4103V31.5044H88.205V30.3858L85.6682 30.4103ZM90.7417 33.8883C91.1028 34.7689 91.3871 35.6789 91.5913 36.6084L90.1916 37.0363C90.008 36.0846 89.7442 35.1501 89.403 34.2428L90.7417 33.8883Z" fill="#004E83"/>
<path d="M105.748 28.5826C105.412 28.8393 105.235 28.9554 104.727 29.31C105.412 30.1154 105.975 31.0175 106.396 31.9873C107.11 33.5637 107.492 35.2696 107.521 36.9997C107.521 38.3383 107.203 39.2246 106.537 39.7136C106.084 40.0682 105.375 40.2027 104.153 40.2027C103.627 40.2027 102.857 40.166 102.319 40.1293C102.261 39.3425 102.075 38.5704 101.769 37.8432C100.413 38.5999 98.9986 39.2459 97.5389 39.7748C97.1828 38.9802 96.6905 38.2541 96.0841 37.6293C99.1051 36.8352 101.953 35.4881 104.483 33.6561C104.324 33.2037 104.269 33.0448 104.147 32.7697C102.065 34.1029 99.8166 35.1552 97.4594 35.8994C97.1633 35.1789 96.7387 34.5182 96.2063 33.9495C99.3971 33.0876 101.323 32.3418 103.248 31.156C103.092 30.924 102.923 30.7015 102.741 30.4897C101.152 31.2949 99.4734 31.9104 97.7406 32.3235C97.4604 31.606 97.0616 30.9406 96.5609 30.3552C98.5447 30.1317 100.468 29.5321 102.227 28.5887H100.711C100.062 28.5878 99.4134 28.6205 98.7675 28.6865V27.6229H96.4447C96.5239 27.1484 96.5567 26.6673 96.5426 26.1864V24.695C96.5525 24.227 96.5259 23.759 96.4631 23.2952C97.2151 23.3609 97.97 23.3874 98.7248 23.3747H103.682V23.0629C103.688 22.6665 103.649 22.2708 103.566 21.8832H106.414C106.339 22.2635 106.306 22.6509 106.317 23.0385V23.3747H111.567C112.33 23.3874 113.093 23.3609 113.853 23.2952C113.789 23.7589 113.763 24.227 113.774 24.695V26.2109C113.761 26.6836 113.794 27.1565 113.872 27.6229H111.531V28.6865C110.884 28.6112 110.232 28.5785 109.581 28.5887H108.639C108.76 29.3869 108.938 30.1754 109.171 30.9482C109.93 30.3127 110.622 29.602 111.237 28.8271L113.401 30.5936C113.316 30.6674 113.224 30.7329 113.126 30.7893C112.808 31.0276 112.71 31.0888 112.142 31.5778C111.573 32.0668 110.43 32.9715 110.113 33.1915C111.138 34.8961 112.664 36.243 114.483 37.0486C113.803 37.7702 113.208 38.5681 112.71 39.4264C110.094 37.4581 108.878 36.0216 107.82 33.6805C107.076 32.0588 106.546 30.3472 106.243 28.5887L105.748 28.5826ZM111.335 25.5691H98.9815V26.4799C99.4521 26.5165 99.7884 26.5349 100.711 26.5349H109.581C110.166 26.5592 110.752 26.5408 111.335 26.4799V25.5691ZM101.891 37.7943C102.483 37.8947 103.082 37.9479 103.682 37.9532C104.782 37.9532 104.978 37.6965 104.978 36.2967V35.826C104.004 36.5687 102.972 37.231 101.891 37.8065V37.7943Z" fill="#004E83"/>
<path d="M123.86 22.9773C123.864 22.6203 123.832 22.2639 123.762 21.9137H126.5C126.435 22.2766 126.409 22.6454 126.421 23.014V23.289H131.311C132.113 23.297 132.915 23.2582 133.713 23.1729V25.569C133.139 25.5123 132.561 25.4879 131.983 25.4957H119.251C119.251 31.4555 119.116 33.8516 118.64 36.2111C118.357 37.623 117.86 38.9834 117.166 40.2454C116.634 39.4574 115.999 38.7441 115.278 38.1243C116.015 36.7128 116.456 35.165 116.574 33.5766C116.786 31.2234 116.872 28.8605 116.83 26.4982V25.0617C116.83 24.1754 116.83 23.7658 116.751 23.1912C117.539 23.2524 118.285 23.289 119.196 23.289H123.872L123.86 22.9773ZM120.889 33.0876C121.119 33.7209 121.431 34.3211 121.818 34.8724C122.165 34.1826 122.39 33.4382 122.484 32.6719H120.95C120.57 32.6531 120.189 32.6736 119.813 32.733V30.8931C120.655 30.1954 121.383 29.3704 121.971 28.4481H120.993C120.631 28.4417 120.269 28.4683 119.911 28.5275V26.2659C120.34 26.3321 120.773 26.3587 121.207 26.3453H122.607C123.058 26.3595 123.51 26.3391 123.958 26.2842L125.101 27.6229C124.942 27.8368 124.667 28.2341 123.878 29.2794C123.56 29.6889 123.09 30.2574 122.735 30.6547H123.958C124.293 30.6605 124.628 30.64 124.96 30.5936L124.783 32.0117C124.637 33.5538 124.204 35.055 123.505 36.4373C124.917 37.2441 126.378 37.4947 129.483 37.4947C131.018 37.4947 132.277 37.4397 134.166 37.3236C133.831 38.1627 133.599 39.039 133.475 39.9337C132.118 39.9764 131.452 39.9765 130.877 39.9765C126.195 39.9765 124.251 39.5853 122.264 38.2283C121.467 39.0913 120.521 39.8036 119.471 40.331C119.069 39.5931 118.581 38.9057 118.016 38.2833C118.934 37.8787 119.772 37.3135 120.492 36.6145C120.118 36.1635 119.79 35.6761 119.514 35.1597C119.098 34.4506 119.098 34.4507 119 34.2734L120.889 33.0876ZM131.751 34.1878C132.19 34.1964 132.629 34.176 133.065 34.1267V36.4311C132.611 36.3569 132.15 36.3302 131.69 36.3517H126.892C126.342 36.3517 125.987 36.3517 125.535 36.4067V34.1267C125.997 34.1832 126.463 34.2036 126.928 34.1878H128.053V32.3968H126.696C126.085 32.3968 125.846 32.3968 125.296 32.4579V30.1352C125.794 30.1808 126.294 30.2012 126.794 30.1963H128.053V28.6987C127.008 28.8209 126.733 28.8393 125.773 28.9188C125.638 28.1713 125.378 27.452 125.003 26.7915C127.876 26.7915 130.706 26.3209 132.106 25.6302L133.328 27.7146C132.383 28.0046 131.416 28.2212 130.437 28.3625V30.1963H132.087C132.594 30.2006 133.1 30.174 133.603 30.1168V32.4763C133.101 32.4115 132.594 32.3849 132.087 32.3968H130.437V34.1878H131.751Z" fill="#004E83"/>
<path d="M137.589 32.5374C136.866 32.5282 136.144 32.5608 135.425 32.6352V30.6486C136.143 30.7323 136.866 30.765 137.589 30.7464H151.77C152.33 30.7722 152.891 30.7394 153.445 30.6486V32.6107C152.62 32.5557 151.911 32.5374 151.085 32.5374H146.953V33.0875H149.924C150.829 33.0875 151.672 33.0875 152.027 33.0264C151.965 33.6602 151.939 34.2968 151.947 34.9335V38.3199C151.944 38.9956 151.977 39.671 152.045 40.3432H149.508V39.7319H139.282V40.3432H136.837C136.892 39.6953 136.935 39.0473 136.935 38.3382V34.8357C136.935 34.2856 136.935 33.7538 136.855 33.002C137.228 33.0447 138.078 33.0631 138.982 33.0631H141.556C141.578 32.8805 141.59 32.6969 141.592 32.5129L137.589 32.5374ZM142.943 25.8869C143.37 25.9017 143.797 25.8813 144.221 25.8258V27.0483C144.156 27.0403 144.09 27.0403 144.025 27.0483C143.707 27.0483 143.414 27.0055 143.115 27.0055H142.607C143.113 27.4134 143.683 27.7337 144.294 27.9529C144.016 28.1855 143.765 28.4501 143.549 28.7414C144.044 28.7414 144.044 28.7415 144.355 28.6803V30.2818C144.062 30.2818 143.273 30.2207 142.766 30.2207H137.534C137.161 30.2207 136.629 30.2207 135.92 30.2574C135.982 29.7034 136.009 29.146 135.999 28.5886V24.0653C135.999 23.3135 135.999 22.8856 135.92 22.1765C136.488 22.2418 137.06 22.2684 137.632 22.256H142.479C143.122 22.2659 143.765 22.2332 144.404 22.1582V23.8086C144.227 23.8086 144.227 23.8086 143.793 23.7719H142.748H140.7L140.486 24.2487H142.632C143.071 24.2605 143.511 24.2339 143.946 24.1692V25.3917C143.51 25.3435 143.071 25.3231 142.632 25.3306H142.234C142.198 25.5874 142.198 25.6668 142.161 25.8807L142.943 25.8869ZM139.459 27.0055C139.11 27.0065 138.761 27.0269 138.414 27.0666V25.8441C138.616 25.8784 138.82 25.8988 139.025 25.9052C138.756 25.635 138.452 25.4027 138.121 25.2145C138.61 24.8305 138.997 24.3305 139.245 23.7597H138.023V28.7598H138.97C138.754 28.449 138.487 28.1763 138.182 27.9529C138.875 27.8439 139.517 27.5187 140.015 27.0238L139.459 27.0055ZM140.914 36.4861C140.47 36.0125 139.952 35.614 139.38 35.3064C139.719 35.2827 140.05 35.1884 140.351 35.0295C140.652 34.8705 140.917 34.6505 141.128 34.3834H139.264V36.4861H140.914ZM139.264 37.7453V38.2955H149.508V37.7453H139.264ZM140.559 25.8869C140.594 25.7054 140.615 25.5214 140.621 25.3367H139.814C139.658 25.5343 139.487 25.7184 139.3 25.8869H140.559ZM142.705 28.7414C142.209 28.407 141.772 27.9941 141.409 27.5189C141.041 28.0206 140.57 28.4375 140.028 28.7414H142.705ZM149.508 36.4861V35.447C149.421 35.5899 149.301 35.7092 149.157 35.7944C149.013 35.8797 148.85 35.9283 148.683 35.936C148.175 36.0062 147.662 36.0388 147.149 36.0338C145.26 36.0338 144.826 35.8627 144.826 35.1108V34.3834H143.432C143.262 34.8894 142.97 35.3457 142.582 35.7124C142.194 36.079 141.722 36.3448 141.207 36.4861H149.508ZM143.726 32.5374C143.726 32.8491 143.726 32.9286 143.689 33.0875H144.826V32.5374H143.726ZM150.279 25.8135C150.687 25.8255 151.095 25.8071 151.501 25.7585L152.485 26.7793C152.326 26.9199 152.271 26.9749 152.112 27.1338C151.635 27.6538 151.093 28.11 150.499 28.4908C151.521 28.7135 152.563 28.8384 153.61 28.8637C153.186 29.3963 152.854 29.9953 152.626 30.6364C151.211 30.4688 149.822 30.1238 148.494 29.6095C147.465 30.0592 146.388 30.3894 145.285 30.5936C145.084 30.025 144.815 29.4831 144.484 28.9798C145.176 28.9102 145.86 28.773 146.525 28.5703C146.076 28.2738 145.649 27.9449 145.248 27.5862L146.782 27.1338H146.25C145.699 27.1221 145.148 27.1486 144.6 27.2133V25.7402C144.814 25.773 145.031 25.7914 145.248 25.7952C144.987 25.3005 144.642 24.8556 144.227 24.481C144.665 24.3858 145.062 24.1573 145.364 23.8269C145.621 23.5035 145.761 23.1029 145.761 22.69C145.774 22.5068 145.774 22.323 145.761 22.1398C146.211 22.1978 146.665 22.2223 147.118 22.2132H149.563C150.003 22.2214 150.442 22.1969 150.878 22.1398C150.83 22.4575 150.81 22.7785 150.816 23.0995V23.7108C150.816 24.0286 150.859 24.047 151.293 24.047C151.904 24.047 151.904 23.9675 151.959 22.7511C152.486 23.0205 153.051 23.2062 153.634 23.3012C153.638 23.8776 153.48 24.4434 153.176 24.9333C152.864 25.3245 152.351 25.4223 150.841 25.4223C149.129 25.4223 148.909 25.3062 148.909 24.4382V23.8269H147.436C147.397 24.2619 147.235 24.6769 146.97 25.0241C146.705 25.3712 146.348 25.6364 145.939 25.7891L150.279 25.8135ZM146.953 34.5607C146.953 34.8969 147.069 34.9763 147.601 34.9763C148.133 34.9763 148.212 34.8541 148.292 34.4629C148.666 34.7138 149.079 34.8997 149.514 35.013V34.4017H146.941L146.953 34.5607ZM147.265 27.1461C147.631 27.4528 148.043 27.6984 148.488 27.8735C148.93 27.6961 149.343 27.4507 149.71 27.1461H147.265Z" fill="#004E83"/>
<path d="M165.462 38.1426C165.504 38.4855 165.448 38.8332 165.301 39.1457C165.154 39.4583 164.922 39.7229 164.631 39.9092C163.764 40.2304 162.838 40.3577 161.917 40.282C161.703 40.282 161.703 40.282 160.658 40.2454C160.592 39.4952 160.413 38.7594 160.126 38.0632C160.753 38.1342 161.384 38.173 162.015 38.1793C162.883 38.1793 162.999 38.1243 162.999 37.6903V36.9201H157.944C157.052 36.9051 156.16 36.946 155.273 37.0424V34.7563C156.153 34.8518 157.04 34.8906 157.925 34.8724H162.999C162.999 34.6585 162.999 34.4812 162.962 34.145H163.745C164.311 33.9634 164.853 33.713 165.358 33.3992H160.737C160.062 33.3841 159.386 33.4106 158.714 33.4787V31.5043C159.309 31.5695 159.907 31.596 160.505 31.5838H166.929C167.416 31.59 167.903 31.5573 168.384 31.486L169.607 32.7085C169.154 32.9572 168.727 33.2478 168.329 33.5765C167.574 34.0932 166.776 34.5451 165.945 34.9274H170.224C171.118 34.9458 172.012 34.907 172.901 34.8112V37.0974C172.006 37.0013 171.106 36.9605 170.206 36.9751H165.462V38.1426ZM166.893 26.2597C166.342 26.6937 166.147 26.871 165.792 27.0849L166.893 27.8551L165.615 29.0165H169.49V28.4052H168.311C167.742 28.4052 167.486 28.4052 167.247 28.4419V26.9076C167.599 26.9628 167.955 26.9833 168.311 26.9688H169.588V26.3575H168.286C167.779 26.3575 167.479 26.3575 167.223 26.3942V24.8416C167.574 24.896 167.931 24.9165 168.286 24.9027H169.686V24.2915H168.311C167.858 24.2915 167.559 24.2915 167.186 24.3343V22.4454C167.643 22.5133 168.106 22.5399 168.567 22.5249H170.652C171.097 22.5336 171.543 22.507 171.984 22.4454C171.929 22.8978 171.887 23.3868 171.868 23.8819L171.593 29.0349C172.162 29.0349 172.339 29.0348 172.816 28.9737C172.752 29.4948 172.726 30.0198 172.736 30.5447V31.3148C172.728 31.8132 172.755 32.3116 172.816 32.8063H170.413V30.8931H157.711V32.8002H155.315C155.374 32.2991 155.4 31.7949 155.395 31.2904V30.5263C155.404 30.0015 155.377 29.4767 155.315 28.9554C155.81 28.9921 155.963 28.9921 156.636 29.0165L156.397 24.3343C156.361 23.723 156.318 23.3501 156.281 22.9956C158.115 22.7817 159.643 22.3843 160.309 21.932L161.336 23.723C161.278 23.726 161.222 23.7474 161.177 23.7841C161.141 23.7841 160.902 23.8636 160.487 23.998C159.854 24.1769 159.211 24.3158 158.561 24.4137L158.598 24.9027H159.881C160.234 24.9082 160.587 24.896 160.939 24.8661V26.4003C160.587 26.3675 160.234 26.3532 159.881 26.3575H158.659V26.9688H159.845C160.198 26.9813 160.552 26.9608 160.902 26.9076V27.6534C161.543 27.5068 162.169 27.3022 162.773 27.0421C162.339 26.8099 162.082 26.6693 161.355 26.3392L162.064 25.7279C161.766 25.2289 161.395 24.7776 160.963 24.3893C161.579 24.2453 162.179 24.0405 162.754 23.778C162.33 23.5319 161.889 23.3154 161.434 23.1301L162.559 22.0848C163.15 22.3434 163.728 22.6331 164.289 22.9528C164.753 22.6788 165.177 22.3414 165.548 21.9503L166.929 22.9467C166.361 23.3807 166.165 23.5579 165.75 23.8147C166.141 24.0714 166.318 24.1876 166.831 24.5604L165.829 25.5079L166.893 26.2597ZM162.003 29.0165C161.727 28.5079 161.36 28.0542 160.921 27.6778V28.448C160.67 28.448 160.413 28.4114 159.863 28.4114H158.757L158.8 29.0226L162.003 29.0165ZM165.603 29.0165C165.198 28.6434 164.771 28.2943 164.325 27.9712C163.601 28.3929 162.837 28.743 162.045 29.0165H165.603ZM164.289 26.1802C164.633 25.9572 164.96 25.7079 165.267 25.4345C164.965 25.1633 164.644 24.914 164.307 24.6888C163.818 24.9641 163.312 25.2071 162.791 25.4162C163.307 25.6453 163.811 25.9003 164.301 26.1802H164.289Z" fill="#004E83"/>
<path d="M182.351 24.1142C182.374 23.3848 182.335 22.6549 182.235 21.932H185.163C185.076 22.6233 185.037 23.3197 185.047 24.0164V25.1167H190.243C190.885 25.1279 191.528 25.1035 192.168 25.0433C192.103 25.6523 192.077 26.2648 192.089 26.8771V33.112C192.07 33.794 192.103 34.4764 192.187 35.1535H189.473V34.0533H185.047V37.7942C185.028 38.6421 185.075 39.4903 185.188 40.3309H182.211C182.315 39.4895 182.36 38.6419 182.345 37.7942V34.0533H178.115V35.1535H175.401C175.481 34.4761 175.513 33.7939 175.499 33.112V26.8282C175.506 26.2323 175.481 25.6366 175.426 25.0433C176.054 25.0997 176.684 25.1242 177.315 25.1167H182.345L182.351 24.1142ZM178.121 27.5801V31.5716H182.351V27.5801H178.121ZM189.473 31.5716V27.5801H185.047V31.5716H189.473Z" fill="#004E83"/>
<path d="M194.033 36.0583C195.255 33.6927 195.707 31.9078 196.099 27.953L198.635 28.5642C198.085 33.4543 197.755 34.8969 196.569 37.5131L194.033 36.0583ZM206.129 27.2256C204.296 26.003 202.749 25.2756 199.344 24.1142L200.818 21.8709C203.212 22.5728 205.523 23.5363 207.706 24.7438L206.129 27.2256ZM202.217 36.8407C202.217 37.2563 202.554 37.3542 204.088 37.3542C205.42 37.3542 205.922 37.2136 206.129 36.8224C206.386 36.2906 206.527 34.9886 206.545 32.9286C207.382 33.3427 208.267 33.6527 209.18 33.8516C209.002 36.6451 208.807 37.7454 208.336 38.6134C208.056 39.1084 207.6 39.4795 207.059 39.6525C205.908 39.8964 204.731 39.9889 203.556 39.9276C201.313 39.9276 200.549 39.8114 200.017 39.3591C199.638 39.0412 199.485 38.5522 199.485 37.6292V28.387C199.485 27.6965 199.444 27.0066 199.363 26.3209H202.334C202.258 26.9804 202.219 27.6437 202.217 28.3075V36.8407ZM210.359 37.1158C209.701 34.179 208.642 31.3468 207.211 28.6987L209.711 27.5984C211.127 30.1866 212.229 32.9342 212.994 35.7832L210.359 37.1158Z" fill="#004E83"/>
</g>
<defs>
<clipPath id="clip0_11_205">
<rect width="213" height="48.7481" fill="white"/>
</clipPath>
</defs>
</svg>
