<svg width="151" height="49" viewBox="0 0 151 49" fill="none" xmlns="http://www.w3.org/2000/svg">
<g clip-path="url(#clip0_14_2)">
<path d="M0.646756 40.8913H1.49562C1.76461 40.9143 2.03507 40.9143 2.30406 40.8913C2.42533 41.3521 2.52235 41.6997 2.66787 42.0878L2.86189 42.6375L4.17967 46.7444L5.92592 42.1848C6.09187 41.7616 6.23491 41.3298 6.35439 40.8913H7.32454H7.59132C7.81484 40.9027 8.03882 40.9027 8.26234 40.8913H8.37551V41.1661H7.88237C7.43772 41.1661 7.3407 41.3278 7.3407 41.9746C7.3407 42.783 7.34069 43.9068 7.40536 45.3458C7.40536 45.5156 7.40536 45.7905 7.40536 46.1543C7.40536 46.3564 7.40536 46.51 7.40536 46.6231C7.40536 47.2457 7.51047 47.3589 7.86619 47.3589H8.28659V47.6984H7.73683H6.99307C6.67778 47.6984 6.13612 47.6984 5.70764 47.6984H5.45703V47.4074H5.94208C6.35438 47.4074 6.48375 47.2376 6.48375 46.6555V46.5665L6.37865 43.2196C6.37865 43.2196 6.37865 42.969 6.37865 42.5971V41.6593L6.25738 42.0878C6.20888 42.2171 6.11995 42.5405 5.90166 43.0498V43.1306V43.2196L5.25492 44.9658L4.59198 46.898L4.27668 47.7954H3.63802C3.32273 46.7687 3.26614 46.5181 2.98318 45.7177L2.37685 44.0281L2.296 43.8179C2.296 43.7047 2.20707 43.4945 2.09388 43.1872C1.91602 42.7365 1.76748 42.2748 1.64922 41.8048C1.64922 42.5567 1.64922 42.7103 1.60072 43.1792L1.4633 46.2917C1.4633 46.3968 1.4633 46.5019 1.4633 46.6231C1.4633 47.3103 1.55221 47.4316 2.10195 47.4316H2.35257V47.6984C2.01302 47.6984 1.68158 47.6984 1.18843 47.6984C0.881436 47.682 0.573775 47.682 0.266785 47.6984V47.4074H0.638664C0.986296 47.4074 1.07522 47.1567 1.11564 46.0896L1.26925 42.3222V42.0393C1.26925 41.2308 1.22076 41.1419 0.905465 41.1419H0.307197V40.867L0.646756 40.8913Z" fill="#826232"/>
<path d="M10.8656 40.9155H11.7225C12.1186 40.9155 12.7977 40.9155 13.1373 40.9155H13.4687V41.247C13.396 41.8614 13.4121 42.3546 13.396 42.969H13.0807C13.0807 42.1121 13.0079 41.821 12.7331 41.5542C12.5446 41.4078 12.3289 41.3002 12.0985 41.2377C11.8682 41.1753 11.6277 41.1592 11.391 41.1904C11.1202 41.1896 10.8498 41.2113 10.5826 41.2551C10.5826 41.5057 10.5826 41.6997 10.5826 41.8291C10.5826 41.9584 10.5826 42.1929 10.5826 42.2657V44.1493H11.4719C12.2803 44.1493 12.4258 43.9957 12.4258 43.3409H12.7896C12.7896 43.923 12.7411 44.1897 12.7411 44.594C12.7411 44.8527 12.7411 44.9901 12.7411 45.3216H12.3693V45.1599C12.3693 44.5455 12.1914 44.4565 10.8979 44.4565H10.526V46.2108C10.526 47.3669 10.5664 47.4235 11.2455 47.4235C12.2156 47.4235 12.6522 47.3346 12.9271 47.1164C13.202 46.8981 13.299 46.5019 13.3151 45.6207H13.6304V45.9602C13.6304 46.5908 13.6304 47.1164 13.7032 47.7227H10.9626H9.93582C9.45883 47.7227 9.16779 47.7227 8.82825 47.7227V47.4316H9.21631C9.53161 47.4316 9.60435 47.3103 9.60435 46.7283V41.821C9.60435 41.3521 9.49926 41.2146 9.15971 41.2146H8.86059V40.9398L10.8656 40.9155Z" fill="#826232"/>
<path d="M14.6167 40.9074C15.118 40.9074 15.3363 40.9074 15.5788 40.9074C15.9668 40.9074 16.3468 40.9074 16.8238 40.9074H17.2765C17.6712 40.8764 18.0681 40.9272 18.4423 41.0566C18.8165 41.1859 19.16 41.3911 19.4513 41.6593C20.008 42.2814 20.2983 43.0971 20.2597 43.931C20.2597 46.3968 19.047 47.6903 16.7349 47.6903H15.9992H15.0695C14.7411 47.6675 14.4115 47.6675 14.0832 47.6903V47.3993H14.2691C14.8269 47.3993 14.9159 47.2861 14.9159 46.5908V41.7401C14.9159 41.2793 14.8027 41.158 14.3823 41.158H14.0832V40.8832L14.6167 40.9074ZM15.886 46.7606C15.886 47.2538 16.0153 47.3912 16.4762 47.3912C16.8377 47.421 17.2016 47.3777 17.5461 47.2638C17.8906 47.1499 18.2086 46.9678 18.4811 46.7282C19.0666 46.0015 19.3555 45.0802 19.2896 44.1493C19.3176 43.2782 19.0497 42.4233 18.5296 41.7239C18.28 41.5109 17.9909 41.3492 17.6788 41.2479C17.3667 41.1467 17.0377 41.1079 16.7106 41.1338C16.4519 41.1338 16.1528 41.1338 15.9022 41.1338C15.8636 41.4367 15.8474 41.7421 15.8537 42.0473L15.886 46.7606Z" fill="#826232"/>
<path d="M20.8499 40.8832C21.5936 40.8832 21.7391 40.8832 22.2646 40.8832H22.4182C22.8225 40.8832 23.2267 40.8832 23.7279 40.8832V41.158H23.1216C22.7093 41.158 22.6204 41.3278 22.6204 41.9665V46.3483C22.6204 47.3023 22.6204 47.3589 23.2509 47.3589H23.6875V47.6984H22.2404H22.0706C21.3996 47.6984 21.2622 47.6984 20.8175 47.6984V47.4074H21.2622C21.6502 47.4074 21.723 47.2538 21.723 46.2998V41.8048C21.723 41.3117 21.6179 41.1904 21.2056 41.1904H20.8741L20.8499 40.8832Z" fill="#826232"/>
<path d="M29.6943 45.6207C29.6604 46.2118 29.3963 46.7661 28.9586 47.1648C28.4743 47.5761 27.8556 47.7948 27.2204 47.7792C25.4499 47.7792 24.4313 46.6474 24.4313 44.699C24.3666 43.9494 24.5355 43.1981 24.9147 42.5482C25.294 41.8983 25.865 41.3816 26.5494 41.0691C27.1045 40.8495 27.6991 40.7477 28.2957 40.77C28.7453 40.7682 29.1934 40.8225 29.6296 40.9317C29.5488 41.7401 29.5002 42.2737 29.4679 43.1468H29.1849C29.2106 42.5621 29.024 41.9878 28.6594 41.5299C28.5196 41.3831 28.3516 41.2659 28.1654 41.1854C27.9793 41.1048 27.7789 41.0625 27.5761 41.061C26.2745 41.061 25.3852 42.3869 25.3852 44.2948C25.3852 46.041 26.3069 47.3265 27.6004 47.3265C28.0883 47.3299 28.5594 47.1479 28.9182 46.8172C29.273 46.4957 29.4902 46.0498 29.5245 45.5722L29.6943 45.6207Z" fill="#826232"/>
<path d="M34.1973 40.77C34.3671 41.3844 34.4237 41.5785 34.5288 41.9342L34.7147 42.5082L34.9088 43.0984L35.5474 44.9497C35.604 45.0952 35.6929 45.3459 35.8304 45.7016C35.9678 46.0573 36.081 46.3645 36.275 46.8657C36.4691 47.3669 36.5742 47.375 36.9056 47.375H37.0673V47.6984H36.849C36.3074 47.6984 35.9678 47.6984 35.507 47.6984C34.9168 47.6984 34.6986 47.6984 34.2297 47.6984V47.4074H34.6743C35.0543 47.4074 35.2564 47.278 35.2564 47.0032C35.2601 46.8821 35.2409 46.7614 35.1998 46.6474L34.5854 44.8203C34.0276 44.8203 33.7769 44.7718 33.3404 44.7718C32.9038 44.7718 32.7825 44.7718 32.3298 44.7718L31.6103 46.6151C31.5606 46.7302 31.5332 46.8536 31.5295 46.9789C31.5295 47.2538 31.7316 47.375 32.1196 47.375H32.4672V47.6984H31.9256H31.3597C30.9827 47.6767 30.6048 47.6767 30.2278 47.6984V47.4074C30.325 47.4155 30.4227 47.4015 30.5137 47.3665C30.6047 47.3315 30.6866 47.2764 30.7533 47.2053C30.9249 47.0104 31.0592 46.7857 31.1495 46.5423C31.7558 45.1842 32.1681 44.2868 32.346 43.8421L32.5804 43.2762L32.7583 42.8801C33.0251 42.3061 33.2191 41.7967 33.3646 41.4168C33.4131 41.2955 33.494 41.0853 33.5829 40.8023L34.1973 40.77ZM33.5344 41.7159C33.0089 43.0498 32.8957 43.3328 32.4672 44.4323C32.8553 44.4323 33.0332 44.4323 33.3727 44.4323C33.7123 44.4323 33.9709 44.4323 34.4641 44.4323L33.5344 41.7159Z" fill="#826232"/>
<path d="M37.4877 40.8832C37.9243 40.8832 38.1911 40.8832 39.0076 40.8832H39.1127C39.816 40.8832 40.0586 40.8832 40.5032 40.8832V41.158H39.9131C39.3148 41.158 39.2501 41.2632 39.2501 42.1605V46.7363C39.2501 47.278 39.3714 47.375 40.0586 47.375C40.867 47.375 41.2712 47.3022 41.5461 47.0355C41.821 46.7687 41.9746 46.3645 41.9746 45.2973H42.2818V45.6773C42.2818 46.3402 42.2818 46.8738 42.3384 47.6661C41.8695 47.6661 41.6835 47.6661 41.1581 47.6661H39.9373C39.2986 47.6661 38.6276 47.6661 37.8596 47.6661H37.4635V47.375H37.6656C38.2477 47.375 38.3123 47.278 38.3123 46.2351V41.7401C38.3123 41.2712 38.2072 41.158 37.7626 41.158H37.4715L37.4877 40.8832Z" fill="#826232"/>
<path d="M53.7537 40.77C53.9234 41.3844 53.98 41.5785 54.0851 41.9342L54.2711 42.5082L54.4651 43.0984L55.1038 44.9497C55.1604 45.0952 55.2493 45.3459 55.3867 45.7016C55.5242 46.0573 55.6374 46.3645 55.8314 46.8657C56.0254 47.3669 56.1305 47.375 56.462 47.375H56.6237V47.6984H56.4054C55.8637 47.6984 55.5242 47.6984 55.0714 47.6984C54.4732 47.6984 54.263 47.6984 53.786 47.6984V47.4074H54.2307C54.6106 47.4074 54.8127 47.278 54.8127 47.0032C54.8164 46.8821 54.7972 46.7614 54.7561 46.6474L54.1417 44.8203C53.5839 44.8203 53.3333 44.7718 52.8967 44.7718C52.4602 44.7718 52.3389 44.7718 51.8862 44.7718L51.1666 46.6151C51.117 46.7302 51.0896 46.8536 51.0858 46.9789C51.0858 47.2538 51.2879 47.375 51.676 47.375H52.0236V47.6984H51.4819H50.916C50.5391 47.6767 50.1612 47.6767 49.7842 47.6984V47.4074C49.8814 47.4155 49.9791 47.4015 50.0701 47.3665C50.1611 47.3315 50.243 47.2764 50.3097 47.2053C50.4812 47.0104 50.6155 46.7857 50.7058 46.5423C51.3122 45.1842 51.7245 44.2868 51.9023 43.8421L52.1368 43.2762L52.3146 42.8801C52.5814 42.3061 52.7755 41.7967 52.921 41.4168C52.9695 41.2955 53.0503 41.0853 53.1392 40.8023L53.7537 40.77ZM53.0907 41.7159C52.5653 43.0498 52.4521 43.3328 52.0236 44.4323C52.4116 44.4323 52.5895 44.4323 52.9371 44.4323C53.2848 44.4323 53.5273 44.4323 54.0205 44.4323L53.0907 41.7159Z" fill="#826232"/>
<path d="M59.1218 40.9155H59.9787C60.3749 40.9155 61.0459 40.9155 61.3935 40.9155H61.725L61.6845 41.2308C61.6199 41.8453 61.628 42.3384 61.6199 42.9528H61.2965C61.2965 42.0959 61.2318 41.8048 60.9569 41.538C60.7673 41.391 60.5502 41.283 60.3184 41.2206C60.0866 41.1581 59.8448 41.1424 59.6068 41.1742C59.336 41.1741 59.0657 41.1957 58.7984 41.2389C58.8093 41.4301 58.8093 41.6217 58.7984 41.8129C58.7984 42.0393 58.7984 42.1767 58.7984 42.2495V44.1332H59.6877C60.4961 44.1332 60.6336 43.9796 60.6336 43.3247H61.0055C61.0055 43.9068 60.9569 44.1736 60.9569 44.5778C60.9569 44.8365 60.9569 44.9739 60.9569 45.3054H60.6093V45.1437C60.6093 44.5293 60.4395 44.4403 59.1379 44.4403H58.7741V46.1947C58.7741 47.3508 58.7741 47.4074 59.4937 47.4074C60.4638 47.4074 60.9003 47.3185 61.1752 47.1002C61.4501 46.8819 61.5471 46.4857 61.5633 45.6045H61.8786V45.9441C61.8786 46.5747 61.8786 47.1002 61.9513 47.7065H59.2107H58.184C57.6989 47.7065 57.4159 47.7065 57.0764 47.7065V47.4155H57.4644C57.7797 47.4155 57.8525 47.2942 57.8525 46.7121V41.8048C57.8525 41.3359 57.7474 41.1985 57.4079 41.1985H57.1087V40.9236L59.1218 40.9155Z" fill="#826232"/>
<path d="M63.0023 45.5399C62.9821 45.8082 63.0185 46.0778 63.109 46.3313C63.1995 46.5847 63.3422 46.8164 63.5278 47.0112C63.679 47.1699 63.8609 47.2961 64.0624 47.3823C64.264 47.4684 64.4809 47.5127 64.7001 47.5125C64.8698 47.5234 65.04 47.5003 65.2008 47.4445C65.3615 47.3888 65.5094 47.3015 65.6359 47.1877C65.7624 47.074 65.865 46.9362 65.9375 46.7823C66.01 46.6285 66.0511 46.4617 66.0582 46.2917C66.0564 46.1251 66.0211 45.9605 65.9544 45.8077C65.8877 45.6549 65.7911 45.5171 65.6702 45.4024C65.3527 45.1429 65.0086 44.918 64.6435 44.7314C64.1487 44.4812 63.6915 44.1628 63.2853 43.7855C63.1193 43.6366 62.9882 43.4529 62.9016 43.2475C62.8149 43.042 62.7748 42.8199 62.784 42.5971C62.7866 42.2424 62.8981 41.8971 63.1034 41.6079C63.3087 41.3186 63.598 41.0995 63.932 40.9802C64.379 40.8149 64.8546 40.7407 65.3307 40.7619C65.8075 40.7594 66.2827 40.8165 66.7454 40.9317C66.6484 41.7401 66.608 42.209 66.5756 43.0256H66.2523C66.2842 42.7255 66.254 42.4221 66.1636 42.1342C66.0732 41.8463 65.9245 41.5801 65.7268 41.3521C65.6234 41.2402 65.4986 41.1502 65.3597 41.0877C65.2207 41.0252 65.0706 40.9914 64.9183 40.9883C64.5787 40.9729 64.2467 41.0927 63.9952 41.3215C63.7437 41.5503 63.5931 41.8695 63.5763 42.2091C63.5763 42.8154 63.9563 43.1953 65.1932 43.8987C65.6193 44.1047 66.0096 44.3776 66.3493 44.7071C66.5202 44.8552 66.6582 45.0375 66.7542 45.2422C66.8503 45.4469 66.9024 45.6695 66.9071 45.8956C66.9071 47.0597 65.9127 47.7712 64.312 47.7712C63.7227 47.7686 63.1379 47.6674 62.5819 47.472C62.6628 46.3968 62.6709 46.219 62.6789 45.5318L63.0023 45.5399Z" fill="#826232"/>
<path d="M70.0196 40.9155H70.8847C71.3617 40.9155 72.2914 40.9155 72.7441 40.9155H73.1888C73.1483 41.6593 73.1241 42.1929 73.1241 42.6941C73.1241 42.7992 73.1241 42.8881 73.1241 43.0822H72.7845C72.7845 42.1848 72.6794 41.7967 72.4288 41.5219C72.1782 41.247 71.8952 41.1904 71.2081 41.1904H70.8928V46.8496C70.8928 47.3104 71.0059 47.4074 71.491 47.4074H72.0731V47.6984C71.5153 47.6984 71.0625 47.6984 70.2864 47.6984C69.5103 47.6984 69.2597 47.6984 68.718 47.6984V47.4074H69.5265C69.9146 47.4074 70.0115 47.2376 70.0115 46.2917V41.1904H69.6316C69.2099 41.1566 68.7911 41.2837 68.4593 41.5461C68.2152 41.8858 68.1006 42.3016 68.136 42.7184V43.0741H67.7802C67.7802 42.8235 67.7802 42.7184 67.7802 42.5728C67.7802 42.0878 67.7802 41.6027 67.7075 40.9559L70.0196 40.9155Z" fill="#826232"/>
<path d="M74.9269 40.9155H75.9294H76.4872V41.1904H75.8809C75.5333 41.1904 75.4282 41.4087 75.4282 42.1606V44.1332C75.6545 44.1332 76.0911 44.1817 76.7297 44.1817C77.3684 44.1817 78.0395 44.1817 78.6215 44.1817V41.8857C78.6215 41.344 78.5003 41.2227 77.999 41.2227H77.5705V40.9479H77.7646C78.1203 40.9479 78.7024 40.9479 79.2279 40.9479C79.7534 40.9479 79.9959 40.9479 80.3112 40.9479H80.5456V41.2227H80.0848C79.6402 41.2227 79.5351 41.3925 79.5351 42.1121V46.6232C79.5351 47.3184 79.6321 47.4316 80.1091 47.4316H80.5295V47.6984H79.8989H79.0258H77.7807H77.5625V47.4074H78.0799C78.5811 47.4074 78.6215 47.3104 78.6215 46.2351V44.4646C78.1203 44.4646 77.5867 44.4646 76.8995 44.4646C76.5034 44.4646 76.0911 44.4646 75.6545 44.4646H75.4282V46.3645C75.4282 47.2376 75.4928 47.3508 76.0102 47.3508H76.4711V47.6984H75.8647H75.0158C74.741 47.6984 74.3933 47.6984 73.9325 47.6984H73.69V47.4074H73.9325C74.4095 47.4074 74.5065 47.2861 74.5065 46.5989V41.7968C74.5065 41.3764 74.3934 41.2146 74.07 41.2146H73.7062V40.9398L74.9269 40.9155Z" fill="#826232"/>
<path d="M83.0276 40.9155H83.8845C84.2887 40.9155 84.9597 40.9155 85.2993 40.9155H85.6308V41.247C85.558 41.8614 85.5742 42.3546 85.558 42.969H85.2427C85.2427 42.1121 85.17 41.821 84.9032 41.5542C84.5188 41.2596 84.0335 41.1288 83.553 41.1904C83.2823 41.19 83.0119 41.2116 82.7446 41.2551C82.7446 41.5057 82.7446 41.6997 82.7446 41.8291C82.7446 41.9584 82.7446 42.1929 82.7446 42.2657V44.1493H83.5126C84.3211 44.1493 84.4585 43.9957 84.4585 43.3409H84.8223C84.8223 43.923 84.7738 44.1897 84.7738 44.594C84.7738 44.8527 84.7738 44.9901 84.7738 45.3216H84.4343V45.1599C84.4343 44.5455 84.2645 44.4565 82.9629 44.4565H82.5991V46.2108C82.5991 47.3669 82.5991 47.4235 83.3186 47.4235C84.2888 47.4235 84.7172 47.3346 84.9921 47.1164C85.267 46.8981 85.3721 46.5019 85.3801 45.6207H85.7035V45.9602C85.7035 46.5908 85.7035 47.1164 85.7682 47.7227H83.0276H82.0574C81.5805 47.7227 81.2975 47.7227 80.9498 47.7227V47.4316H81.3379C81.6613 47.4316 81.726 47.3103 81.726 46.7283V41.821C81.726 41.3521 81.6289 41.2146 81.2813 41.2146H80.9822V40.9398L83.0276 40.9155Z" fill="#826232"/>
<path d="M88.6462 40.9155H89.5113C89.9883 40.9155 90.918 40.9155 91.3707 40.9155H91.8153C91.8153 41.6593 91.7507 42.1929 91.7507 42.6941C91.7507 42.7992 91.7507 42.8881 91.7507 43.0822H91.4111C91.4111 42.1848 91.306 41.7967 91.0554 41.5219C90.8048 41.247 90.5218 41.1904 89.8347 41.1904H89.5194V46.8496C89.5194 47.3104 89.6326 47.4074 90.1176 47.4074H90.6997V47.6984C90.1419 47.6984 89.6891 47.6984 88.913 47.6984C88.1369 47.6984 87.8863 47.6984 87.3446 47.6984V47.4074H88.1531C88.5411 47.4074 88.6382 47.2376 88.6382 46.2917V41.1904H88.2582C87.8365 41.1566 87.4177 41.2837 87.086 41.5461C86.8418 41.8858 86.7271 42.3016 86.7626 42.7184V43.0741H86.4068C86.4068 42.8235 86.4068 42.7184 86.4068 42.5728C86.4068 42.0878 86.4068 41.6027 86.3341 40.9559L88.6462 40.9155Z" fill="#826232"/>
<path d="M92.4055 40.8832C93.1493 40.8832 93.2948 40.8832 93.8203 40.8832H93.9658C94.3781 40.8832 94.7743 40.8832 95.2836 40.8832V41.158H94.6773C94.265 41.158 94.176 41.3278 94.176 41.9665V46.3483C94.176 47.3023 94.176 47.3589 94.7985 47.3589H95.227V47.6984H93.7718H93.602C92.931 47.6984 92.7936 47.6984 92.3489 47.6984V47.4074H92.7936C93.1817 47.4074 93.2463 47.2538 93.2463 46.2998V41.8048C93.2463 41.3117 93.1493 41.1904 92.737 41.1904H92.4055V40.8832Z" fill="#826232"/>
<path d="M101.234 45.6207C101.197 46.2128 100.93 46.767 100.49 47.1648C100.009 47.577 99.3928 47.7959 98.7599 47.7792C96.9894 47.7792 95.9708 46.6474 95.9708 44.699C95.903 43.9519 96.0678 43.2022 96.4426 42.5523C96.8174 41.9025 97.384 41.3845 98.0647 41.0691C98.62 40.8502 99.2145 40.7484 99.8109 40.77C100.261 40.7673 100.709 40.8216 101.145 40.9317C101.072 41.7401 101.024 42.2737 100.991 43.1468H100.7C100.732 42.5613 100.545 41.9849 100.175 41.5299C100.035 41.3827 99.8672 41.2653 99.681 41.1847C99.4948 41.1041 99.2943 41.0621 99.0914 41.061C97.7898 41.061 96.9005 42.3869 96.9005 44.2948C96.9005 46.0411 97.8302 47.3265 99.1157 47.3265C99.5998 47.3323 100.068 47.1546 100.427 46.8292C100.785 46.5037 101.007 46.0546 101.048 45.5722L101.234 45.6207Z" fill="#826232"/>
<path d="M102.374 45.5399C102.355 45.8081 102.392 46.0773 102.482 46.3305C102.573 46.5837 102.715 46.8155 102.899 47.0112C103.05 47.1699 103.232 47.2961 103.434 47.3823C103.635 47.4684 103.852 47.5127 104.071 47.5125C104.241 47.5234 104.411 47.5003 104.572 47.4445C104.733 47.3888 104.881 47.3015 105.007 47.1877C105.134 47.074 105.236 46.9362 105.309 46.7823C105.381 46.6285 105.422 46.4617 105.43 46.2917C105.43 46.1248 105.395 45.9596 105.328 45.8066C105.262 45.6535 105.164 45.5159 105.042 45.4024C104.726 45.1409 104.381 44.9159 104.015 44.7314C103.523 44.477 103.066 44.1589 102.657 43.7855C102.492 43.6356 102.362 43.4517 102.275 43.2465C102.189 43.0413 102.148 42.8197 102.155 42.5971C102.157 42.2412 102.27 41.8946 102.477 41.605C102.684 41.3154 102.975 41.0972 103.311 40.9802C103.756 40.8149 104.229 40.7407 104.702 40.7619C105.179 40.7587 105.654 40.8157 106.117 40.9317C106.028 41.7402 105.979 42.209 105.947 43.0256H105.624C105.655 42.7261 105.625 42.4235 105.536 42.1359C105.447 41.8483 105.301 41.5817 105.106 41.3521C105.002 41.2413 104.877 41.152 104.738 41.0896C104.6 41.0272 104.45 40.9928 104.298 40.9883C104.13 40.9807 103.962 41.0062 103.805 41.0635C103.647 41.1208 103.502 41.2086 103.378 41.322C103.254 41.4354 103.153 41.5721 103.082 41.7243C103.011 41.8765 102.971 42.0413 102.964 42.2091C102.964 42.8154 103.336 43.1953 104.581 43.8987C105.006 44.1022 105.394 44.3754 105.729 44.7071C105.903 44.8524 106.043 45.0341 106.14 45.2395C106.236 45.4448 106.286 45.6688 106.287 45.8956C106.287 47.0597 105.3 47.7712 103.7 47.7712C103.108 47.7693 102.52 47.6682 101.961 47.472C102.042 46.3968 102.058 46.219 102.066 45.5318L102.374 45.5399Z" fill="#826232"/>
<path d="M113.288 40.5436V49H112.617V40.5436H113.288Z" fill="#826232"/>
<path d="M125.423 45.6207C125.366 45.7016 125.285 45.7258 125.075 45.7339C124.776 46.1068 124.418 46.4289 124.016 46.6879C124.911 46.8979 125.829 47.0011 126.748 46.9951V47.0921C126.577 47.1541 126.427 47.2626 126.314 47.4054C126.201 47.5482 126.13 47.7197 126.11 47.9005C125.128 47.8139 124.175 47.5219 123.313 47.0436C122.14 47.5432 120.884 47.8175 119.61 47.852V47.7388C120.746 47.5609 121.842 47.1803 122.844 46.6151C122.56 46.3672 122.322 46.0718 122.14 45.742C121.429 46.2741 120.626 46.6714 119.772 46.9143L119.715 46.8092C120.666 46.282 121.477 45.5367 122.084 44.6344C121.873 44.5455 121.825 44.3838 121.825 44.0766V43.0013L122.795 43.0822C122.795 43.1792 122.706 43.2439 122.569 43.2682V43.9391C122.569 44.02 122.569 44.0442 122.803 44.0442H123.935C124.016 44.0442 124.072 44.0443 124.105 43.9796C124.21 43.8126 124.294 43.6334 124.355 43.446H124.444V43.9796C124.655 44.0604 124.703 44.1413 124.703 44.2706C124.703 44.5778 124.412 44.691 123.304 44.691H122.698L123.183 44.9255C123.183 44.9982 123.062 45.0305 122.916 45.0063C122.843 45.0965 122.764 45.1828 122.682 45.265H124.137L124.679 44.8042L125.423 45.6207ZM120.75 42.7831C120.764 42.9695 120.728 43.1564 120.646 43.3243C120.563 43.4921 120.437 43.6347 120.281 43.737C120.224 43.7728 120.161 43.7959 120.094 43.8046C120.028 43.8133 119.96 43.8074 119.897 43.7874C119.833 43.7674 119.774 43.7338 119.724 43.6888C119.675 43.6438 119.636 43.5885 119.61 43.5269C119.529 43.2762 119.691 43.0822 119.925 42.969C120.091 42.8907 120.233 42.7689 120.335 42.6166C120.438 42.4643 120.497 42.2872 120.507 42.104H120.62C120.677 42.2523 120.715 42.4071 120.734 42.5648H121.542C121.456 42.5426 121.376 42.5011 121.308 42.4435C121.288 42.1271 121.175 41.8234 120.984 41.5704H120.095V41.433C121.829 41.2941 123.551 41.0239 125.245 40.6245L125.98 41.433C125.906 41.4733 125.823 41.4944 125.738 41.4944C125.653 41.4944 125.57 41.4733 125.495 41.433L124.59 41.5219L125.633 41.918C125.592 41.9989 125.495 42.0555 125.326 42.0312C125.024 42.2746 124.703 42.491 124.363 42.678H125.552L126.005 42.2333L126.813 42.9771C126.756 43.0337 126.676 43.0499 126.514 43.0579C126.2 43.2665 125.867 43.4452 125.52 43.5915C126.465 44.1251 125.956 45.071 125.309 44.6506C125.14 44.1441 124.839 43.6919 124.436 43.3409L124.501 43.2843C124.792 43.3219 125.077 43.3952 125.35 43.5026C125.446 43.3062 125.53 43.1036 125.6 42.8962L120.75 42.7831ZM121.356 43.163C121.607 43.9715 121.299 44.4808 120.92 44.6506C120.863 44.683 120.799 44.703 120.734 44.709C120.669 44.7151 120.603 44.7072 120.541 44.6857C120.479 44.6643 120.422 44.6299 120.374 44.5848C120.327 44.5397 120.289 44.485 120.265 44.4242C120.24 44.3119 120.258 44.1941 120.317 44.095C120.375 43.9959 120.469 43.9228 120.58 43.8906C120.748 43.8421 120.899 43.7475 121.016 43.6175C121.134 43.4874 121.212 43.3272 121.243 43.155L121.356 43.163ZM123.07 42.5648C122.958 42.5469 122.854 42.4962 122.771 42.4192C122.761 42.0995 122.669 41.7876 122.504 41.5138C122.059 41.5138 121.607 41.5138 121.162 41.5138C122.326 41.7482 122.165 42.4354 121.752 42.5405L123.07 42.5648ZM122.415 45.5641L122.213 45.7339C122.501 46.0243 122.841 46.2574 123.215 46.4211C123.544 46.1817 123.833 45.8925 124.072 45.5641H122.415ZM122.593 42.9124C124.42 42.8073 123.943 44.1898 123.207 43.8017C123.064 43.4773 122.834 43.1979 122.544 42.9933L122.593 42.9124ZM124.064 42.5648C124.268 42.1964 124.436 41.8092 124.566 41.4087C124.016 41.4572 123.41 41.4815 122.787 41.5057C123.838 41.821 123.595 42.5082 123.183 42.5648H124.064Z" fill="#826232"/>
<path d="M130.063 45.2003C129.364 45.8272 128.627 46.4104 127.856 46.9465C127.848 46.9981 127.827 47.047 127.796 47.0891C127.765 47.1313 127.725 47.1655 127.678 47.1891L127.217 46.2028C127.436 46.1381 127.767 46.0249 128.147 45.8794V43.7532H127.427L127.371 43.5268H128.179V41.6027H127.371L127.314 41.3844H128.931L129.368 40.7538C129.368 40.7538 129.853 41.1904 130.12 41.4733C130.12 41.5623 130.023 41.6027 129.917 41.6027H129.004V43.5268H129.061L129.441 42.9447C129.441 42.9447 129.853 43.357 130.071 43.6319C130.071 43.7208 129.982 43.7532 129.877 43.7532H129.004V45.5479L130.015 45.1113L130.063 45.2003ZM130.144 45.4913C130.904 48.0784 128.527 47.666 129.335 46.6636C129.544 46.5412 129.721 46.3713 129.852 46.1676C129.982 45.9638 130.063 45.7322 130.087 45.4913H130.144ZM134.695 44.9335C134.611 45.0123 134.503 45.0606 134.388 45.0709C134.332 46.6393 134.21 47.3831 133.855 47.6661C133.578 47.8585 133.244 47.9499 132.909 47.9248C132.932 47.7209 132.877 47.5157 132.755 47.3508C132.558 47.1904 132.32 47.087 132.068 47.0516V46.9546C132.351 46.9546 132.836 47.0031 132.99 47.0031C133.032 47.0091 133.076 47.0064 133.117 46.9953C133.159 46.9842 133.198 46.9648 133.232 46.9384C133.47 46.2985 133.567 45.6144 133.515 44.9335H131.033V45.1033C131.033 45.1679 130.75 45.3701 130.297 45.3701H130.144V40.8832L131.13 41.2551H133.143L133.604 40.6326C133.604 40.6326 134.13 41.061 134.412 41.3601C134.412 41.4491 134.315 41.4814 134.194 41.4814H132.682V42.3869H133.046L133.475 41.821C133.475 41.821 133.96 42.2171 134.243 42.4839C134.243 42.5728 134.146 42.6133 134.032 42.6133H132.682V43.5349H133.07L133.507 42.9609C133.507 42.9609 133.984 43.357 134.275 43.64C134.275 43.7289 134.178 43.7613 134.057 43.7613H132.682V44.7071H133.402L133.855 44.2787L134.695 44.9335ZM130.791 45.4913C132.076 46.4372 131.195 47.561 130.694 46.9061C130.791 46.4504 130.791 45.9794 130.694 45.5237L130.791 45.4913ZM131.041 41.4491V42.3546H131.85V41.4491H131.041ZM131.85 42.5809H131.041V43.5025H131.85V42.5809ZM131.041 44.6748H131.85V43.7289H131.041V44.6748ZM131.559 45.3701C133.079 45.9926 132.367 47.1486 131.842 46.6231C131.81 46.1973 131.686 45.7835 131.478 45.4105L131.559 45.3701ZM132.367 45.2407C133.984 45.5075 133.467 46.6717 132.868 46.2755C132.751 45.9069 132.552 45.5697 132.286 45.2892L132.367 45.2407Z" fill="#826232"/>
<path d="M141.834 44.2382L142.303 44.5939C142.287 44.6372 142.256 44.6736 142.217 44.6971C142.177 44.7207 142.13 44.7299 142.085 44.7233H139.603V45.2164H140.621L141.042 44.7637L141.899 45.4266C141.828 45.5072 141.73 45.559 141.624 45.5722V47.6984C141.379 47.8437 141.1 47.9218 140.815 47.9248H140.646V47.5367H136.87V47.6741C136.87 47.7549 136.482 47.949 136.118 47.949H135.997V44.885L136.935 45.2488H137.679C137.679 45.1032 137.679 44.9335 137.679 44.7556H135.366L135.302 44.5374H140.961L141.26 44.1816C140.964 44.1216 140.676 44.0266 140.403 43.8987C139.891 44.1344 139.346 44.2898 138.786 44.3595L138.746 44.2463C139.21 44.1242 139.644 43.9097 140.023 43.6157C139.773 43.395 139.579 43.1178 139.457 42.8073H139.11V42.6779C139.065 42.6907 139.017 42.6907 138.972 42.6779H138.034C138.021 42.7272 138.004 42.7757 137.986 42.8234C138.916 42.8234 139.061 43.3247 138.851 43.5348C139.004 43.6561 139.19 43.8017 139.328 43.931C139.328 44.0119 139.231 44.0523 139.118 44.0523H136.466V44.125C136.392 44.2163 136.296 44.2876 136.187 44.3328C136.079 44.3779 135.96 44.3955 135.843 44.3838H135.714V40.8185L136.523 41.15H138.002L138.39 40.6891C138.39 40.6891 138.835 41.0044 139.118 41.247C139.103 41.2874 139.075 41.3216 139.038 41.3437C139.001 41.3658 138.958 41.3745 138.916 41.3682H137.056L137.751 41.5946C137.723 41.6451 137.68 41.6859 137.628 41.7118C137.576 41.7378 137.518 41.7476 137.46 41.7401C137.436 41.7771 137.409 41.8122 137.379 41.8452H138.123L138.414 41.4814C138.414 41.4814 138.746 41.732 138.964 41.9341C138.953 41.9755 138.927 42.0113 138.891 42.035C138.856 42.0588 138.812 42.0689 138.77 42.0635H138.059V42.2818C138.062 42.341 138.062 42.4004 138.059 42.4596H138.333L138.616 42.112L138.948 42.395C139.096 42.2749 139.212 42.1194 139.284 41.9427C139.356 41.766 139.382 41.5739 139.36 41.3844V40.77L140.233 41.1015H140.532L140.896 40.7215L141.559 41.2712C141.493 41.3343 141.408 41.3741 141.317 41.3844V41.6431C141.317 41.7078 141.317 41.7239 141.414 41.7239H141.689C141.708 41.727 141.728 41.7248 141.746 41.7177C141.765 41.7106 141.781 41.6988 141.794 41.6835C141.882 41.5545 141.95 41.4127 141.996 41.2631H142.085V41.6835C142.246 41.7644 142.287 41.8371 142.287 41.9503C142.287 42.2252 142.036 42.2899 141.438 42.2899H141.276L141.858 42.7588C141.81 42.8315 141.729 42.8558 141.575 42.8639C141.451 43.0795 141.293 43.2734 141.106 43.4378C141.514 43.4827 141.925 43.5016 142.335 43.4944V43.5753C142.198 43.6349 142.08 43.7315 141.994 43.8543C141.909 43.977 141.859 44.1211 141.85 44.2706L141.834 44.2382ZM136.482 43.5995C136.689 43.5238 136.876 43.4001 137.026 43.2385C137.177 43.077 137.287 42.8821 137.347 42.6699H136.539L136.482 42.4516H137.379C137.383 42.3923 137.383 42.3329 137.379 42.2737V42.0392H137.161C137.002 42.1895 136.819 42.3124 136.62 42.4031L136.506 42.3303C136.693 42.0288 136.819 41.6938 136.878 41.344H136.401V43.7693H138.18L138.366 43.5429C138.217 43.3115 138.028 43.1089 137.808 42.9447C137.472 43.3258 137.015 43.5798 136.514 43.6642L136.482 43.5995ZM139.603 45.4428V45.6126C139.603 45.8066 139.603 45.8066 139.675 45.8066H139.991C140.028 45.8144 140.067 45.8144 140.104 45.8066C140.182 45.7222 140.238 45.6193 140.266 45.5075H140.338L140.379 45.8066C140.565 45.8793 140.605 45.9117 140.605 46.0087C140.605 46.2512 140.452 46.3564 139.95 46.3564H139.57C138.972 46.3564 138.94 46.2917 138.94 45.6288V45.459H138.366C138.236 45.9602 137.921 46.2674 137.072 46.5019L136.991 46.3887C137.177 46.3097 137.338 46.1813 137.457 46.0174C137.575 45.8535 137.646 45.6604 137.662 45.459H136.854V46.615H140.678V45.459L139.603 45.4428ZM140.686 47.278V46.8171H136.87V47.278H140.686ZM138.94 44.7233H138.43C138.444 44.8874 138.444 45.0523 138.43 45.2164H138.972L138.94 44.7233ZM140.08 41.3682C140.08 41.6835 139.942 42.2171 139.013 42.4677L139.101 42.5324H140.718L141.026 42.2575C140.662 42.2575 140.613 42.0716 140.613 41.7158V41.3036H140.104L140.08 41.3682ZM139.643 42.7588C139.836 42.9842 140.088 43.152 140.371 43.2438C140.493 43.0953 140.596 42.9324 140.678 42.7588H139.643Z" fill="#826232"/>
<path d="M147.105 45.7177C147.728 46.5908 148.973 46.8738 150.339 46.9627V47.0516C150.158 47.118 150 47.2334 149.882 47.3847C149.763 47.5361 149.689 47.7175 149.668 47.9086C149.052 47.8303 148.469 47.5847 147.983 47.1984C147.497 46.8121 147.126 46.3 146.911 45.7177H146.846C146.572 46.7686 145.82 47.4963 142.99 47.9409L142.942 47.8197C144.906 47.2457 145.569 46.5908 145.812 45.7177H143.119L143.055 45.4994H145.852C145.911 45.1819 145.943 44.8602 145.949 44.5374L147.259 44.6263C147.259 44.7395 147.154 44.8203 146.984 44.8365C146.984 45.0709 146.927 45.2892 146.887 45.4994H148.811L149.328 44.8526C149.328 44.8526 149.902 45.2892 150.258 45.5964C150.258 45.6773 150.153 45.7177 150.032 45.7177H147.105ZM146.095 44.1978V43.2681H144.033L143.976 43.0417H146.095V42.1686H143.572L143.516 41.9422H147.154C147.334 41.5016 147.48 41.0475 147.59 40.584L148.779 40.9398C148.779 41.0449 148.657 41.0934 148.488 41.0772C148.149 41.3966 147.784 41.686 147.396 41.9422H148.56L149.062 41.3197C149.062 41.3197 149.611 41.7401 149.959 42.0473C149.959 42.1282 149.854 42.1686 149.741 42.1686H147.049V43.0417H148.188L148.657 42.4677C148.657 42.4677 149.199 42.8558 149.522 43.1387C149.522 43.2276 149.425 43.2681 149.304 43.2681H147.089V44.1978H148.754L149.256 43.5429C149.256 43.5429 149.83 43.9876 150.169 44.3029C150.169 44.3756 150.056 44.4161 149.951 44.4161H143.338L143.273 44.1978H146.095ZM144.736 40.6568C146.822 40.8104 146.03 42.3869 145.213 41.8048C145.143 41.3953 144.958 41.014 144.68 40.7053L144.736 40.6568Z" fill="#826232"/>
<path d="M78.9772 0L60.4638 29.5407L42.8315 0H36.7601L38.0294 0.501233C38.7098 0.770246 39.3287 1.17457 39.8484 1.68968C40.3443 2.18688 40.7374 2.77693 41.0051 3.42613C41.2728 4.07534 41.41 4.77096 41.4087 5.4732V28.7161C41.4089 29.2904 41.316 29.861 41.1338 30.4057C40.884 31.2982 40.3644 32.0916 39.6463 32.6774C39.6118 32.7134 39.5739 32.7459 39.5331 32.7744L39.4441 32.8553C39.0329 33.1763 38.5851 33.4477 38.1102 33.6638C37.6965 33.8621 37.2498 33.9827 36.7924 34.0195V34.5368H47.181V34.0195C46.2028 34.0195 42.4678 32.3621 42.4678 29.6053V6.16037L58.4508 32.9927L59.0409 33.9952L76.1477 6.7101V29.1041C76.1477 31.392 72.8169 33.9548 71.7416 33.9548V34.4722H83.7875V33.9548C83.6308 33.9101 83.4769 33.8561 83.3267 33.7931L83.1003 33.6961C81.9924 33.3712 81.0196 32.6963 80.3273 31.7723C79.6351 30.8484 79.2607 29.7251 79.2602 28.5706V5.88552C79.2545 4.68191 79.6577 3.51204 80.4039 2.5676C81.15 1.62316 82.1948 0.960139 83.3671 0.687185C83.504 0.631389 83.6484 0.595975 83.7956 0.582083H83.933C84.046 0.571905 84.1596 0.571905 84.2726 0.582083V0H78.9772Z" fill="#826232"/>
<path d="M85.5984 0V0.549738C85.8286 0.553217 86.0571 0.588591 86.2775 0.65484C87.5968 0.878489 88.7941 1.56236 89.657 2.58507C90.5198 3.60777 90.9924 4.90312 90.9908 6.24119V7.85809V28.6756C90.9915 29.9378 90.5454 31.1596 89.7316 32.1244C88.9177 33.0892 87.7886 33.7347 86.5443 33.9467C86.3364 34.0059 86.1218 34.0385 85.9056 34.0437V34.5611H114.411V28.2957H113.894C113.925 29.5424 113.519 30.7608 112.746 31.7397C111.947 32.636 110.85 33.2108 109.658 33.3565H96.7227H95.9142C95.3752 33.3296 94.8671 33.0962 94.4954 32.7049C94.1236 32.3136 93.9167 31.7943 93.9173 31.2546C93.9173 30.915 94.0871 17.511 94.1195 15.506H107.766C107.914 15.4889 108.05 15.4181 108.149 15.307C108.248 15.196 108.302 15.0524 108.302 14.9037C108.302 14.755 108.248 14.6115 108.149 14.5004C108.05 14.3894 107.914 14.3186 107.766 14.3014H94.2003V7.02541C94.2003 5.06088 94.1599 3.63801 94.1599 3.53291C94.1591 2.95941 94.3783 2.40747 94.7724 1.99082C95.1664 1.57417 95.7054 1.32458 96.278 1.29352H97.0865H110.773C112.035 1.44267 113.201 2.04271 114.056 2.98317C114.874 4.02293 115.305 5.31464 115.277 6.63737H115.851V0H85.5984Z" fill="#826232"/>
<path d="M149.425 33.785C148.625 33.639 147.843 33.4115 147.089 33.1059C146.016 32.6896 145.004 32.1294 144.081 31.4405C142.93 30.5716 141.937 29.5104 141.147 28.3037C140.759 27.7136 140.395 27.1719 140.064 26.6383C139.349 25.455 138.538 24.3328 137.638 23.2833C136.765 22.2914 135.679 21.5093 134.461 20.9953C132.74 20.3302 130.92 19.9559 129.077 19.8878H134.445C136.051 19.9091 137.631 19.4867 139.013 18.667C140.36 17.8635 141.488 16.7385 142.295 15.3928C143.119 14.0099 143.547 12.4269 143.532 10.817V9.39413C143.55 7.7864 143.122 6.20507 142.295 4.82639C141.493 3.47241 140.365 2.34114 139.013 1.53602C137.631 0.716369 136.051 0.293949 134.445 0.315284H125.269H117.395C118.881 0.315284 120.306 0.905529 121.356 1.95621C122.407 3.00689 122.997 4.43193 122.997 5.91782V28.7807C122.993 29.844 122.687 30.8843 122.114 31.7803C121.542 32.6763 120.727 33.3911 119.763 33.8416C119.424 34.0169 119.062 34.1447 118.688 34.2216C118.478 34.2631 118.264 34.2847 118.049 34.2862H130.249C129.109 34.2862 125.398 32.6693 125.398 29.7589V19.8878H128.179C130.451 20.2677 134.033 21.6179 135.536 26.8243C135.536 26.897 135.585 26.9536 135.601 27.0102C136.216 29.0249 137.463 30.7881 139.158 32.0389C140.852 33.2896 142.905 33.9614 145.011 33.9548H150.363L149.425 33.785ZM125.406 19.2329V4.48685C125.406 0.986274 130.128 0.986285 130.128 0.986285C131.735 0.969671 133.316 1.38872 134.704 2.19893C136.06 2.97556 137.194 4.08945 137.994 5.43272C138.817 6.80937 139.24 8.3885 139.215 9.99238C139.191 12.4051 138.234 14.7149 136.544 16.4376C134.855 18.1603 132.564 19.162 130.152 19.2329H125.406Z" fill="#826232"/>
<path d="M33.6718 33.6638C32.3704 33.0353 31.2454 32.0936 30.3976 30.9231C29.936 30.3052 29.5122 29.6599 29.1284 28.9909L18.1416 1.12376L17.8182 0.315308H10.7524C11.9165 0.315308 15.118 1.29354 15.0452 3.66229C14.979 4.34195 14.8463 5.01346 14.6491 5.66723C14.6491 5.66723 7.25177 27.4953 6.11994 29.8155C4.86685 32.3864 1.49563 33.9952 -0.0323334 34.2539H12.9917C10.2188 34.2539 6.62928 32.152 7.70451 28.805L9.41842 23.259H23.6875L27.0749 31.8448C27.56 33.0898 24.3666 34.1973 22.7012 34.1973H35.5474C34.9008 34.1093 34.2711 33.924 33.6799 33.6476L33.6718 33.6638ZM9.6852 22.6365L15.021 6.72629L15.4333 5.48934L15.4898 5.3196L15.9345 3.96141L15.9992 3.80781L23.4207 22.6365H9.6852Z" fill="#826232"/>
</g>
<defs>
<clipPath id="clip0_14_2">
<rect width="150.363" height="49" fill="white"/>
</clipPath>
</defs>
</svg>
