<svg width="102" height="101" viewBox="0 0 102 101" fill="none" xmlns="http://www.w3.org/2000/svg">
<path d="M11.2155 73.5143C13.7964 79.8341 17.5383 84.9082 21.4052 88.4001C25.279 91.8981 29.2531 93.7868 32.2958 93.7868C35.0486 93.7868 38.4778 92.2552 41.9528 89.4263L41.953 89.4266C42.055 89.3444 42.172 89.2828 42.2976 89.2453C42.4243 89.2074 42.5574 89.1948 42.689 89.2081L42.6689 89.4071L42.6891 89.2082C42.8207 89.2215 42.9485 89.2606 43.065 89.3232C43.1816 89.3858 43.2847 89.4707 43.3685 89.573C43.4522 89.6754 43.5149 89.7932 43.553 89.9198C43.591 90.0464 43.6037 90.1793 43.5903 90.3108C43.5769 90.4423 43.5376 90.5698 43.4747 90.6861C43.4119 90.8024 43.3267 90.9052 43.2241 90.9885C43.2241 90.9886 43.224 90.9886 43.224 90.9887L43.0979 90.8335L11.2155 73.5143ZM11.2155 73.5143C9.96476 70.4451 9.04881 67.2507 8.48344 63.9862C8.37201 63.3383 8.25757 62.2723 8.16848 61.3482C8.12405 60.8874 8.08612 60.4639 8.05819 60.1483C8.05345 60.0948 8.04896 60.044 8.04476 59.9963C8.02695 59.7943 8.01414 59.649 8.00826 59.5984C7.74826 53.3318 9.40824 47.8304 12.8156 43.7925C17.0512 38.7807 23.7548 36.1115 32.235 36.1115C40.8619 36.1115 47.3218 38.5412 51.4772 43.2932C55.7105 48.1399 57.3265 55.2868 56.1071 64.0184C55.8241 66.0137 55.3841 67.9837 54.7913 69.9102L54.7911 69.9102L54.7891 69.9178C54.7223 70.1698 54.756 70.4378 54.8831 70.6655C55.0101 70.8932 55.2205 71.0628 55.47 71.139C55.7196 71.2153 55.989 71.1923 56.222 71.0748C56.4549 70.9573 56.6334 70.7544 56.7197 70.5084L56.7198 70.5085L56.7222 70.5009C57.3454 68.4721 57.8074 66.3974 58.1039 64.2962L58.1039 64.2959C58.1973 63.6268 58.3077 62.4947 58.3966 61.5168C58.4484 60.9476 58.4927 60.4335 58.5224 60.0881C58.5369 59.9199 58.5479 59.7917 58.5547 59.7167C58.5855 59.7094 58.6302 59.7025 58.6901 59.6987C58.8591 59.6881 59.1033 59.705 59.3826 59.7608C59.9441 59.8729 60.6019 60.1331 61.0453 60.5856L61.0456 60.586C61.3974 60.9432 62.0569 61.8214 61.9443 63.2905C61.8311 64.7663 60.9361 66.8781 58.0812 69.6908C57.9865 69.7836 57.911 69.8941 57.8591 70.016C57.8071 70.1379 57.7798 70.269 57.7786 70.4015C57.7774 70.5341 57.8025 70.6656 57.8523 70.7885C57.9021 70.9114 57.9756 71.0233 58.0688 71.1178C58.1619 71.2122 58.2727 71.2875 58.395 71.3392C58.5172 71.3909 58.6484 71.4182 58.7812 71.4193C58.9139 71.4205 59.0456 71.3956 59.1687 71.346L59.094 71.1605L59.1687 71.346C59.2919 71.2964 59.404 71.2232 59.4988 71.1304L59.4992 71.13C62.9249 67.7561 63.9633 65.0539 63.9873 63.0355C64.0113 61.0169 63.0201 59.7295 62.4889 59.1864L62.4878 59.1853C62.1439 58.8389 61.7537 58.542 61.3285 58.3028C64.9286 51.7431 65.6488 40.441 60.1329 30.5205C56.4694 23.9179 50.6989 19.363 43.4111 17.1289C44.5196 15.5267 45.118 13.6259 45.1242 11.6752V11.6745C45.1242 5.64972 39.3794 0.8 32.3884 0.8C25.3974 0.8 19.6526 5.64972 19.6526 11.6745C19.6526 13.9415 20.1116 15.5509 21.2512 17.0696C13.1936 19.4667 8.42272 24.3005 5.68383 28.5649C0.266673 36.9934 -0.71411 49.0797 3.19119 58.3061C2.59402 58.6749 2.0807 59.1652 1.68522 59.7457C1.25643 60.3751 0.977519 61.0938 0.869793 61.847C0.454336 64.5009 1.70848 68.8066 9.55342 74.601L11.2155 73.5143ZM5.99015 59.8412C5.99707 59.8469 6.00324 59.8523 6.00868 59.8572C6.08059 61.3564 6.24572 62.8497 6.50315 64.3285C6.89185 66.5633 7.44451 68.7662 8.15653 70.9197C3.07825 66.5118 2.63454 63.5639 2.85423 62.1614L2.85664 62.1461V62.1351C2.93002 61.5947 3.15116 61.0846 3.49605 60.6608C3.84317 60.2343 4.30208 59.9118 4.82193 59.7293C5.2693 59.5842 5.58182 59.6374 5.77539 59.716C5.87425 59.7562 5.94556 59.8044 5.99015 59.8412ZM5.07244 57.6245C1.40368 49.0495 2.25228 37.7843 7.21451 29.8709L7.36049 29.6438C10.8998 24.1376 18.0962 17.558 32.3218 17.558C44.1293 17.558 53.3639 22.5116 58.3504 31.4878L58.3504 31.4879C63.5687 40.8757 62.7417 51.8725 59.3341 57.7005C59.1483 57.6891 58.962 57.6925 58.7768 57.7104C59.5927 47.542 57.4321 39.2264 52.4317 33.5748L52.4315 33.5745C47.7707 28.3286 40.9603 25.6688 32.2234 25.6688C23.6499 25.6688 16.6027 28.571 11.86 34.073L11.8599 34.0731C6.91409 39.8167 4.78601 48.1108 5.72343 57.6146C5.50671 57.5965 5.28866 57.5998 5.07244 57.6245ZM52.9922 41.9838L52.9912 41.9827C48.4204 36.7502 41.4245 34.1248 32.235 34.1248C23.1795 34.1248 15.921 37.0243 11.2741 42.5189L11.2735 42.5196C9.89145 44.1698 8.76667 46.0141 7.93392 47.9901C8.69547 43.0367 10.5397 38.7449 13.4047 35.4218L13.4048 35.4217C17.7356 30.3912 24.2398 27.719 32.235 27.719C40.4058 27.719 46.6863 30.1606 50.9311 34.9451L51.0807 34.8123L50.9311 34.9451C53.8301 38.2121 55.6925 42.5078 56.4921 47.6482C55.6323 45.5921 54.4521 43.68 52.9922 41.9838ZM58.5081 59.7327C58.5074 59.7329 58.5089 59.7319 58.5134 59.7299C58.5106 59.7317 58.5086 59.7326 58.5081 59.7327ZM23.3968 16.5027C22.7654 15.8101 22.3369 15.1469 22.0633 14.3972C21.7841 13.6322 21.6619 12.7651 21.6619 11.6659C21.6619 6.81283 26.4361 2.80407 32.3826 2.80407C38.3288 2.80407 43.1 6.81238 43.1005 11.6652C43.0856 13.453 42.4528 15.1798 41.3106 16.5554C38.3683 15.8698 35.3553 15.5308 32.3334 15.5453C29.3278 15.5292 26.3301 15.8504 23.3968 16.5027Z" fill="#80C5DE" stroke="#80C5DE" stroke-width="0.4"/>
<path d="M38.7194 84.3436L38.7228 84.3463C38.8183 84.2523 38.8942 84.1403 38.946 84.0168C38.9978 83.8932 39.0245 83.7606 39.0245 83.6267C39.0245 83.4928 38.9978 83.3602 38.946 83.2366C38.8943 83.1134 38.8187 83.0016 38.7235 82.9078C38.3041 82.4912 37.6524 81.9185 36.9351 81.4241C36.2235 80.9337 35.4231 80.5033 34.7101 80.3996C34.3108 80.3395 33.9389 80.4469 33.6055 80.6127C33.278 80.7756 32.971 81.0034 32.6984 81.2058L32.6897 81.2123C32.6605 81.2335 32.6321 81.2545 32.6043 81.275C32.5306 81.3293 32.4617 81.3801 32.3969 81.4222C32.3652 81.3976 32.3328 81.372 32.3011 81.3469C32.2784 81.329 32.2561 81.3114 32.2348 81.2947C32.2345 81.2944 32.2342 81.2942 32.2339 81.2939L32.1105 81.4514M38.7194 84.3436L30.1749 82.3986M38.7194 84.3436C38.6286 84.4311 38.5221 84.5008 38.4054 84.549C38.2831 84.5996 38.152 84.6257 38.0195 84.6257C37.8871 84.6257 37.756 84.5996 37.6337 84.549C37.5114 84.4985 37.4003 84.4244 37.3067 84.3309L38.7194 84.3436ZM32.1105 81.4514C31.6503 81.0821 31.0222 80.5859 30.1626 80.5859C28.8803 80.5859 26.6053 82.4381 25.9367 83.0035C25.7814 83.1447 25.6871 83.3406 25.6739 83.5497C25.6607 83.7588 25.7296 83.9649 25.8659 84.1243C26.0023 84.2838 26.1954 84.3843 26.4047 84.4045C26.6139 84.4247 26.8229 84.363 26.9874 84.2326C28.2551 83.1507 29.74 82.213 30.1713 82.1986M32.1105 81.4514C32.1304 81.4669 32.1517 81.4838 32.174 81.5014C32.2426 81.5557 32.3192 81.6162 32.3826 81.662L32.1105 81.4514ZM30.1713 82.1986V82.3986C30.1725 82.3986 30.1737 82.3986 30.1749 82.3986M30.1713 82.1986L30.1779 82.3985C30.177 82.3985 30.176 82.3986 30.1749 82.3986M30.1713 82.1986C30.4607 82.1986 30.7878 82.4612 31.1033 82.715L31.1101 82.7205C31.5379 83.0634 32.1201 83.53 32.8255 83.2574C33.1672 83.1022 33.4873 82.9034 33.7777 82.666M30.1749 82.3986C30.2627 82.3998 30.3766 82.4416 30.5223 82.5317C30.6672 82.6213 30.8179 82.7421 30.9779 82.8709L30.9782 82.8711L30.992 82.8821C31.2005 83.0494 31.4689 83.2645 31.7785 83.4008C32.1024 83.5434 32.4819 83.6046 32.8976 83.444L32.8977 83.4443L32.9082 83.4395C33.2642 83.2778 33.5978 83.0709 33.9006 82.8239M33.7777 82.666L33.8968 82.8267C33.8981 82.8257 33.8993 82.8248 33.9006 82.8239M33.7777 82.666C34.0035 82.4987 34.3827 82.2217 34.4579 82.19M33.7777 82.666L33.9043 82.8208C33.9031 82.8219 33.9018 82.8229 33.9006 82.8239M33.9006 82.8239L34.4579 82.19M34.4579 82.19C35.1034 82.2852 36.4175 83.1622 37.4479 84.1893L34.4579 82.19Z" fill="#80C5DE" stroke="#80C5DE" stroke-width="0.4"/>
<path d="M34.4584 84.2797C33.783 85.0005 33.087 85.3459 32.3873 85.3538H32.3739C31.7176 85.3538 31.1105 85.068 30.6552 84.7673C30.2617 84.5074 30.0074 84.2563 29.9251 84.175C29.9213 84.1713 29.9179 84.1679 29.9149 84.1649C29.826 84.0681 29.7191 83.9897 29.6001 83.9339C29.4803 83.8777 29.3506 83.8457 29.2184 83.8395C29.0862 83.8333 28.9541 83.8531 28.8296 83.8979C28.7051 83.9426 28.5906 84.0113 28.4927 84.1002C28.3947 84.1891 28.3153 84.2963 28.2589 84.4159C28.2025 84.5354 28.1702 84.6649 28.164 84.7969C28.1578 84.9289 28.1777 85.0608 28.2227 85.1851C28.2676 85.3094 28.3367 85.4237 28.4258 85.5213L28.4258 85.5213L28.4265 85.5221C28.4655 85.5643 28.8894 86.0226 29.5808 86.4713C30.2711 86.9192 31.2418 87.3665 32.371 87.3665H32.3739C33.734 87.3665 34.9707 86.7263 36.0489 85.5196C36.142 85.4225 36.2147 85.3078 36.2627 85.1823C36.3112 85.0554 36.3336 84.9201 36.3284 84.7844C36.3231 84.6487 36.2905 84.5154 36.2323 84.3927L36.0545 84.4769L36.2323 84.3927C36.1742 84.2699 36.0918 84.1601 35.9902 84.07C35.8885 83.9798 35.7697 83.911 35.6408 83.8678C35.5119 83.8246 35.3755 83.8077 35.24 83.8183C35.1044 83.8288 34.9724 83.8666 34.8518 83.9293C34.7312 83.9919 34.6244 84.0783 34.538 84.1831L34.4584 84.2797Z" fill="#80C5DE" stroke="#80C5DE" stroke-width="0.4"/>
<path d="M29.0985 75.3247L29.0984 75.3249L29.1077 75.328C30.0421 75.6493 32.8765 76.2671 35.3878 75.3262L35.4861 75.2894L35.4938 75.2586C35.5791 75.2151 35.6579 75.1595 35.7278 75.0935C35.824 75.0026 35.9013 74.8937 35.9553 74.773C36.0094 74.6522 36.039 74.522 36.0426 74.3898C36.0461 74.2576 36.0235 74.126 35.9761 74.0026C35.9286 73.8791 35.8572 73.7662 35.766 73.6703C35.6749 73.5744 35.5657 73.4974 35.4447 73.4437C35.3237 73.3899 35.1933 73.3604 35.061 73.3568C34.9288 73.3533 34.7973 73.3757 34.6738 73.4228C33.5578 73.8397 32.3361 73.8422 31.3798 73.7357C30.9033 73.6826 30.4968 73.603 30.2081 73.5367C30.0639 73.5035 29.9492 73.4737 29.8699 73.4523C29.8317 73.442 29.8017 73.4336 29.78 73.4275L29.7775 73.4268L29.7502 73.4192L29.738 73.4161C29.737 73.4158 29.7354 73.4155 29.7335 73.415C29.4868 73.3497 29.2243 73.3798 28.9988 73.4996C28.7712 73.6206 28.5985 73.8239 28.5162 74.068C28.434 74.3121 28.4485 74.5783 28.5569 74.812C28.6652 75.0457 28.8591 75.2291 29.0985 75.3247Z" fill="#80C5DE" stroke="#80C5DE" stroke-width="0.4"/>
<path d="M20.1173 65.6078L20.1173 65.6078H20.1217H20.1622C22.5649 65.6078 24.7596 64.2251 26.7141 61.5741C26.7926 61.4677 26.8494 61.3469 26.8811 61.2186L26.6869 61.1706L26.8811 61.2186C26.9128 61.0902 26.9188 60.9569 26.8989 60.8263C26.8789 60.6956 26.8333 60.5702 26.7647 60.4571C26.6961 60.3441 26.6059 60.2457 26.4992 60.1675C26.3925 60.0892 26.2715 60.0328 26.143 60.0012C26.0145 59.9697 25.881 59.9636 25.7501 59.9835C25.6193 60.0034 25.4936 60.0488 25.3803 60.1171C25.267 60.1854 25.1683 60.2753 25.0898 60.3817L25.0897 60.3817C23.4944 62.5457 21.833 63.5951 20.1593 63.5951H20.1397C18.692 63.5866 17.3859 62.8079 16.425 62.0041C15.4679 61.2034 14.8804 60.4005 14.8736 60.3912L14.8737 60.391L14.8679 60.3838C14.7063 60.1827 14.4737 60.0511 14.218 60.0158C13.9622 59.9805 13.7026 60.0441 13.4924 60.1938C13.2821 60.3435 13.1373 60.5679 13.0877 60.821C13.0382 61.074 13.0878 61.3364 13.2263 61.5541L13.2306 61.5608L13.2354 61.5672C13.755 62.2558 14.3482 62.8858 15.0042 63.446C14.3781 63.7326 13.6386 63.9195 13.0188 63.6675L13.0181 63.6672C12.8954 63.6179 12.7641 63.5931 12.6318 63.5943C12.4994 63.5955 12.3686 63.6227 12.2468 63.6743C12.125 63.7259 12.0145 63.801 11.9217 63.8952C11.8289 63.9894 11.7556 64.101 11.706 64.2235C11.6564 64.346 11.6315 64.4771 11.6327 64.6093C11.6339 64.7414 11.6612 64.872 11.7131 64.9936C11.7649 65.1152 11.8403 65.2254 11.9348 65.3179C12.0293 65.4104 12.1412 65.4834 12.2639 65.5328L12.2998 65.5472H12.3122C12.7406 65.713 13.1967 65.7962 13.6564 65.7925C14.9764 65.7922 16.1799 65.1604 16.848 64.7223C17.8487 65.278 18.9709 65.5823 20.1173 65.6078ZM25.4836 60.2883C25.3927 60.3431 25.3136 60.4152 25.2507 60.5004C23.6385 62.6872 21.925 63.7951 20.1593 63.7951H20.1391C17.1057 63.7778 14.7352 60.5408 14.712 60.5091L25.4836 60.2883Z" fill="#80C5DE" stroke="#80C5DE" stroke-width="0.4"/>
<path d="M49.1454 60.3702L49.1455 60.3702C49.3041 60.1553 49.5417 60.0122 49.8059 59.972C50.0701 59.9319 50.3395 59.998 50.555 60.156C50.7704 60.3139 50.9143 60.5509 50.9546 60.8148C50.9949 61.0785 50.9285 61.3474 50.7702 61.5622C50.2942 62.2141 49.7598 62.8212 49.1736 63.3762C49.4657 63.5182 49.7866 63.6422 50.1103 63.7142C50.4983 63.8005 50.8777 63.8092 51.2147 63.6969L51.2956 63.6644C51.5434 63.5647 51.8209 63.5672 52.0669 63.6715C52.3129 63.7757 52.5075 63.9732 52.6077 64.2206C52.7079 64.4681 52.7053 64.7452 52.6006 64.9908C52.4959 65.2364 52.2976 65.4302 52.0497 65.5299L52.0493 65.5301C51.6104 65.7053 51.1415 65.7935 50.6688 65.7896C49.3308 65.7893 48.1093 65.1379 47.4379 64.7013C46.4604 65.2825 45.3449 65.5947 44.2053 65.605L44.2035 65.605V65.605H44.163H44.1616L44.1616 65.605C42.1663 65.5915 40.4708 64.6108 39.2701 63.6302C38.0674 62.648 37.34 61.6488 37.2767 61.5604L49.1454 60.3702ZM49.1454 60.3702C47.5501 62.5342 45.8888 63.5836 44.2151 63.5836M49.1454 60.3702L44.2151 63.5836M44.2151 63.5836H44.1954M44.2151 63.5836H44.1954M44.1954 63.5836C42.7477 63.5751 41.4416 62.7964 40.4808 61.9926C39.5336 61.2003 38.9485 60.4059 38.9297 60.3802C38.8521 60.2723 38.7541 60.1806 38.6411 60.1104C38.5279 60.04 38.4019 59.9925 38.2703 59.9707C38.0045 59.9266 37.7321 59.9895 37.5128 60.1457C37.2934 60.3019 37.1452 60.5387 37.1008 60.8042C37.0565 61.0696 37.1198 61.3416 37.2766 61.5604L44.1954 63.5836Z" fill="#80C5DE" stroke="#80C5DE" stroke-width="0.4"/>
<path d="M52.1909 56.535L52.191 56.535C52.4203 56.672 52.6947 56.7125 52.9538 56.6477C53.213 56.583 53.436 56.4182 53.5735 56.1894C53.7111 55.9606 53.7518 55.6866 53.6867 55.4277C53.6217 55.1692 53.4564 54.9471 53.2275 54.8101C53.1613 54.7702 52.3809 54.3061 51.3156 53.8156C50.254 53.3267 48.8916 52.8032 47.6659 52.6566L47.6654 52.6565C47.0694 52.5868 46.1583 52.6218 45.1279 52.7114C44.0929 52.8015 42.9221 52.9483 41.799 53.1079C39.5528 53.4273 37.4897 53.7992 37.0704 53.8759L37.0703 53.8756L37.0591 53.8783C36.809 53.9391 36.5914 54.0928 36.451 54.3083C36.3106 54.5239 36.258 54.7848 36.3042 55.0378C36.3503 55.2908 36.4916 55.5165 36.699 55.6689C36.9064 55.8212 37.1642 55.8888 37.4198 55.8579L37.4198 55.8583L37.4318 55.8561C38.5325 55.6545 40.6069 55.3009 42.6225 55.0245C43.6304 54.8862 44.6216 54.7676 45.468 54.6967C46.3197 54.6255 47.0088 54.6043 47.421 54.6548L47.4331 54.6563H47.4361C48.4224 54.7772 49.5969 55.2361 50.5418 55.6766C51.0135 55.8964 51.423 56.1094 51.7163 56.2684C51.8629 56.3478 51.9803 56.4137 52.0617 56.4602C52.1025 56.4834 52.1342 56.5018 52.1561 56.5145L52.1814 56.5294L52.1883 56.5334L52.1902 56.5346L52.1909 56.535ZM52.2935 56.3633C52.4774 56.4731 52.6975 56.5056 52.9054 56.4537C53.1132 56.4017 53.2919 56.2696 53.4021 56.0864C53.5123 55.9031 53.5448 55.6837 53.4927 55.4765C53.4406 55.2693 53.3081 55.0912 53.1242 54.9814L52.2935 56.3633Z" fill="#80C5DE" stroke="#80C5DE" stroke-width="0.4"/>
<path d="M16.8597 54.6564H16.8718L16.8838 54.6549C17.2954 54.605 17.9841 54.6266 18.8353 54.698C19.6814 54.7689 20.6724 54.8875 21.6801 55.0256C23.692 55.3013 25.763 55.6535 26.865 55.8552C26.9969 55.8864 27.1338 55.8908 27.2675 55.8682C27.4033 55.8452 27.5328 55.7948 27.6483 55.72L27.5397 55.5521L27.6483 55.72C27.7638 55.6452 27.8628 55.5477 27.9392 55.4333C28.0156 55.319 28.0677 55.1902 28.0924 55.055C28.1171 54.9198 28.1138 54.7809 28.0826 54.647C28.0515 54.5131 27.9933 54.387 27.9115 54.2764C27.8297 54.1658 27.7262 54.0731 27.6072 54.004C27.4901 53.9359 27.3605 53.892 27.2262 53.8749C26.7956 53.796 24.7438 53.4252 22.5089 53.1069C21.3866 52.9471 20.2162 52.8002 19.1807 52.7103C18.15 52.6207 17.2377 52.5861 16.6395 52.6566L16.6389 52.6566C15.4134 52.8047 14.0511 53.3282 12.9874 53.8166C12.0564 54.2441 11.3348 54.6544 11.1269 54.7726C11.097 54.7896 11.0777 54.8006 11.07 54.8046L11.0698 54.8044L11.0607 54.8099C10.8314 54.9473 10.6661 55.17 10.6013 55.4291C10.5366 55.6882 10.5778 55.9624 10.7158 56.1911C10.8538 56.4199 11.0772 56.5844 11.3366 56.6488C11.596 56.7132 11.8705 56.6723 12.0997 56.535L12.0998 56.535L12.0999 56.5349L12.0999 56.5349L12.1005 56.5345L12.1024 56.5334L12.1093 56.5293L12.1346 56.5145C12.1564 56.5017 12.1881 56.4834 12.2287 56.4602C12.3101 56.4137 12.4273 56.3478 12.5736 56.2683C12.8664 56.1094 13.2754 55.8964 13.7467 55.6766C14.6907 55.2361 15.8653 54.7772 16.8544 54.6564H16.8597Z" fill="#80C5DE" stroke="#80C5DE" stroke-width="0.4"/>
<path d="M49.3935 79.2484L49.3935 79.2491C49.4031 81.1072 49.9757 82.9192 51.0365 84.4473L49.3935 79.2484ZM49.3935 79.2484C49.377 77.3907 49.9282 75.572 50.9739 74.0341M49.3935 79.2484L49.3058 72.9035M49.3058 72.9035L49.3062 72.903C49.4566 72.6824 49.6887 72.5305 49.9512 72.4806C50.2137 72.4307 50.4854 72.4868 50.7066 72.6366C50.9278 72.7864 51.0804 73.0178 51.1306 73.2801C51.1807 73.5422 51.1243 73.8135 50.9739 74.0341M49.3058 72.9035C48.0353 74.7802 47.3626 76.9955 47.3758 79.2596C47.3889 81.5237 48.0873 83.731 49.3794 85.5929L49.3795 85.5931M49.3058 72.9035L49.3795 85.5931M50.9739 74.0341C50.9739 74.0342 50.9739 74.0342 50.9739 74.0342L50.8086 73.9216L50.974 74.034C50.974 74.034 50.974 74.0341 50.9739 74.0341ZM49.3795 85.5931C49.5319 85.8123 49.7653 85.962 50.0281 86.0095M49.3795 85.5931L50.0281 86.0095M50.0281 86.0095C50.291 86.0571 50.5621 85.9986 50.7819 85.8469M50.0281 86.0095L50.7819 85.8469M50.7819 85.8469C51.0017 85.6951 51.1521 85.4624 51.1999 85.1998M50.7819 85.8469L51.1999 85.1998M51.1999 85.1998C51.2477 84.9373 51.1889 84.6666 51.0366 84.4474L51.1999 85.1998Z" fill="#80C5DE" stroke="#80C5DE" stroke-width="0.4"/>
<path d="M45.075 79.0496H45.075C45.0979 82.2523 46.2242 85.3501 48.2653 87.824C48.4353 88.0298 48.5165 88.2946 48.4907 88.5602C48.4649 88.8258 48.3344 89.0702 48.128 89.2396C47.9216 89.4091 47.6562 89.4898 47.3903 89.4641C47.1245 89.4385 46.8795 89.3087 46.7095 89.103C46.7094 89.1029 46.7094 89.1029 46.7094 89.1028L46.8635 88.9754L45.075 79.0496ZM45.075 79.0496C45.0614 75.8479 46.1512 72.7385 48.1625 70.2417C48.2455 70.1388 48.3074 70.0207 48.3447 69.8939C48.3819 69.7671 48.3937 69.6343 48.3795 69.5029C48.3652 69.3716 48.3251 69.2443 48.2615 69.1285C48.1979 69.0126 48.1121 68.9104 48.009 68.8277C47.9058 68.745 47.7874 68.6834 47.6604 68.6463C47.5334 68.6092 47.4004 68.5975 47.2689 68.6117C47.1373 68.6259 47.0099 68.6658 46.8938 68.7291C46.7777 68.7923 46.6752 68.8778 46.5922 68.9806L45.075 79.0496Z" fill="#80C5DE" stroke="#80C5DE" stroke-width="0.4"/>
<path d="M76.3496 78.0403H77.1655H77.1657C78.9501 78.0419 80.6611 78.7489 81.9233 80.0065C83.1856 81.2641 83.8959 82.9695 83.8983 84.7487V84.7489V94.9301C83.8983 95.3713 83.9855 95.8082 84.1548 96.2158C84.3242 96.6234 84.5725 96.9938 84.8856 97.3059C85.1987 97.6179 85.5704 97.8655 85.9795 98.0344C86.3886 98.2033 86.8271 98.2902 87.27 98.2902C87.7129 98.2902 88.1514 98.2033 88.5605 98.0344C88.9697 97.8655 89.3414 97.6179 89.6544 97.3059C89.9675 96.9938 90.2158 96.6234 90.3852 96.2158C90.5546 95.8082 90.6418 95.3713 90.6418 94.9301V86.6905V86.6903C90.6426 86.0282 90.7742 85.3728 91.0291 84.7614C91.284 84.1501 91.6572 83.5948 92.1274 83.1273C92.5975 82.6598 93.1555 82.2892 93.7693 82.0366C94.383 81.7841 95.0407 81.6545 95.7047 81.6553M76.3496 78.0403L100.556 81.8553H100.576C100.79 81.8553 100.995 81.9401 101.147 82.091C101.298 82.242 101.383 82.4467 101.383 82.6602C101.383 82.8737 101.298 83.0784 101.147 83.2293C100.995 83.3803 100.79 83.4651 100.576 83.4651H95.7247M76.3496 78.0403V75.9698V75.9697C76.3487 75.1041 76.0034 74.2744 75.3896 73.6625C74.7758 73.0507 73.9436 72.7068 73.0758 72.706H73.0757H61.8975M76.3496 78.0403L58.8635 83.3276H55.9058C53.8872 83.3276 52.3048 81.3733 52.3048 79.0481C52.3048 76.3667 54.1783 74.7601 55.9058 74.7601H58.8637C59.0942 74.1769 59.4899 73.6718 60.0037 73.3071C60.5567 72.9147 61.2189 72.7045 61.8975 72.706M95.7047 81.6553L95.7044 81.8553V81.6553H95.7047ZM95.7047 81.6553H100.556H100.576C100.843 81.6553 101.099 81.761 101.288 81.9494C101.477 82.1378 101.583 82.3935 101.583 82.6602C101.583 82.9269 101.477 83.1826 101.288 83.371C101.099 83.5594 100.843 83.6651 100.576 83.6651H95.7249M95.7249 83.6651L95.7247 83.4651M95.7249 83.6651C94.9196 83.6658 94.1477 83.985 93.5785 84.5523C93.0094 85.1196 92.6894 85.8887 92.6887 86.6907M95.7249 83.6651H95.7247V83.4651M95.7247 83.4651L92.6887 86.6907M92.6887 86.6907V86.6905H92.4887L92.6887 86.6907ZM92.6887 86.6907V94.9388C92.6887 96.364 92.1207 97.7306 91.1099 98.7382C90.099 99.7457 88.7282 100.312 87.299 100.312C85.8697 100.312 84.4989 99.7457 83.4881 98.7382C82.4772 97.7306 81.9092 96.364 81.9092 94.9388V84.7576C81.9092 83.5101 81.412 82.3135 80.5268 81.4312C79.6416 80.5489 78.4408 80.0531 77.1887 80.0531H76.3727M92.6887 86.6907L76.3727 80.0531M76.3727 80.0531V82.1207V82.1209C76.3719 82.9864 76.0266 83.8162 75.4127 84.428C74.7989 85.0398 73.9668 85.3838 73.099 85.3846H73.0988H61.8977H61.8973V85.1846C61.2598 85.1858 60.6379 84.988 60.1188 84.6191C59.5997 84.2503 59.2095 83.7287 59.0029 83.1276L76.3727 80.0531ZM61.8975 72.706C61.8976 72.706 61.8977 72.706 61.8977 72.706L61.8973 72.906V72.706H61.8975ZM61.8973 83.3719L61.8966 83.3719C61.5826 83.3729 61.2799 83.2559 61.0487 83.0444C60.8196 82.8348 60.6775 82.5475 60.6501 82.2391V82.2382V82.2365V82.2346V82.2326V82.2305V82.2283V82.2259V82.2233V82.2207V82.2179V82.215V82.2119V82.2087V82.2054V82.2019V82.1983V82.1946V82.1908V82.1868V82.1827V82.1785V82.1742V82.1697V82.1651V82.1603V82.1555V82.1505V82.1454V82.1402V82.1349V82.1294V82.1238V82.1181V82.1123V82.1063V82.1003V82.0941V82.0878V82.0814V82.0748V82.0682V82.0614V82.0545V82.0475V82.0404V82.0332V82.0259V82.0184V82.0109V82.0032V81.9954V81.9875V81.9795V81.9714V81.9632V81.9549V81.9465V81.9379V81.9293V81.9205V81.9117V81.9027V81.8937V81.8845V81.8752V81.8659V81.8564V81.8468V81.8371V81.8274V81.8175V81.8075V81.7975V81.7873V81.777V81.7667V81.7562V81.7457V81.735V81.7243V81.7135V81.7025V81.6915V81.6804V81.6692V81.6579V81.6465V81.6351V81.6235V81.6119V81.6001V81.5883V81.5764V81.5644V81.5523V81.5401V81.5279V81.5156V81.5031V81.4906V81.4781V81.4654V81.4526V81.4398V81.4269V81.4139V81.4008V81.3877V81.3745V81.3612V81.3478V81.3343V81.3208V81.3072V81.2935V81.2798V81.2659V81.252V81.2381V81.224V81.2099V81.1957V81.1814V81.1671V81.1527V81.1383V81.1237V81.1091V81.0945V81.0797V81.0649V81.0501V81.0351V81.0201V81.0051V80.99V80.9748V80.9596V80.9443V80.9289V80.9135V80.898V80.8824V80.8668V80.8512V80.8355V80.8197V80.8039V80.788V80.772V80.7561V80.74V80.7239V80.7078V80.6916V80.6753V80.659V80.6426V80.6262V80.6098V80.5933V80.5767V80.5601V80.5435V80.5268V80.51V80.4932V80.4764V80.4595V80.4426V80.4256V80.4086V80.3916V80.3745V80.3574V80.3402V80.323V80.3057V80.2884V80.2711V80.2537V80.2363V80.2189V80.2014V80.1839V80.1664V80.1488V80.1312V80.1135V80.0959V80.0781V80.0604V80.0426V80.0248V80.007V79.9891V79.9712V79.9533V79.9354V79.9174V79.8994V79.8814V79.8633V79.8452V79.8271V79.809V79.7909V79.7727V79.7545V79.7363V79.7181V79.6998V79.6815V79.6632V79.6449V79.6266V79.6082V79.5899V79.5715V79.5531V79.5347V79.5163V79.4978V79.4794V79.4609V79.4424V79.4239V79.4054V79.3869V79.3684V79.3499V79.3313V79.3128V79.2942V79.2756V79.2571V79.2385V79.2199V79.2013V79.1827V79.1641V79.1455V79.1269V79.1083V79.0897V79.0711V79.0525V79.0339V79.0153V78.9966V78.978V78.9594V78.9408V78.9222V78.9036V78.885V78.8664V78.8479V78.8293V78.8107V78.7922V78.7736V78.7551V78.7365V78.718V78.6995V78.681V78.6625V78.644V78.6255V78.607V78.5886V78.5702V78.5517V78.5333V78.515V78.4966V78.4782V78.4599V78.4416V78.4233V78.405V78.3867V78.3685V78.3503V78.3321V78.3139V78.2957V78.2776V78.2595V78.2414V78.2233V78.2053V78.1873V78.1693V78.1513V78.1334V78.1155V78.0976V78.0798V78.0619V78.0442V78.0264V78.0087V77.991V77.9733V77.9557V77.9381V77.9205V77.903V77.8855V77.8681V77.8506V77.8333V77.8159V77.7986V77.7813V77.7641V77.7469V77.7298V77.7127V77.6956V77.6786V77.6616V77.6446V77.6277V77.6109V77.5941V77.5773V77.5606V77.5439V77.5273V77.5107V77.4942V77.4777V77.4613V77.4449V77.4286V77.4123V77.3961V77.3799V77.3638V77.3477V77.3317V77.3157V77.2998V77.2839V77.2681V77.2524V77.2367V77.2211V77.2055V77.19V77.1746V77.1592V77.1438V77.1286V77.1133V77.0982V77.0831V77.0681V77.0531V77.0382V77.0234V77.0087V76.994V76.9793V76.9648V76.9503V76.9358V76.9215V76.9072V76.893V76.8788V76.8647V76.8507V76.8368V76.8229V76.8091V76.7954V76.7818V76.7682V76.7547V76.7413V76.728V76.7147V76.7015V76.6884V76.6754V76.6624V76.6496V76.6368V76.6241V76.6115V76.5989V76.5865V76.5741V76.5618V76.5496V76.5375V76.5254V76.5135V76.5016V76.4898V76.4781V76.4665V76.455V76.4436V76.4323V76.421V76.4099V76.3988V76.3878V76.377V76.3662V76.3555V76.3449V76.3344V76.324V76.3137V76.3035V76.2934V76.2834V76.2734V76.2636V76.2539V76.2443V76.2348V76.2254V76.216V76.2068V76.1977V76.1887V76.1798V76.171V76.1623V76.1537V76.1453V76.1369V76.1286V76.1205V76.1124V76.1045V76.0966V76.0889V76.0813V76.0738V76.0664V76.0591V76.052V76.0449V76.038V76.0312V76.0245V76.0179V76.0114V76.0051V75.9988V75.9927V75.9867V75.9808V75.975V75.9694V75.9639V75.9585V75.9532V75.948V75.943V75.9381V75.9333V75.9287V75.9241V75.9197V75.9154V75.9113V75.9072V75.9033V75.8996V75.8959V75.8924V75.889V75.8858V75.8826V75.8797V75.8768V75.8741V75.8715V75.869V75.8667V75.8645V75.8625V75.8606V75.8588V75.8574C60.6782 75.5496 60.8205 75.263 61.0495 75.0538C61.2806 74.8429 61.583 74.7262 61.8966 74.7273H61.8973H73.0988C73.4298 74.7273 73.7471 74.8584 73.981 75.0915C74.2148 75.3246 74.346 75.6405 74.346 75.9698V82.1207C74.346 82.45 74.2148 82.766 73.981 82.999C73.7471 83.2321 73.4298 83.3632 73.0988 83.3632H73.0436L73.0291 83.3719L61.8973 83.3719ZM58.6118 81.3148H55.9174C55.5165 81.3148 55.1249 81.0805 54.8254 80.6663C54.5269 80.2535 54.3344 79.6785 54.3344 79.0481C54.3344 78.4182 54.5289 77.8409 54.8288 77.4256C55.13 77.0084 55.5217 76.7728 55.9174 76.7728H58.6118V81.3148Z" fill="#80C5DE" stroke="#80C5DE" stroke-width="0.4"/>
</svg>
