<svg width="77" height="96" viewBox="0 0 77 96" fill="none" xmlns="http://www.w3.org/2000/svg">
<path d="M34.1966 79.6798V79.7047C33.8875 79.7056 33.5969 79.8005 33.3309 79.9325C33.0091 80.0921 32.7066 80.3148 32.4378 80.5126L32.4198 80.5258L32.4192 80.5263C32.4034 80.538 32.3877 80.5497 32.3721 80.5613C32.2873 80.6245 32.2055 80.6854 32.1299 80.7347C32.1069 80.7165 32.0835 80.6977 32.0599 80.6789C32.0302 80.6551 32.0003 80.6311 31.971 80.6082L31.9645 80.6029C31.5149 80.2404 30.8438 79.6993 29.916 79.6993C29.5561 79.6993 29.1461 79.8275 28.7364 80.0125C28.323 80.1992 27.8917 80.4521 27.4841 80.7199C26.6696 81.2549 25.9337 81.8596 25.5993 82.1434C25.4975 82.2277 25.4134 82.3314 25.3519 82.4484C25.2902 82.5658 25.2526 82.6944 25.2412 82.8265C25.2298 82.9586 25.2448 83.0917 25.2855 83.2179C25.3262 83.3441 25.3917 83.461 25.4781 83.5617C25.5645 83.6624 25.6701 83.7449 25.7887 83.8045C25.9073 83.8641 26.0366 83.8995 26.1691 83.9088C26.3015 83.9181 26.4345 83.901 26.5603 83.8586C26.6856 83.8163 26.8012 83.7497 26.9006 83.6626C27.522 83.1331 28.1961 82.6341 28.7647 82.2684C29.0495 82.0853 29.3047 81.9376 29.5118 81.8365C29.6153 81.786 29.7039 81.7485 29.776 81.7241C29.8512 81.6986 29.8959 81.6918 29.916 81.6918C30.0045 81.6918 30.1183 81.733 30.2643 81.8232C30.4046 81.9098 30.55 82.0255 30.7064 82.1499L30.7169 82.1583C30.9255 82.3278 31.1963 82.5469 31.5102 82.6844C31.8317 82.8251 32.2082 82.8847 32.6193 82.7256L32.6194 82.7258L32.628 82.722C32.9821 82.5653 33.3142 82.3631 33.6157 82.1205C33.7267 82.0385 33.8729 81.9311 34.0007 81.84C34.0654 81.794 34.1241 81.753 34.1707 81.7219C34.1825 81.714 34.1928 81.7073 34.2015 81.7017C34.4785 81.7626 34.9027 81.9732 35.3936 82.3017C35.9148 82.6505 36.4842 83.1138 36.9855 83.6132C37.0769 83.71 37.1868 83.7875 37.3086 83.8414C37.4315 83.8957 37.5641 83.9248 37.6984 83.927C37.8328 83.9291 37.9662 83.9043 38.0908 83.8539C38.2154 83.8036 38.3286 83.7287 38.4236 83.6338C38.5186 83.5388 38.5935 83.4258 38.6437 83.3013C38.694 83.1768 38.7186 83.0435 38.7161 82.9093C38.7136 82.7751 38.684 82.6428 38.6291 82.5203C38.5748 82.399 38.4967 82.2897 38.3996 82.1989C37.9856 81.7851 37.3407 81.2179 36.631 80.7285C35.9255 80.2419 35.1312 79.8149 34.4252 79.7129L34.1966 79.6798Z" fill="#80C5DE" stroke="#80C5DE" stroke-width="0.4"/>
<path d="M34.2701 83.4505L34.0825 83.6535C33.4415 84.3014 32.7828 84.6132 32.1209 84.6182H32.0985C31.4479 84.6182 30.8458 84.3352 30.3946 84.0371C29.9629 83.7519 29.6891 83.4661 29.6694 83.4455C29.6686 83.4446 29.6682 83.4442 29.6683 83.4443L29.6636 83.4389L29.6586 83.4338C29.4767 83.2505 29.2308 83.1446 28.9724 83.1379C28.7141 83.1313 28.463 83.2246 28.2719 83.3983C28.0807 83.5721 27.9643 83.8129 27.9471 84.0705C27.93 84.3281 28.0134 84.5822 28.1799 84.7797L28.1797 84.7799L28.1859 84.7865C28.2249 84.8288 28.6458 85.2834 29.3314 85.7285C30.0158 86.1727 30.9778 86.6165 32.0956 86.6165H32.1159C33.4654 86.6165 34.6943 85.9812 35.7645 84.7811L35.7645 84.7811L35.7668 84.7784C35.9379 84.5796 36.0239 84.3217 36.0061 84.0601C35.9884 83.7986 35.8683 83.5546 35.672 83.3807C35.4757 83.2068 35.2188 83.1167 34.9567 83.1298C34.6947 83.1428 34.448 83.2579 34.2701 83.4505Z" fill="#80C5DE" stroke="#80C5DE" stroke-width="0.4"/>
<path d="M35.0895 74.6712L35.0895 74.6712L35.0908 74.6707C35.339 74.5752 35.5392 74.3853 35.6471 74.1424C35.755 73.8996 35.7617 73.6239 35.6657 73.3761C35.5697 73.1283 35.379 72.9289 35.1358 72.8215C34.8928 72.7143 34.6172 72.7075 34.3692 72.8026C33.2531 73.2196 32.043 73.2219 31.0984 73.1155C30.6276 73.0624 30.2268 72.9828 29.9421 72.9166C29.7999 72.8835 29.6868 72.8537 29.6085 72.8322C29.5729 72.8225 29.5445 72.8145 29.5232 72.8085C29.521 72.8079 29.5189 72.8073 29.5169 72.8067L29.4894 72.799L29.4766 72.7957C29.4763 72.7957 29.4759 72.7956 29.4755 72.7955C29.229 72.7242 28.9642 72.75 28.736 72.8678C28.5051 72.987 28.3296 73.1912 28.2468 73.4373C28.164 73.6835 28.1805 73.9521 28.2928 74.1862C28.4051 74.4204 28.6043 74.6016 28.8481 74.6918L28.9594 74.733L28.9865 74.7094C30.018 75.0343 32.6916 75.5753 35.0895 74.6712Z" fill="#80C5DE" stroke="#80C5DE" stroke-width="0.4"/>
<path d="M37.1183 55.3847L37.1275 55.383C38.218 55.1829 40.2735 54.8329 42.271 54.5597C43.2698 54.423 44.2521 54.3059 45.0911 54.2362C45.9352 54.1661 46.6181 54.1456 47.0266 54.1961L47.0274 54.1962C48.0074 54.3134 49.1774 54.7699 50.1176 55.2081C50.5851 55.426 50.9909 55.6371 51.2813 55.7946C51.5468 55.9387 51.7102 56.035 51.7381 56.0514C51.7411 56.0532 51.7426 56.054 51.7424 56.0539L51.7421 56.0542L51.7529 56.0605C51.9805 56.192 52.2507 56.2291 52.5053 56.1637C52.76 56.0982 52.9788 55.9355 53.1143 55.7104C53.2498 55.4853 53.291 55.216 53.229 54.9607C53.167 54.7055 53.0067 54.485 52.7831 54.3468L52.7812 54.3456C52.7149 54.3057 51.9411 53.846 50.8849 53.3598C49.8323 52.8752 48.4816 52.3561 47.2662 52.2094L47.2656 52.2094C46.6739 52.1397 45.7703 52.1741 44.749 52.2629C43.7229 52.3522 42.5626 52.4979 41.4497 52.6564C39.233 52.9723 37.1965 53.3404 36.7682 53.4191C36.6351 53.4366 36.507 53.4806 36.3913 53.5485C36.2738 53.6175 36.1717 53.7096 36.0911 53.8193C36.0105 53.929 35.9532 54.054 35.9227 54.1866C35.8923 54.3192 35.8893 54.4567 35.914 54.5905C35.9387 54.7243 35.9905 54.8516 36.0662 54.9647C36.142 55.0778 36.24 55.1742 36.3544 55.2482L36.463 55.0802L36.3544 55.2482C36.4688 55.3221 36.5971 55.3719 36.7313 55.3947C36.8598 55.4165 36.9913 55.4131 37.1183 55.3847Z" fill="#80C5DE" stroke="#80C5DE" stroke-width="0.4"/>
<path d="M11.2719 56.1636C11.5082 56.2243 11.7581 56.1968 11.9747 56.0873H11.9823L12.0297 56.0589C12.0408 56.0523 12.727 55.6441 13.6615 55.2081C14.6006 54.7698 15.7699 54.3134 16.7527 54.1962L16.7534 54.1961C17.1649 54.1455 17.8494 54.1661 18.694 54.2362C19.5335 54.3059 20.5154 54.423 21.5135 54.5596C23.5063 54.8324 25.5556 55.1817 26.6475 55.382C26.7781 55.4128 26.9136 55.4171 27.0459 55.3947C27.1802 55.3719 27.3085 55.322 27.4229 55.2481C27.5373 55.1742 27.6353 55.0777 27.711 54.9647C27.7868 54.8516 27.8386 54.7242 27.8633 54.5904C27.8879 54.4566 27.885 54.3192 27.8545 54.1866C27.8241 54.054 27.7668 53.929 27.6862 53.8193C27.6056 53.7095 27.5035 53.6174 27.386 53.5485C27.2703 53.4806 27.1422 53.4366 27.0091 53.4191C26.5819 53.3403 24.547 52.973 22.3308 52.6575C21.2181 52.4991 20.0577 52.3535 19.0312 52.2641C18.0093 52.1751 17.105 52.1404 16.512 52.2093L16.5109 52.2094C15.2956 52.3575 13.945 52.8766 12.8924 53.3608C11.8362 53.8466 11.0624 54.3056 10.996 54.3456L10.996 54.3456L10.9941 54.3468C10.7705 54.485 10.6103 54.7055 10.5482 54.9607C10.4862 55.2159 10.5275 55.4853 10.663 55.7104C10.7985 55.9354 11.0172 56.0982 11.2719 56.1636Z" fill="#80C5DE" stroke="#80C5DE" stroke-width="0.4"/>
<path d="M56.0432 70.4955C56.7596 68.2962 57.2833 66.0387 57.6084 63.7482L57.6084 63.7481C57.7947 62.4279 57.8993 61.1381 57.969 59.8942L57.9695 59.8852L57.9692 59.8761C57.9616 59.6582 58.0091 59.517 58.0745 59.4245C58.1396 59.3323 58.2363 59.2687 58.3638 59.231C58.6285 59.1525 58.9909 59.1972 59.306 59.3023C59.8491 59.4886 60.3302 59.8204 60.6965 60.2611C61.0631 60.7021 61.3007 61.2351 61.3833 61.8016L61.3837 61.8037C61.6005 63.1865 61.1546 66.1176 56.0432 70.4955ZM38.5591 90.7522C36.1707 92.1996 33.9046 92.977 32.0245 92.979C29.0118 92.9759 25.0764 91.1048 21.2398 87.6406C17.4087 84.1814 13.7011 79.1553 11.1435 72.8946C11.1433 72.8938 11.1431 72.8932 11.1429 72.8927L11.1368 72.8752C11.1324 72.8629 11.1262 72.846 11.1185 72.8252L11.0512 72.6456C10.9932 72.4906 10.9096 72.2664 10.8074 71.9852C10.6029 71.4228 10.3236 70.6324 10.0246 69.7128C9.42577 67.8715 8.75029 65.5202 8.43437 63.4448L8.43436 63.4447C8.3354 62.7972 8.22154 61.7384 8.12994 60.8235C8.08422 60.3669 8.04419 59.9477 8.01449 59.6354L8.00622 59.5485C7.98415 59.3163 7.96817 59.1483 7.96145 59.093C7.70445 52.8813 9.34715 47.4263 12.7253 43.4291L12.7254 43.4291C16.9233 38.4576 23.569 35.8144 31.9653 35.8144C40.517 35.8144 46.9159 38.221 51.0309 42.9324C55.2266 47.7388 56.8281 54.8309 55.6146 63.4731L55.6146 63.4732C54.437 71.8962 50.4402 79.2803 45.7754 84.5581C43.4432 87.1967 40.9474 89.3049 38.5591 90.7522ZM8.08907 70.2906C3.2559 66.0955 2.66365 63.2336 2.81975 61.7852H2.82441L2.85087 61.6161C3.0653 60.2461 3.98703 59.4082 4.78021 59.2209C5.22096 59.1171 5.52725 59.1506 5.7228 59.2057C5.83111 59.2363 5.90408 59.2715 5.95716 59.3023C6.02724 60.8008 6.19106 62.2935 6.44765 63.7716L6.44771 63.772C6.83532 65.982 7.38394 68.1607 8.08907 70.2906ZM50.4993 34.6248C53.3717 37.8627 55.2218 42.1193 56.0132 47.2023C55.1577 45.1672 53.9856 43.2751 52.537 41.597L52.5364 41.5975C48.0061 36.417 41.0751 33.8074 31.9711 33.8074C22.9939 33.8074 15.7989 36.6781 11.1925 42.1324L11.192 42.133C9.8262 43.7635 8.71389 45.5852 7.88921 47.5369C8.6484 42.6343 10.4704 38.3888 13.3059 35.0957C17.6021 30.1113 24.0455 27.4623 31.9682 27.4623C40.0667 27.4623 46.2922 29.8837 50.4993 34.6248ZM7.29591 29.4407L7.31037 29.4291L7.32817 29.4014C10.8357 23.9443 17.9684 17.4224 32.0521 17.4224C43.7583 17.4224 52.909 22.3327 57.8521 31.2282L57.8521 31.2282C63.0209 40.5233 62.2058 51.4102 58.8388 57.1921C58.6521 57.18 58.4648 57.1836 58.2789 57.203C59.0938 47.1336 56.9419 38.8969 51.9882 33.3093L51.9882 33.3092C47.3679 28.1006 40.618 25.4726 31.9566 25.4726C23.4586 25.4726 16.4692 28.3458 11.7727 33.8047C6.86737 39.4964 4.75663 47.7183 5.68812 57.1384C5.47433 57.1206 5.25921 57.1239 5.0459 57.1483C1.38319 48.5804 2.25822 37.2912 7.29591 29.4407ZM62.4527 59.2617C62.0169 58.6589 61.455 58.1589 60.8068 57.7958C64.3727 51.293 65.0854 40.0922 59.62 30.2578L59.4452 30.355L59.62 30.2578C55.9884 23.7245 50.2701 19.1988 43.0459 16.9735C44.1456 15.3861 44.7391 13.502 44.7446 11.5684V11.5678C44.7446 5.60637 39.0576 0.8 32.1187 0.8C25.1798 0.8 19.49 5.60644 19.49 11.5793C19.49 13.8264 19.9462 15.4214 21.0744 16.9282C13.0862 19.305 8.35576 24.0984 5.64285 28.3226C0.27475 36.6762 -0.691452 48.6559 3.17064 57.807C2.5785 58.1733 2.06958 58.66 1.67754 59.236C1.2523 59.8609 0.975863 60.5743 0.869323 61.3219C0.456752 63.9557 1.70225 68.2238 9.47762 73.9663C12.0923 80.1373 15.8552 85.3792 19.892 89.0839C23.9344 92.7938 28.2755 94.983 32.029 94.983C35.8293 94.983 40.237 92.7261 44.3148 89.0002C48.3829 85.2831 52.1484 80.0813 54.6887 74.1162C54.7023 74.109 54.7182 74.0999 54.7346 74.0885L54.7384 74.0857C62.5339 68.3724 63.7729 64.1218 63.3623 61.4889C63.2413 60.6848 62.9294 59.9212 62.4527 59.2617ZM23.2113 16.3735C22.5859 15.6951 22.1615 15.0377 21.8907 14.2925C21.6143 13.5321 21.4935 12.6685 21.4935 11.5793C21.4935 6.77244 26.2243 2.7983 32.1187 2.7983C38.0127 2.7983 42.7406 6.78057 42.741 11.5787C42.7268 13.3501 42.0989 15.061 40.9657 16.4228C38.0487 15.7452 35.0621 15.41 32.0666 15.4241C29.0883 15.4083 26.1178 15.7268 23.2113 16.3735Z" fill="#80C5DE" stroke="#80C5DE" stroke-width="0.4"/>
<path d="M20.1601 64.3817L20.1601 64.3817H20.1647H20.2052C22.6078 64.3817 24.8054 62.999 26.7572 60.3478L26.7572 60.3478C26.8355 60.2414 26.892 60.1206 26.9235 59.9923C26.955 59.864 26.9609 59.7308 26.9407 59.6003C26.9206 59.4698 26.8749 59.3445 26.8062 59.2317C26.7375 59.1188 26.6472 59.0206 26.5405 58.9426L26.5405 58.9426C26.4338 58.8646 26.3127 58.8084 26.1843 58.777L26.1369 58.9713L26.1843 58.777C26.0558 58.7457 25.9224 58.7399 25.7917 58.7599C25.661 58.78 25.5356 58.8255 25.4225 58.8939C25.3094 58.9623 25.2108 59.0523 25.1325 59.1587C23.5401 61.3196 21.8789 62.369 20.2052 62.369H20.182C18.7348 62.369 17.429 61.5913 16.4681 60.7857C15.9903 60.3851 15.6042 59.9829 15.3362 59.6788C15.0779 59.3857 14.9328 59.1877 14.9218 59.1727C14.9214 59.172 14.9211 59.1717 14.9212 59.1718L14.9213 59.1717L14.9174 59.1663C14.7617 58.9495 14.526 58.8034 14.2625 58.7599C13.9989 58.7164 13.7287 58.779 13.5114 58.9341C13.294 59.0892 13.1471 59.3242 13.1034 59.5874C13.0597 59.8507 13.1227 60.1204 13.2784 60.3373L13.2784 60.3373L13.281 60.3409C13.7998 61.0303 14.393 61.6605 15.0497 62.2201C14.4236 62.5066 13.6843 62.6934 13.0647 62.4414L13.0647 62.4414L13.0602 62.4397C12.8133 62.3461 12.5395 62.3526 12.2973 62.4579C12.0552 62.5633 11.8639 62.759 11.7646 63.0035C11.6654 63.248 11.6662 63.5216 11.7669 63.7655C11.8676 64.0093 12.06 64.204 12.3028 64.3079L12.3405 64.324H12.3498C12.7794 64.4881 13.2358 64.5713 13.696 64.5692C15.0143 64.5691 16.2184 63.9339 16.8878 63.4986C17.8902 64.0525 19.0131 64.3558 20.1601 64.3817Z" fill="#80C5DE" stroke="#80C5DE" stroke-width="0.4"/>
<path d="M51.358 62.4379L51.3581 62.4381C51.6036 62.3514 51.8732 62.3625 52.1106 62.4693C52.3481 62.576 52.5352 62.7702 52.6327 63.0114C52.7301 63.2526 52.7303 63.5221 52.6332 63.7635C52.5361 64.0048 52.3492 64.1993 52.1119 64.3063L52.1032 64.3102L52.1031 64.31C51.6641 64.4834 51.1959 64.5714 50.7237 64.5692M51.358 62.4379L49.1854 59.1587C47.59 61.3197 45.9317 62.369 44.2552 62.369H44.2349C42.7877 62.369 41.4819 61.5913 40.521 60.7857C40.0432 60.3851 39.657 59.9829 39.3891 59.6788C39.1308 59.3857 38.9857 59.1877 38.9747 59.1727C38.9743 59.1721 38.9741 59.1718 38.9741 59.1718L38.9742 59.1717L38.9703 59.1663C38.8145 58.9495 38.5789 58.8034 38.3153 58.7599C38.0518 58.7164 37.7816 58.779 37.5643 58.9341C37.3469 59.0892 37.2 59.3242 37.1563 59.5874C37.1126 59.8503 37.1753 60.1196 37.3305 60.3362C37.3985 60.4332 38.1253 61.4286 39.3235 62.4069C40.5247 63.3876 42.2208 64.3683 44.2162 64.3817L44.2162 64.3817H44.2175L44.258 64.3817L44.2597 64.3817C45.3994 64.3725 46.5154 64.0602 47.4925 63.4781C48.1634 63.9149 49.3826 64.5691 50.7237 64.5692M51.358 62.4379L51.35 62.4412M51.358 62.4379L51.35 62.4412M50.7237 64.5692C50.7236 64.5692 50.7234 64.5692 50.7233 64.5692L50.7242 64.3692V64.5692C50.7241 64.5692 50.7239 64.5692 50.7237 64.5692ZM51.35 62.4412C50.992 62.5854 50.5827 62.5827 50.1638 62.4895M51.35 62.4412L50.1638 62.4895M50.1638 62.4895C49.8404 62.4176 49.52 62.2935 49.2279 62.1521M50.1638 62.4895L49.2279 62.1521M49.2279 62.1521C49.8086 61.5993 50.3383 60.9953 50.8104 60.3474M49.2279 62.1521L50.8104 60.3474M50.8104 60.3474C50.8885 60.2411 50.9449 60.1204 50.9764 59.9923C51.0079 59.8641 51.0138 59.7309 50.9936 59.6003C50.9735 59.4698 50.9277 59.3445 50.859 59.2317C50.7903 59.1188 50.7 59.0206 50.5933 58.9426C50.4866 58.8646 50.3656 58.8084 50.2372 58.777C50.1087 58.7457 49.9753 58.7399 49.8446 58.7599C49.7139 58.78 49.5884 58.8255 49.4753 58.8939C49.3623 58.9622 49.2638 59.0521 49.1856 59.1584L50.8104 60.3474Z" fill="#80C5DE" stroke="#80C5DE" stroke-width="0.4"/>
<path d="M52.2777 94.0945C52.0902 94.0944 51.9072 94.0375 51.7529 93.9312C51.5983 93.8247 51.4799 93.6737 51.4136 93.4982C51.3473 93.3227 51.3362 93.1312 51.3819 92.9493C51.4276 92.7674 51.5278 92.6039 51.669 92.4804C62.1282 83.3121 68.962 72.8574 72.032 61.3799L70.7826 62.3736L70.7761 62.3788L70.776 62.3786C70.5835 62.5191 70.3441 62.5798 70.1078 62.5482C69.8716 62.5166 69.6566 62.3951 69.508 62.2089C69.3594 62.0226 69.2887 61.7862 69.3111 61.549C69.3334 61.3119 69.4469 61.0927 69.6276 60.9374L69.6334 60.9323L69.6335 60.9324L72.985 58.2692C73.0014 58.2553 73.0192 58.243 73.038 58.2327C73.0652 58.2128 73.0942 58.1954 73.1247 58.1808L73.1822 58.1508L73.1955 58.1438L73.2097 58.1389L73.2895 58.1115C73.3178 58.1005 73.3469 58.092 73.3765 58.086L73.3889 58.0834L73.4014 58.0825C73.4483 58.0789 73.4954 58.0787 73.5423 58.0819H73.5642H73.5644C73.6221 58.082 73.6795 58.0878 73.736 58.0992H73.7436H73.7695L73.7945 58.1058C73.8442 58.1189 73.8928 58.1358 73.9398 58.1565L73.9466 58.1595L73.9532 58.163L73.9967 58.1861L74.0032 58.1896L74.0095 58.1936L74.0964 58.2484L74.1086 58.2561L74.1195 58.2654L74.1601 58.3001L74.1623 58.3019L74.1622 58.3019C74.1931 58.3291 74.2222 58.3581 74.2494 58.3888L74.2558 58.396L74.2556 58.3962L74.2903 58.4395L74.2938 58.4438L74.2937 58.4438C74.3177 58.4755 74.3394 58.5087 74.3586 58.5434L74.3752 58.5695L74.3814 58.5792L74.3865 58.5895L76.143 62.1914L76.1437 62.1911C76.2054 62.3007 76.2439 62.4216 76.257 62.5466C76.27 62.6716 76.2573 62.7979 76.2196 62.9178L76.0288 62.8578L76.2196 62.9178C76.1819 63.0377 76.12 63.1486 76.0378 63.2437C75.9555 63.3388 75.8547 63.4161 75.7415 63.4709C75.6283 63.5257 75.505 63.5568 75.3794 63.5624C75.2537 63.568 75.1282 63.5479 75.0106 63.5033C74.8929 63.4588 74.7856 63.3908 74.6953 63.3033C74.6063 63.2173 74.5356 63.1142 74.4874 63.0003L73.8582 61.6937C70.7109 73.6092 63.6629 84.4169 52.8879 93.866C52.7196 94.0146 52.5023 94.0959 52.2777 94.0945ZM52.2777 94.0945C52.2774 94.0945 52.2772 94.0945 52.277 94.0945L52.2784 93.8945L52.2786 94.0945C52.2783 94.0945 52.278 94.0945 52.2777 94.0945Z" fill="#80C5DE" stroke="#80C5DE" stroke-width="0.4"/>
</svg>
