<svg width="72" height="80" viewBox="0 0 72 80" fill="none" xmlns="http://www.w3.org/2000/svg">
<path d="M16.6622 15.0126C14.9866 13.1672 13.9762 10.8166 13.7923 8.33286C13.6068 5.82824 14.2727 3.33439 15.6826 1.25313C15.7544 1.14272 15.8475 1.04764 15.9564 0.973406C16.0659 0.898754 16.1892 0.846669 16.3192 0.820168C16.4491 0.793667 16.583 0.793279 16.713 0.819028C16.8431 0.844776 16.9667 0.896151 17.0767 0.970165C17.1866 1.04418 17.2807 1.13936 17.3533 1.25015C17.426 1.36093 17.4757 1.4851 17.4996 1.61536C17.5235 1.74562 17.5211 1.87933 17.4925 2.00864L17.3104 1.96836L17.4925 2.00864C17.464 2.1372 17.4103 2.25882 17.3344 2.36645C16.5264 3.56098 16.0103 4.92747 15.8274 6.35647C15.6444 7.78614 15.8 9.23867 16.2817 10.5976C16.7635 11.9566 17.558 13.1842 18.6016 14.182C19.6452 15.1798 20.9089 15.9201 22.2914 16.3435C23.6739 16.7668 25.1367 16.8614 26.5625 16.6197C27.9883 16.378 29.3374 15.8067 30.5017 14.9516C31.6659 14.0966 32.613 12.9815 33.2669 11.696C33.9207 10.4106 34.2633 8.99052 34.2673 7.54946L16.6622 15.0126ZM16.6622 15.0126L18.4427 25.8122L16.6622 15.0126ZM18.7689 28.379L18.7689 28.3789C18.6917 27.5235 18.5801 26.6508 18.4428 25.8124L18.7689 28.379ZM18.7689 28.379C18.7914 28.6264 18.906 28.8564 19.0898 29.0237C19.2737 29.191 19.5135 29.2837 19.7622 29.2836C19.7622 29.2836 19.7623 29.2836 19.7623 29.2836H19.8341H19.8435M18.7689 28.379L19.8435 29.2836M19.8435 29.2836L19.8528 29.2827M19.8435 29.2836L19.8528 29.2827M19.8528 29.2827C20.1148 29.2581 20.3568 29.1315 20.5259 28.93C20.695 28.7285 20.7776 28.4685 20.7556 28.2065L20.7554 28.2048M19.8528 29.2827L20.7554 28.2048M20.7554 28.2048C20.6716 27.2998 20.5559 26.3918 20.4113 25.5067L20.4112 25.5064M20.7554 28.2048L20.4112 25.5064M20.4112 25.5064L19.0126 17.0279M20.4112 25.5064L19.0126 17.0279M19.0126 17.0279C20.6117 18.0373 22.4429 18.6291 24.337 18.7448C26.3851 18.87 28.4285 18.4337 30.2456 17.4833C32.0626 16.5329 33.584 15.1047 34.6445 13.3534C35.7049 11.6022 36.2641 9.59501 36.2613 7.54946M19.0126 17.0279L34.528 7.24547M34.528 7.24547L34.3433 7.16872C34.3934 7.04803 34.4669 6.93841 34.5595 6.8461C34.6522 6.75379 34.7621 6.68061 34.883 6.63069C35.0039 6.58077 35.1334 6.55509 35.2643 6.55509C35.3951 6.55509 35.5247 6.58077 35.6456 6.63069C35.7665 6.68061 35.8764 6.75379 35.969 6.8461C36.0616 6.93841 36.1351 7.04803 36.1853 7.16872C36.2354 7.28941 36.2613 7.41879 36.2613 7.54946M34.528 7.24547C34.568 7.14909 34.6267 7.06152 34.7007 6.98775C34.7747 6.91399 34.8626 6.85548 34.9593 6.81556C35.056 6.77564 35.1596 6.75509 35.2643 6.75509C35.3689 6.75509 35.4726 6.77564 35.5693 6.81556C35.666 6.85548 35.7538 6.91399 35.8278 6.98775C35.9018 7.06152 35.9605 7.14909 36.0006 7.24547C36.0406 7.34185 36.0613 7.44514 36.0613 7.54946M34.528 7.24547L36.0613 7.54946M34.528 7.24547L34.3433 7.16872C34.2932 7.28924 34.2674 7.41843 34.2673 7.54892L34.528 7.24547ZM36.2613 7.54946H36.0613M36.2613 7.54946C36.2613 7.54937 36.2613 7.54927 36.2613 7.54918L36.0613 7.54946" fill="#80C5DE" stroke="#80C5DE" stroke-width="0.4"/>
<path d="M61.9623 78.8474L62.0772 79.0111C61.8656 79.1597 61.6043 79.2203 61.3487 79.1803C61.0931 79.1402 60.863 79.0026 60.7072 78.7963C60.5513 78.59 60.4821 78.3312 60.5142 78.0748L60.515 78.0683L60.5151 78.0683L61.5595 71.4725L61.5595 71.4724C61.8977 69.3394 62.0308 67.179 61.9571 65.0208L61.9571 65.0206C61.9527 64.8899 61.9743 64.7596 62.0205 64.6373C62.0667 64.5149 62.1366 64.4029 62.2262 64.3076C62.3158 64.2122 62.4234 64.1355 62.5427 64.0817C62.662 64.0279 62.7908 63.998 62.9217 63.9939L62.928 63.9937V63.9938L62.9538 63.9938C62.9538 63.9938 62.9539 63.9938 62.9539 63.9938C63.2126 63.9937 63.4613 64.0938 63.6473 64.2733C63.8334 64.4527 63.9423 64.6974 63.9508 64.9556L61.9623 78.8474ZM61.9623 78.8474L62.0772 79.0111C62.2889 78.8625 62.4345 78.6376 62.4829 78.3837L62.483 78.3837L62.484 78.3775L63.5284 71.7816M61.9623 78.8474L63.5284 71.7816M63.5284 71.7816C63.8859 69.5248 64.0273 67.2392 63.9508 64.9557L63.5284 71.7816Z" fill="#80C5DE" stroke="#80C5DE" stroke-width="0.4"/>
<path d="M51.5121 62.3763C51.7401 62.2807 51.9962 62.2728 52.2304 62.3553C52.4797 62.443 52.6839 62.626 52.7981 62.864C52.9123 63.1021 52.9269 63.3758 52.8387 63.6246C52.7506 63.8735 52.567 64.077 52.3285 64.1907L51.5121 62.3763ZM51.5121 62.3763H51.495L51.4542 62.3958L37.2207 69.1886L13.5022 57.872C13.8294 56.5803 14.2331 55.3091 14.7112 54.065C17.4456 54.7685 26.1697 56.754 37.5861 56.754M51.5121 62.3763L37.5861 56.754M37.5861 56.754C37.5859 56.754 37.5856 56.754 37.5854 56.754L37.5861 56.554V56.754ZM37.5861 56.754C45.0515 56.7796 52.4903 55.87 59.7276 54.0466C59.8846 54.4468 60.0393 54.8413 60.1765 55.2488C60.2141 55.3765 60.277 55.4952 60.3615 55.5982C60.4469 55.7022 60.5525 55.7879 60.672 55.8501C60.7915 55.9122 60.9223 55.9496 61.0566 55.9599C61.1909 55.9702 61.326 55.9532 61.4535 55.91L61.3894 55.7206L61.4535 55.91C61.5811 55.8668 61.6986 55.7983 61.7989 55.7085C61.8993 55.6187 61.9803 55.5095 62.0372 55.3875L61.8559 55.3031L62.0372 55.3875C62.094 55.2656 62.1254 55.1333 62.1296 54.9988C62.1336 54.8661 62.111 54.7339 62.063 54.6101C61.8205 53.8908 61.5519 53.1712 61.2686 52.4912C61.2685 52.4911 61.2685 52.491 61.2684 52.4908L58.1874 44.9783L58.1873 44.9781C55.688 38.9066 54.9303 32.2624 55.9987 25.7867C55.9987 25.7867 55.9987 25.7867 55.9987 25.7866L57.7757 15.0337L37.5861 56.754ZM38.2321 70.9186L52.3283 64.1907L38.3802 7.53799L38.1802 7.53771C38.1802 7.5378 38.1802 7.5379 38.1802 7.53799C38.1773 9.58354 38.7365 11.5908 39.797 13.3419C40.8575 15.0932 42.3788 16.5214 44.1959 17.4718C46.013 18.4222 48.0564 18.8585 50.1045 18.7333C51.9985 18.6176 53.8297 18.0259 55.4286 17.0165L54.0302 25.4777L54.0302 25.4778C52.9036 32.3174 53.7047 39.3345 56.3443 45.7469L58.9929 52.187C38.5715 57.353 19.994 53.3476 15.4483 52.1877L18.1028 45.7355C18.1028 45.7354 18.1029 45.7354 18.1029 45.7354C18.2036 45.4907 18.2027 45.2162 18.1004 44.9722C17.9981 44.7282 17.8028 44.5349 17.5578 44.4346C17.3127 44.3343 17.0378 44.3352 16.7933 44.437C16.5489 44.5389 16.3549 44.7334 16.2541 44.978L16.2539 44.9786L13.1868 52.4922L13.1868 52.4922C12.4521 54.2933 11.8651 56.1508 11.4317 58.0465C11.3892 58.1493 11.3651 58.2586 11.3601 58.3696C10.3756 62.7709 10.2287 67.3173 10.9274 71.7727L10.9274 71.773L11.9718 78.3688L11.9717 78.3689L11.9729 78.375C12.0213 78.6289 12.1669 78.8539 12.3785 79.0025L12.4935 78.8388L12.3786 79.0025C12.5902 79.151 12.8515 79.2116 13.1071 79.1716C13.3626 79.1315 13.5928 78.9939 13.7486 78.7876C13.9044 78.5813 13.9737 78.3225 13.9416 78.0661L13.9417 78.0661L13.9407 78.0596L12.8963 71.4639C12.8963 71.4638 12.8963 71.4638 12.8963 71.4638C12.2886 67.6125 12.3496 63.6864 13.0761 59.857L36.2381 70.91V78.2056C36.2381 78.4696 36.3433 78.7226 36.5304 78.909C36.7174 79.0954 36.9709 79.2 37.2351 79.2C37.4993 79.2 37.7528 79.0954 37.9398 78.909C38.1269 78.7226 38.2321 78.4696 38.2321 78.2056V70.9186Z" fill="#80C5DE" stroke="#80C5DE" stroke-width="0.4"/>
<path d="M37.2207 43.2468C37.4849 43.2468 37.7384 43.1422 37.9254 42.9558C38.1125 42.7694 38.2177 42.5164 38.2177 42.2524V41.3921C38.2177 41.1282 38.1125 40.8752 37.9254 40.6887C37.7384 40.5023 37.4849 40.3977 37.2207 40.3977C36.9565 40.3977 36.703 40.5023 36.516 40.6887C36.3289 40.8752 36.2237 41.1282 36.2237 41.3921V42.2524C36.2237 42.5164 36.3289 42.7693 36.516 42.9558C36.703 43.1422 36.9565 43.2468 37.2207 43.2468Z" fill="#80C5DE" stroke="#80C5DE" stroke-width="0.4"/>
<path d="M24.7421 40.476L24.7421 40.476C24.8689 40.5083 25.0009 40.5154 25.1305 40.4969C25.26 40.4783 25.3847 40.4345 25.4973 40.3679C25.6099 40.3012 25.7083 40.2131 25.7868 40.1085C25.8654 40.0039 25.9224 39.8849 25.9548 39.7582L25.9549 39.7577C26.2256 38.6878 26.4194 37.6 26.5348 36.5027C26.5551 36.3715 26.5487 36.2376 26.5162 36.1088C26.4833 35.9783 26.4241 35.8558 26.3422 35.7487C26.2604 35.6417 26.1577 35.5524 26.0403 35.4862C25.9229 35.4199 25.7933 35.3781 25.6593 35.3633C25.5253 35.3485 25.3896 35.361 25.2606 35.3999C25.1315 35.4389 25.0117 35.5036 24.9084 35.5901C24.8051 35.6766 24.7204 35.7832 24.6595 35.9033C24.5994 36.0221 24.5638 36.1517 24.5547 36.2845C24.4463 37.2906 24.2683 38.2881 24.0221 39.2698C23.9576 39.5251 23.9973 39.7954 24.1323 40.0215C24.2674 40.2476 24.4867 40.411 24.7421 40.476Z" fill="#80C5DE" stroke="#80C5DE" stroke-width="0.4"/>
<path d="M21.241 46.3005C21.2994 46.5442 21.4476 46.7563 21.6553 46.8952L21.6514 46.9033C21.7624 46.9742 21.8864 47.0224 22.0162 47.0452C22.146 47.068 22.2791 47.065 22.4077 47.0364C22.5363 47.0077 22.658 46.954 22.7658 46.8783C22.8736 46.8025 22.9653 46.7062 23.0356 46.5949L23.0356 46.5949L23.0366 46.5933C23.6152 45.6583 24.1326 44.6871 24.5857 43.6857C24.6568 43.5687 24.703 43.4382 24.7212 43.3024C24.7401 43.1618 24.7286 43.0189 24.6876 42.8831C24.6465 42.7474 24.5768 42.622 24.4833 42.5153C24.3897 42.4087 24.2743 42.3233 24.145 42.2648C24.0157 42.2062 23.8753 42.176 23.7333 42.1759C23.5914 42.1759 23.451 42.2061 23.3216 42.2645C23.1923 42.323 23.0769 42.4084 22.9833 42.515C22.8926 42.6181 22.8244 42.7389 22.7828 42.8696C22.3672 43.7921 21.8924 44.687 21.3613 45.5486C21.2228 45.7734 21.1795 46.0438 21.241 46.3005Z" fill="#80C5DE" stroke="#80C5DE" stroke-width="0.4"/>
<path d="M26.2453 29.078L26.2309 29.0793L26.243 29.0764C26.1829 28.8294 26.0302 28.6149 25.8165 28.4768C25.6029 28.3387 25.3444 28.2874 25.0942 28.3332C24.8439 28.3791 24.6205 28.5187 24.47 28.7237C24.3195 28.9286 24.2533 29.1834 24.2851 29.4356L24.2848 29.4356L24.2871 29.4478C24.4772 30.4475 24.6029 31.4582 24.6637 32.4738L24.6637 32.4738L24.6638 32.4753C24.6815 32.7373 24.8024 32.9816 24.9999 33.1549C25.1974 33.3282 25.4555 33.4166 25.7179 33.401C25.9803 33.3854 26.226 33.267 26.4015 33.0715C26.5769 32.8759 26.6678 32.619 26.6541 32.3568L26.6542 32.3567L26.654 32.3549C26.5864 31.2552 26.4499 30.1607 26.2453 29.078Z" fill="#80C5DE" stroke="#80C5DE" stroke-width="0.4"/>
<path d="M24.5605 26.3789L24.5605 26.3789L24.5627 26.3781C24.811 26.289 25.014 26.1056 25.1273 25.8676C25.2405 25.6298 25.2549 25.3571 25.1673 25.1088C24.8014 24.0479 24.3476 23.0193 23.8105 22.0335L23.8105 22.0334L23.8075 22.0282C23.7415 21.9153 23.6539 21.8165 23.5497 21.7374C23.4455 21.6583 23.3267 21.6005 23.2001 21.5672C23.0735 21.5339 22.9416 21.5258 22.8119 21.5433C22.6822 21.5609 22.5571 21.6037 22.444 21.6694C22.3308 21.7351 22.2317 21.8224 22.1523 21.9263C22.0729 22.0303 22.0148 22.1488 21.9814 22.2752C21.9479 22.4016 21.9397 22.5334 21.9574 22.6629C21.9748 22.7913 22.0173 22.915 22.0823 23.0272C22.5585 23.9072 22.9616 24.8247 23.2875 25.7704L23.2875 25.7704L23.2885 25.7732C23.3781 26.021 23.5619 26.2234 23.8 26.3367C24.0381 26.45 24.3113 26.4651 24.5605 26.3789Z" fill="#80C5DE" stroke="#80C5DE" stroke-width="0.4"/>
<path d="M48.1943 29.0868C48.2434 28.8298 48.392 28.6025 48.6078 28.4541C48.8255 28.3044 49.0937 28.2471 49.3537 28.2946C49.6136 28.3422 49.8441 28.4907 49.9944 28.7078C50.1447 28.9249 50.2023 29.1928 50.1545 29.4524L50.1543 29.4536C49.9643 30.4532 49.8385 31.4639 49.7777 32.4795L49.7777 32.4798C49.7622 32.7325 49.6508 32.9698 49.4665 33.1436C49.2821 33.3173 49.0385 33.4147 48.785 33.416L48.784 33.416L48.7351 33.416H48.7239L48.7239 33.4157C48.593 33.4084 48.4649 33.3753 48.3469 33.3184L48.4337 33.1383L48.3469 33.3184C48.2289 33.2615 48.1233 33.1819 48.0362 33.0841C47.9491 32.9862 47.8822 32.8722 47.8395 32.7484C47.7969 32.6248 47.7791 32.4939 47.7874 32.3634M48.1943 29.0868L48.1932 29.0867C47.9896 30.1694 47.854 31.2638 47.7874 32.3634M48.1943 29.0868C48.1943 29.0869 48.1943 29.0869 48.1943 29.0869C48.1939 29.089 48.1935 29.0911 48.1931 29.0932L48.3586 29.1237M48.1943 29.0868L48.3586 29.1237M47.7874 32.3634C47.7874 32.3633 47.7874 32.3632 47.7874 32.3631L47.987 32.3757M47.7874 32.3634C47.7874 32.3635 47.7874 32.3636 47.7874 32.3636L47.987 32.3757M47.987 32.3757C48.0526 31.2924 48.1857 30.2142 48.3854 29.1473L48.1898 29.1294V29.1237H48.3586M47.987 32.3757L48.3586 29.1237" fill="#80C5DE" stroke="#80C5DE" stroke-width="0.4"/>
<path d="M50.6314 22.0278L50.6313 22.0277L50.628 22.0337C50.0928 23.018 49.6402 24.0448 49.275 25.1035C49.2282 25.2265 49.2063 25.3576 49.2106 25.4891C49.2149 25.6219 49.2459 25.7524 49.3017 25.873C49.3574 25.9936 49.4368 26.1018 49.5352 26.1913C49.6335 26.2808 49.7488 26.3496 49.8742 26.3939C49.9996 26.4382 50.1326 26.4571 50.2654 26.4493C50.3981 26.4415 50.528 26.4073 50.6474 26.3487C50.7668 26.2901 50.8732 26.2082 50.9604 26.1079C51.0472 26.008 51.1131 25.8919 51.1544 25.7663C51.4815 24.8203 51.8845 23.9022 52.3595 23.0208C52.4896 22.7936 52.5249 22.5244 52.4577 22.2713C52.3903 22.0173 52.2251 21.8002 51.9983 21.6671L51.8652 21.5889L51.8524 21.6017C51.6577 21.527 51.443 21.5145 51.2387 21.5683C50.9835 21.6354 50.7651 21.8005 50.6314 22.0278Z" fill="#80C5DE" stroke="#80C5DE" stroke-width="0.4"/>
<path d="M49.8718 36.2794L49.872 36.2794L48.6804 39.7086L48.4866 39.758C48.4866 39.758 48.4866 39.7581 48.4866 39.7581C48.5188 39.8845 48.5756 40.0034 48.6539 40.1078C48.7321 40.2123 48.8302 40.3004 48.9425 40.367L49.0416 40.2L48.9425 40.367C49.0548 40.4336 49.1792 40.4776 49.3085 40.4963L49.3371 40.2983L49.3085 40.4963C49.4378 40.515 49.5695 40.5081 49.6961 40.4761C49.8228 40.4441 49.9419 40.3875 50.0467 40.3095C50.1514 40.2316 50.2398 40.1338 50.3067 40.0217C50.3737 39.9097 50.4178 39.7855 50.4366 39.6564C50.4554 39.5273 50.4485 39.3958 50.4164 39.2694C50.1668 38.2863 49.9848 37.2873 49.8718 36.2794Z" fill="#80C5DE" stroke="#80C5DE" stroke-width="0.4"/>
<path d="M51.6851 42.8583L51.6852 42.8584C52.1026 43.7832 52.5785 44.6808 53.1099 45.5456C53.1831 45.6558 53.2336 45.7795 53.2584 45.9095C53.2834 46.0408 53.2816 46.1758 53.2531 46.3064C53.2246 46.437 53.17 46.5605 53.0926 46.6696C53.0152 46.7786 52.9166 46.871 52.8027 46.9411C52.6887 47.0113 52.5618 47.0578 52.4295 47.078C52.2972 47.0982 52.1622 47.0916 52.0325 47.0586C51.9028 47.0256 51.7811 46.9669 51.6746 46.8859C51.569 46.8057 51.4806 46.7052 51.4145 46.5905C50.8355 45.6536 50.3178 44.6804 49.8648 43.6769L51.6851 42.8583ZM51.6851 42.8583C51.5762 42.6174 51.3759 42.4297 51.1284 42.3362M51.6851 42.8583L51.1284 42.3362M51.1284 42.3362C50.8809 42.2428 50.6063 42.2512 50.365 42.3596M51.1284 42.3362L50.365 42.3596M50.365 42.3596C50.1237 42.468 49.9353 42.6676 49.8414 42.9147M50.365 42.3596L49.8414 42.9147M49.8414 42.9147C49.7475 43.1618 49.7559 43.4359 49.8648 43.6768L49.8414 42.9147Z" fill="#80C5DE" stroke="#80C5DE" stroke-width="0.4"/>
<path d="M60.2394 33.9204V33.9153L60.0754 33.8853C59.8155 33.8378 59.5472 33.8951 59.3296 34.0448C59.1119 34.1945 58.9626 34.4243 58.9148 34.6839C58.867 34.9436 58.9247 35.2114 59.075 35.4286C59.2251 35.6455 59.4553 35.7939 59.7149 35.8416C62.7697 36.4233 65.4804 38.1595 67.2804 40.687C69.0804 43.2144 69.8304 46.3375 69.3737 49.4033C68.9153 52.3487 67.3674 55.0166 65.0343 56.8817C62.7914 58.6747 59.9791 59.6008 57.1134 59.4977L58.1353 57.9482C58.2201 57.8419 58.2823 57.7192 58.3178 57.5879C58.3542 57.4531 58.3618 57.3122 58.34 57.1743C58.3182 57.0364 58.2675 56.9046 58.1913 56.7876C58.1152 56.6706 58.0152 56.5709 57.8979 56.495C57.7806 56.419 57.6486 56.3686 57.5105 56.3469C57.3724 56.3251 57.2313 56.3326 57.0963 56.3688C56.9614 56.405 56.8355 56.4691 56.7269 56.557C56.6214 56.6424 56.5345 56.7483 56.4716 56.8684L54.6563 59.6125L54.6561 59.6124L54.6514 59.6204C54.5208 59.8392 54.4433 60.0854 54.4251 60.3395L54.4241 60.3532L54.425 60.3669C54.445 60.6697 54.5778 60.9539 54.7971 61.1638L57.5217 63.9912L57.5231 63.9926C57.7073 64.1802 57.9579 64.2881 58.2209 64.2935C58.4839 64.2988 58.7387 64.2011 58.9304 64.0212L58.9316 64.0202C59.0262 63.93 59.1021 63.822 59.1548 63.7025C59.2075 63.583 59.236 63.4542 59.2387 63.3236C59.2414 63.193 59.2182 63.0632 59.1704 62.9416C59.1226 62.8201 59.0513 62.7092 58.9606 62.6152C58.9605 62.6152 58.9605 62.6151 58.9604 62.6151L57.8848 61.4988C61.1026 61.4198 64.1982 60.2351 66.6446 58.1399C69.1688 55.9781 70.836 52.989 71.3457 49.7106L71.3459 49.7094C71.8788 46.1322 71.0035 42.4883 68.9031 39.5397C66.8348 36.636 63.7363 34.6282 60.2394 33.9204Z" fill="#80C5DE" stroke="#80C5DE" stroke-width="0.4"/>
<path d="M8.92192 58.97C8.86499 58.8974 8.79833 58.8332 8.72398 58.7791V58.7608L8.62698 58.7025C5.96314 57.1021 4.02344 54.5372 3.21333 51.5444C2.40328 48.5519 2.78532 45.363 4.27963 42.6446C5.73329 40.0365 8.11472 38.0658 10.9545 37.1213C13.6843 36.2133 16.6471 36.317 19.3011 37.4062L17.7965 38.5122L17.7872 38.5191L17.7787 38.527C17.6015 38.692 17.4905 38.9159 17.4668 39.1567C17.4431 39.3976 17.5083 39.6387 17.65 39.835C17.7917 40.0313 18.0003 40.1692 18.2364 40.2232C18.4726 40.2771 18.7204 40.2435 18.9336 40.1284L18.9458 40.1218L18.9569 40.1136L21.6241 38.1549L21.6254 38.1539C21.8517 37.9849 22.0166 37.7468 22.0949 37.4757L22.0953 37.4758L22.0983 37.4622C22.1547 37.1996 22.1311 36.9262 22.0307 36.6771L22.0307 36.6771L22.0287 36.6723L20.4606 33.0589L20.4603 33.0583C20.3543 32.8164 20.1562 32.6266 19.91 32.5304C19.6638 32.4343 19.3894 32.4396 19.1471 32.5451C18.9048 32.6507 18.7142 32.8479 18.6176 33.0937C18.521 33.3396 18.5263 33.6136 18.6324 33.8555C18.6324 33.8555 18.6324 33.8555 18.6324 33.8555L19.2595 35.2867C16.2438 34.2516 12.9577 34.2772 9.9517 35.368C6.79834 36.5123 4.16474 38.7519 2.53456 41.676L2.53405 41.677C0.787031 44.8501 0.33944 48.574 1.28508 52.0687C2.23053 55.5627 4.49525 58.5566 7.6049 60.4237C7.71699 60.4941 7.84201 60.5416 7.97266 60.5633C8.10409 60.5851 8.23857 60.5805 8.36816 60.5496L8.32179 60.355L8.36816 60.5496C8.49775 60.5187 8.61984 60.4622 8.72722 60.3834C8.8346 60.3046 8.92507 60.2052 8.99326 60.0908C9.06145 59.9765 9.10596 59.8497 9.12413 59.7179C9.1423 59.5861 9.13376 59.4519 9.09902 59.3235C9.06427 59.195 9.00404 59.0748 8.92192 58.97Z" fill="#80C5DE" stroke="#80C5DE" stroke-width="0.4"/>
</svg>
