<svg width="127" height="128" viewBox="0 0 127 128" fill="none" xmlns="http://www.w3.org/2000/svg">
<ellipse cx="68.4751" cy="57.5" rx="58" ry="57.5" fill="#F09038"/>
<path d="M11.3945 114.972L23.7564 83.7101L43.4923 104.979L11.3945 114.972Z" fill="#F09038"/>
<path d="M40.88 50H43.64L37.9 36.26H35.12L29.38 50H32.16L33.2 47.52H39.84L40.88 50ZM34.1 45.36L36.52 39.58L38.94 45.36H34.1ZM49.6391 50H52.1391V40.34L59.3991 50H61.8791V36.26H59.3991V45.92L52.1391 36.26H49.6391V50ZM72.6083 50H75.0883V38.54H79.4883V36.26H68.2083V38.54H72.6083V50ZM85.6631 50H88.1431V36.26H85.6631V50ZM94.5738 45.58H99.9538V43.44H94.5738V45.58ZM37.12 75.24C39.14 75.24 40.98 74.38 42.3 73L40.54 71.36C39.68 72.34 38.46 72.96 37.12 72.96C34.58 72.96 32.44 70.76 32.44 68.12C32.44 65.5 34.58 63.3 37.12 63.3C38.44 63.3 39.68 63.92 40.52 64.9L42.3 63.24C40.98 61.88 39.14 61.02 37.12 61.02C33.2 61.02 29.9 64.26 29.9 68.12C29.9 71.98 33.2 75.24 37.12 75.24ZM54.6356 75.24C58.5356 75.24 61.8356 71.98 61.8356 68.12C61.8356 64.26 58.5356 61.02 54.6356 61.02C50.7156 61.02 47.4156 64.26 47.4156 68.12C47.4156 71.98 50.7156 75.24 54.6356 75.24ZM54.6356 72.96C52.0956 72.96 49.9556 70.76 49.9556 68.12C49.9556 65.5 52.0956 63.3 54.6356 63.3C57.1556 63.3 59.2756 65.5 59.2756 68.12C59.2756 70.76 57.1556 72.96 54.6356 72.96ZM78.587 61.26L74.227 71.68L69.867 61.26H67.107L72.847 75H75.627L81.367 61.26H78.587ZM87.2256 75H89.7056V61.26H87.2256V75ZM96.7563 75H101.596C106.136 75 109.336 72.14 109.336 68.12C109.336 64.1 106.136 61.26 101.596 61.26H96.7563V75ZM99.2563 72.74V63.52H101.856C104.756 63.52 106.796 65.42 106.796 68.12C106.796 70.82 104.756 72.74 101.856 72.74H99.2563Z" fill="white"/>
</svg>
