<svg width="391" height="232" viewBox="0 0 391 232" fill="none" xmlns="http://www.w3.org/2000/svg">
<rect y="115" width="340" height="108" fill="white"/>
<rect width="264" height="116" fill="white"/>
<path d="M25.85 42.88V48.76H88.08V42.88H25.85ZM75.41 19.71C64.56 27.06 45.45 32.59 28.02 35.25C29.49 36.58 31.52 39.31 32.5 40.85C49.02 37.42 68.62 31.75 80.94 23.42L75.41 19.71ZM56.23 50.23V84.88H62.67V50.23H56.23ZM37.47 56.6V81.1H44.05V62.48H78.91V56.6H37.47ZM75.97 56.6V73.82C75.97 74.66 75.62 74.87 74.71 74.87C73.66 74.94 70.3 74.94 66.87 74.8C67.64 76.41 68.55 78.79 68.83 80.54C73.94 80.54 77.37 80.54 79.61 79.56C81.99 78.58 82.62 76.97 82.62 73.89V56.6H75.97ZM32.57 24.89C47.97 28.95 68.06 36.02 78.14 41.13L83.11 36.44C72.12 31.19 51.96 24.54 37.12 20.9L32.57 24.89ZM49.93 34.69C45.8 46.38 36.7 58.42 24.03 65.07C25.43 66.33 27.46 68.64 28.44 70.11C41.74 62.62 51.19 49.88 56.65 36.51L49.93 34.69Z" fill="#F09038"/>
<path d="M24.1211 145.504V151.174H57.3011V145.504H24.1211ZM30.0711 184.914V190.304H84.6011V184.914H30.0711ZM25.5211 195.764V201.294H88.7311V195.764H25.5211ZM53.6611 177.284V199.124H60.3811V177.284H53.6611ZM36.2311 139.694C37.6311 142.564 39.1711 146.484 39.8011 149.004L45.8911 146.974C45.1911 144.594 43.6511 140.884 42.1811 138.014L36.2311 139.694ZM30.0711 147.954V161.324C30.0711 167.694 31.8211 169.934 38.4711 169.934C39.7311 169.934 47.4311 169.934 49.1811 169.934C51.4911 169.934 54.0111 169.794 55.1311 169.444C54.8511 168.044 54.6411 165.454 54.5711 163.914C53.2411 164.194 50.7211 164.334 49.0411 164.334C47.3611 164.334 40.0111 164.334 38.4711 164.334C36.5811 164.334 36.2311 163.564 36.2311 161.464V147.954H30.0711ZM81.5211 171.544C68.9911 173.644 47.7811 174.764 30.0011 174.904C30.5611 176.304 31.2611 178.614 31.3311 180.224C48.9711 180.294 70.4611 179.314 84.4611 176.934L81.5211 171.544ZM63.3211 149.844C67.8711 152.784 73.7511 157.124 76.6911 159.784L80.8211 156.564C77.6711 153.974 71.7211 149.844 67.1711 147.044L63.3211 149.844ZM56.9511 155.514C61.0111 158.664 66.1211 163.074 68.6411 165.664L72.9811 162.724C70.3211 160.064 65.0711 155.864 61.0811 152.924L56.9511 155.514ZM67.3111 138.294C64.6511 144.104 59.6111 151.034 52.0511 156.074C53.3811 156.844 55.4111 158.664 56.3911 159.994C64.5111 154.044 69.8311 146.554 73.4711 139.274L67.3111 138.294ZM83.6911 142.914V143.894C80.1911 157.824 69.4811 165.454 56.3211 168.324C57.4411 169.584 58.7711 171.824 59.4711 173.364C74.3111 169.444 85.7211 161.254 90.1311 144.104L86.1411 142.704L84.8811 142.914H83.6911ZM68.4311 142.914L63.9511 147.814H85.0911V142.914H68.4311ZM118.201 157.754H150.121V163.704H118.201V157.754ZM118.201 169.234H150.121V175.254H118.201V169.234ZM118.201 146.344H150.121V152.294H118.201V146.344ZM111.761 140.534V181.064H156.841V140.534H111.761ZM138.081 176.724V193.874C138.081 200.594 139.971 202.624 147.391 202.624C148.861 202.624 156.211 202.624 157.821 202.624C164.191 202.624 166.011 199.894 166.781 189.324C164.961 188.834 162.091 187.784 160.691 186.594C160.341 195.134 159.921 196.324 157.261 196.324C155.511 196.324 149.491 196.324 148.161 196.324C145.361 196.324 144.801 195.974 144.801 193.874V176.724H138.081ZM121.141 178.824C120.021 188.624 117.361 194.364 101.611 197.444C102.941 198.844 104.761 201.574 105.321 203.324C123.101 199.264 126.881 191.354 128.211 178.824H121.141ZM182.251 147.464V153.344H239.931V147.464H182.251ZM186.171 158.104V163.774H236.501V158.104H186.171ZM181.411 179.174V184.844H241.401V179.174H181.411ZM179.871 168.744V174.554H242.941V168.744H179.871ZM207.591 150.964V173.224H214.381V150.964H207.591ZM191.631 140.184C193.941 142.844 196.251 146.624 197.091 149.144L203.251 146.414C202.271 143.964 199.891 140.394 197.511 137.804L191.631 140.184ZM223.761 137.804C222.291 140.954 219.701 145.364 217.601 148.164L223.481 150.054C225.651 147.464 228.381 143.544 230.761 139.764L223.761 137.804ZM206.961 173.084C205.561 186.314 202.341 193.734 178.611 197.024C179.871 198.494 181.481 201.294 181.971 202.974C207.661 198.774 212.211 189.254 213.891 173.084H206.961ZM211.441 189.814C220.891 193.454 233.631 199.334 239.791 203.394L242.941 197.654C236.501 193.734 223.621 188.134 214.381 184.844L211.441 189.814ZM286.271 142.984V149.004H313.641V142.984H286.271ZM283.261 167.554V173.854H320.641V167.554H283.261ZM298.871 160.064V195.624C298.871 196.604 298.521 196.954 297.401 196.954C296.281 196.954 292.291 196.954 288.441 196.884C289.351 198.634 290.401 201.364 290.751 203.184C296.281 203.184 299.851 203.044 302.371 202.064C304.891 201.084 305.731 199.264 305.731 195.694V160.064H298.871ZM311.121 142.984V144.384C308.741 149.074 303.631 156.074 298.871 160.064C299.991 160.974 301.881 162.654 302.721 163.844C308.741 159.364 314.901 152.084 318.961 145.854L314.411 142.564L312.871 142.984H311.121ZM257.151 176.444C265.131 183.024 275.701 192.404 280.601 198.424L284.941 192.964C279.901 187.084 269.051 178.054 261.141 171.824L257.151 176.444ZM257.151 176.444L263.171 178.404C265.971 168.114 269.191 151.594 270.521 138.644L264.011 138.294C263.031 150.614 259.951 166.854 257.151 176.444ZM275.491 148.164V155.304C275.491 167.484 274.091 185.754 255.611 198.704C257.081 199.754 259.321 201.924 260.301 203.324C280.041 189.114 281.721 168.954 281.721 155.374V148.164H275.491ZM255.471 153.904L256.101 160.274C264.081 159.784 275.071 159.084 285.571 158.384L285.641 152.434C274.581 153.064 263.171 153.624 255.471 153.904Z" fill="#F09038"/>
<path d="M110.204 106.103C110.204 105.548 110.573 105.148 111.02 105.148C111.359 105.148 111.667 105.271 111.836 105.44L112.391 104.424C111.959 104.07 111.374 103.854 110.804 103.854C109.572 103.854 108.71 104.747 108.71 106.026L108.71 106.981L107.508 106.981L107.508 108.274L108.71 108.274L108.71 114.943L110.204 114.943L110.204 108.274L112.083 108.274L112.083 106.981L110.204 106.981L110.204 106.103ZM117.432 115.128C119.696 115.128 121.606 113.218 121.606 110.954C121.606 108.69 119.696 106.796 117.432 106.796C115.153 106.796 113.228 108.69 113.228 110.954C113.228 113.218 115.153 115.128 117.432 115.128ZM117.432 113.804C115.969 113.804 114.752 112.51 114.752 110.954C114.752 109.414 115.969 108.12 117.432 108.12C118.865 108.12 120.081 109.414 120.081 110.954C120.081 112.51 118.865 113.804 117.432 113.804ZM124.992 108.505L124.992 106.981L123.467 106.981L123.467 114.943L124.992 114.943L124.992 110.415C125.131 109.029 126.301 108.12 127.949 108.12L127.949 106.796C126.578 106.796 125.5 107.458 124.992 108.505ZM137.186 106.796C136.308 106.796 135.307 107.027 134.167 107.597L134.721 108.721C135.415 108.367 136.185 108.059 136.97 108.059C138.557 108.059 139.019 109.121 139.019 110.123L139.019 110.369C138.248 110.107 137.401 109.938 136.616 109.938C134.86 109.938 133.428 111 133.428 112.587C133.428 114.142 134.675 115.128 136.369 115.128C137.34 115.128 138.433 114.681 139.019 113.85L139.019 114.943L140.513 114.943L140.513 110.123C140.513 108.151 139.327 106.796 137.186 106.796ZM136.662 113.927C135.661 113.927 134.891 113.403 134.891 112.541C134.891 111.678 135.784 111.077 136.847 111.077C137.632 111.077 138.372 111.185 139.019 111.385L139.019 112.448C138.757 113.434 137.648 113.927 136.662 113.927ZM151.545 106.796C150.313 106.796 149.327 107.381 148.711 108.351L148.711 104.177L147.202 104.177L147.202 114.943L148.711 114.943L148.711 113.557C149.327 114.543 150.313 115.128 151.545 115.128C153.639 115.128 155.21 113.403 155.21 110.954C155.21 108.521 153.639 106.796 151.545 106.796ZM151.175 113.804C149.743 113.804 148.711 112.618 148.711 110.954C148.711 109.291 149.743 108.12 151.175 108.12C152.638 108.12 153.67 109.291 153.67 110.954C153.67 112.618 152.638 113.804 151.175 113.804ZM160.702 113.773C159.331 113.773 158.361 112.818 158.16 111.493L164.429 111.493C164.429 108.644 163.027 106.796 160.594 106.796C158.391 106.796 156.62 108.552 156.62 110.939C156.62 113.388 158.499 115.128 160.717 115.128C161.841 115.128 163.228 114.651 163.936 113.896L162.981 112.91C162.504 113.403 161.533 113.773 160.702 113.773ZM160.655 108.151C162.026 108.151 162.781 109.044 162.95 110.277L158.176 110.277C158.422 108.983 159.423 108.151 160.655 108.151ZM169.923 113.511C169.754 113.68 169.446 113.804 169.107 113.804C168.66 113.804 168.291 113.403 168.291 112.849L168.291 108.274L170.17 108.274L170.17 106.981L168.291 106.981L168.291 104.794L166.797 104.794L166.797 106.981L165.596 106.981L165.596 108.274L166.797 108.274L166.797 112.956C166.797 114.235 167.659 115.128 168.891 115.128C169.461 115.128 170.047 114.912 170.478 114.558L169.923 113.511ZM175.759 113.511C175.59 113.68 175.282 113.804 174.943 113.804C174.496 113.804 174.127 113.403 174.127 112.849L174.127 108.274L176.006 108.274L176.006 106.981L174.127 106.981L174.127 104.794L172.633 104.794L172.633 106.981L171.431 106.981L171.431 108.274L172.633 108.274L172.633 112.956C172.633 114.235 173.495 115.128 174.727 115.128C175.297 115.128 175.882 114.912 176.314 114.558L175.759 113.511ZM181.518 113.773C180.147 113.773 179.177 112.818 178.977 111.493L185.245 111.493C185.245 108.644 183.844 106.796 181.41 106.796C179.208 106.796 177.437 108.552 177.437 110.939C177.437 113.388 179.316 115.128 181.533 115.128C182.658 115.128 184.044 114.651 184.752 113.896L183.797 112.91C183.32 113.403 182.35 113.773 181.518 113.773ZM181.472 108.151C182.843 108.151 183.597 109.044 183.767 110.277L178.992 110.277C179.239 108.983 180.24 108.151 181.472 108.151ZM188.614 108.505L188.614 106.981L187.09 106.981L187.09 114.943L188.614 114.943L188.614 110.415C188.753 109.029 189.923 108.12 191.571 108.12L191.571 106.796C190.201 106.796 189.123 107.458 188.614 108.505ZM199.56 106.103C199.56 105.548 199.93 105.148 200.377 105.148C200.716 105.148 201.024 105.271 201.193 105.44L201.748 104.424C201.316 104.07 200.731 103.854 200.161 103.854C198.929 103.854 198.067 104.747 198.067 106.026L198.067 106.981L196.865 106.981L196.865 108.274L198.067 108.274L198.067 114.943L199.56 114.943L199.56 108.274L201.439 108.274L201.439 106.981L199.56 106.981L199.56 106.103ZM208.499 106.981L208.499 112.14C208.376 113.08 207.421 113.804 206.312 113.804C205.234 113.804 204.479 112.972 204.479 111.786L204.479 106.981L202.985 106.981L202.985 112.048C202.985 113.85 204.217 115.128 205.973 115.128C207.051 115.128 208.021 114.574 208.499 113.788L208.499 114.943L210.024 114.943L210.024 106.981L208.499 106.981ZM215.963 113.511C215.794 113.68 215.486 113.804 215.147 113.804C214.7 113.804 214.33 113.403 214.33 112.849L214.33 108.274L216.209 108.274L216.209 106.981L214.33 106.981L214.33 104.794L212.836 104.794L212.836 106.981L211.635 106.981L211.635 108.274L212.836 108.274L212.836 112.956C212.836 114.235 213.699 115.128 214.931 115.128C215.501 115.128 216.086 114.912 216.517 114.558L215.963 113.511ZM223.555 106.981L223.555 112.14C223.431 113.08 222.477 113.804 221.368 113.804C220.289 113.804 219.535 112.972 219.535 111.786L219.535 106.981L218.041 106.981L218.041 112.048C218.041 113.85 219.273 115.128 221.029 115.128C222.107 115.128 223.077 114.574 223.555 113.788L223.555 114.943L225.079 114.943L225.079 106.981L223.555 106.981ZM228.893 108.505L228.893 106.981L227.369 106.981L227.369 114.943L228.893 114.943L228.893 110.415C229.032 109.029 230.203 108.12 231.85 108.12L231.85 106.796C230.48 106.796 229.402 107.458 228.893 108.505ZM236.988 113.773C235.617 113.773 234.647 112.818 234.447 111.493L240.715 111.493C240.715 108.644 239.314 106.796 236.88 106.796C234.678 106.796 232.907 108.552 232.907 110.939C232.907 113.388 234.786 115.128 237.004 115.128C238.128 115.128 239.514 114.651 240.223 113.896L239.268 112.91C238.79 113.403 237.82 113.773 236.988 113.773ZM236.942 108.151C238.313 108.151 239.067 109.044 239.237 110.277L234.462 110.277C234.709 108.983 235.71 108.151 236.942 108.151Z" fill="#F09038"/>
<path d="M173.067 95.1848C176.04 95.1848 178.535 92.6743 178.535 89.7018C178.535 86.7293 176.04 84.2342 173.067 84.2342C170.095 84.2342 167.569 86.7293 167.569 89.7018C167.569 92.6743 170.095 95.1848 173.067 95.1848ZM173.067 93.7525C170.957 93.7525 169.171 91.9043 169.171 89.7018C169.171 87.5148 170.957 85.6666 173.067 85.6666C175.177 85.6666 176.949 87.5148 176.949 89.7018C176.949 91.9043 175.177 93.7525 173.067 93.7525ZM185.875 87.0373L185.875 92.1969C185.752 93.1364 184.797 93.8603 183.688 93.8603C182.61 93.8603 181.855 93.0286 181.855 91.8427L181.855 87.0373L180.361 87.0373L180.361 92.1045C180.361 93.9065 181.594 95.1848 183.349 95.1848C184.427 95.1848 185.398 94.6304 185.875 93.8449L185.875 95L187.4 95L187.4 87.0373L185.875 87.0373ZM191.214 88.5621L191.214 87.0373L189.689 87.0373L189.689 95L191.214 95L191.214 90.4719C191.353 89.0857 192.523 88.177 194.171 88.177L194.171 86.8525C192.8 86.8525 191.722 87.5148 191.214 88.5621ZM202.715 95L204.147 95L207.505 87.0373L205.857 87.0373L203.423 93.2288L200.943 87.0373L199.295 87.0373L202.715 95ZM209.709 85.7128C210.202 85.7128 210.618 85.2815 210.618 84.7887C210.618 84.3112 210.202 83.88 209.709 83.88C209.186 83.88 208.785 84.3112 208.785 84.7887C208.785 85.2815 209.186 85.7128 209.709 85.7128ZM208.939 95L210.464 95L210.464 87.0373L208.939 87.0373L208.939 95ZM215.55 95.1848C217.29 95.1848 218.568 94.2299 218.568 92.7205C218.568 91.1342 217.167 90.7029 215.858 90.3179C214.518 89.902 214.025 89.7172 214.025 89.1011C214.025 88.5005 214.641 88.1616 215.427 88.1616C216.12 88.1616 216.92 88.4235 217.691 88.9009L218.368 87.7766C217.506 87.2067 216.458 86.8525 215.427 86.8525C213.732 86.8525 212.516 87.8074 212.531 89.2706C212.531 90.5643 213.44 91.088 215.273 91.5962C216.258 91.8735 217.075 92.1045 217.075 92.8438C217.075 93.4598 216.458 93.8757 215.565 93.8757C214.626 93.8757 213.717 93.5214 212.87 92.9054L212.146 93.9989C213.101 94.769 214.379 95.1848 215.55 95.1848ZM221.095 85.7128C221.588 85.7128 222.004 85.2815 222.004 84.7887C222.004 84.3112 221.588 83.88 221.095 83.88C220.571 83.88 220.171 84.3112 220.171 84.7887C220.171 85.2815 220.571 85.7128 221.095 85.7128ZM220.325 95L221.85 95L221.85 87.0373L220.325 87.0373L220.325 95ZM227.829 95.1848C230.093 95.1848 232.003 93.275 232.003 91.011C232.003 88.7469 230.093 86.8525 227.829 86.8525C225.549 86.8525 223.624 88.7469 223.624 91.011C223.624 93.275 225.549 95.1848 227.829 95.1848ZM227.829 93.8603C226.366 93.8603 225.149 92.5665 225.149 91.011C225.149 89.4708 226.366 88.177 227.829 88.177C229.261 88.177 230.478 89.4708 230.478 91.011C230.478 92.5665 229.261 93.8603 227.829 93.8603ZM237.837 86.8525C236.759 86.8525 235.789 87.407 235.312 88.1924L235.312 87.0373L233.787 87.0373L233.787 95L235.312 95L235.312 89.8404C235.435 88.9009 236.39 88.177 237.499 88.177C238.577 88.177 239.331 89.0087 239.331 90.1947L239.331 95L240.825 95L240.825 89.9328C240.825 88.1308 239.593 86.8525 237.837 86.8525Z" fill="#F09038"/>
<circle cx="60" cy="111" r="4" fill="#F09038"/>
</svg>
