<svg width="24" height="24" viewBox="0 0 24 24" fill="none" xmlns="http://www.w3.org/2000/svg">
<circle cx="12" cy="12" r="12" fill="#F09038"/>
<path d="M6.6746 17.1695C6.6746 16.6738 6.66451 15.9568 6.71715 15.4038C6.72616 15.3128 6.76193 15.2266 6.81991 15.1561C6.8779 15.0856 6.95548 15.034 7.04277 15.0078C7.13007 14.9817 7.22317 14.9822 7.31018 15.0092C7.39719 15.0363 7.4742 15.0888 7.53143 15.1599C7.70727 15.3847 7.88648 15.5848 8.06569 15.7713C9.91713 17.7079 12.8449 18.2103 15.1713 16.8863C18.2715 15.1206 18.9369 11.2093 18.9369 11.2093C19.554 8.08585 18.0979 6.41681 17.2254 5.8672C16.7953 5.59562 16.2927 5.46229 15.785 5.48506C14.8588 5.53227 14.469 6.10435 14.3088 6.65508C14.2829 6.74711 14.2296 6.82904 14.1561 6.88995C14.0826 6.95085 13.9923 6.98786 13.8974 6.99604C13.8024 7.00421 13.7072 6.98317 13.6244 6.93572C13.5417 6.88826 13.4753 6.81664 13.4341 6.73038C13.1123 6.03449 12.949 5.27547 12.9558 4.50836V4.31055" stroke="white" stroke-miterlimit="10" stroke-linecap="round"/>
<path d="M7.68945 10.7047V12.376C7.68952 12.5159 7.72831 12.653 7.80149 12.7721C7.87466 12.8912 7.97936 12.9875 8.10389 13.0504C8.54658 13.282 9.013 13.4648 9.49498 13.5955C11.2311 14.0451 12.6994 13.0032 12.8652 11.3678C12.9895 10.1461 12.3601 9.05589 12.3601 9.05589C11.7054 7.81403 11.3235 6.44583 11.24 5.04341V4.30835" stroke="white" stroke-miterlimit="10" stroke-linecap="round"/>
<path d="M5 17.1699V15.041C5.00336 14.6648 5.09667 14.2949 5.27208 13.9624C5.4475 13.6299 5.69989 13.3445 6.00805 13.1302C6.1081 13.0584 6.18973 12.9638 6.2462 12.8542C6.30267 12.7446 6.33239 12.6231 6.33289 12.4996V10.7046" stroke="white" stroke-miterlimit="10" stroke-linecap="round"/>
</svg>
