<svg width="24" height="24" viewBox="0 0 24 24" fill="none" xmlns="http://www.w3.org/2000/svg">
<circle cx="12" cy="12" r="12" fill="#F09038"/>
<path d="M10.4455 12.227H11.8272L12.4311 13.7659L12.8557 12.227L13.2814 10.6892L13.8854 12.227H14.7885L15.3924 13.7659L15.8181 12.227L16.2438 10.6892L16.8467 12.227H16.8676C18.2173 12.227 19.2503 10.9752 18.9467 9.65597C18.878 9.361 18.7746 9.07528 18.6387 8.80485C18.3473 8.2272 17.9125 7.73462 17.3763 7.37459C16.8401 7.01456 16.2205 6.79923 15.5772 6.74935C13.1263 6.56169 12.0274 9.03888 12.0274 9.03888C12.0274 9.03888 10.9526 6.55065 8.50062 6.71293C7.85731 6.7565 7.23599 6.96555 6.69653 7.31995C6.15706 7.67435 5.71762 8.16216 5.42049 8.73641C5.03217 9.48818 4.80666 10.5181 5.22248 11.8042C5.37343 12.2684 5.59174 12.7077 5.87039 13.1079C5.97666 13.261 6.09087 13.4084 6.21252 13.5495C7.01749 14.4466 7.88464 15.2855 8.80751 16.0598C8.80751 16.0598 11.3651 18.1573 11.9746 19.5515C12.5994 18.1672 15.1779 16.0929 15.1779 16.0929C15.9023 15.4952 16.5955 14.8603 17.2548 14.1909" stroke="white" stroke-miterlimit="10" stroke-linecap="round" stroke-linejoin="round"/>
</svg>
