<svg width="24" height="24" viewBox="0 0 24 24" fill="none" xmlns="http://www.w3.org/2000/svg">
<circle cx="12" cy="12" r="12" fill="#F09038"/>
<path d="M13.2916 14.4239C13.703 15.6042 14.0093 16.7505 14.2074 17.5674C14.3376 18.1054 14.9645 18.2613 15.2851 17.8331C16.7863 15.8337 16.9197 13.6695 16.8847 12.6594C16.87 12.3275 16.9706 12.0007 17.1692 11.7349C17.5445 11.2452 17.7644 10.5754 17.8891 10.0297C18.236 8.52327 17.7579 6.90593 16.6101 6.00778C16.0529 5.56575 15.3641 5.3241 14.6538 5.32153C13.5793 5.32153 12.6209 5.87053 11.9994 6.73904C11.3779 5.87492 10.4195 5.32153 9.34501 5.32153C8.63474 5.3241 7.94586 5.56575 7.38867 6.00778C6.23763 6.90923 5.76279 8.53315 6.11291 10.044C6.23874 10.5853 6.45648 11.2518 6.82848 11.7316C7.02755 11.9998 7.1284 12.3286 7.11404 12.6627C7.07903 13.6728 7.21471 15.8326 8.70931 17.8232C9.03208 18.2547 9.6612 18.1032 9.7914 17.563C9.98944 16.7461 10.2969 15.5998 10.7072 14.4195C11.1635 13.114 12.8375 13.114 13.2916 14.4239Z" stroke="white" stroke-miterlimit="10" stroke-linecap="round"/>
<path d="M11.9995 6.73926C12.2567 7.11401 12.4655 7.52 12.621 7.94751" stroke="white" stroke-miterlimit="10" stroke-linecap="round"/>
</svg>
