<svg width="24" height="25" viewBox="0 0 24 25" fill="none" xmlns="http://www.w3.org/2000/svg">
<circle cx="12" cy="12.8284" r="12" fill="#F09038"/>
<path d="M6.72617 14.7856V9.72827C6.12933 10.4347 5.80176 11.3308 5.80176 12.257C5.80176 13.1831 6.12933 14.0792 6.72617 14.7856Z" fill="white"/>
<path d="M20 17.6614L17.8632 16.5863C17.6199 16.4658 17.3455 16.4235 17.0773 16.4649C16.8092 16.5064 16.5603 16.6297 16.3644 16.818C15.7483 17.3972 15.0213 17.8446 14.2276 18.1332C13.4339 18.4218 12.5901 18.5454 11.7473 18.4967C10.9045 18.448 10.0803 18.2279 9.32491 17.8498C8.56948 17.4717 7.89851 16.9435 7.35275 16.2972V16.2972C6.63875 15.8928 6.04466 15.3052 5.63126 14.5948C5.21786 13.8843 5 13.0763 5 12.2536C5 11.4308 5.21786 10.6229 5.63126 9.91239C6.04466 9.2019 6.63875 8.61437 7.35275 8.20996" stroke="white" stroke-width="0.749383" stroke-linecap="round" stroke-linejoin="round"/>
<path d="M7.3501 8.21573C8.2344 7.16796 9.4378 6.44144 10.7745 6.14831C12.1113 5.85517 13.507 6.01174 14.7462 6.59383C15.9854 7.17593 16.9993 8.15118 17.6312 9.36903C18.2631 10.5869 18.478 11.9796 18.2426 13.3322C18.1973 13.6083 18.241 13.8917 18.3673 14.1412C18.4936 14.3906 18.696 14.5931 18.945 14.7191L19.9985 15.2507" stroke="white" stroke-width="0.749383" stroke-linecap="round" stroke-linejoin="round"/>
<path d="M9.22189 9.72445C9.22189 9.72445 10.1552 10.6575 10.1552 12.324C10.1552 13.9905 9.12904 15.3428 7.86241 15.3428V10.6049C7.85796 10.0653 7.98846 9.53323 8.24198 9.05737C8.49551 8.58152 8.86395 8.1771 9.31355 7.88114C10.196 7.30135 11.2355 7.00929 12.2897 7.0449C12.9249 7.07784 13.5488 7.22768 14.1301 7.48692" stroke="white" stroke-width="0.749383" stroke-linecap="round" stroke-linejoin="round"/>
<path d="M18.3271 15.6184L19.9985 16.425" stroke="white" stroke-width="0.749383" stroke-linecap="round" stroke-linejoin="round"/>
</svg>
