<svg width="24" height="24" viewBox="0 0 24 24" fill="none" xmlns="http://www.w3.org/2000/svg">
<circle cx="12" cy="12" r="12" fill="#F09038"/>
<path d="M16.2694 12.0378C16.2694 12.0378 14.835 13.4399 11.5712 13.4399C8.30734 13.4399 6.87402 12.0378 6.87402 12.0378" stroke="white" stroke-linecap="round" stroke-linejoin="round"/>
<path d="M6.61035 13.3083C8.63002 14.6475 9.73442 14.5283 11.2339 16.3726C11.2772 16.4226 11.3307 16.4627 11.3908 16.4902C11.4509 16.5177 11.5162 16.532 11.5823 16.532C11.6483 16.532 11.7136 16.5177 11.7737 16.4902C11.8338 16.4627 11.8873 16.4226 11.9306 16.3726C13.4249 14.5283 14.5282 14.6475 16.5542 13.3083" stroke="white" stroke-linecap="round" stroke-linejoin="round"/>
<path d="M11.5713 16.532V18.8088" stroke="white" stroke-linecap="round" stroke-linejoin="round"/>
<path d="M7.67728 10.1313C7.55882 10.4685 7.4184 10.7976 7.25692 11.1163C6.76843 12.0527 6.50567 13.0911 6.48977 14.148C6.48579 15.7917 6.93419 17.4046 7.78552 18.8088" stroke="white" stroke-linecap="round" stroke-linejoin="round"/>
<path d="M7.52051 5.70264C7.52051 5.70264 8.43379 7.12618 7.89781 9.39331" stroke="white" stroke-linecap="round" stroke-linejoin="round"/>
<path d="M9.43201 10.4951C7.41861 10.2336 6 9.60408 6 8.87016C6 8.40408 6.56955 7.98123 7.50059 7.66699" stroke="white" stroke-linecap="round" stroke-linejoin="round"/>
<path d="M9.75596 9.71167L10.3959 10.639L9.5332 11.3237" stroke="white" stroke-linecap="round" stroke-linejoin="round"/>
<path d="M15.4615 10.1313C15.5821 10.4685 15.7242 10.7975 15.887 11.1163C16.3756 12.0526 16.638 13.0911 16.653 14.148C16.6575 15.7917 16.2091 17.4047 15.3574 18.8088" stroke="white" stroke-linecap="round" stroke-linejoin="round"/>
<path d="M15.6234 5.70264C15.6234 5.70264 14.7092 7.12618 15.2451 9.39331" stroke="white" stroke-linecap="round" stroke-linejoin="round"/>
<path d="M13.7119 10.4951C15.7253 10.2336 17.1428 9.60408 17.1428 8.87016C17.1428 8.40408 16.5733 7.98123 15.6433 7.66699" stroke="white" stroke-linecap="round" stroke-linejoin="round"/>
<path d="M13.3876 9.71167L12.7476 10.639L13.6104 11.3237" stroke="white" stroke-linecap="round" stroke-linejoin="round"/>
</svg>
