<svg width="24" height="24" viewBox="0 0 24 24" fill="none" xmlns="http://www.w3.org/2000/svg">
<circle cx="12" cy="12" r="12" fill="#F09038"/>
<path d="M8.4375 10.3845C7.70653 10.2383 7.20654 9.73402 7.20654 9.22974" stroke="white" stroke-linecap="round" stroke-linejoin="round"/>
<path d="M8.20605 12.2549C7.20605 12.2549 6.20605 11.7506 5.70605 10.7419" stroke="white" stroke-linecap="round" stroke-linejoin="round"/>
<path d="M18.88 8.90381C18.88 8.90381 18.3599 10.8205 16.4634 10.6121" stroke="white" stroke-linecap="round" stroke-linejoin="round"/>
<path d="M16.1617 14.6398C16.3904 14.0502 16.0742 13.0405 15.2065 12.7582" stroke="white" stroke-linecap="round" stroke-linejoin="round"/>
<path d="M11.4019 16.7507C10.9481 16.0645 11.3006 14.6996 12.297 14.7774C12.3856 14.7855 12.4717 14.8119 12.5497 14.8548C12.6278 14.8977 12.6962 14.9563 12.7507 15.0269C12.8053 15.0975 12.8447 15.1786 12.8667 15.2652C12.8886 15.3517 12.8926 15.4419 12.8783 15.5301C12.8615 15.6244 12.8225 15.7135 12.7647 15.7898C12.7069 15.8661 12.6319 15.9276 12.5458 15.9692" stroke="white" stroke-linecap="round" stroke-linejoin="round"/>
<path d="M9.20654 6.70923C9.20654 6.70923 9.81161 7.23874 10.0029 7.91883C10.0785 8.19288 10.0506 8.48528 9.92463 8.73999C9.79866 8.99469 9.58347 9.19378 9.3203 9.29907" stroke="white" stroke-linecap="round" stroke-linejoin="round"/>
<path d="M14.0434 6.36255C14.0434 6.36255 13.1289 7.56015 14.4903 8.62778C14.4903 8.62778 15.5067 9.40435 15.1954 10.1583C15.1129 10.3487 14.9674 10.5045 14.7836 10.5996C14.5998 10.6947 14.3889 10.7232 14.1865 10.6802C13.9505 10.6266 13.7319 10.5135 13.5515 10.3515C13.2087 10.0473 12.7663 9.88053 12.3087 9.88308C11.8511 9.88563 11.4105 10.0573 11.0712 10.3653L10.9461 10.4908C10.7598 10.6947 10.616 10.9339 10.5233 11.1944C10.4305 11.4549 10.3907 11.7314 10.4061 12.0076" stroke="white" stroke-linecap="round" stroke-linejoin="round"/>
<path d="M6.16068 14.2239C6.38513 14.2759 6.58215 14.4101 6.71321 14.6002C6.7951 14.731 6.84081 14.8812 6.84564 15.0356C6.85048 15.1899 6.81426 15.3427 6.74071 15.4784C6.53964 15.8633 6.19707 16.1544 5.78564 16.29" stroke="white" stroke-linecap="round" stroke-linejoin="round"/>
<path d="M16.2065 14.7742C18.2065 15.7823 19.7065 13.7661 19.2065 12.2539C20.8325 12.2553 20.8216 8.60046 18.9646 8.91137C19.2065 7.71749 18.2065 6.20534 16.443 6.8314C16.7065 5.70129 14.2065 4.69319 13.0426 6.26059C12.7065 4.69319 9.70655 5.19731 9.43593 6.96313C8.20656 6.20542 6.20656 7.71756 6.92064 9.29024C5.71898 9.14368 4.20656 11.2459 5.14042 12.5507C3.20656 13.2621 3.92218 16.8401 5.86676 16.3368C5.87937 16.5743 5.97559 16.7996 6.13831 16.9725C7.23854 18.1416 10.7065 18.8066 11.2065 16.2863C12.7065 18.3025 16.2065 17.7985 16.2065 14.7742Z" stroke="white" stroke-miterlimit="10" stroke-linecap="round" stroke-linejoin="round"/>
</svg>
