<svg width="24" height="24" viewBox="0 0 24 24" fill="none" xmlns="http://www.w3.org/2000/svg">
<circle cx="12" cy="12" r="12" fill="#F09038"/>
<path d="M11.9706 5.89805L11.9599 5.81471C11.955 5.77155 11.9587 5.72785 11.9707 5.68612C11.9826 5.64438 12.0027 5.60542 12.0297 5.57148C12.0567 5.53753 12.0901 5.50926 12.128 5.4883C12.1659 5.46733 12.2076 5.45408 12.2506 5.4493C12.3358 5.43959 12.4215 5.46379 12.4892 5.51672C12.5568 5.56966 12.6011 5.6471 12.6126 5.73244L12.62 5.78479C13.6688 5.65016 14.4013 6.38847 13.9807 7.661C13.3579 9.54684 12.356 12.031 10.8356 12.031C9.31518 12.031 8.31329 9.54684 7.6915 7.661C7.27094 6.38847 8.00346 5.65016 9.0522 5.78479L9.0586 5.73244C9.06975 5.64579 9.11467 5.56711 9.18352 5.51364C9.25237 5.46017 9.33953 5.43626 9.42591 5.44716C9.46889 5.45194 9.51052 5.4652 9.54837 5.48618C9.58622 5.50716 9.61956 5.53544 9.64647 5.5694C9.67339 5.60337 9.69334 5.64233 9.70519 5.68407C9.71704 5.7258 9.72055 5.76947 9.71551 5.81257L9.70592 5.89591" stroke="white" stroke-miterlimit="10" stroke-linecap="round" stroke-linejoin="round"/>
<path d="M16.2794 14.6155C17.0456 14.6155 17.6667 13.9922 17.6667 13.2234C17.6667 12.4546 17.0456 11.8313 16.2794 11.8313C15.5132 11.8313 14.8921 12.4546 14.8921 13.2234C14.8921 13.9922 15.5132 14.6155 16.2794 14.6155Z" stroke="white" stroke-miterlimit="10" stroke-linecap="round"/>
<path d="M10.8358 12.031V16.0248C10.836 16.2457 10.7927 16.4645 10.7085 16.6686C10.6244 16.8728 10.501 17.0583 10.3453 17.2146C10.1897 17.3709 10.0049 17.4948 9.80152 17.5794C9.59813 17.664 9.38013 17.7075 9.15997 17.7075C8.41468 17.7075 7.77052 17.1242 7.81843 16.3613C7.86102 15.6861 8.30182 15.3335 8.89166 15.2854C9.12252 15.2731 9.35252 15.3223 9.55825 15.4282C9.76397 15.534 9.93807 15.6927 10.0628 15.888" stroke="white" stroke-miterlimit="10" stroke-linecap="round"/>
<path d="M10.9888 17.4135C10.9888 17.4135 12.3292 18.8025 14.102 18.8025C14.6796 18.8022 15.2334 18.5718 15.6417 18.1618C16.05 17.7519 16.2794 17.196 16.2794 16.6164V14.6248" stroke="white" stroke-miterlimit="10" stroke-linecap="round"/>
</svg>
