<svg width="126" height="35" viewBox="0 0 126 35" fill="none" xmlns="http://www.w3.org/2000/svg">
<path d="M8.058 31.216C9.876 31.216 11.532 30.442 12.72 29.2L11.136 27.724C10.362 28.606 9.264 29.164 8.058 29.164C5.772 29.164 3.846 27.184 3.846 24.808C3.846 22.45 5.772 20.47 8.058 20.47C9.246 20.47 10.362 21.028 11.118 21.91L12.72 20.416C11.532 19.192 9.876 18.418 8.058 18.418C4.53 18.418 1.56 21.334 1.56 24.808C1.56 28.282 4.53 31.216 8.058 31.216ZM21.2597 21.478C20.0177 21.478 18.9197 22.072 18.3617 22.972V18.418H16.1657V31H18.3617V25.366C18.3617 24.25 19.3877 23.35 20.6297 23.35C21.7817 23.35 22.5917 24.25 22.5917 25.51V31H24.7157V25.078C24.7157 22.972 23.2937 21.478 21.2597 21.478ZM33.3998 31.216C36.0998 31.216 38.3858 28.984 38.3858 26.338C38.3858 23.692 36.0998 21.478 33.3998 21.478C30.6998 21.478 28.4138 23.692 28.4138 26.338C28.4138 28.984 30.6998 31.216 33.3998 31.216ZM33.3998 29.344C31.8518 29.344 30.5558 27.976 30.5558 26.338C30.5558 24.718 31.8518 23.35 33.3998 23.35C34.9298 23.35 36.2258 24.718 36.2258 26.338C36.2258 27.976 34.9298 29.344 33.3998 29.344ZM46.5904 31.216C49.2904 31.216 51.5764 28.984 51.5764 26.338C51.5764 23.692 49.2904 21.478 46.5904 21.478C43.8904 21.478 41.6044 23.692 41.6044 26.338C41.6044 28.984 43.8904 31.216 46.5904 31.216ZM46.5904 29.344C45.0424 29.344 43.7464 27.976 43.7464 26.338C43.7464 24.718 45.0424 23.35 46.5904 23.35C48.1204 23.35 49.4164 24.718 49.4164 26.338C49.4164 27.976 48.1204 29.344 46.5904 29.344ZM58.719 31.216C60.897 31.216 62.373 30.064 62.373 28.282C62.373 26.338 60.681 25.798 59.115 25.366C57.693 24.952 57.207 24.772 57.207 24.178C57.207 23.656 57.801 23.35 58.575 23.35C59.385 23.35 60.339 23.638 61.221 24.196L62.139 22.594C61.131 21.928 59.853 21.478 58.575 21.478C56.505 21.478 55.065 22.666 55.065 24.412C55.083 26.068 56.361 26.644 58.377 27.166C59.439 27.454 60.249 27.688 60.249 28.408C60.249 28.984 59.637 29.362 58.755 29.362C57.585 29.362 56.541 28.93 55.641 28.282L54.651 29.812C55.767 30.712 57.297 31.216 58.719 31.216ZM70.419 29.272C69.087 29.272 68.115 28.372 67.845 27.094H74.865C74.865 23.656 73.191 21.478 70.311 21.478C67.665 21.478 65.577 23.53 65.577 26.32C65.577 29.182 67.773 31.216 70.437 31.216C71.787 31.216 73.407 30.64 74.217 29.776L72.831 28.336C72.309 28.876 71.283 29.272 70.419 29.272ZM70.401 23.422C71.715 23.422 72.507 24.25 72.759 25.42H67.863C68.187 24.196 69.177 23.422 70.401 23.422ZM85.7002 31H87.9502V22.738L92.0182 30.28L96.1042 22.738V31H98.3362V18.634H96.1042L92.0182 26.176L87.9502 18.634H85.7002V31ZM107.143 29.272C105.811 29.272 104.839 28.372 104.569 27.094H111.589C111.589 23.656 109.915 21.478 107.035 21.478C104.389 21.478 102.301 23.53 102.301 26.32C102.301 29.182 104.497 31.216 107.161 31.216C108.511 31.216 110.131 30.64 110.941 29.776L109.555 28.336C109.033 28.876 108.007 29.272 107.143 29.272ZM107.125 23.422C108.439 23.422 109.231 24.25 109.483 25.42H104.587C104.911 24.196 105.901 23.422 107.125 23.422Z" fill="white"/>
<path d="M112 7.6084C112.919 7.6084 113.83 7.78852 114.679 8.13849C115.528 8.48846 116.3 9.00141 116.95 9.64807C117.6 10.2947 118.115 11.0624 118.467 11.9073C118.819 12.7522 119 13.6578 119 14.5723" stroke="white" stroke-width="2" stroke-miterlimit="10"/>
<path d="M112 1.76904C113.691 1.76904 115.365 2.10027 116.926 2.74382C118.488 3.38736 119.907 4.33062 121.103 5.51973C122.298 6.70885 123.246 8.12054 123.893 9.67419C124.54 11.2278 124.873 12.893 124.873 14.5747" stroke="white" stroke-width="2" stroke-miterlimit="10"/>
</svg>
