<svg width="113" height="58" viewBox="0 0 113 58" fill="none" xmlns="http://www.w3.org/2000/svg">
<g clip-path="url(#clip0_1_125)">
<path d="M29.1751 25.1923H34.2778V5.03846H39.3806V25.1923H44.4833V5.03846H49.586V25.1923H54.6887V0H29.1751V25.1923Z" fill="#F09038"/>
<path d="M0 25.1923H25.5136V20.1538H5.10272V5.03846H25.5136V0H0V25.1923Z" fill="#F09038"/>
<path fill-rule="evenodd" clip-rule="evenodd" d="M46.8009 49.1346L48.9627 48.2884C49.8976 50.5192 50.4819 51.9615 50.6766 52.6346L48.4564 53.2884C47.9902 51.8719 47.4373 50.4848 46.8009 49.1346ZM43.49 49.5192L45.8466 48.9999C46.4137 50.8354 46.8626 52.7045 47.1904 54.596L44.7949 54.9614C44.4868 53.1266 44.0771 51.3098 43.5679 49.5192H43.49ZM40.3933 49.5192H42.8278C43.0615 52.3269 43.1783 54.5961 43.1589 56.3076H40.7828C40.8609 54.057 40.7305 51.804 40.3933 49.5768V49.5192ZM37.0824 51.7692C35.0617 53.1035 32.9463 54.2925 30.7526 55.3268L29.5062 52.8653L32.1549 51.7499V45.0191H30.3047V42.4423H32.1549V36.6731H30.3047V34.0768H36.5955V36.6731H34.6478V42.4423H36.3423V45.0191H34.6478V50.3076L35.6996 49.5384L37.1603 51.4615C37.3356 50.7692 37.5108 49.9999 37.6666 49.2114L40.2375 49.923C39.6441 52.5781 38.5184 55.089 36.9265 57.3076C36.3924 56.662 35.7295 56.1318 34.9789 55.7499C35.7042 54.8093 36.3062 53.7819 36.7707 52.6922C36.854 52.4157 36.9582 52.1457 37.0824 51.8845V51.7692ZM43.9574 41.6538H40.0622V40.3461H43.9574V41.6538ZM43.9574 38H40.0622V36.7884C40.0595 36.7515 40.0646 36.7143 40.0771 36.6794C40.0896 36.6445 40.1092 36.6126 40.1348 36.5855C40.1604 36.5584 40.1914 36.5368 40.2258 36.5221C40.2602 36.5074 40.2973 36.4998 40.3348 36.4999H43.8795L43.9574 38ZM40.0622 45.3077V43.923H43.9574V45.3077H40.0622ZM37.5108 46.2884V47.3269C37.5108 47.6346 37.6666 47.8076 37.9588 47.8076H50.4819C50.6961 47.8076 50.813 47.8076 50.813 47.9999C50.9231 49.838 50.9231 51.681 50.813 53.5191C50.7327 54.1063 50.4748 54.656 50.0729 55.0961C49.8065 55.3 49.4746 55.4025 49.138 55.3846C48.1828 55.2968 47.2335 55.1555 46.2945 54.9614L46.5477 57.6923C49.3328 57.9038 51.1051 57.6922 51.8842 57.0191C52.5627 56.4462 53.0003 55.6439 53.1111 54.7692C53.4623 51.834 53.586 48.8768 53.4812 45.9231C53.4812 45.5384 53.3254 45.3269 52.9943 45.3077H46.5087V43.923H52.1958V41.6538H46.5087V40.3461H52.0984V38.0769H46.5087V36.4999H52.7021V34.0192H38.1535C38.0752 34.0092 37.9956 34.0173 37.9211 34.043C37.8466 34.0688 37.7792 34.1114 37.7243 34.1674C37.6694 34.2235 37.6286 34.2915 37.6051 34.3659C37.5815 34.4403 37.5759 34.5192 37.5887 34.5961L37.5108 46.2884ZM11.8219 49.2114V57.6538H14.4512V49.3461H19.3786C19.5344 49.3461 19.6123 49.346 19.6123 49.5576V53.8076C19.6123 54.1345 19.3786 54.4037 18.9112 54.596C17.6772 54.7607 16.4211 54.6015 15.2692 54.1345V57.1153C17.1348 57.6499 19.123 57.5962 20.9562 56.9615C21.3186 56.819 21.6293 56.5722 21.848 56.2534C22.0668 55.9345 22.1836 55.5582 22.1832 55.173V47.4807C22.1923 47.3927 22.1815 47.3036 22.1515 47.2202C22.1214 47.1367 22.0729 47.0609 22.0095 46.9983C21.9461 46.9357 21.8693 46.8878 21.7848 46.8582C21.7003 46.8285 21.6102 46.8178 21.521 46.8268H14.3733V44.9038H11.744V46.8268H8.12148C9.05864 45.9824 9.93704 45.0765 10.7507 44.1154C10.7717 44.0579 10.8133 44.01 10.8676 43.9807H23.7218V41.4038H12.7763C13.0489 40.9807 13.3216 40.5576 13.6332 40.1153L11.6856 38.8845C12.0946 38.7307 12.5815 38.5769 13.1268 38.423C15.5613 39.1153 18.1711 39.9999 20.9172 41.0576L21.6379 38.5384L17.022 36.8653C17.8595 36.4999 18.7749 36.0768 19.7292 35.6153L18.5606 33.2114C16.8325 34.1349 15.0505 34.9569 13.2242 35.673C10.0781 34.7025 6.86173 33.9696 3.60303 33.4807L2.99928 36.0384C4.59631 36.2692 6.32969 36.6153 8.21887 37.0768C5.76496 37.5902 3.26742 37.8735 0.759543 37.923L1.34383 40.5C4.144 40.4653 6.92971 40.0973 9.64061 39.4038L11.1597 39.0192C10.5949 39.9038 10.0496 40.6922 9.54323 41.4038H0.545305V43.9807H7.40085C5.77893 45.5178 3.98917 46.8722 2.06443 48.0191C1.26592 48.3845 0.486872 48.7884 -0.311646 49.1731L1.14906 51.4615C2.10338 50.9615 3.09666 50.4423 3.97308 49.8653V56.9615H6.62182V49.6346C6.62182 49.5 6.62182 49.4422 6.83606 49.4229L11.8219 49.2114Z" fill="#F09038"/>
<path d="M58.3307 25.1923H83.8444V20.1538H63.4335V15.1154H83.8444V10.0769H63.4335V5.03846H83.8444V0H58.3307V25.1923Z" fill="#F09038"/>
<path d="M113 0H87.4864V5.03846H107.897V10.0769H87.4864V25.1923H92.5891V15.1154H97.6918L106.32 25.1923H113L104.372 15.1154H113V0Z" fill="#F09038"/>
<path d="M77.5341 47.8654C78.4251 47.881 79.3161 47.8425 80.2023 47.75C80.1172 48.6128 80.0782 49.4794 80.0855 50.3463V55.3078C80.0839 56.207 80.1294 57.1055 80.2218 58.0001H77.3588V57H63.5698V57.9616H60.8042C60.8042 57.1923 60.9405 56.2694 60.9405 55.3078V50.1539C60.9405 49.3846 60.9405 48.6154 60.9405 47.7693C61.4469 47.7693 62.4402 47.7693 63.5698 47.7693H67.1339C67.1339 47.3462 67.1339 47.3463 67.1339 46.8655H61.5638C60.6458 46.8501 59.7279 46.9014 58.8176 47.0193V44.5578C59.7276 44.6781 60.6462 44.7232 61.5638 44.6924H79.9686C80.7177 44.7095 81.4669 44.6645 82.2083 44.5578V47.0001C81.2318 46.8955 80.2496 46.8505 79.2675 46.8655H73.5999V47.7693L77.5341 47.8654ZM68.5167 38.0193C69.0777 38.0546 69.641 38.0158 70.1916 37.9039V39.577C69.471 39.577 69.2178 39.577 68.692 39.577H67.7182C68.4761 40.2116 69.3392 40.7126 70.2695 41.0578C69.8752 41.3642 69.5446 41.7429 69.2957 42.1732C69.6524 42.1974 70.0103 42.1974 70.3669 42.1732V44.1924C69.6809 44.1254 68.9918 44.0933 68.3024 44.0963H61.5248H59.5772C59.6145 43.3595 59.6145 42.6214 59.5772 41.8847V35.4808C59.5772 34.4808 59.5772 33.9231 59.5772 32.9616C60.2904 33.0123 61.0064 33.0123 61.7196 32.9616H67.9908C68.8043 32.9641 69.6172 32.9192 70.4253 32.827V34.9424C69.4321 34.9424 69.0231 34.9424 68.3024 34.9424H65.5174C65.3984 35.1794 65.2943 35.4235 65.2058 35.6732H68.1077C68.6816 35.6972 69.2563 35.6585 69.8216 35.5578V37.2885C69.2546 37.202 68.6813 37.1634 68.1077 37.1731H67.4455C67.4182 37.4704 67.3726 37.7659 67.3092 38.0578L68.5167 38.0193ZM63.7256 39.5001C63.2979 39.4651 62.8679 39.4651 62.4402 39.5001V37.8655C62.7578 37.8903 63.0769 37.8903 63.3945 37.8655C63.0591 37.4886 62.6564 37.1756 62.2065 36.9423C62.9123 36.3557 63.4552 35.6013 63.784 34.7501H61.8364V41.9424H63.1608C62.8976 41.5166 62.5615 41.1392 62.1675 40.827C63.1698 40.6357 64.0763 40.1135 64.7383 39.3462L63.7256 39.5001ZM65.4784 38.0193C65.4784 37.7693 65.4784 37.6732 65.5758 37.1347H64.3099C64.0965 37.4608 63.8412 37.7581 63.5503 38.0193H65.4979H65.4784ZM65.4784 52.5386C64.9931 51.911 64.4077 51.3653 63.7451 50.9232C64.2739 50.9109 64.7933 50.7819 65.2651 50.5457C65.737 50.3094 66.1492 49.9718 66.4717 49.5577H63.5114V52.5386H65.4784ZM63.5308 54.2693V55.0578H77.3199V54.2693H63.5308ZM68.5362 42.0962C67.6807 41.6056 66.9326 40.9519 66.3354 40.1731C65.7596 40.9929 64.9821 41.6546 64.0762 42.0962H68.5362ZM77.3199 52.5386V49.5577H75.3723C75.9421 49.9041 76.5679 50.1513 77.2225 50.2885C76.9693 51.75 76.5798 51.9424 74.0089 51.9424C71.7887 51.9424 71.2044 51.6732 71.2044 50.6155V49.5577H69.1594C68.9047 50.2854 68.4704 50.939 67.8957 51.4594C67.3211 51.9799 66.6242 52.3508 65.8679 52.5386H77.3199ZM71.1654 46.9616H69.51C69.5339 47.2624 69.5339 47.5646 69.51 47.8654H71.2239L71.1654 46.9616ZM74.2232 34.9039C74.1969 35.6653 73.8763 36.3878 73.3273 36.9231C72.953 37.2881 72.5182 37.5874 72.0418 37.8078H78.2547C78.7769 37.832 79.3001 37.7933 79.8128 37.6924L81.0008 38.9617C80.8245 39.1074 80.6615 39.2683 80.5139 39.4424C79.7718 40.3002 78.9358 41.0741 78.021 41.75C79.4255 42.1688 80.8786 42.4079 82.3447 42.4616C81.8775 43.1139 81.5161 43.8341 81.2735 44.5963C79.4113 44.353 77.5982 43.8276 75.8981 43.0386C74.5301 43.7202 73.076 44.2181 71.5744 44.5193C71.3361 43.8028 71.009 43.1181 70.6006 42.4808C71.7181 42.3519 72.8162 42.0938 73.8726 41.7117C73.1078 41.1044 72.4498 40.3767 71.925 39.5578C71.5429 39.5214 71.1581 39.5214 70.7759 39.5578V37.6347C71.0087 37.6631 71.2442 37.6631 71.4771 37.6347C71.1928 37.0235 70.7966 36.4692 70.3085 36.0001C70.9301 35.8649 71.4905 35.5342 71.9055 35.0578C72.2356 34.581 72.4183 34.0197 72.4314 33.4423C72.4314 33.1731 72.4314 32.9617 72.4314 32.7117C73.0213 32.7573 73.6138 32.7573 74.2037 32.7117H77.203C77.7799 32.7562 78.3595 32.7562 78.9364 32.7117C78.8454 33.161 78.8062 33.619 78.8195 34.077V35.0963C78.8195 35.4809 78.8195 35.5 79.5791 35.5C80.3387 35.5 80.5334 35.5001 80.6113 33.7693C81.2136 34.1127 81.8732 34.3471 82.5589 34.4616C82.4615 35.7501 82.2278 36.3847 81.8188 36.7886C81.4098 37.1924 80.845 37.2309 78.9753 37.2309C77.1056 37.2309 76.755 37.0578 76.755 35.9424V34.7693L74.2232 34.9039ZM73.561 49.827C73.561 50.2885 73.6779 50.3846 74.4374 50.3846C75.197 50.3846 75.2554 50.2885 75.3138 49.5577H73.561V49.827ZM74.1842 39.5193C74.6399 40.0494 75.1955 40.487 75.8202 40.8077C76.5115 40.4438 77.164 40.0122 77.7678 39.5193H74.1842Z" fill="#F09038"/>
<path d="M109.631 49.346C109.631 50.673 109.631 51.0575 109.631 51.7114C109.085 51.7114 108.715 51.7114 107.995 51.7114C109.229 53.1746 110.771 54.3558 112.513 55.173C111.912 55.9017 111.395 56.6952 110.974 57.5384C108.931 56.358 107.133 54.8048 105.677 52.9614L107.391 51.7114H104.314V55.5575C104.354 55.8763 104.313 56.2 104.193 56.499C104.074 56.798 103.881 57.0627 103.632 57.2691C102.94 57.6915 102.12 57.8616 101.314 57.7499C100.36 57.7499 99.3667 57.7499 98.3345 57.6345C98.2883 56.7038 98.0636 55.7903 97.6723 54.9423C98.6233 55.1149 99.5878 55.2049 100.555 55.2114C101.412 55.2114 101.548 55.2115 101.548 54.5576V51.6923H97.4971L99.2304 52.7114C97.9934 54.599 96.3838 56.221 94.4977 57.4806C93.9876 56.7594 93.378 56.1121 92.6865 55.5575C94.3694 54.6609 95.7758 53.3321 96.757 51.7114H96.3674C96.4071 50.9298 96.4071 50.1468 96.3674 49.3653V46.7307C95.8459 47.0787 95.3063 47.3996 94.7509 47.6922C94.5991 47.1556 94.3969 46.6341 94.1472 46.1345C94.0523 48.4089 93.6461 50.66 92.9397 52.8268C92.3948 54.5295 91.551 56.1243 90.4467 57.5384C89.8532 56.7138 89.1451 55.9758 88.3433 55.346C90.1328 53.0852 91.1611 50.3283 91.2842 47.4615C90.5246 47.9615 89.4924 48.5576 88.8887 48.8845C88.7067 48.9642 88.5363 49.0676 88.3823 49.1922L87.5643 46.2884C88.9391 45.9052 90.2509 45.3288 91.4595 44.5768C91.4595 43.6538 91.4595 43.2499 91.4595 41.9999L89.5119 43.3075C89.0935 41.5375 88.4385 39.8303 87.5643 38.2307L89.5119 36.9807C90.2983 38.3589 90.9504 39.8077 91.4595 41.3076V40.3461C91.4595 39.8845 91.4595 38.423 91.4595 37.4422C91.5108 36.3058 91.4653 35.1671 91.3232 34.0383C92.3967 34.1526 93.4767 34.1976 94.5562 34.1729H100.048V33.9807C100.06 33.439 100.014 32.8976 99.9121 32.3652H103.145C103.058 32.8992 103.019 33.4399 103.028 33.9807V34.1729H109.261C110.334 34.2049 111.409 34.1535 112.474 34.0192V36.7499C111.51 36.6556 110.541 36.6171 109.572 36.6345H103.729C103.515 37.3076 103.437 37.596 103.281 38.0191H109.319C110.224 38.0428 111.129 37.9978 112.026 37.8845V40.4999C111.162 40.3837 110.289 40.3386 109.416 40.3653H105.891C106.423 41.162 107.081 41.8695 107.839 42.4614C108.551 41.8972 109.158 41.2138 109.631 40.4422L111.734 41.8076C111.118 42.4806 110.468 43.1225 109.786 43.7307C110.784 44.2972 111.851 44.7366 112.961 45.0384C112.467 45.8286 112.087 46.683 111.831 47.5768C111.059 47.2658 110.31 46.8994 109.592 46.4807L109.631 49.346ZM94.4588 40.5192C94.4588 42.1538 94.4588 43.4037 94.4588 45.0384C95.2627 44.6707 96.0207 44.2125 96.718 43.6729C96.1383 43.0522 95.4843 42.5033 94.7704 42.0384L96.4064 40.6346C97.0497 41.1421 97.655 41.6948 98.2177 42.2884C98.7817 41.7082 99.2722 41.0624 99.6784 40.3653H97.4581C96.6513 40.3428 95.8439 40.3813 95.0431 40.4807V37.923C95.8863 37.972 96.7317 37.972 97.575 37.923H100.808C100.989 37.4719 101.138 37.0094 101.256 36.5384H94.4783L94.4588 40.5192ZM99.0941 46.4229H107.001V45.2884H99.0941V46.4229ZM99.0941 49.5384H107.001V48.3652H99.0941V49.5384ZM105.385 43.1153C104.623 42.2884 103.969 41.3711 103.437 40.3845H102.424C101.932 41.3491 101.345 42.2637 100.672 43.1153H105.385Z" fill="#F09038"/>
</g>
<defs>
<clipPath id="clip0_1_125">
<rect width="113" height="58" fill="white"/>
</clipPath>
</defs>
</svg>
