<svg width="387" height="216" viewBox="0 0 387 216" fill="none" xmlns="http://www.w3.org/2000/svg">
<path d="M1.5 173.5L1.5 214.5L41.5 214.5" stroke="#F09038" stroke-width="2.5" stroke-linecap="round" stroke-linejoin="round"/>
<path d="M33.0947 133.951C32.8886 134.306 32.1825 134.193 31.4018 133.8C30.6727 133.317 30.2757 132.672 30.4818 132.316C33.845 126.314 42.1944 119.288 51.0418 114.984C58.6306 111.315 66.7788 109.751 72.58 112.641C79.8724 116.338 79.1991 126.808 74.829 139.763C74.9693 139.726 75.1097 139.689 75.25 139.652C82.8919 128.832 94.5068 115.153 110.376 103.349C130.738 88.0978 137.724 88.9458 140.078 92.1514C141.335 93.7706 141.066 95.8702 141.009 96.7868L140.925 97.0346C140.896 97.4929 140.228 97.5204 139.466 97.197C138.755 96.7848 138.129 96.1249 138.158 95.6666L138.242 95.4188C138.336 94.6425 138.487 92.9497 137.875 92.0606C136.619 90.4413 131.436 91.2926 112.816 105.18C98.1491 116.139 87.1338 128.681 79.4502 139.061C81.9379 139.377 84.6867 140.675 87.7568 143.465C95.1262 149.995 100.258 154.04 105.014 154.129C110.228 154.246 115.488 150.294 125.951 133.691C126.227 133.317 127.022 133.482 127.732 133.894C128.461 134.376 128.788 135.041 128.582 135.396C117.825 152.302 112.303 156.399 106.63 156.253C100.429 156.098 94.4794 151.519 86.1287 144.123C83.0586 141.333 80.3187 140.633 77.9144 141.197C70.0992 152.213 66.29 160.212 66.29 160.212L66.3087 160.282C62.8229 167.518 58.9347 174.937 55.1265 181.808C55.0092 182.215 54.2329 182.121 53.5038 181.638C52.7231 181.245 52.3075 180.529 52.5136 180.174C56.2517 173.321 60.1399 165.902 63.6257 158.666C63.7057 158.119 65.6729 149.408 70.0974 143.725C70.777 142.042 71.3864 140.378 71.9443 138.802C76.1829 126.483 77.4495 116.831 72.3401 114.283C67.6561 111.921 60.4245 113.543 53.3082 117.011C44.6527 121.189 36.4063 128.038 33.0947 133.951ZM128.076 130.197C128.193 129.79 128.932 129.744 129.642 130.156C130.423 130.55 130.909 131.247 130.791 131.654L129.876 135.277C132.826 131.113 136.146 126.926 137.801 126.937L137.942 126.899C140.214 126.971 140.92 128.211 140.894 130.096C140.889 130.924 140.64 131.966 140.429 133.149C140.001 135.216 139.49 137.531 139.49 137.531C142.126 138.408 147.933 129.728 148.003 129.709C148.139 129.373 148.669 128.256 149.398 128.738C150.179 129.131 149.795 129.384 149.607 129.809C149.607 129.809 144.364 140.893 140.082 139.477C136.384 138.281 137.107 134.783 137.713 131.693C137.844 131.057 137.976 130.421 138.037 129.804C134.597 132.971 127.633 144.362 127.427 144.717C127.291 145.054 126.603 145.011 125.912 144.669C125.182 144.187 124.645 143.579 124.762 143.172L128.076 130.197ZM150.928 124.65C151.153 124.365 151.929 124.46 152.658 124.942C153.387 125.424 153.714 126.089 153.508 126.444C153.335 126.64 153.162 126.836 153.059 127.014C151.939 128.739 151.324 131.231 151.131 133.611C151.054 135.585 151.221 137.343 151.758 137.952C152.146 137.999 152.567 137.887 153.091 137.597C153.667 137.219 154.327 136.593 154.842 135.705C155.601 134.602 156.177 133.096 156.59 131.259C156.839 130.216 156.929 129.141 156.949 128.084C155.406 127.367 154.158 126.346 153.261 125.232C152.364 124.118 151.818 122.911 151.646 121.981C151.525 120.961 151.76 120.147 152.565 119.783C153.177 119.545 153.776 119.537 154.412 119.668C155.455 119.917 156.45 120.554 157.221 121.476C157.847 122.136 158.281 122.922 158.664 123.797C159.047 124.672 159.326 125.724 159.466 126.814C161.084 126.684 163.474 126.35 165.557 124.294C165.852 123.99 166.128 123.616 166.857 124.099C167.516 124.6 167.577 125.109 167.282 125.413C164.469 128.114 162.087 129.047 159.707 128.853C159.744 130.121 159.658 131.495 159.306 132.716C158.893 134.553 158.284 136.218 157.474 137.409C156.818 138.335 156.195 139.101 155.479 139.517C154.642 140.04 153.711 140.212 152.668 139.963C152.103 139.813 151.518 139.593 150.967 139.214C150.789 139.111 150.611 139.008 150.434 138.904C148.882 137.589 148.263 134.974 148.382 132.313C148.538 129.793 149.256 127.123 150.427 125.309C150.6 125.113 150.755 124.847 150.928 124.65ZM156.852 126.306C156.694 125.146 156.396 124.024 156.013 123.149C155.775 122.536 155.486 122.012 155.252 121.699C155.182 121.717 155.322 121.68 155.322 121.68C155.233 121.628 155.023 121.684 154.831 121.81C154.41 121.922 154.311 122.399 154.409 123.049C154.507 123.699 154.852 124.434 155.408 125.113C155.768 125.618 156.249 126.016 156.852 126.306ZM166.986 124.74C166.524 124.413 166.323 123.94 166.477 123.674C167.279 121.883 168.554 118.765 169.57 117.218C169.706 116.881 170.463 116.905 171.192 117.388C171.903 117.8 172.389 118.497 172.253 118.834C172.183 118.852 166.456 131.792 168.42 132.397C171.393 133.41 174.753 121.174 175.156 119.865L175.189 119.706C175.306 119.299 175.975 119.272 176.756 119.665C177.466 120.078 178.022 120.756 177.905 121.163C177.905 121.163 176.009 128.728 177.584 129.286C178.734 129.657 179.881 128.601 181.287 125.974C182.556 123.683 183.808 120.195 185.271 115.525C185.684 113.687 186.279 112.252 186.279 112.252C186.485 111.897 187.154 111.869 187.865 112.281C188.645 112.675 189.131 113.372 189.014 113.779L189.032 113.849C188.291 116.149 187.635 118.202 187.011 120.095C187.001 120.624 187.025 120.993 187.272 121.078C189.395 121.716 193.229 117.767 194.156 116.169C194.362 115.813 194.676 115.58 195.386 115.992C196.115 116.474 196.05 116.792 195.843 117.147C194.251 120.2 192.428 124.365 187.953 123.075C187.28 122.803 186.747 122.494 186.285 122.166C185.506 124.326 184.724 126.187 183.97 127.589C182.255 130.749 180.407 131.992 178.018 131.199C176.69 130.726 175.812 129.682 175.265 128.475C173.714 131.967 171.49 135.187 169.012 134.343C165.81 133.316 165.972 128.841 166.986 124.74ZM220.871 96.2991C221.409 96.9075 221.399 97.436 220.889 97.4963C220.309 97.5753 219.458 97.2004 218.94 96.6622C217.884 95.5154 217.263 94.0277 216.993 92.4467C216.58 89.4767 217.369 85.6612 218.953 82.0101C220.448 78.3075 222.808 74.7506 225.588 72.2089C227.69 70.2232 230.029 68.8503 232.489 68.497C233.28 68.3621 233.986 68.475 234.748 68.7983C237.301 69.923 238.757 73.1418 239.263 77.5898C239.708 81.528 239.643 86.6536 239.161 92.1904C239.033 94.2527 238.783 96.4224 238.515 98.522C243.224 88.2562 248.311 78.5659 251.813 74.7808C254.256 72.1033 256.459 72.1941 258.44 73.9963C261.048 76.4586 261.855 83.4556 262.584 89.8727C263.052 94.1803 263.517 98.1886 263.801 99.5405C264.634 98.7181 265.922 96.4978 267.496 93.3752C269.515 89.383 271.9 83.9415 274.398 77.7938C275.997 73.9136 277.609 69.8042 279.114 65.5731C280.317 53.9853 282.506 42.4358 284.684 33.669C286.993 24.2662 289.506 17.8894 290.96 17.4277C292.415 16.966 293.5 17.6544 294.092 19.6004C295.775 25.0877 289.232 47.1091 281.9 67.0113L281.749 68.7042C279.525 92.2821 281.422 115.817 295.053 117.078C295.741 117.12 296.559 117.654 296.937 118.23C297.315 118.805 297.128 119.231 296.441 119.188C281.345 117.79 277.514 97.9999 278.408 76.2026C277.93 77.2311 277.541 78.311 277.133 79.3208C274.583 85.5573 272.198 90.9989 270.179 94.991C268.108 99.0719 266.455 101.615 265.421 101.964C265.07 102.058 264.612 102.029 264.117 101.86C261.157 100.618 260.545 94.9217 259.821 88.8039C259.185 82.7377 258.42 76.1803 256.742 74.6729C256.527 74.4296 255.848 74.9855 254.393 76.5743C249.712 81.5742 242.281 97.1457 236.666 110.507C234.834 120.008 232.437 128.232 230.213 131.453C229.782 132.093 229.417 132.415 229.155 132.56C226.357 133.905 225.699 132.276 226.769 128.386C227.219 126.689 228.044 124.141 229.179 121.06C230.431 117.572 232.094 113.374 233.932 108.98C235.078 103.116 235.953 96.7988 236.412 90.8925C236.843 85.4445 236.908 80.3189 236.481 76.4509C236.115 73.0928 235.537 70.9176 234.845 70.5756C234.756 70.524 234.616 70.5613 234.405 70.6173C232.225 70.896 230.078 72.1427 228.098 74.021C225.458 76.5254 223.149 79.9935 221.617 83.5558C220.084 87.118 219.328 90.7746 219.756 93.5155C219.933 94.7456 220.264 95.7093 220.871 96.2991ZM283.863 52.0664C288.168 39.429 291.41 27.5999 291.621 21.6092C290.445 24.2505 288.93 29.0101 287.4 35.1258C286.17 40.1101 284.916 45.852 283.863 52.0664ZM292.901 86.925C293.125 86.6399 293.902 86.7342 294.631 87.2165C295.36 87.6988 295.687 88.3632 295.481 88.7185C295.307 88.9147 295.134 89.111 295.031 89.2886C293.912 91.0133 293.297 93.5055 293.103 95.8857C293.027 97.8592 293.194 99.6178 293.731 100.226C294.119 100.273 294.54 100.161 295.064 99.872C295.64 99.4937 296.3 98.8676 296.815 97.9795C297.573 96.8765 298.15 95.3711 298.563 93.5335C298.812 92.4908 298.902 91.4153 298.921 90.3583C297.379 89.6414 296.131 88.6208 295.234 87.507C294.337 86.3931 293.791 85.1861 293.619 84.2553C293.498 83.2356 293.732 82.4221 294.537 82.058C295.15 81.8201 295.749 81.8112 296.385 81.9427C297.427 82.1915 298.423 82.8284 299.194 83.7504C299.82 84.4104 300.254 85.1964 300.637 86.0713C301.019 86.9462 301.299 87.9987 301.438 89.0885C303.057 88.959 305.447 88.6244 307.53 86.5685C307.825 86.2647 308.101 85.8908 308.83 86.3732C309.489 86.8742 309.549 87.384 309.254 87.6877C306.441 90.3884 304.06 91.3216 301.68 91.1277C301.716 92.3952 301.631 93.77 301.279 94.9903C300.866 96.8279 300.256 98.4923 299.446 99.6841C298.791 100.61 298.168 101.376 297.452 101.792C296.614 102.315 295.684 102.487 294.641 102.238C294.075 102.088 293.491 101.868 292.939 101.488C292.762 101.385 292.584 101.282 292.406 101.179C290.855 99.8636 290.235 97.2488 290.355 94.5879C290.511 92.0673 291.229 89.3975 292.4 87.584C292.573 87.3877 292.728 87.1213 292.901 86.925ZM298.825 88.5811C298.667 87.4212 298.368 86.2985 297.986 85.4236C297.748 84.8108 297.458 84.2867 297.225 83.9732C297.154 83.9918 297.295 83.9545 297.295 83.9545C297.206 83.903 296.995 83.9589 296.804 84.085C296.383 84.1969 296.284 84.6738 296.382 85.324C296.479 85.9741 296.825 86.7087 297.381 87.3873C297.74 87.8927 298.222 88.2906 298.825 88.5811ZM311.305 77.7526C311.423 77.3458 312.18 77.3698 312.891 77.782C313.671 78.1756 314.157 78.8728 314.04 79.2796L312.544 84.1093C314.683 82.2639 317.752 80.2462 319.622 81.6275C320.44 82.1614 320.658 83.8312 321.589 83.6589C322.941 83.3748 324.831 82.5721 326.576 81.5074C326.96 81.2552 327.288 80.7925 327.876 81.3121C328.554 81.8833 328.329 82.1683 327.927 82.3504C326.06 83.5226 322.878 85.1192 321.368 85.3704C319.506 85.7148 318.814 85.3728 316.786 83.9587C315.398 82.9754 310.626 90.1779 310.626 90.1779C310.504 90.2854 308.496 97.4296 308.313 98.1543C308.196 98.5611 307.438 98.537 306.728 98.1249C305.947 97.7313 305.461 97.0341 305.579 96.6273L311.305 77.7526ZM330.707 80.1093C331.614 79.5676 332.555 78.867 333.547 78.0775C334.816 76.9141 335.687 75.105 336.105 73.5667C336.17 73.2488 336.185 73.0196 336.25 72.7017C335.572 73.2576 334.809 74.0613 333.961 75.1128C332.838 76.5382 331.578 78.3002 330.707 80.1093ZM335.987 79.9082C333.136 82.4685 329.53 83.8777 329.319 83.9336C327.27 95.4458 343.903 81.711 345.034 77.2037C345.133 76.7268 345.704 76.0492 346.484 76.4427C347.195 76.8549 347.269 77.1355 347.171 77.6125C346.12 81.5727 337.187 92.0593 331.619 90.6093C328.879 89.9101 326.66 87.4949 326.494 84.6093C326.378 82.7619 326.946 80.6579 327.921 78.6711C328.914 76.7546 330.136 74.8522 331.381 73.3194C333.043 71.3753 334.714 70.0299 335.523 69.9652C336.192 69.9377 336.847 70.1394 337.487 70.5702C338.394 71.1556 338.917 71.9932 339 72.8724C339.098 73.5226 338.985 74.2287 338.821 75.0236C338.44 76.7022 337.447 78.6187 335.987 79.9082ZM361.704 43.4768C361.821 43.07 362.49 43.0426 363.271 43.4361C363.981 43.8483 364.537 44.5269 364.42 44.9337L357.058 78.2907C356.959 78.7676 356.271 78.7249 355.561 78.3127C354.78 77.9192 354.243 77.3108 354.342 76.8338L361.704 43.4768ZM354.558 80.7578C355.47 80.5154 356.447 81.0821 356.689 81.9943C356.932 82.9065 356.365 83.8834 355.453 84.1258C354.471 84.3868 353.564 83.8014 353.321 82.8892C353.079 81.9771 353.576 81.0188 354.558 80.7578Z" fill="#F09038"/>
</svg>
