<svg width="123" height="123" viewBox="0 0 123 123" fill="none" xmlns="http://www.w3.org/2000/svg">
<path d="M1 122L122 1" stroke="#C4C4C4" stroke-linecap="round" stroke-linejoin="round"/>
<path d="M1 0.999995L122 122" stroke="#C4C4C4" stroke-linecap="round" stroke-linejoin="round"/>
<path d="M33.194 69.4263C35.73 69.4263 38.04 68.3466 39.6971 66.6142L37.4876 64.5553C36.4079 65.7856 34.8763 66.5639 33.194 66.5639C30.0053 66.5639 27.3187 63.802 27.3187 60.4877C27.3187 57.1985 30.0053 54.4366 33.194 54.4366C34.8512 54.4366 36.4079 55.2149 37.4625 56.4452L39.6971 54.3612C38.04 52.6539 35.73 51.5742 33.194 51.5742C28.2728 51.5742 24.1299 55.6418 24.1299 60.4877C24.1299 65.3336 28.2728 69.4263 33.194 69.4263ZM42.3443 69.125H45.4828V57.6002L51.1574 68.1207L56.857 57.6002V69.125H59.9704V51.8755H56.857L51.1574 62.3959L45.4828 51.8755H42.3443V69.125ZM76.775 54.7379V51.8755H63.794V69.125H76.775V66.2626H66.9325V61.7682H75.846V58.9059H66.9325V54.7379H76.775ZM93.8919 69.125L89.5733 62.9985C92.059 62.2202 93.7413 60.2115 93.7413 57.6002C93.7413 54.2357 90.9793 51.8755 87.2884 51.8755H79.781V69.125H82.9195V63.3249H86.259L90.3265 69.125H93.8919ZM82.9195 54.763H86.9369C89.0711 54.763 90.5525 55.8426 90.5525 57.6002C90.5525 59.3578 89.0711 60.4375 86.9369 60.4375H82.9195V54.763Z" fill="#F09038"/>
</svg>
