<svg width="58" height="72" viewBox="0 0 58 72" fill="none" xmlns="http://www.w3.org/2000/svg">
<path d="M29.0756 53.3011C43.242 53.3011 54.7262 41.817 54.7262 27.6506C54.7262 13.4841 43.242 2 29.0756 2C14.9092 2 3.42505 13.4841 3.42505 27.6506C3.42505 41.817 14.9092 53.3011 29.0756 53.3011Z" stroke="#80C5DE" stroke-width="2.5" stroke-linecap="round" stroke-linejoin="round"/>
<path d="M29.0756 47.6011C40.0939 47.6011 49.026 38.6689 49.026 27.6506C49.026 16.6323 40.0939 7.7002 29.0756 7.7002C18.0572 7.7002 9.12512 16.6323 9.12512 27.6506C9.12512 38.6689 18.0572 47.6011 29.0756 47.6011Z" stroke="#80C5DE" stroke-width="2.5" stroke-linecap="round" stroke-linejoin="round"/>
<path d="M43.4086 62.6948L37.6514 51.8333" stroke="#80C5DE" stroke-width="2.5" stroke-linejoin="round"/>
<path d="M48.4446 60.0187L42.7787 49.3367" stroke="#80C5DE" stroke-width="2.5" stroke-linejoin="round"/>
<path d="M31.8943 53.1472L41.0487 70.4014L44.5885 58.8387L56.1512 62.3814L47.3017 45.7" stroke="#80C5DE" stroke-width="2.5" stroke-linejoin="round"/>
<path d="M14.7426 62.6948L20.4997 51.8333" stroke="#80C5DE" stroke-width="2.5" stroke-linejoin="round"/>
<path d="M9.70654 60.0187L15.3725 49.3367" stroke="#80C5DE" stroke-width="2.5" stroke-linejoin="round"/>
<path d="M26.2569 53.1472L17.1025 70.4014L13.5627 58.8387L2 62.3814L10.8494 45.7" stroke="#80C5DE" stroke-width="2.5" stroke-linejoin="round"/>
<path d="M29.0756 14.8252L32.3361 22.7085L40.4758 23.535L34.3511 29.2323L36.121 37.6257L29.0756 33.2622L22.0302 37.6257L23.8001 29.2323L17.6754 23.535L25.8151 22.7085L29.0756 14.8252Z" stroke="#80C5DE" stroke-width="2.5" stroke-linecap="round" stroke-linejoin="round"/>
</svg>
