<svg width="66" height="66" viewBox="0 0 66 66" fill="none" xmlns="http://www.w3.org/2000/svg">
<path d="M33 35.5833C42.0416 35.5833 49.7916 25.5315 49.7916 8.45832V2H16.2083V8.45832C16.2083 25.5315 23.9583 35.5833 33 35.5833Z" stroke="#80C5DE" stroke-width="2.5" stroke-linecap="round" stroke-linejoin="round"/>
<path d="M48.4999 51.0834H17.4999V64H48.4999V51.0834Z" stroke="#80C5DE" stroke-width="2.5" stroke-linecap="round" stroke-linejoin="round"/>
<path d="M30.4166 35.3043V36.875C30.4166 43.354 26.5184 47.2083 22.6666 47.2083C21.0262 47.2083 20.0833 48.3656 20.0833 49.7916V51.0833" stroke="#80C5DE" stroke-width="2.5" stroke-linejoin="round"/>
<path d="M35.5833 35.3043V36.875C35.5833 43.354 39.4815 47.2083 43.3332 47.2083C44.9737 47.2083 45.9166 48.3656 45.9166 49.7916V51.0833" stroke="#80C5DE" stroke-width="2.5" stroke-linejoin="round"/>
<path d="M13.625 8.45832V7.81249C13.625 4.60141 11.0236 2 7.81249 2C4.60141 2 2 4.42575 2 7.81249C2 16.8541 18.7916 24.5731 18.7916 30.4166C18.7916 32.057 17.6343 32.9999 16.2083 32.9999C14.7823 32.9999 13.625 31.8426 13.625 30.4166" stroke="#80C5DE" stroke-width="2.5" stroke-linecap="round" stroke-linejoin="round"/>
<path d="M52.3749 8.45832V7.81249C52.3749 4.60141 54.9763 2 58.1874 2C61.3985 2 63.9999 4.42575 63.9999 7.81249C63.9999 16.8541 47.2083 24.5731 47.2083 30.4166C47.2083 32.057 48.3656 32.9999 49.7916 32.9999C51.2176 32.9999 52.3749 31.8426 52.3749 30.4166" stroke="#80C5DE" stroke-width="2.5" stroke-linecap="round" stroke-linejoin="round"/>
</svg>
