<svg width="84" height="61" viewBox="0 0 84 61" fill="none" xmlns="http://www.w3.org/2000/svg">
<path d="M64.2452 2C65.6532 3.10867 66.3087 3.70149 67.5257 4.94127" stroke="#80C5DE" stroke-width="2.5" stroke-linecap="round" stroke-linejoin="round"/>
<path d="M63.5726 50.2485C63.4329 53.5062 63.1223 55.2447 61.854 58.7246C65.428 59.1265 67.3176 59.1094 71.1224 58.5451" stroke="#80C5DE" stroke-width="2.5" stroke-linecap="round" stroke-linejoin="round"/>
<path d="M68.8167 43.9473C69.5349 47.0196 69.7116 48.7097 69.5207 52.2352C72.8638 51.4914 74.5681 50.8815 77.8628 49.1572" stroke="#80C5DE" stroke-width="2.5" stroke-linecap="round" stroke-linejoin="round"/>
<path d="M71.909 36.0068C73.3283 38.74 73.904 40.2933 74.6194 43.6507C77.4666 41.8836 78.8575 40.7664 81.3912 38.0874" stroke="#80C5DE" stroke-width="2.5" stroke-linecap="round" stroke-linejoin="round"/>
<path d="M72.7925 27.1603C74.7847 29.4375 75.6939 30.7827 77.1674 33.8037C79.285 31.2102 80.2483 29.7025 81.8016 26.3423" stroke="#80C5DE" stroke-width="2.5" stroke-linecap="round" stroke-linejoin="round"/>
<path d="M71.1367 18.2882C73.6077 20.0182 74.8019 21.0984 76.9223 23.652C78.1023 20.4885 78.5383 18.7385 78.9231 15.0249" stroke="#80C5DE" stroke-width="2.5" stroke-linecap="round" stroke-linejoin="round"/>
<path d="M66.816 10.0656C69.7116 11.1743 71.1481 11.9438 73.8385 13.9132C73.9098 10.4903 73.7359 8.66626 72.7926 4.96973" stroke="#80C5DE" stroke-width="2.5" stroke-linecap="round" stroke-linejoin="round"/>
<path d="M19.5563 2C18.1484 3.10867 17.4929 3.70149 16.2759 4.94127" stroke="#80C5DE" stroke-width="2.5" stroke-linecap="round" stroke-linejoin="round"/>
<path d="M20.2318 50.2485C20.3714 53.5062 20.6821 55.2447 21.9503 58.7246C18.3764 59.1265 16.4868 59.1094 12.6819 58.5451" stroke="#80C5DE" stroke-width="2.5" stroke-linecap="round" stroke-linejoin="round"/>
<path d="M14.9848 43.9473C14.2666 47.0196 14.0899 48.7097 14.2809 52.2352C10.9377 51.4914 9.23339 50.8815 5.93872 49.1572" stroke="#80C5DE" stroke-width="2.5" stroke-linecap="round" stroke-linejoin="round"/>
<path d="M11.8925 36.0068C10.4732 38.74 9.89745 40.2933 9.18209 43.6507C6.33487 41.8836 4.94404 40.7664 2.41034 38.0874" stroke="#80C5DE" stroke-width="2.5" stroke-linecap="round" stroke-linejoin="round"/>
<path d="M11.009 27.1603C9.01679 29.4375 8.10762 30.7827 6.63414 33.8037C4.51654 31.2102 3.55322 29.7025 1.99994 26.3423" stroke="#80C5DE" stroke-width="2.5" stroke-linecap="round" stroke-linejoin="round"/>
<path d="M12.6677 18.2882C10.1967 20.0182 9.00254 21.0984 6.88209 23.652C5.70217 20.4885 5.26611 18.7385 4.88135 15.0249" stroke="#80C5DE" stroke-width="2.5" stroke-linecap="round" stroke-linejoin="round"/>
<path d="M16.9856 10.0656C14.0899 11.1743 12.6535 11.9438 9.963 13.9132C9.89175 10.4903 10.0656 8.66626 11.009 4.96973" stroke="#80C5DE" stroke-width="2.5" stroke-linecap="round" stroke-linejoin="round"/>
<path d="M41.9008 14.8252L46.384 25.6668L57.5761 26.7983L49.1571 34.6331L51.5882 46.1759L41.9008 40.1765L32.2134 46.1759L34.6445 34.6331L26.2255 26.7983L37.4177 25.6668L41.9008 14.8252Z" stroke="#80C5DE" stroke-width="2.5" stroke-linecap="round" stroke-linejoin="round"/>
</svg>
