<svg width="68" height="68" viewBox="0 0 68 68" fill="none" xmlns="http://www.w3.org/2000/svg">
<path d="M34.0013 58.0022C47.2567 58.0022 58.0023 47.2566 58.0023 34.0012C58.0023 20.7459 47.2567 10.0002 34.0013 10.0002C20.7459 10.0002 10.0003 20.7459 10.0003 34.0012C10.0003 47.2566 20.7459 58.0022 34.0013 58.0022Z" stroke="#80C5DE" stroke-width="2.5" stroke-linecap="round" stroke-linejoin="round"/>
<path d="M11.8723 24.6941C11.6937 24.6835 11.515 24.6675 11.3337 24.6675C6.17878 24.6675 1.99994 28.8463 1.99994 34.0012C1.99994 37.1053 3.52 39.8468 5.85077 41.5429" stroke="#80C5DE" stroke-width="2.5" stroke-linejoin="round"/>
<path d="M10.2056 36.9934C10.0376 37.0787 9.86694 37.1561 9.7016 37.2521C5.23741 39.8282 3.70668 45.5378 6.28546 50.002C7.83752 52.6901 10.5256 54.3035 13.3924 54.6075" stroke="#80C5DE" stroke-width="2.5" stroke-linejoin="round"/>
<path d="M14.8938 48.4844C14.7898 48.6444 14.6805 48.799 14.5818 48.9644C12.0057 53.4286 13.5338 59.1381 17.998 61.7143C20.6861 63.2663 23.8222 63.3197 26.457 62.1489" stroke="#80C5DE" stroke-width="2.5" stroke-linejoin="round"/>
<path d="M24.6943 56.1301C24.6836 56.3088 24.6676 56.4875 24.6676 56.6688C24.6676 61.8237 28.8464 66.0025 34.0013 66.0025C37.1055 66.0025 39.8469 64.4825 41.543 62.1517" stroke="#80C5DE" stroke-width="2.5" stroke-linejoin="round"/>
<path d="M36.9934 57.7969C37.0787 57.9649 37.1561 58.1356 37.2521 58.3009C39.8282 62.7651 45.5378 64.2959 50.0019 61.7171C52.6901 60.165 54.3035 57.4769 54.6075 54.6101" stroke="#80C5DE" stroke-width="2.5" stroke-linejoin="round"/>
<path d="M48.4846 53.1088C48.6446 53.2128 48.7992 53.3221 48.9646 53.4208C53.4288 55.9996 59.1383 54.4689 61.7144 50.0047C63.2665 47.3166 63.3198 44.1804 62.1491 41.5457" stroke="#80C5DE" stroke-width="2.5" stroke-linejoin="round"/>
<path d="M56.1276 43.3084C56.3062 43.3191 56.4849 43.3351 56.6662 43.3351C61.8211 43.3351 66 39.1563 66 34.0014C66 30.8972 64.4799 28.1558 62.1491 26.4597" stroke="#80C5DE" stroke-width="2.5" stroke-linejoin="round"/>
<path d="M57.7943 31.0091C57.9623 30.9238 58.133 30.8464 58.2983 30.7504C62.7625 28.1743 64.2932 22.4647 61.7144 18.0005C60.1624 15.3124 57.4743 13.699 54.6075 13.395" stroke="#80C5DE" stroke-width="2.5" stroke-linejoin="round"/>
<path d="M53.1061 19.518C53.2101 19.358 53.3195 19.2033 53.4181 19.038C55.9942 14.5738 54.4662 8.86422 50.002 6.28811C47.3139 4.73605 44.1777 4.68271 41.543 5.85343" stroke="#80C5DE" stroke-width="2.5" stroke-linejoin="round"/>
<path d="M43.3084 11.8724C43.319 11.6937 43.335 11.5151 43.335 11.3337C43.335 6.17884 39.1562 2 34.0013 2C30.8972 2 28.1557 3.52006 26.4597 5.85083" stroke="#80C5DE" stroke-width="2.5" stroke-linejoin="round"/>
<path d="M31.0065 10.2056C30.9212 10.0376 30.8438 9.86688 30.7478 9.70154C28.1717 5.23735 22.4622 3.70662 17.998 6.2854C15.3099 7.83746 13.6965 10.5256 13.3925 13.3923" stroke="#80C5DE" stroke-width="2.5" stroke-linejoin="round"/>
<path d="M19.5181 14.8938C19.3581 14.7898 19.2034 14.6805 19.038 14.5818C14.5739 12.0057 8.86428 13.5338 6.28818 17.998C4.73611 20.6861 4.68277 23.8222 5.85349 26.457" stroke="#80C5DE" stroke-width="2.5" stroke-linejoin="round"/>
<path d="M27.3344 28.6677H19.334V44.6684H27.3344V28.6677Z" stroke="#80C5DE" stroke-width="2.5" stroke-linecap="round" stroke-linejoin="round"/>
<path d="M27.3344 31.3344L33.3346 27.3342C33.3346 27.3342 36.1507 25.6381 37.1028 20.5499C37.4334 18.7792 38.1988 18.0005 39.3349 18.0005C41.2816 18.0005 42.0016 20.1392 42.0016 22.0007C42.0016 24.6674 40.6682 27.3342 40.6682 27.3342H45.5591C47.1939 27.3342 48.4446 28.7903 48.1939 30.4063L46.3485 42.4068C46.1485 43.7082 45.0284 44.6683 43.7137 44.6683H35.3347C31.3345 44.6683 27.3344 42.0015 27.3344 42.0015" stroke="#80C5DE" stroke-width="2.5" stroke-linejoin="round"/>
</svg>
