<svg width="79" height="79" viewBox="0 0 79 79" fill="none" xmlns="http://www.w3.org/2000/svg">
<path d="M1.2909 77.6857L77.9766 1" stroke="#C4C4C4" stroke-width="0.633766" stroke-linecap="round" stroke-linejoin="round"/>
<path d="M1.29092 0.999936L77.9766 77.6857" stroke="#C4C4C4" stroke-width="0.633766" stroke-linecap="round" stroke-linejoin="round"/>
<path d="M21.6944 44.6909C23.3016 44.6909 24.7656 44.0066 25.8158 42.9087L24.4155 41.6038C23.7312 42.3835 22.7606 42.8768 21.6944 42.8768C19.6735 42.8768 17.9708 41.1264 17.9708 39.0259C17.9708 36.9413 19.6735 35.1909 21.6944 35.1909C22.7446 35.1909 23.7312 35.6842 24.3996 36.4639L25.8158 35.1432C24.7656 34.0611 23.3016 33.3768 21.6944 33.3768C18.5755 33.3768 15.9498 35.9547 15.9498 39.0259C15.9498 42.0971 18.5755 44.6909 21.6944 44.6909ZM27.4935 44.4999H29.4826V37.1959L33.0789 43.8634L36.6912 37.1959V44.4999H38.6644V33.5678H36.6912L33.0789 40.2353L29.4826 33.5678H27.4935V44.4999ZM49.3146 35.3819V33.5678H41.0876V44.4999H49.3146V42.6859H43.0767V39.8375H48.7258V38.0234H43.0767V35.3819H49.3146ZM60.1627 44.4999L57.4257 40.6172C59.001 40.1239 60.0672 38.8509 60.0672 37.1959C60.0672 35.0636 58.3168 33.5678 55.9776 33.5678H51.2196V44.4999H53.2087V40.8241H55.3252L57.903 44.4999H60.1627ZM53.2087 35.3978H55.7548C57.1074 35.3978 58.0463 36.082 58.0463 37.1959C58.0463 38.3098 57.1074 38.9941 55.7548 38.9941H53.2087V35.3978Z" fill="#F09038"/>
</svg>
