<svg width="41" height="41" viewBox="0 0 41 41" fill="none" xmlns="http://www.w3.org/2000/svg">
<path d="M24.2743 28.5102C25.5718 32.0118 26.5381 35.4124 27.1627 37.8358C27.5734 39.4318 29.5508 39.8943 30.5619 38.624C35.2965 32.6925 35.7175 26.2724 35.6071 23.2758C35.5608 22.2911 35.8779 21.3218 36.5043 20.5332C37.688 19.0804 38.3816 17.0935 38.775 15.4746C39.8689 11.0056 38.3609 6.20768 34.7409 3.54324C32.9835 2.23192 30.8109 1.51507 28.5707 1.50745C25.1819 1.50745 22.1589 3.13609 20.1988 5.71259C18.2387 3.14912 15.2157 1.50745 11.8269 1.50745C9.58678 1.51507 7.41406 2.23192 5.65669 3.54324C2.02635 6.21746 0.528687 11.035 1.63298 15.517C2.02983 17.1228 2.71657 19.1 3.88988 20.5234C4.51774 21.3189 4.83579 22.2944 4.79052 23.2855C4.68009 26.2822 5.10803 32.6893 9.82195 38.5947C10.84 39.8748 12.8242 39.4253 13.2349 37.8227C13.8595 35.3993 14.8292 31.9987 16.1233 28.4972C17.5623 24.6243 22.8422 24.6243 24.2743 28.5102Z" stroke="white" stroke-width="2.5" stroke-miterlimit="10" stroke-linecap="round"/>
</svg>
