<svg width="43" height="54" viewBox="0 0 43 54" fill="none" xmlns="http://www.w3.org/2000/svg">
<path d="M19.0728 3.04617L19.0319 2.72536C19.0131 2.55923 19.0271 2.39101 19.0732 2.23033C19.1193 2.06966 19.1965 1.9197 19.3005 1.78903C19.4044 1.65836 19.533 1.54953 19.6789 1.46883C19.8248 1.38812 19.9852 1.33711 20.1508 1.3187C20.479 1.28131 20.8087 1.37449 21.0692 1.57825C21.3297 1.78202 21.5003 2.08013 21.5443 2.40865L21.573 2.61018C25.6101 2.09194 28.43 4.93406 26.811 9.83271C24.4134 17.0922 20.5565 26.6551 14.7037 26.6551C8.8509 26.6551 4.99409 17.0922 2.6005 9.83271C0.98155 4.93406 3.80141 2.09194 7.83854 2.61018L7.86316 2.40865C7.90609 2.07509 8.07902 1.77222 8.34407 1.56638C8.60911 1.36054 8.94463 1.26851 9.27716 1.31047C9.44261 1.32886 9.60285 1.37991 9.74856 1.46067C9.89427 1.54143 10.0226 1.65031 10.1262 1.78105C10.2298 1.91178 10.3066 2.0618 10.3522 2.22245C10.3979 2.3831 10.4114 2.55122 10.392 2.71713L10.355 3.03796" stroke="#80C5DE" stroke-width="2.5" stroke-miterlimit="10" stroke-linecap="round" stroke-linejoin="round"/>
<path d="M35.6596 36.6042C38.609 36.6042 41 34.205 41 31.2454C41 28.2857 38.609 25.8865 35.6596 25.8865C32.7101 25.8865 30.3191 28.2857 30.3191 31.2454C30.3191 34.205 32.7101 36.6042 35.6596 36.6042Z" stroke="#80C5DE" stroke-width="2.5" stroke-miterlimit="10" stroke-linecap="round"/>
<path d="M14.705 26.6552V42.0292C14.7055 42.8797 14.539 43.722 14.2151 44.5079C13.8911 45.2938 13.416 46.0079 12.8169 46.6095C12.2178 47.2111 11.5064 47.6883 10.7234 48.0139C9.94048 48.3395 9.1013 48.5071 8.25377 48.5071C5.38475 48.5071 2.90505 46.2614 3.08949 43.3248C3.25344 40.7255 4.95029 39.3682 7.22092 39.1831C8.10962 39.1356 8.99501 39.3253 9.78694 39.7328C10.5789 40.1402 11.2491 40.7509 11.7294 41.5028" stroke="#80C5DE" stroke-width="2.5" stroke-miterlimit="10" stroke-linecap="round"/>
<path d="M15.2936 47.3752C15.2936 47.3752 20.4538 52.7222 27.278 52.7222C29.5014 52.7211 31.6333 51.834 33.2051 50.256C34.7768 48.6779 35.6598 46.538 35.6598 44.3068V36.64" stroke="#80C5DE" stroke-width="2.5" stroke-miterlimit="10" stroke-linecap="round"/>
</svg>
