<svg width="66" height="48" viewBox="0 0 66 48" fill="none" xmlns="http://www.w3.org/2000/svg">
<path d="M2.20343 45.8843H64.2678" stroke="#80C5DE" stroke-width="2.5" stroke-linecap="round" stroke-linejoin="round"/>
<path d="M41.0349 9.22534H48.81V45.8844H17.6613V9.22534H25.4319" stroke="#80C5DE" stroke-width="2.5" stroke-linecap="round" stroke-linejoin="round"/>
<path d="M58.674 22.1411H48.81V45.8842H58.674V22.1411Z" stroke="#80C5DE" stroke-width="2.5" stroke-linecap="round" stroke-linejoin="round"/>
<path d="M17.6789 22.1411H7.81488V45.8842H17.6789V22.1411Z" stroke="#80C5DE" stroke-width="2.5" stroke-linecap="round" stroke-linejoin="round"/>
<path d="M33.2334 17.0268C37.5421 17.0268 41.0349 13.5339 41.0349 9.22531C41.0349 4.91667 37.5421 1.42383 33.2334 1.42383C28.9248 1.42383 25.4319 4.91667 25.4319 9.22531C25.4319 13.5339 28.9248 17.0268 33.2334 17.0268Z" stroke="#80C5DE" stroke-width="2.5" stroke-linecap="round" stroke-linejoin="round"/>
<path d="M28.9017 9.22534H37.5695" stroke="#80C5DE" stroke-width="2.5" stroke-miterlimit="10"/>
<path d="M33.2334 13.557V4.88916" stroke="#80C5DE" stroke-width="2.5" stroke-miterlimit="10"/>
<path d="M13.4483 29.9165H11.6672V32.5595H13.4483V29.9165Z" fill="#80C5DE"/>
<path d="M13.4483 38.2104H11.6672V40.8535H13.4483V38.2104Z" fill="#80C5DE"/>
<path d="M54.8041 29.9165H53.023V32.5595H54.8041V29.9165Z" fill="#80C5DE"/>
<path d="M54.8041 38.2104H53.023V40.8535H54.8041V38.2104Z" fill="#80C5DE"/>
<path d="M24.5744 21.6223H22.7933V24.2653H24.5744V21.6223Z" fill="#80C5DE"/>
<path d="M30.9423 21.6223H29.1612V24.2653H30.9423V21.6223Z" fill="#80C5DE"/>
<path d="M37.3101 21.6223H35.529V24.2653H37.3101V21.6223Z" fill="#80C5DE"/>
<path d="M43.6779 21.6223H41.8969V24.2653H43.6779V21.6223Z" fill="#80C5DE"/>
<path d="M24.5744 29.9165H22.7933V32.5595H24.5744V29.9165Z" fill="#80C5DE"/>
<path d="M30.9423 29.9165H29.1612V32.5595H30.9423V29.9165Z" fill="#80C5DE"/>
<path d="M37.3101 29.9165H35.529V32.5595H37.3101V29.9165Z" fill="#80C5DE"/>
<path d="M43.6779 29.9165H41.8969V32.5595H43.6779V29.9165Z" fill="#80C5DE"/>
<path d="M24.5744 38.2104H22.7933V40.8535H24.5744V38.2104Z" fill="#80C5DE"/>
<path d="M43.6779 38.2104H41.8969V40.8535H43.6779V38.2104Z" fill="#80C5DE"/>
<path d="M28.3168 45.8844V36.1304H38.15V45.8844" stroke="#80C5DE" stroke-width="2.5" stroke-linejoin="round"/>
</svg>
