<svg width="54" height="37" viewBox="0 0 54 37" fill="none" xmlns="http://www.w3.org/2000/svg">
<path d="M23.5909 25.9639C23.5909 27.8743 23.0244 29.7417 21.963 31.3302C20.9017 32.9186 19.3931 34.1566 17.6282 34.8877C15.8632 35.6188 13.9211 35.8101 12.0474 35.4374C10.1737 35.0647 8.45263 34.1447 7.10179 32.7939C5.75094 31.443 4.831 29.7219 4.4583 27.8483C4.08561 25.9746 4.27689 24.0325 5.00797 22.2675C5.73904 20.5025 6.97706 18.994 8.56549 17.9326C10.1539 16.8713 12.0214 16.3048 13.9318 16.3048C16.4926 16.3078 18.9477 17.3264 20.7585 19.1372C22.5693 20.948 23.5879 23.403 23.5909 25.9639Z" stroke="#80C5DE" stroke-width="2.5" stroke-linecap="round" stroke-linejoin="round"/>
<path d="M20.1818 25.3957C20.1818 27.204 19.4634 28.9382 18.1848 30.2169C16.9061 31.4955 15.1719 32.2139 13.3636 32.2139" stroke="#80C5DE" stroke-width="2.5" stroke-linecap="round" stroke-linejoin="round"/>
<path d="M46.3182 25.3957C46.3182 27.204 45.5998 28.9382 44.3212 30.2169C43.0425 31.4955 41.3083 32.2139 39.5 32.2139" stroke="#80C5DE" stroke-width="2.5" stroke-linecap="round" stroke-linejoin="round"/>
<path d="M5.40909 20.8503H2C2 20.8503 8.25 6.29348 9.95455 3.80485C10.4353 3.15689 11.0826 2.65129 11.8277 2.34174C12.5728 2.0322 13.3878 1.93029 14.1862 2.04684C14.9845 2.16339 15.7364 2.49405 16.3619 3.00367C16.9874 3.5133 17.4632 4.18286 17.7386 4.94121" stroke="#80C5DE" stroke-width="2.5" stroke-linecap="round" stroke-linejoin="round"/>
<path d="M30.4091 25.9639C30.4091 27.8743 30.9756 29.7417 32.0369 31.3302C33.0983 32.9186 34.6068 34.1566 36.3718 34.8877C38.1368 35.6188 40.0789 35.8101 41.9526 35.4374C43.8263 35.0647 45.5474 34.1447 46.8982 32.7939C48.2491 31.443 49.169 29.7219 49.5417 27.8483C49.9144 25.9746 49.7231 24.0325 48.992 22.2675C48.2609 20.5025 47.0229 18.994 45.4345 17.9326C43.8461 16.8713 41.9786 16.3048 40.0682 16.3048C37.5074 16.3078 35.0522 17.3264 33.2415 19.1372C31.4307 20.948 30.4121 23.403 30.4091 25.9639V25.9639Z" stroke="#80C5DE" stroke-width="2.5" stroke-linecap="round" stroke-linejoin="round"/>
<path d="M32.375 20.1343L28.1364 17.4412H27H25.8636L21.625 20.1343" stroke="#80C5DE" stroke-width="2.5" stroke-linecap="round" stroke-linejoin="round"/>
<path d="M48.5909 20.8502H52C52 20.8502 45.75 6.29342 44.0455 3.80478C43.5647 3.15683 42.9174 2.65123 42.1723 2.34168C41.4272 2.03214 40.6122 1.93023 39.8139 2.04678C39.0155 2.16333 38.2636 2.49398 37.6381 3.00361C37.0126 3.51324 36.5369 4.1828 36.2614 4.94115" stroke="#80C5DE" stroke-width="2.5" stroke-linecap="round" stroke-linejoin="round"/>
</svg>
