<svg width="54" height="58" viewBox="0 0 54 58" fill="none" xmlns="http://www.w3.org/2000/svg">
<path d="M51.878 12.1214L49.5563 9.48272C49.2806 9.17253 48.8928 8.9818 48.4774 8.95208C48.062 8.92236 47.6526 9.05608 47.3385 9.32407L22.6239 30.567C22.3107 30.8375 22.1194 31.2202 22.0919 31.6316C22.0644 32.043 22.2029 32.4495 22.4772 32.7621L24.795 35.3998C25.0707 35.7112 25.4592 35.9029 25.8755 35.9328C26.2919 35.9627 26.7022 35.8285 27.0167 35.5595L51.7389 14.3185C52.0516 14.047 52.2418 13.6632 52.2679 13.2514C52.294 12.8396 52.1538 12.4332 51.878 12.1214Z" stroke="#80C5DE" stroke-width="2.5" stroke-miterlimit="10"/>
<path d="M3.07516 47.3582C11.9727 49.6334 21.9113 39.9387 21.9113 39.9387C22.2769 39.6236 22.5002 39.1772 22.5323 38.6973C22.5643 38.2175 22.4024 37.7434 22.0821 37.3791L20.1043 35.135C19.7837 34.7718 19.3311 34.5484 18.846 34.5137C18.361 34.479 17.8832 34.636 17.5175 34.9501L3.07516 47.3582Z" stroke="#80C5DE" stroke-width="2.5" stroke-miterlimit="10"/>
<path d="M24.942 35.5683L22.4043 37.7479" stroke="#80C5DE" stroke-width="2.5" stroke-miterlimit="10" stroke-linecap="round"/>
<path d="M19.7999 34.7913L22.3377 32.6118" stroke="#80C5DE" stroke-width="2.5" stroke-miterlimit="10" stroke-linecap="round"/>
<path d="M31.0095 27.7363L43.3334 17.1482" stroke="#80C5DE" stroke-width="2.5" stroke-miterlimit="10" stroke-linecap="round"/>
</svg>
