<svg width="54" height="38" viewBox="0 0 54 38" fill="none" xmlns="http://www.w3.org/2000/svg">
<path d="M38.4146 16.9109C39.5829 18.9147 40.1945 21.1942 40.1864 23.5137C40.1864 26.1255 39.4119 28.6787 37.9608 30.8503C36.5098 33.022 34.4473 34.7146 32.0343 35.7141C29.6213 36.7136 26.9661 36.9751 24.4044 36.4656C21.8428 35.956 19.4898 34.6983 17.6429 32.8515C15.7961 31.0046 14.5384 28.6516 14.0289 26.09C13.5193 23.5283 13.7808 20.8731 14.7803 18.4601C15.7798 16.0471 17.4724 13.9847 19.6441 12.5336C21.8157 11.0825 24.3689 10.308 26.9807 10.308" stroke="#80C5DE" stroke-width="2.5" stroke-miterlimit="10" stroke-linecap="round"/>
<path d="M41.5619 14.7099C45.5562 17.0948 49.1725 20.062 52.2915 23.5137C52.2915 23.5137 41.0447 36.7193 26.9807 36.7193C12.9167 36.7193 1.66992 23.5137 1.66992 23.5137C1.66992 23.5137 12.9167 10.308 26.9807 10.308C29.3583 10.3344 31.7194 10.7051 33.9907 11.4085" stroke="#80C5DE" stroke-width="2.5" stroke-linecap="round" stroke-linejoin="round"/>
<path d="M48.9901 1.50433L26.9807 23.5137" stroke="#80C5DE" stroke-width="2.5" stroke-linecap="round" stroke-linejoin="round"/>
<path d="M26.9807 19.1118V15.8104" stroke="#80C5DE" stroke-width="2.5" stroke-linecap="round" stroke-linejoin="round"/>
<path d="M23.1731 21.3128L20.3119 19.6621" stroke="#80C5DE" stroke-width="2.5" stroke-linecap="round" stroke-linejoin="round"/>
<path d="M23.1731 25.7146L20.3119 27.3653" stroke="#80C5DE" stroke-width="2.5" stroke-linecap="round" stroke-linejoin="round"/>
<path d="M26.9807 27.9156V31.2171" stroke="#80C5DE" stroke-width="2.5" stroke-linecap="round" stroke-linejoin="round"/>
<path d="M30.7883 25.7146L33.6496 27.3653" stroke="#80C5DE" stroke-width="2.5" stroke-linecap="round" stroke-linejoin="round"/>
</svg>
