<svg width="91" height="47" viewBox="0 0 91 47" fill="none" xmlns="http://www.w3.org/2000/svg">
<g clip-path="url(#clip0_43_1036)">
<path d="M23.4951 20.4145H27.6044V4.08289H31.7137V20.4145H35.8229V4.08289H39.9322V20.4145H44.0415V0H23.4951V20.4145Z" fill="#004E7D"/>
<path d="M0 20.4145H20.5464V16.3316H4.10927V4.08289H20.5464V0H0V20.4145Z" fill="#004E7D"/>
<path fill-rule="evenodd" clip-rule="evenodd" d="M37.6892 39.8159L39.4302 39.1303C40.183 40.938 40.6535 42.1067 40.8104 42.6522L39.0224 43.182C38.6469 42.0342 38.2017 40.9101 37.6892 39.8159V39.8159ZM35.0229 40.1276L36.9207 39.7069C37.3774 41.1942 37.7389 42.7088 38.0029 44.2416L36.0737 44.5377C35.8256 43.0509 35.4957 41.5787 35.0856 40.1276H35.0229ZM32.5291 40.1276H34.4896C34.6778 42.4028 34.7719 44.2416 34.7562 45.6286H32.8428C32.9057 43.8048 32.8007 41.9791 32.5291 40.1743V40.1276ZM29.8628 41.9509C28.2355 43.0322 26.532 43.9956 24.7654 44.8338L23.7616 42.8392L25.8947 41.9353V36.481H24.4047V34.3929H25.8947V29.7178H24.4047V27.614H29.4707V29.7178H27.9022V34.3929H29.2668V36.481H27.9022V40.7665L28.7492 40.1432L29.9255 41.7016C30.0667 41.1406 30.2078 40.5172 30.3333 39.8782L32.4036 40.4548C31.9258 42.6064 31.0192 44.6411 29.7373 46.439C29.3072 45.9158 28.7733 45.4861 28.1689 45.1767C28.7529 44.4144 29.2378 43.5819 29.6118 42.6989C29.6789 42.4748 29.7628 42.256 29.8628 42.0444V41.9509ZM35.3993 33.7539H32.2625V32.6943H35.3993V33.7539ZM35.3993 30.7931H32.2625V29.8113C32.2603 29.7814 32.2644 29.7513 32.2744 29.723C32.2845 29.6947 32.3003 29.6688 32.3209 29.6469C32.3416 29.6249 32.3665 29.6074 32.3942 29.5955C32.4219 29.5836 32.4518 29.5775 32.482 29.5775H35.3366L35.3993 30.7931ZM32.2625 36.7148V35.5928H35.3993V36.7148H32.2625ZM30.2078 37.5096V38.3511C30.2078 38.6004 30.3333 38.7407 30.5686 38.7407H40.6535C40.8261 38.7407 40.9202 38.7406 40.9202 38.8965C41.0089 40.386 41.0089 41.8794 40.9202 43.3689C40.8555 43.8448 40.6478 44.2902 40.3242 44.6468C40.1096 44.8121 39.8424 44.8951 39.5713 44.8806C38.8021 44.8095 38.0376 44.695 37.2814 44.5377L37.4853 46.7506C39.7282 46.9221 41.1554 46.7506 41.7828 46.2052C42.3293 45.7409 42.6816 45.0908 42.7709 44.3819C43.0537 42.0035 43.1534 39.6071 43.0689 37.2135C43.0689 36.9019 42.9434 36.7304 42.6768 36.7148H37.4539V35.5928H42.0337V33.7539H37.4539V32.6943H41.9553V30.8554H37.4539V29.5775H42.4415V27.5673H30.7254C30.6624 27.5592 30.5982 27.5657 30.5382 27.5866C30.4782 27.6075 30.4239 27.642 30.3798 27.6874C30.3356 27.7329 30.3027 27.788 30.2837 27.8483C30.2648 27.9086 30.2602 27.9724 30.2706 28.0348L30.2078 37.5096ZM9.5203 39.8782V46.7195H11.6377V39.9873H15.6058C15.7313 39.9873 15.794 39.9873 15.794 40.1587V43.6027C15.794 43.8677 15.6058 44.0858 15.2294 44.2416C14.2356 44.375 13.224 44.2461 12.2964 43.8676V46.2831C13.7988 46.7163 15.3999 46.6728 16.8762 46.1585C17.168 46.043 17.4182 45.843 17.5944 45.5846C17.7706 45.3262 17.8646 45.0213 17.8643 44.7092V38.4758C17.8717 38.4044 17.863 38.3322 17.8388 38.2646C17.8146 38.197 17.7755 38.1356 17.7244 38.0849C17.6734 38.0341 17.6116 37.9953 17.5435 37.9713C17.4755 37.9473 17.4029 37.9386 17.331 37.9459H11.5749V36.3875H9.45758V37.9459H6.5403C7.295 37.2616 8.00239 36.5275 8.65766 35.7487C8.67457 35.7021 8.70806 35.6633 8.75179 35.6396H19.1034V33.5513H10.2888C10.5084 33.2085 10.728 32.8657 10.9789 32.5073L9.41052 31.5099C9.73989 31.3852 10.132 31.2606 10.5711 31.1359C12.5317 31.6969 14.6334 32.4137 16.8448 33.2708L17.4252 31.2294L13.708 29.8736C14.3824 29.5775 15.1196 29.2347 15.8881 28.8607L14.9471 26.9127C13.5553 27.6611 12.1203 28.3272 10.6496 28.9075C8.11596 28.121 5.52581 27.5271 2.90155 27.1309L2.41534 29.2036C3.70145 29.3906 5.09736 29.671 6.61873 30.045C4.64257 30.461 2.63128 30.6906 0.611662 30.7307L1.08219 32.8189C3.3372 32.7909 5.58056 32.4926 7.76367 31.9307L8.98704 31.619C8.5322 32.3358 8.09304 32.9747 7.68525 33.5513H0.439134V35.6396H5.95997C4.65383 36.8851 3.21251 37.9827 1.6625 38.9121C1.01945 39.2082 0.392078 39.5355 -0.250977 39.8471L0.925342 41.7016C1.69387 41.2964 2.49376 40.8756 3.19955 40.4081V46.1585H5.33261V40.2211C5.33261 40.1121 5.33261 40.0652 5.50514 40.0496L9.5203 39.8782Z" fill="#004E7D"/>
<path d="M46.9744 20.4145H67.5207V16.3316H51.0836V12.2487H67.5207V8.16578H51.0836V4.08289H67.5207V0H46.9744V20.4145Z" fill="#004E7D"/>
<path d="M91 0H70.4536V4.08289H86.8907V8.16578H70.4536V20.4145H74.5629V12.2487H78.6722L85.6203 20.4145H91L84.0519 12.2487H91V0Z" fill="#004E7D"/>
<path d="M62.439 38.7874C63.1565 38.8001 63.8741 38.7689 64.5877 38.694C64.5192 39.3931 64.4878 40.0954 64.4936 40.7978V44.8184C64.4924 45.547 64.529 46.2751 64.6034 47H62.2979V46.1896H51.1934V46.9688H48.9663C48.9663 46.3455 49.076 45.5976 49.076 44.8184V40.6419C49.076 40.0186 49.076 39.3952 49.076 38.7095C49.4838 38.7095 50.2837 38.7095 51.1934 38.7095H54.0636C54.0636 38.3667 54.0636 38.3668 54.0636 37.9772H49.5779C48.8387 37.9647 48.0995 38.0063 47.3665 38.1018V36.1071C48.0993 36.2046 48.839 36.2411 49.5779 36.2162H64.3995C65.0028 36.2301 65.6061 36.1936 66.2032 36.1071V38.0863C65.4168 38.0015 64.6259 37.965 63.8349 37.9772H59.2708V38.7095L62.439 38.7874ZM55.1772 30.8087C55.629 30.8373 56.0826 30.8059 56.526 30.7152V32.0709C55.9457 32.0709 55.7418 32.0709 55.3184 32.0709H54.5341C55.1445 32.5853 55.8396 32.9912 56.5888 33.2709C56.2712 33.5192 56.005 33.8261 55.8046 34.1748C56.0918 34.1944 56.38 34.1944 56.6672 34.1748V35.811C56.1147 35.7567 55.5598 35.7308 55.0047 35.7331H49.5466H47.9781C48.0082 35.1361 48.0082 34.538 47.9781 33.941V28.7516C47.9781 27.9413 47.9781 27.4894 47.9781 26.7102C48.5525 26.7513 49.1291 26.7513 49.7034 26.7102H54.7537C55.4088 26.7122 56.0635 26.6759 56.7143 26.6012V28.3153C55.9144 28.3153 55.585 28.3153 55.0047 28.3153H52.7618C52.666 28.5074 52.5822 28.7052 52.5109 28.9075H54.8478C55.31 28.927 55.7728 28.8957 56.228 28.814V30.2165C55.7715 30.1464 55.3098 30.1151 54.8478 30.123H54.3146C54.2925 30.3639 54.2559 30.6033 54.2048 30.8399L55.1772 30.8087ZM51.3189 32.0086C50.9744 31.9803 50.6282 31.9803 50.2837 32.0086V30.6841C50.5395 30.7042 50.7965 30.7042 51.0522 30.6841C50.7821 30.3786 50.4579 30.125 50.0955 29.936C50.6639 29.4606 51.1011 28.8493 51.3659 28.1595H49.7975V33.9878H50.864C50.6521 33.6428 50.3814 33.3369 50.0641 33.0839C50.8713 32.9289 51.6013 32.5057 52.1345 31.8839L51.3189 32.0086ZM52.7305 30.8087C52.7305 30.6061 52.7305 30.5282 52.8089 30.0919H51.7894C51.6176 30.3562 51.412 30.5971 51.1777 30.8087H52.7461H52.7305ZM52.7305 42.5743C52.3396 42.0657 51.8682 41.6236 51.3346 41.2653C51.7605 41.2553 52.1787 41.1508 52.5587 40.9594C52.9387 40.7679 53.2706 40.4943 53.5304 40.1588H51.1464V42.5743H52.7305ZM51.162 43.9768V44.6158H62.2665V43.9768H51.162ZM55.1929 34.1124C54.504 33.7148 53.9015 33.1851 53.4206 32.554C52.9569 33.2183 52.3308 33.7546 51.6012 34.1124H55.1929ZM62.2665 42.5743V40.1588H60.6981C61.1569 40.4395 61.6609 40.6398 62.1881 40.751C61.9842 41.9353 61.6705 42.0912 59.6002 42.0912C57.8122 42.0912 57.3416 41.8731 57.3416 41.016V40.1588H55.6948C55.4897 40.7485 55.1399 41.2781 54.6771 41.6999C54.2144 42.1216 53.6531 42.4222 53.0441 42.5743H62.2665ZM57.3103 38.0551H55.9771C55.9964 38.2988 55.9964 38.5437 55.9771 38.7874H57.3573L57.3103 38.0551ZM59.7727 28.2841C59.7515 28.9011 59.4933 29.4866 59.0512 29.9204C58.7498 30.2162 58.3997 30.4587 58.016 30.6373H63.0193C63.4398 30.6569 63.8612 30.6255 64.2741 30.5438L65.2308 31.5723C65.0888 31.6905 64.9576 31.8208 64.8387 31.9619C64.2411 32.6571 63.5678 33.2841 62.8311 33.8319C63.9622 34.1712 65.1324 34.365 66.313 34.4085C65.9368 34.9371 65.6458 35.5207 65.4504 36.1383C63.9507 35.9412 62.4906 35.5154 61.1215 34.8761C60.0199 35.4284 58.8489 35.8319 57.6396 36.0759C57.4477 35.4953 57.1843 34.9405 56.8554 34.4241C57.7553 34.3196 58.6397 34.1104 59.4904 33.8008C58.8745 33.3087 58.3446 32.719 57.9219 32.0554C57.6142 32.0259 57.3043 32.0259 56.9966 32.0554V30.4971C57.1841 30.5201 57.3737 30.5201 57.5612 30.4971C57.3323 30.0017 57.0133 29.5526 56.6201 29.1724C57.1207 29.0629 57.572 28.7949 57.9063 28.4088C58.1721 28.0225 58.3192 27.5677 58.3298 27.0998C58.3298 26.8816 58.3298 26.7103 58.3298 26.5077C58.8048 26.5446 59.282 26.5446 59.757 26.5077H62.1724C62.637 26.5438 63.1037 26.5438 63.5683 26.5077C63.495 26.8718 63.4635 27.2429 63.4742 27.6141V28.44C63.4742 28.7517 63.4742 28.7672 64.0859 28.7672C64.6976 28.7672 64.8544 28.7673 64.9171 27.3648C65.4022 27.643 65.9333 27.833 66.4856 27.9258C66.4071 28.9699 66.2189 29.4841 65.8895 29.8114C65.5602 30.1387 65.1053 30.1698 63.5996 30.1698C62.0939 30.1698 61.8116 30.0296 61.8116 29.1257V28.175L59.7727 28.2841ZM59.2394 40.377C59.2394 40.751 59.3335 40.8289 59.9452 40.8289C60.5569 40.8289 60.604 40.751 60.651 40.1588H59.2394V40.377ZM59.7413 32.0242C60.1082 32.4538 60.5557 32.8084 61.0588 33.0683C61.6155 32.7734 62.141 32.4236 62.6272 32.0242H59.7413Z" fill="#004E7D"/>
<path d="M88.2866 39.9874C88.2866 41.0626 88.2866 41.3743 88.2866 41.9041C87.8474 41.9041 87.5495 41.9041 86.9691 41.9041C87.9634 43.0898 89.2049 44.047 90.6079 44.7092C90.1235 45.2997 89.7079 45.9427 89.3688 46.626C87.723 45.6695 86.2753 44.4108 85.1027 42.9171L86.4829 41.9041H84.0048V45.0208C84.0372 45.2792 84.0039 45.5415 83.908 45.7837C83.8121 46.026 83.6567 46.2406 83.4559 46.4078C82.8985 46.75 82.2383 46.8879 81.5894 46.7974C80.8209 46.7974 80.021 46.7974 79.1897 46.7039C79.1525 45.9497 78.9715 45.2094 78.6565 44.5222C79.4223 44.6622 80.1991 44.7351 80.9777 44.7403C81.6678 44.7403 81.7777 44.7404 81.7777 44.2105V41.8886H78.5153L79.9112 42.7145C78.9151 44.2441 77.6188 45.5585 76.0999 46.5792C75.6892 45.9947 75.1982 45.4702 74.6413 45.0208C75.9966 44.2943 77.1292 43.2174 77.9193 41.9041H77.6056C77.6376 41.2708 77.6376 40.6363 77.6056 40.003V37.868C77.1856 38.15 76.7511 38.4101 76.3038 38.6472C76.1815 38.2124 76.0188 37.7898 75.8176 37.3849C75.7412 39.2279 75.4141 41.0521 74.8452 42.808C74.4065 44.1877 73.7269 45.4801 72.8376 46.626C72.3596 45.9578 71.7894 45.3598 71.1437 44.8494C72.5848 43.0174 73.4129 40.7833 73.5121 38.4602C72.9004 38.8654 72.0691 39.3484 71.5829 39.6134C71.4363 39.6779 71.2992 39.7618 71.1751 39.8627L70.5164 37.5096C71.6235 37.1991 72.6799 36.732 73.6532 36.1227C73.6532 35.3747 73.6532 35.0474 73.6532 34.0344L72.0848 35.0941C71.7479 33.6597 71.2204 32.2763 70.5164 30.9801L72.0848 29.9671C72.7181 31.084 73.2432 32.258 73.6532 33.4734V32.6943C73.6532 32.3203 73.6532 31.1359 73.6532 30.3411C73.6946 29.4203 73.6579 28.4976 73.5434 27.5828C74.408 27.6755 75.2777 27.7119 76.147 27.6919H80.57V27.5361C80.5792 27.0972 80.5424 26.6584 80.4602 26.2271H83.0637C82.9935 26.6598 82.962 27.0979 82.9696 27.5361V27.6919H87.9886C88.8532 27.7178 89.7185 27.6762 90.5765 27.5673V29.7801C89.8 29.7037 89.0197 29.6725 88.2396 29.6866H83.5343C83.3618 30.2321 83.299 30.4658 83.1736 30.8086H88.0357C88.7641 30.8279 89.4929 30.7914 90.2158 30.6995V32.819C89.5195 32.7248 88.8165 32.6883 88.1141 32.7099H85.2752C85.7037 33.3554 86.2332 33.9288 86.8437 34.4084C87.4175 33.9512 87.9059 33.3974 88.2866 32.7722L89.9805 33.8786C89.4845 34.424 88.961 34.9441 88.4121 35.437C89.2158 35.896 90.0748 36.2521 90.9686 36.4967C90.5707 37.137 90.2646 37.8294 90.0589 38.5537C89.4367 38.3016 88.8339 38.0047 88.2552 37.6654L88.2866 39.9874ZM76.0686 32.8346C76.0686 34.1592 76.0686 35.1721 76.0686 36.4967C76.7159 36.1988 77.3264 35.8274 77.8879 35.3902C77.4211 34.8872 76.8944 34.4424 76.3195 34.0656L77.637 32.9281C78.1551 33.3393 78.6425 33.7872 79.0956 34.2682C79.5499 33.798 79.9449 33.2748 80.272 32.7099H78.484C77.8342 32.6916 77.184 32.7229 76.5391 32.8034V30.7307C77.2182 30.7705 77.899 30.7705 78.5781 30.7307H81.1816C81.3272 30.3652 81.4477 29.9904 81.5424 29.6088H76.0843L76.0686 32.8346ZM79.8014 37.6186H86.1692V36.6992H79.8014V37.6186ZM79.8014 40.1432H86.1692V39.1926H79.8014V40.1432ZM84.8675 34.9383C84.2542 34.2682 83.7274 33.5249 83.299 32.7255H82.4834C82.0867 33.5071 81.6139 34.2482 81.0719 34.9383H84.8675Z" fill="#004E7D"/>
</g>
<defs>
<clipPath id="clip0_43_1036">
<rect width="91" height="47" fill="white"/>
</clipPath>
</defs>
</svg>
